<svg width="16" height="16" fill="none" xmlns="http://www.w3.org/2000/svg">
    <path d="M 12.166667,2 C 13.1792,2 14,2.8208133 14,3.8333333 V 12.166667 C 14,13.1792 13.1792,14 12.166667,14 H 3.8333333 C 2.8208133,14 2,13.1792 2,12.166667 V 3.8333333 C 2,2.8208133 2.8208133,2 3.8333333,2 Z m 0,1 H 3.8333333 C 3.3730933,3 3,3.3730933 3,3.8333333 V 12.166667 C 3,12.626933 3.3730933,13 3.8333333,13 H 12.166667 C 12.626933,13 13,12.626933 13,12.166667 V 3.8333333 C 13,3.3730933 12.626933,3 12.166667,3 Z M 6.5012667,8.3333333 C 7.1456,8.3333333 7.6679333,8.8556667 7.6679333,9.5 v 1.333333 C 7.6679333,11.477667 7.1456,12 6.5012667,12 H 5.1679333 C 4.5236,12 4.0012667,11.477667 4.0012667,10.833333 V 9.5 c 0,-0.6443333 0.5223333,-1.1666667 1.1666666,-1.1666667 z m 4.3316663,0 c 0.644334,0 1.166667,0.5223334 1.166667,1.1666667 v 1.333333 C 11.9996,11.477667 11.477267,12 10.832933,12 H 9.4996 C 8.8552667,12 8.3329333,11.477667 8.3329333,10.833333 V 9.5 c 0,-0.6443333 0.5223334,-1.1666667 1.1666667,-1.1666667 z M 6.5012667,9.333333 H 5.1679333 c -0.092047,0 -0.1666666,0.0746 -0.1666666,0.166667 v 1.333333 C 5.0012667,10.9254 5.0758867,11 5.1679333,11 h 1.3333334 c 0.092047,0 0.1666666,-0.0746 0.1666666,-0.166667 V 9.5 c 0,-0.09207 -0.07462,-0.166667 -0.1666666,-0.166667 z m 4.3316663,0 H 9.4996 c -0.09207,0 -0.166667,0.0746 -0.166667,0.166667 v 1.333333 C 9.332933,10.9254 9.407533,11 9.4996,11 h 1.333333 c 0.092,0 0.166667,-0.0746 0.166667,-0.166667 V 9.5 c 0,-0.09207 -0.07467,-0.166667 -0.166667,-0.166667 z M 6.50042,4 C 7.1447333,4 7.6670667,4.5223333 7.6670667,5.1666667 V 6.5 c 0,0.6443333 -0.5223334,1.1666667 -1.1666467,1.1666667 H 5.1670867 C 4.5227533,7.6666667 4.00042,7.1443333 4.00042,6.5 V 5.1666667 C 4.00042,4.5223333 4.5227533,4 5.1670867,4 Z m 4.331647,0 c 0.644333,0 1.166666,0.5223333 1.166666,1.1666667 V 6.5 c 0,0.6443333 -0.522333,1.1666667 -1.166666,1.1666667 H 9.498733 C 8.8544,7.6666667 8.3320667,7.1443333 8.3320667,6.5 V 5.1666667 C 8.3320667,4.5223333 8.8544,4 9.498733,4 Z M 6.50042,5 H 5.1670867 C 5.07504,5 5.00042,5.07462 5.00042,5.1666667 V 6.5 c 0,0.092047 0.07462,0.1666667 0.1666667,0.1666667 H 6.50042 c 0.092047,0 0.1666467,-0.07462 0.1666467,-0.1666667 V 5.1666667 C 6.6670667,5.07462 6.5924667,5 6.50042,5 Z m 4.331647,0 H 9.498733 C 9.406663,5 9.332067,5.07462 9.332067,5.1666667 V 6.5 c 0,0.092047 0.0746,0.1666667 0.166666,0.1666667 h 1.333334 c 0.09207,0 0.166666,-0.07462 0.166666,-0.1666667 V 5.1666667 C 10.998733,5.07462 10.924133,5 10.832067,5 Z"
          fill="#808080"/>
</svg>