<svg width="16" height="16" fill="none" xmlns="http://www.w3.org/2000/svg">
    <path d="M13.8536 2.85355C14.0488 2.65829 14.0488 2.34171 13.8536 2.14645 13.6583 1.95118 13.3417 1.95118 13.1464 2.14645L10 5.29289V3.5C10 3.22386 9.77614 3 9.5 3 9.22386 3 9 3.22386 9 3.5V6.4C9 6.73137 9.26863 7 9.6 7H12.5C12.7761 7 13 6.77614 13 6.5 13 6.22386 12.7761 6 12.5 6H10.7071L13.8536 2.85355zM6.5 13C6.22386 13 6 12.7761 6 12.5V10.7071L2.85355 13.8536C2.65829 14.0488 2.34171 14.0488 2.14645 13.8536 1.95118 13.6583 1.95118 13.3417 2.14645 13.1464L5.29289 10H3.5C3.22386 10 3 9.77614 3 9.5 3 9.22386 3.22386 9 3.5 9H6.4C6.73137 9 7 9.26863 7 9.6V12.5C7 12.7761 6.77614 13 6.5 13z"
          fill="#808080"/>
</svg>