<svg width="16" height="16" fill="none" xmlns="http://www.w3.org/2000/svg">
    <path d="m 12.520189,1.4797799 c -0.195268,-0.1952621 -0.511872,-0.1952621 -0.707074,0 -0.195269,0.1952622 -0.195269,0.5118523 0,0.7071145 l 1.146413,1.1464592 H 8.8332825 c -1.0125445,0 -1.8333535,0.8208024 -1.8333535,1.8333269 l -1.334e-4,6.3313635 c 0,0.460271 -0.3730707,0.833342 -0.8333091,0.833342 H 5.305417 C 5.1458686,11.386509 4.3236729,10.666768 3.3333753,10.666768 c -1.1045922,0 -2.000042,0.895476 -2.000042,2.000022 0,1.104612 0.8954498,2.000089 2.000042,2.000089 0.8716096,0 1.6129977,-0.55754 1.8869741,-1.335482 h 0.9461371 c 1.0125111,0 1.8333201,-0.820809 1.8333201,-1.833287 L 7.99994,5.1666938 c 0,-0.4602384 0.3730707,-0.8333292 0.8333425,-0.8333292 h 4.1262455 l -1.146413,1.1464593 c -0.195269,0.1952622 -0.195269,0.5118523 0,0.7071145 0.195202,0.1952621 0.511806,0.1952621 0.707074,0 l 2.000022,-2.000022 c 0.195269,-0.1952622 0.195269,-0.5118523 0,-0.7071145 z M 2.3333443,12.66679 c 0,-0.552273 0.4477316,-1.000011 1.000031,-1.000011 0.5523061,0 1.000031,0.447738 1.000031,1.000011 0,0.552339 -0.4477249,1.000078 -1.000031,1.000078 -0.5522994,0 -1.000031,-0.447739 -1.000031,-1.000078 z"
          fill="#808080"/>
</svg>