<svg width="16" height="16" fill="none" xmlns="http://www.w3.org/2000/svg">
    <path d="M 2.6666667,3.6666663 C 2.6666667,2.3779997 3.7113334,1.333333 5,1.333333 c 1.2886667,0 2.3333334,1.0446667 2.3333334,2.3333333 0,1.0597067 -0.7064267,1.9544134 -1.6740467,2.2388934 0.4585733,1.5019066 1.85538,2.59444 3.50738,2.59444 h 0.220333 C 9.6159337,7.4515997 10.5496,6.6666663 11.666667,6.6666663 12.955334,6.6666663 14,7.711333 14,8.9999997 14,10.288666 12.955334,11.333333 11.666667,11.333333 10.5496,11.333333 9.6159337,10.5484 9.3869997,9.5 H 9.1666667 C 7.6793334,9.5 6.3545534,8.8041997 5.5,7.720333 v 2.333333 c 1.0483934,0.228934 1.8333334,1.1626 1.8333334,2.279667 0,1.288667 -1.0446667,2.333333 -2.3333334,2.333333 -1.2886666,0 -2.3333333,-1.044666 -2.3333333,-2.333333 0,-1.117067 0.78494,-2.050733 1.8333333,-2.279667 V 5.9463063 C 3.4516067,5.717413 2.6666667,4.7837063 2.6666667,3.6666663 Z M 5,2.333333 c -0.73638,0 -1.3333333,0.5969533 -1.3333333,1.3333333 0,0.73638 0.5969533,1.3333334 1.3333333,1.3333334 0.73638,0 1.3333334,-0.5969534 1.3333334,-1.3333334 C 6.3333334,2.9302863 5.73638,2.333333 5,2.333333 Z M 5,11 c -0.73638,0 -1.3333333,0.596933 -1.3333333,1.333333 0,0.7364 0.5969533,1.333333 1.3333333,1.333333 0.73638,0 1.3333334,-0.596933 1.3333334,-1.333333 C 6.3333334,11.596933 5.73638,11 5,11 Z m 5.333334,-2.0000003 c 0,0.7364003 0.596933,1.3333333 1.333333,1.3333333 C 12.403067,10.333333 13,9.7364 13,8.9999997 c 0,-0.7364 -0.596933,-1.3333334 -1.333333,-1.3333334 -0.7364,0 -1.333333,0.5969334 -1.333333,1.3333334 z"
          fill="#808080"/>
</svg>