<svg width="16" height="16" fill="none" xmlns="http://www.w3.org/2000/svg">
    <path d="m 4.6666667,4.6666666 c 0,-0.73638 0.5969533,-1.3333333 1.3333332,-1.3333333 h 3.9999998 c 0.7364003,0 1.3333333,0.5969533 1.3333333,1.3333333 v 0.6666666 c 0,0.73638 -0.596933,1.3333333 -1.3333333,1.3333333 H 5.9999999 c -0.7363799,0 -1.3333332,-0.5969533 -1.3333332,-1.3333333 z M 5.9999999,4.3333332 c -0.1840933,0 -0.3333333,0.14924 -0.3333333,0.3333334 v 0.6666666 c 0,0.1840933 0.14924,0.3333333 0.3333333,0.3333333 h 3.9999998 c 0.1840673,0 0.3333333,-0.14924 0.3333333,-0.3333333 V 4.6666666 c 0,-0.1840934 -0.149266,-0.3333334 -0.3333333,-0.3333334 z M 5.5,9.6666663 c 0.46024,0 0.8333333,-0.3730665 0.8333333,-0.8333332 C 6.3333333,8.3730665 5.96024,7.9999998 5.5,7.9999998 c -0.46024,0 -0.8333333,0.3730667 -0.8333333,0.8333333 0,0.4602667 0.3730933,0.8333332 0.8333333,0.8333332 z m 0.8333333,1.8333327 c 0,0.460267 -0.3730933,0.833334 -0.8333333,0.833334 -0.46024,0 -0.8333333,-0.373067 -0.8333333,-0.833334 0,-0.460266 0.3730933,-0.833333 0.8333333,-0.833333 0.46024,0 0.8333333,0.373067 0.8333333,0.833333 z M 10.5,9.6666663 c 0.460267,0 0.833333,-0.3730665 0.833333,-0.8333332 0,-0.4602666 -0.373066,-0.8333333 -0.833333,-0.8333333 -0.460267,0 -0.8333333,0.3730667 -0.8333333,0.8333333 0,0.4602667 0.3730663,0.8333332 0.8333333,0.8333332 z m 0.833333,1.8333327 c 0,0.460267 -0.373066,0.833334 -0.833333,0.833334 -0.460267,0 -0.8333333,-0.373067 -0.8333333,-0.833334 0,-0.460266 0.3730663,-0.833333 0.8333333,-0.833333 0.460267,0 0.833333,0.373067 0.833333,0.833333 z M 7.9999999,9.6666663 c 0.4602667,0 0.8333338,-0.3730665 0.8333338,-0.8333332 0,-0.4602666 -0.3730671,-0.8333333 -0.8333338,-0.8333333 -0.4602667,0 -0.8333333,0.3730667 -0.8333333,0.8333333 0,0.4602667 0.3730666,0.8333332 0.8333333,0.8333332 z m 0.8333338,1.8333327 c 0,0.460267 -0.3730671,0.833334 -0.8333338,0.833334 -0.4602667,0 -0.8333333,-0.373067 -0.8333333,-0.833334 0,-0.460266 0.3730666,-0.833333 0.8333333,-0.833333 0.4602667,0 0.8333338,0.373067 0.8333338,0.833333 z M 4.8333333,1.3333333 c -1.19662,0 -2.1666666,0.9700466 -2.1666666,2.1666666 v 8.9999991 c 0,1.1966 0.9700466,2.166667 2.1666666,2.166667 h 6.3333337 c 1.1966,0 2.166666,-0.970067 2.166666,-2.166667 V 3.4999999 c 0,-1.19662 -0.970066,-2.1666666 -2.166666,-2.1666666 z M 3.6666667,3.4999999 c 0,-0.6443333 0.5223333,-1.1666666 1.1666666,-1.1666666 h 6.3333337 c 0.644333,0 1.166666,0.5223333 1.166666,1.1666666 v 8.9999991 c 0,0.644334 -0.522333,1.166667 -1.166666,1.166667 H 4.8333333 c -0.6443333,0 -1.1666666,-0.522333 -1.1666666,-1.166667 z"
          fill="#808080"/>
</svg>