<svg width="16" height="16" fill="none" xmlns="http://www.w3.org/2000/svg">
    <path d="m 14.166663,5.0000001 c 0.253133,0 0.462333,0.1881 0.495467,0.4321533 l 0.0045,0.067847 v 5.6666666 c 0,1.155333 -0.904333,2.099467 -2.043733,2.163267 l -0.122901,0.0034 H 4.0406633 l 0.4795533,0.4798 c 0.1775133,0.177466 0.1936466,0.455266 0.048413,0.651 l -0.048413,0.05607 c -0.1775133,0.177534 -0.4552867,0.193667 -0.6510267,0.0484 l -0.05608,-0.0484 -1.3333333,-1.333333 -0.042267,-0.048 c -0.00163,-0.0021 -0.00325,-0.0043 -0.00485,-0.0064 l 0.047113,0.0544 c -0.0247,-0.02467 -0.04628,-0.05133 -0.064733,-0.0794 -0.00877,-0.01347 -0.017027,-0.02747 -0.0246,-0.04187 -0.00322,-0.0061 -0.00613,-0.01187 -0.00891,-0.01773 -0.00849,-0.01787 -0.016167,-0.03687 -0.022667,-0.05633 -0.00151,-0.0047 -0.00279,-0.0087 -0.00402,-0.01273 -0.013946,-0.04568 -0.021513,-0.09468 -0.021513,-0.145477 0,-0.0256 0.00192,-0.05073 0.00563,-0.07533 0.0012,-0.0077 0.00257,-0.01547 0.00413,-0.02327 0.0033,-0.01667 0.00741,-0.03287 0.0123,-0.04873 0.00241,-0.0077 0.0051,-0.0158 0.008,-0.0238 0.00565,-0.01553 0.01186,-0.0302 0.01872,-0.04453 0.00367,-0.0077 0.00787,-0.016 0.012307,-0.02413 0.00883,-0.016 0.018233,-0.03113 0.028393,-0.04573 0.00261,-0.0038 0.00555,-0.0079 0.00855,-0.01193 0.016747,-0.02213 0.032013,-0.03967 0.048413,-0.05607 l 1.3333333,-1.333333 c 0.19526,-0.195267 0.5118467,-0.195267 0.7071067,0 0.1775133,0.177467 0.1936466,0.455267 0.048413,0.651 l -0.048409,0.05605 -0.48022,0.4798 h 8.4599994 c 0.612134,0 1.114134,-0.4714 1.1628,-1.071 l 0.0039,-0.09567 V 5.5000001 c 0,-0.27614 0.223867,-0.5 0.5,-0.5 z m -2.035867,-3.5686333 0.05607,0.048413 1.333333,1.3333333 c 0.017,0.016967 0.03273,0.035147 0.04713,0.054393 l -0.04713,-0.054393 c 0.02473,0.0247 0.04633,0.051347 0.06473,0.07944 0.0088,0.013433 0.01707,0.027427 0.0246,0.041833 0.0033,0.00608 0.0061,0.0119 0.0089,0.017767 0.0085,0.01786 0.01613,0.036833 0.02267,0.05634 0.0015,0.00463 0.0028,0.00867 0.004,0.012733 0.01393,0.045653 0.02153,0.094667 0.02153,0.14544 0,0.025593 -0.0019,0.05074 -0.0056,0.0753 -10e-4,0.00637 -0.0021,0.012827 -0.0034,0.019273 -0.0034,0.018073 -0.0078,0.035607 -0.01307,0.052747 -0.0024,0.00777 -0.0051,0.015807 -0.008,0.02378 -0.0057,0.015533 -0.01187,0.030247 -0.01873,0.04458 -0.0037,0.00773 -0.0079,0.01596 -0.01227,0.024087 -0.0089,0.016013 -0.01827,0.03116 -0.0284,0.04574 -0.0026,0.00383 -0.0055,0.00792 -0.0086,0.011967 -0.0158,0.02096 -0.03007,0.03744 -0.04527,0.052927 l -0.0031,0.00315 -1.333333,1.3333333 c -0.195267,0.19526 -0.5118,0.19526 -0.707067,0 C 11.302263,4.6760401 11.28613,4.3982668 11.431396,4.2025268 l 0.0484,-0.05608 0.478867,-0.47978 H 3.4999966 c -0.6121133,0 -1.1141266,0.4714066 -1.1628,1.0709799 l -0.00387,0.095687 V 10.5 c 0,0.276134 -0.22386,0.5 -0.5,0.5 C 1.5801933,11 1.3709999,10.811867 1.3378933,10.567867 L 1.33333,10.5 V 4.8333334 c 0,-1.1553533 0.9043,-2.0994999 2.0437199,-2.1632399 l 0.1229467,-0.00343 H 11.95933 l -0.479534,-0.47978 c -0.177533,-0.17751 -0.193666,-0.4552833 -0.0484,-0.6510233 l 0.0484,-0.05608 c 0.177467,-0.1775134 0.455267,-0.1936467 0.651,-0.048413 z M 7.9999965,5.3333334 C 9.47273,5.3333334 10.666663,6.52724 10.666663,8 c 0,1.4727336 -1.193933,2.666667 -2.6666665,2.666667 -1.47276,0 -2.6666666,-1.1939334 -2.6666666,-2.666667 0,-1.47276 1.1939066,-2.6666666 2.6666666,-2.6666666 z m 0,1 c -0.9204666,0 -1.6666666,0.7462 -1.6666666,1.6666666 0,0.9204666 0.7462,1.6666666 1.6666666,1.6666666 0.9204666,0 1.6666665,-0.7462 1.6666665,-1.6666666 0,-0.9204666 -0.7461999,-1.6666666 -1.6666665,-1.6666666 z"
          fill="#808080"/>
</svg>