<svg width="16" height="16" fill="none" xmlns="http://www.w3.org/2000/svg">
    <path d="m 8.0939333,6.2276625 -6e-4,9.066e-4 L 4.9134467,1.5522625 C 4.7581667,1.3239091 4.44718,1.2646758 4.2188267,1.4199558 3.99048,1.5752358 3.9312467,1.8862225 4.08652,2.1145758 l 3.4205467,5.0301535 -1.5972134,2.4956 C 5.5386467,9.4443293 5.1156133,9.333396 4.6666667,9.333396 3.1939067,9.333396 2,10.527329 2,12.000063 c 0,1.4728 1.1939067,2.666666 2.6666667,2.666666 1.47276,0 2.6666666,-1.193866 2.6666666,-2.666666 0,-0.6608 -0.2403333,-1.265467 -0.6384,-1.731334 l 1.4237334,-2.2245997 1.3764,2.0241337 c -0.5103334,0.485733 -0.8284,1.171666 -0.8284,1.9318 0,1.4728 1.1939333,2.666666 2.6666663,2.666666 1.472734,0 2.666667,-1.193866 2.666667,-2.666666 0,-1.472734 -1.193933,-2.666667 -2.666667,-2.666667 -0.352666,0 -0.6894,0.068467 -0.997533,0.1928667 L 8.705,7.127996 8.7058667,7.1266627 Z M 3,12.000063 c 0,-0.920467 0.7461933,-1.666667 1.6666667,-1.666667 0.9204733,0 1.6666666,0.7462 1.6666666,1.666667 0,0.920466 -0.7461933,1.666666 -1.6666666,1.666666 C 3.7461933,13.666729 3,12.920529 3,12.000063 Z m 6.6666667,0 c 0,-0.920467 0.7462003,-1.666667 1.6666663,-1.666667 0.920467,0 1.666667,0.7462 1.666667,1.666667 0,0.920466 -0.7462,1.666666 -1.666667,1.666666 -0.920466,0 -1.6666663,-0.7462 -1.6666663,-1.666666 z"
          fill="#808080"/>
    <path d="M 9.2920667,6.2107091 11.921,2.1029158 c 0.148867,-0.2325867 0.081,-0.5418067 -0.1516,-0.69066 -0.232533,-0.1488533 -0.5418,-0.08098 -0.690667,0.1516067 l -2.3985997,3.74784 z"
          fill="#808080"/>
</svg>