<svg width="16" height="16" fill="none" xmlns="http://www.w3.org/2000/svg">
    <path d="m 2.6666,3.9999966 c 0,-0.4603667 0.2102,-0.86224 0.5161533,-1.1865 C 3.4862,2.49189 3.90194,2.2249633 4.37772,2.0116766 5.3304333,1.5845967 6.6115199,1.33333 7.9999332,1.33333 c 1.3883998,0 2.6694668,0.2512667 3.6221998,0.6783466 0.4758,0.2132867 0.891533,0.4802134 1.195,0.80182 0.305933,0.32426 0.516133,0.7261333 0.516133,1.1865 v 7.9999994 c 0,0.4604 -0.2102,0.862267 -0.516133,1.186534 -0.303467,0.3216 -0.7192,0.588533 -1.195,0.8018 -0.952733,0.427066 -2.2338,0.678333 -3.6221998,0.678333 -1.3884133,0 -2.6694999,-0.251267 -3.6222132,-0.678333 C 3.90194,13.775063 3.4862,13.50813 3.1827533,13.18653 2.8768,12.862263 2.6666,12.460396 2.6666,11.999996 Z m 1,0 c 0,0.13794 0.060293,0.30606 0.2435,0.5002267 0.1857133,0.1968333 0.4778,0.3967733 0.8766799,0.5755866 0.7966134,0.3571 1.93222,0.5908533 3.2131533,0.5908533 1.2809338,0 2.4165328,-0.2337533 3.2131328,-0.5908533 0.398867,-0.1788133 0.691,-0.3787533 0.876734,-0.5755866 0.1832,-0.1941667 0.243466,-0.3622867 0.243466,-0.5002267 0,-0.13794 -0.06027,-0.30606 -0.243466,-0.5002267 C 11.904066,3.3029366 11.611933,3.10299 11.213066,2.9241833 10.416466,2.5670833 9.280867,2.33333 7.9999332,2.33333 6.7189999,2.33333 5.5833933,2.5670833 4.7867799,2.9241833 4.3879,3.10299 4.0958133,3.3029366 3.9101,3.4997699 3.7268933,3.6939366 3.6666,3.8620566 3.6666,3.9999966 Z m 8.666666,1.5949466 c -0.213933,0.1469334 -0.453733,0.278 -0.711133,0.3933734 C 10.6694,6.4153965 9.388333,6.6666632 7.9999332,6.6666632 6.6115199,6.6666632 5.3304333,6.4153965 4.37772,5.9883166 4.1203533,5.8729432 3.88056,5.7418766 3.6666,5.5949432 v 6.4050528 c 0,0.137934 0.060293,0.306067 0.2435,0.5002 0.1857133,0.196867 0.4778,0.3968 0.8766799,0.5756 0.7966134,0.357134 1.93222,0.590867 3.2131533,0.590867 1.2809338,0 2.4165328,-0.233733 3.2131328,-0.590867 0.398867,-0.1788 0.691,-0.378733 0.876734,-0.5756 0.1832,-0.194133 0.243466,-0.362266 0.243466,-0.5002 z"
          fill="#808080"/>
</svg>