<svg width="16" height="16" fill="none" xmlns="http://www.w3.org/2000/svg">
    <path d="m 6.8333306,2.8333326 c 0.2761332,0 0.4999998,0.2238598 0.4999998,0.4999997 V 8.666663 h 5.3333306 c 0.253134,0 0.462333,0.1881333 0.495467,0.4321332 l 0.0045,0.067867 c 0,3.3137318 -2.686265,5.6666638 -5.9999972,5.6666638 -3.3136721,0 -5.9999641,-2.686265 -5.9999641,-5.9999974 0,-3.313705 2.3529589,-5.999997 5.6666639,-5.999997 z M 6.3333308,3.8579987 6.1940576,3.8738187 C 3.7345321,4.1876986 2.1666662,6.2884909 2.1666662,8.8333296 c 0,2.7613994 2.2385723,4.9999974 4.9999976,4.9999974 2.5448649,0 4.6456642,-1.567865 4.9595312,-4.0273983 l 0.01513,-0.139266 H 6.8333306 c -0.2531332,0 -0.4623264,-0.188133 -0.4954331,-0.4321333 l -0.00457,-0.067867 z m 2.4999988,-2.691332 c 3.3137324,0 5.9999974,2.686292 5.9999974,5.9999971 0,0.2761332 -0.223867,0.4999997 -0.5,0.4999997 H 8.8333296 c -0.2761332,0 -0.4999997,-0.2238665 -0.4999997,-0.4999997 V 1.6666665 c 0,-0.2761399 0.2238665,-0.4999998 0.4999997,-0.4999998 z M 9.3333294,2.1913329 V 6.666664 H 13.807994 L 13.792861,6.5273908 C 13.505661,4.2771852 11.722795,2.4943194 9.4725957,2.2071529 Z"
          fill="#808080"/>
</svg>