<svg width="16" height="16" fill="none" xmlns="http://www.w3.org/2000/svg">
    <path d="M10.27 2.00003C11.2932.973729 12.9551.972488 13.9799 1.99726 15.0025 3.01986 15.0037 4.67745 13.9826 5.70159L6.51355 13.1931C6.35611 13.351 6.16545 13.4718 5.95543 13.5467L1.9865 14.963C1.38981 15.1759.81426 14.5989 1.02872 14.0028L2.45413 10.0404C2.52865 9.83322 2.64788 9.645 2.80333 9.48908L10.27 2.00003zM13.2728 2.70437C12.6389 2.07053 11.611 2.0713 10.9782 2.70608L10.1969 3.48969 12.4898 5.78258 13.2745 4.99554C13.906 4.3621 13.9053 3.33686 13.2728 2.70437zM11.7837 6.49075L9.49085 4.19785 3.51149 10.1951C3.45968 10.2471 3.41993 10.3098 3.39509 10.3789L2.1488 13.8433 5.61935 12.6049C5.68935 12.5799 5.75291 12.5396 5.80539 12.487L11.7837 6.49075zM8.85793 1.99994H1.50008C1.22394 1.99994 1.00008 2.2238 1.00008 2.49994 1.00008 2.77608 1.22394 2.99994 1.50008 2.99994H7.86091L8.85793 1.99994zM6.8639 3.99994H1.50008C1.22394 3.99994 1.00008 4.2238 1.00008 4.49994 1.00008 4.77608 1.22394 4.99994 1.50008 4.99994H5.86689L6.8639 3.99994zM4.86988 5.99994H1.50008C1.22394 5.99994 1.00008 6.2238 1.00008 6.49994 1.00008 6.77608 1.22394 6.99994 1.50008 6.99994H3.87287L4.86988 5.99994z"
          fill="#808080"/>
</svg>