<svg width="16" height="16" fill="none" xmlns="http://www.w3.org/2000/svg">
    <path d="m 9.905163,8.1054403 c 0.373205,0.3822712 0.584407,0.8453433 0.737409,1.485751 l 0.06627,0.30407 0.119402,0.6309407 c 0.0594,0.296537 0.105268,0.461205 0.169535,0.60514 0.200402,0.449206 0.55334,0.909544 1.063613,1.377283 0.203602,0.186602 0.217336,0.502939 0.03073,0.706475 -0.186602,0.203536 -0.502939,0.217269 -0.706475,0.03067 -0.60494,-0.55454 -1.040212,-1.12228 -1.301082,-1.706887 C 9.985295,11.316481 9.924897,11.105212 9.853563,10.752274 L 9.713294,10.018532 9.704794,9.978402 C 9.584426,9.4123223 9.435491,9.0558515 9.189621,8.8040485 8.7144826,8.3174428 7.6184697,8.4460443 7.3251995,8.9098498 6.9506618,9.5020563 6.8551273,10.507135 7.1525308,11.52028 c 0.2297361,0.782743 0.534673,1.553018 0.9148775,2.311161 0.1238681,0.246803 0.024134,0.547273 -0.222736,0.671074 C 7.5978694,14.626317 7.2973992,14.526582 7.1735978,14.279779 6.7667263,13.468703 6.4397891,12.642627 6.1929862,11.80195 5.8186551,10.526735 5.9423699,9.2254533 6.4800229,8.3753101 7.1153971,7.3706317 8.9746856,7.1524958 9.905163,8.1054403 Z m -1.5771517,1.543552 c 0.2760033,-0.0091 0.507206,0.207135 0.5163395,0.4831387 0.034334,1.031478 0.3698042,2.028623 0.9627442,2.869433 l 0.131002,0.177736 0.200136,0.260003 c 0.168402,0.218802 0.127534,0.532806 -0.09127,0.701208 -0.198936,0.153135 -0.476472,0.133268 -0.651874,-0.036 L 9.345759,14.049241 9.145623,13.789238 C 8.3435449,12.747095 7.8886062,11.47968 7.8448723,10.165331 7.8357389,9.8893283 8.0520081,9.6581923 8.3280113,9.6489923 Z M 5.8551222,6.2605519 C 7.2629988,5.218133 9.104687,5.274707 10.343502,6.0709964 c 0.61994,0.398498 1.089479,0.8631634 1.401616,1.3955697 0.139669,0.2382695 0.05973,0.5446064 -0.178469,0.6842747 C 11.328447,8.2904425 11.02211,8.2105749 10.882441,7.9723721 10.654639,7.5838342 10.297101,7.2298967 9.802829,6.9122263 8.8944847,6.3283527 7.5018683,6.2855722 6.4501826,7.064228 5.357783,7.8730376 4.897871,9.2584543 5.0348326,10.718871 c 0.076708,0.817943 0.3231905,1.644819 0.7421421,2.482562 0.1235147,0.247003 0.02342,0.54734 -0.2235627,0.670875 -0.2469829,0.123535 -0.5473331,0.0234 -0.6708479,-0.223536 C 4.4098386,12.703427 4.1278219,11.75735 4.0391875,10.812205 3.8723056,9.0327179 4.446339,7.3036309 5.8551222,6.2605519 Z M 11.975054,9.127919 c 0.275737,-0.014133 0.510806,0.1978693 0.525006,0.4736723 0.02067,0.4020707 0.120069,0.7308087 0.294271,0.9952777 0.146335,0.22207 0.276403,0.350338 0.375671,0.399805 l 0.0406,0.0164 c 0.264337,0.07993 0.413805,0.359004 0.333937,0.623341 -0.07993,0.264336 -0.359004,0.413805 -0.62334,0.33387 -0.364338,-0.110134 -0.677742,-0.392004 -0.961878,-0.823209 -0.27707,-0.420538 -0.428472,-0.921544 -0.457939,-1.4940837 -0.0142,-0.275804 0.197869,-0.5108731 0.473672,-0.5250733 z M 7.0068625,4.0682528 C 7.1201971,4.3200691 7.0079291,4.6160859 6.7561262,4.7294206 5.5293451,5.2815937 4.6266544,6.068463 4.0336608,7.0952284 3.2914921,8.3803102 3.091303,9.8825283 3.2574583,11.148676 3.2933921,11.422479 3.1005631,11.673549 2.8267666,11.709482 2.55297,11.745416 2.3018804,11.552547 2.2659467,11.278744 2.0734111,9.8116603 2.3023871,8.0933735 3.1676906,6.5951092 3.8689122,5.3809416 4.9330514,4.453344 6.3457013,3.8175232 6.5975176,3.7041818 6.8935278,3.8164365 7.0068625,4.0682528 Z m 1.562485,-0.5247329 c 1.2199475,0.025 2.4342955,0.5855803 3.6391765,1.6575929 1.215281,1.081286 1.947623,2.5511233 2.196226,4.3868785 0.03707,0.273603 -0.154736,0.5254727 -0.428339,0.5625397 -0.27367,0.03707 -0.525539,-0.1547347 -0.562606,-0.4284047 C 13.196069,8.1144404 12.572995,6.863959 11.543783,5.9482149 10.50417,5.0232107 9.507159,4.5629586 8.5488806,4.5433184 8.272744,4.537665 8.0535414,4.3092623 8.0592082,4.0331724 8.0648749,3.7570891 8.2932776,3.5378599 8.5693475,3.5435199 Z m -4.5810472,0.0096 C 4.1719624,3.7593358 4.1536755,4.0753929 3.9474598,4.259055 3.7687043,4.4182569 3.5811355,4.6082858 3.3852798,4.8290684 3.201051,5.0367442 3.0123221,5.3063274 2.8210599,5.6374646 2.6829449,5.8765941 2.3771346,5.958475 2.1380118,5.8203601 1.8988823,5.6822451 1.8170014,5.3764282 1.9551163,5.1373054 2.178099,4.7512475 2.4048016,4.427417 2.6371977,4.1654473 2.857967,3.9165843 3.0728428,3.6988818 3.2823653,3.5122796 3.488581,3.3286174 3.8046381,3.3469043 3.9883003,3.5531199 Z M 8.3787453,1.57581 c 1.4617507,0.068474 2.6861647,0.4681388 3.6865097,1.2406279 0.218536,0.1687754 0.258937,0.4827791 0.09014,0.7013483 -0.168736,0.2185626 -0.482739,0.258923 -0.701342,0.090148 C 10.623838,2.9668398 9.597026,2.6339892 8.3319447,2.5747285 7.0631298,2.5152945 6.0241576,2.7641174 5.1888077,3.2274229 4.9328314,3.3693979 4.645588,3.2983504 4.5010663,3.0630409 4.3565446,2.8277382 4.4214987,2.5187945 4.6654482,2.3752995 5.6892736,1.7730658 6.9205948,1.5075093 8.3787453,1.57581 Z"
          fill="#808080"/>
</svg>