<svg width="16" height="16" fill="none" xmlns="http://www.w3.org/2000/svg">
    <path d="m 6.3536102,9.6465606 c 0.1952622,0.195269 0.1952622,0.5118054 0,0.7070744 l -1.0000111,1.000011 c -0.1952622,0.195269 -0.5118524,0.195269 -0.7071146,0 -0.1952622,-0.195268 -0.1952622,-0.511805 0,-0.707074 L 5.6464957,9.6465606 c 0.1952621,-0.195269 0.5118523,-0.195269 0.7071145,0 z M 2.1869037,1.4797892 C 1.9916415,1.2845203 1.6750513,1.2845136 1.4797892,1.4797758 1.2845203,1.675038 1.2845136,1.9916282 1.4797758,2.1868904 L 5.499894,6.2070886 V 7.1262655 L 2.0200752,10.606105 c -0.5857932,0.585806 -0.5857932,1.53555 0,2.121357 l 1.2524673,1.25248 c 0.5857932,0.58574 1.5355505,0.58574 2.1213437,0 L 8.873685,10.500104 h 0.9191436 l 4.0202454,4.020378 c 0.195269,0.195269 0.511872,0.195269 0.707141,0 0.195269,-0.195269 0.195269,-0.511873 0,-0.707141 z m 3.8129959,6.5606865 1.9595752,1.9596223 -3.2727032,3.272703 c -0.1952622,0.195269 -0.5118457,0.195269 -0.7071145,0 l -1.2524674,-1.25248 c -0.1952621,-0.195269 -0.1952621,-0.511806 0,-0.707075 z m 5.8964194,1.3561489 1.043012,-1.0430121 c 0.195269,-0.1952688 0.195269,-0.5118057 0,-0.7070745 L 8.3534792,3.0606735 c -0.1952688,-0.1952689 -0.5118724,-0.1952689 -0.7071412,0 L 6.6034197,4.1036184 5.8963118,3.3964972 6.9392634,2.3535589 c 0.5858066,-0.5857932 1.5355505,-0.5857932 2.121357,0 l 4.5857846,4.5858379 c 0.585807,0.5858065 0.585807,1.5355504 0,2.121357 l -1.043011,1.0430122 z"
          fill="#808080"/>
</svg>