<svg width="16" height="16" fill="none" xmlns="http://www.w3.org/2000/svg">
    <path d="M5.6666667 2.5c0-.27614-.22386-.5-.5-.5-.27614 0-.5.22386-.5.5v1.6666667c0 .27614-.22386.5-.5.5H2.5c-.27614 0-.5.22386-.5.5 0 .27614.22386.5.5.5h1.6666667c.8284266 0 1.5-.6715734 1.5-1.5zM5.6666667 13.5c0 .276133-.22386.5-.5.5-.27614 0-.5-.223867-.5-.5v-1.666667c0-.276133-.22386-.5-.5-.5H2.5c-.27614 0-.5-.223866-.5-.5 0-.276133.22386-.5.5-.5h1.6666667c.8284266 0 1.5.6716 1.5 1.5zM10.833333 2c-.276133 0-.5.22386-.5.5v1.6666667c0 .8284266.6716 1.5 1.5 1.5H13.5c.276133 0 .5-.22386.5-.5 0-.27614-.223867-.5-.5-.5h-1.666667c-.276133 0-.5-.22386-.5-.5V2.5c0-.27614-.223866-.5-.5-.5zM10.333333 13.5c0 .276133.223867.5.5.5.276134 0 .5-.223867.5-.5v-1.666667c0-.276133.223867-.5.5-.5H13.5c.276133 0 .5-.223866.5-.5 0-.276133-.223867-.5-.5-.5h-1.666667c-.8284 0-1.5.6716-1.5 1.5z"
          fill="#808080"/>
</svg>