<svg width="16" height="16" fill="none" xmlns="http://www.w3.org/2000/svg">
    <path d="M4.76779 2.92224L4.76885 2.92158 4.77855 2.91561C4.78792 2.90989 4.80302 2.9008 4.82356 2.88881 4.86466 2.86481 4.92741 2.82927 5.00944 2.786 5.17373 2.69934 5.414 2.5824 5.71144 2.46518 6.30989 2.22934 7.12055 2 7.99999 2 8.87944 2 9.6901 2.22934 10.2885 2.46518 10.586 2.5824 10.8263 2.69934 10.9905 2.786 11.0726 2.82927 11.1353 2.86481 11.1764 2.88881 11.197 2.9008 11.2121 2.90989 11.2214 2.91561L11.2311 2.92158 11.232 2.92211C11.465 3.06955 11.7742 3.0009 11.9221 2.768 12.0701 2.53488 12.0011 2.22591 11.768 2.07789L11.7668 2.07713 11.765 2.076 11.7597 2.07268 11.7422 2.06193C11.7276 2.053 11.707 2.04061 11.6807 2.02526 11.6281 1.99457 11.5528 1.95198 11.4571 1.9015 11.2659 1.80066 10.9921 1.6676 10.6552 1.53482 9.98488 1.27066 9.04554 1 7.99999 1 6.95444 1 6.0151 1.27066 5.3448 1.53482 5.00786 1.6676 4.73407 1.80066 4.54289 1.9015 4.44719 1.95198 4.37185 1.99457 4.3193 2.02526 4.29301 2.04061 4.27239 2.053 4.25775 2.06193L4.24029 2.07268 4.23498 2.076 4.23319 2.07713 4.23223 2.07774C3.99911 2.22575 3.92987 2.53488 4.07789 2.768 4.22586 3.00106 4.53469 3.07008 4.76779 2.92224zM4 4C2.89543 4 2 4.89543 2 6V10C2 11.1046 2.89543 12 4 12H8.5C9.60457 12 10.5 11.1046 10.5 10V9.86158L13.252 11.4341C13.4067 11.5226 13.5968 11.5219 13.751 11.4325 13.9051 11.343 14 11.1782 14 11V5C14 4.82176 13.9051 4.65701 13.751 4.56754 13.5968 4.47808 13.4067 4.47745 13.252 4.56588L10.5 6.13842V6C10.5 4.89543 9.60457 4 8.5 4H4zM10.5 7.29017L13 5.86159V10.1384L10.5 8.70983V7.29017zM3 6C3 5.44772 3.44772 5 4 5H8.5C9.05228 5 9.5 5.44772 9.5 6V10C9.5 10.5523 9.05228 11 8.5 11H4C3.44772 11 3 10.5523 3 10V6zM4.76885 13.0785L4.76779 13.0778C4.53469 12.93 4.22586 12.999 4.07789 13.2321 3.92987 13.4652 3.99911 13.7743 4.23223 13.9223L4.23319 13.9229 4.23498 13.9241 4.24029 13.9274 4.25775 13.9381C4.27239 13.9471 4.29301 13.9595 4.3193 13.9748 4.37185 14.0055 4.44719 14.0481 4.54289 14.0986 4.73407 14.1994 5.00786 14.3325 5.3448 14.4652 6.0151 14.7294 6.95444 15.0001 7.99999 15.0001 9.04554 15.0001 9.98488 14.7294 10.6552 14.4652 10.9921 14.3325 11.2659 14.1994 11.4571 14.0986 11.5528 14.0481 11.6281 14.0055 11.6807 13.9748 11.707 13.9595 11.7276 13.9471 11.7422 13.9381L11.7597 13.9274 11.765 13.9241 11.7668 13.9229 11.768 13.9222C12.0011 13.7742 12.0701 13.4652 11.9221 13.2321 11.7742 12.9992 11.465 12.9305 11.232 13.078L11.2311 13.0785 11.2214 13.0845C11.2121 13.0902 11.197 13.0993 11.1764 13.1113 11.1353 13.1353 11.0726 13.1708 10.9905 13.2141 10.8263 13.3007 10.586 13.4177 10.2885 13.5349 9.6901 13.7707 8.87944 14.0001 7.99999 14.0001 7.12055 14.0001 6.30989 13.7707 5.71144 13.5349 5.414 13.4177 5.17373 13.3007 5.00944 13.2141 4.92741 13.1708 4.86466 13.1353 4.82356 13.1113 4.80302 13.0993 4.78792 13.0902 4.77855 13.0845L4.76885 13.0785z"
          fill="#808080"/>
</svg>