<svg xmlns="http://www.w3.org/2000/svg" width="16" height="16">
    <path d="M 12.460938 10.035156 C 12.378906 9.949219 12.25 9.867188 12.121094 9.90625 C 11.863281 9.90625 11.652344 10.121094 11.652344 10.378906 C 11.652344 10.503906 11.738281 10.632812 11.820312 10.71875 L 12.378906 11.273438 C 11.78125 11.1875 11.222656 10.976562 10.753906 10.589844 C 10.710938 10.589844 10.710938 10.546875 10.667969 10.503906 L 5.628906 5.210938 C 4.777344 4.269531 3.75 3.757812 2.511719 3.757812 C 2.257812 3.757812 2.042969 3.972656 2.042969 4.226562 C 2.042969 4.484375 2.257812 4.65625 2.511719 4.65625 C 3.496094 4.65625 4.304688 5.082031 4.945312 5.808594 L 10.070312 11.144531 L 10.15625 11.230469 C 10.796875 11.746094 11.609375 12.085938 12.460938 12.171875 L 11.820312 12.769531 C 11.695312 12.855469 11.609375 13.027344 11.609375 13.152344 C 11.609375 13.410156 11.863281 13.625 12.121094 13.582031 C 12.25 13.582031 12.378906 13.496094 12.460938 13.410156 L 13.785156 12.171875 C 14 11.957031 14 11.617188 13.785156 11.402344 Z M 12.421875 2.605469 C 12.25 2.390625 11.992188 2.347656 11.78125 2.519531 C 11.652344 2.605469 11.609375 2.734375 11.609375 2.863281 C 11.609375 3.03125 11.652344 3.160156 11.820312 3.246094 L 12.378906 3.800781 C 11.394531 3.929688 10.5 4.3125 9.816406 4.996094 L 8.277344 6.578125 C 8.105469 6.746094 8.105469 7.003906 8.277344 7.175781 C 8.363281 7.261719 8.492188 7.304688 8.621094 7.304688 C 8.746094 7.304688 8.875 7.261719 8.960938 7.175781 L 10.457031 5.59375 C 11.011719 5.082031 11.695312 4.742188 12.421875 4.65625 L 11.820312 5.253906 C 11.738281 5.339844 11.652344 5.464844 11.652344 5.59375 C 11.652344 5.851562 11.863281 6.066406 12.078125 6.066406 C 12.207031 6.066406 12.335938 6.023438 12.460938 5.9375 L 13.871094 4.570312 C 14.042969 4.398438 14.042969 4.101562 13.871094 3.929688 L 12.421875 2.605469 M 6.570312 8.585938 C 6.441406 8.585938 6.3125 8.625 6.226562 8.710938 L 4.648438 10.335938 C 4.007812 10.933594 3.367188 11.230469 2.511719 11.230469 L 2.46875 11.230469 C 2.214844 11.230469 2 11.445312 2 11.703125 C 2 11.957031 2.214844 12.128906 2.46875 12.128906 L 2.511719 12.128906 C 3.621094 12.128906 4.476562 11.703125 5.332031 10.976562 L 6.953125 9.308594 C 7.039062 9.226562 7.082031 9.140625 7.082031 9.011719 C 7.082031 8.882812 7.039062 8.796875 6.953125 8.710938 C 6.824219 8.625 6.699219 8.585938 6.570312 8.585938 Z M 6.570312 8.585938"
          fill="#808080"/>
</svg>