<svg width="16" height="16" fill="none" xmlns="http://www.w3.org/2000/svg">
    <path d="M 5.3333333,4 H 4 v 1.3333333 h 1.3333333 z" fill="#808080"/>
    <path d="M2 3.5C2 2.6715733 2.6715733 2 3.5 2h2.3333333c.8284267 0 1.5.6715733 1.5 1.5v2.3333333c0 .8284267-.6715733 1.5-1.5 1.5H3.5c-.8284267 0-1.5-.6715733-1.5-1.5zM3.5 3C3.22386 3 3 3.22386 3 3.5v2.3333333c0 .27614.22386.5.5.5h2.3333333c.27614 0 .5-.22386.5-.5V3.5c0-.27614-.22386-.5-.5-.5zM4 10.666667H5.3333333V12H4z"
          fill="#808080"/>
    <path d="M2 10.166667C2 9.338267 2.6715733 8.6666667 3.5 8.6666667h2.3333333c.8284267 0 1.5.6716003 1.5 1.5000003V12.5c0 .8284-.6715733 1.5-1.5 1.5H3.5C2.6715733 14 2 13.3284 2 12.5zm1.5-.5c-.27614 0-.5.223866-.5.5V12.5C3 12.776133 3.22386 13 3.5 13h2.3333333c.27614 0 .5-.223867.5-.5v-2.333333c0-.276134-.22386-.5-.5-.5zM12 4H10.666667V5.3333333H12z"
          fill="#808080"/>
    <path d="M10.166667 2C9.338267 2 8.6666667 2.6715733 8.6666667 3.5v2.3333333c0 .8284267.6716003 1.5 1.5000003 1.5H12.5c.8284 0 1.5-.6715733 1.5-1.5V3.5C14 2.6715733 13.3284 2 12.5 2zm-.5 1.5c0-.27614.223866-.5.5-.5H12.5C12.776133 3 13 3.22386 13 3.5v2.3333333c0 .27614-.223867.5-.5.5h-2.333333c-.276134 0-.5-.22386-.5-.5zM8.6666667 8.6666667H10.5V10.5H8.6666667zM12.166667 10.5H10.5v1.666667H8.6666667V14H10.5v-1.833333h1.666667V14H14v-1.833333h-1.833333zM12.166667 10.5V8.6666667H14V10.5z"
          fill="#808080"/>
</svg>