<?xml version="1.0" encoding="UTF-8" standalone="no"?>
<svg
        xmlns:inkscape="http://www.inkscape.org/namespaces/inkscape"
        xmlns:sodipodi="http://sodipodi.sourceforge.net/DTD/sodipodi-0.dtd"
        width="16"
        height="16"
        viewBox="0 0 16 16"
        fill="none"
        version="1.1"
        id="svg4"
        sodipodi:docname="ic_fluent_timeline_24_regular.svg"
        inkscape:version="1.1 (c4e8f9ed74, 2021-05-24)"
        xmlns="http://www.w3.org/2000/svg"
>
    <defs
            id="defs8"/>
    <sodipodi:namedview
            id="namedview6"
            pagecolor="#505050"
            bordercolor="#ffffff"
            borderopacity="1"
            inkscape:pageshadow="0"
            inkscape:pageopacity="0"
            inkscape:pagecheckerboard="1"
            showgrid="false"
            inkscape:zoom="35.166667"
            inkscape:cx="11.985782"
            inkscape:cy="12"
            inkscape:window-width="1920"
            inkscape:window-height="1044"
            inkscape:window-x="0"
            inkscape:window-y="36"
            inkscape:window-maximized="1"
            inkscape:current-layer="svg4"/>
    <path
            d="m 10.166253,8.6666667 c 0.644334,0 1.166667,0.5223333 1.166667,1.1666663 v 3 C 11.33292,13.477667 10.810587,14 10.166253,14 H 2.4995933 C 1.85526,14 1.3329267,13.477667 1.3329267,12.833333 v -3 c 0,-0.644333 0.5223333,-1.1666663 1.1666666,-1.1666663 z m 3.833534,1.2659333 -2e-4,3.5674 c 0,0.276133 -0.223867,0.5 -0.5,0.5 -0.253134,0 -0.462334,-0.188133 -0.4954,-0.432133 L 12.999587,13.5 12.99932,9.941133 C 13.154187,9.9796 13.316187,10 13.48292,10 c 0.178733,0 0.352,-0.02347 0.516867,-0.0674 z M 10.166253,9.666667 H 2.4995933 c -0.092053,0 -0.1666666,0.0746 -0.1666666,0.166666 v 3 C 2.3329267,12.9254 2.40754,13 2.4995933,13 h 7.6666597 c 0.09207,0 0.166667,-0.0746 0.166667,-0.166667 v -3 c 0,-0.09207 -0.0746,-0.166666 -0.166667,-0.166666 z m 3.3332,-2.9387337 c 0.702534,0 1.272067,0.5695334 1.272067,1.2720667 0,0.7025333 -0.569533,1.272067 -1.272067,1.272067 -0.702533,0 -1.272066,-0.5695337 -1.272066,-1.272067 0,-0.7025333 0.569533,-1.2720667 1.272066,-1.2720667 z M 10.16332,2 c 0.644333,0 1.166667,0.5223333 1.166667,1.1666667 v 3 c 0,0.6443333 -0.522334,1.1666666 -1.166667,1.1666666 H 2.4966667 C 1.8523333,7.3333333 1.33,6.811 1.33,6.1666667 v -3 c 0,-0.6121134 0.4714067,-1.1141267 1.07098,-1.1628 L 2.4966667,2 Z m 0,1 H 2.4966667 l -0.03822,0.0044 C 2.38482,3.0216733 2.33,3.0877667 2.33,3.1666667 v 3 c 0,0.092047 0.07462,0.1666666 0.1666667,0.1666666 H 10.16332 c 0.09207,0 0.166667,-0.07462 0.166667,-0.1666666 v -3 C 10.329987,3.07462 10.255387,3 10.16332,3 Z m 3.336267,-1 c 0.253133,0 0.462333,0.1881 0.495466,0.4321533 l 0.0045,0.067847 2e-4,3.56742 C 13.83492,6.02344 13.661653,6 13.48292,6 13.316187,6 13.154187,6.0204067 12.99932,6.05886 L 12.999587,2.5 c 0,-0.27614 0.223866,-0.5 0.5,-0.5 z"
            fill="#808080"
            id="path2"
            style="stroke-width:0.666667"/>
</svg>
