<?xml version="1.0" encoding="UTF-8"?>
<svg xmlns="http://www.w3.org/2000/svg" xmlns:xlink="http://www.w3.org/1999/xlink" width="16px" height="16px" viewBox="0 0 16 16" version="1.1">
<g id="surface1">
<path style=" stroke:none;fill-rule:nonzero;fill:rgb(86.666667%,86.666667%,86.666667%);fill-opacity:1;" d="M 8 1 C 6.757812 1 5.75 2.007812 5.75 3.25 C 5.75 3.4375 5.773438 3.621094 5.816406 3.792969 L 3.976562 3.097656 C 3.175781 2.796875 2.28125 3.171875 1.9375 3.957031 C 1.578125 4.777344 1.960938 5.734375 2.789062 6.082031 L 5 7.003906 L 5 9.394531 L 3.839844 12.875 C 3.574219 13.675781 3.972656 14.542969 4.75 14.867188 C 5.589844 15.214844 6.554688 14.796875 6.871094 13.941406 L 7.992188 10.914062 L 9.117188 13.9375 C 9.445312 14.820312 10.457031 15.230469 11.308594 14.828125 C 12.039062 14.484375 12.398438 13.644531 12.144531 12.875 L 11 9.398438 L 11 7 L 13.183594 6.09375 C 13.960938 5.773438 14.359375 4.90625 14.097656 4.105469 C 13.8125 3.230469 12.855469 2.773438 11.996094 3.097656 L 10.1875 3.785156 C 10.226562 3.613281 10.25 3.433594 10.25 3.25 C 10.25 2.007812 9.242188 1 8 1 Z M 6.75 3.25 C 6.75 2.558594 7.308594 2 8 2 C 8.691406 2 9.25 2.558594 9.25 3.25 C 9.25 3.941406 8.691406 4.5 8 4.5 C 7.308594 4.5 6.75 3.941406 6.75 3.25 Z M 12.347656 4.035156 C 12.675781 3.910156 13.039062 4.085938 13.148438 4.414062 C 13.246094 4.71875 13.097656 5.050781 12.800781 5.171875 L 10.308594 6.207031 C 10.121094 6.28125 10 6.464844 10 6.667969 L 10 9.476562 C 10 9.53125 10.007812 9.582031 10.023438 9.632812 L 11.195312 13.1875 C 11.292969 13.480469 11.15625 13.796875 10.878906 13.925781 C 10.558594 14.078125 10.179688 13.921875 10.054688 13.589844 L 8.863281 10.386719 C 8.5625 9.578125 7.421875 9.578125 7.121094 10.386719 L 5.933594 13.59375 C 5.8125 13.914062 5.449219 14.074219 5.132812 13.941406 C 4.839844 13.820312 4.691406 13.492188 4.789062 13.191406 L 5.972656 9.636719 C 5.992188 9.585938 6 9.53125 6 9.476562 L 6 6.671875 C 6 6.46875 5.878906 6.289062 5.691406 6.210938 L 3.175781 5.15625 C 2.863281 5.027344 2.71875 4.667969 2.855469 4.355469 C 2.984375 4.0625 3.320312 3.917969 3.625 4.035156 L 7.195312 5.386719 C 7.707031 5.578125 8.273438 5.578125 8.789062 5.386719 Z M 12.347656 4.035156 "/>
</g>
</svg>
