<svg xmlns="http://www.w3.org/2000/svg" width="16" height="16"><path d="M 7.910156 3.007812 L 8 3 C 8.246094 3 8.449219 3.175781 8.492188 3.410156 L 8.5 3.5 L 8.5 7.5 L 12.5 7.5 C 12.746094 7.5 12.949219 7.675781 12.992188 7.910156 L 13 8 C 13 8.246094 12.824219 8.449219 12.589844 8.492188 L 12.5 8.5 L 8.5 8.5 L 8.5 12.5 C 8.5 12.746094 8.324219 12.949219 8.089844 12.992188 L 8 13 C 7.753906 13 7.550781 12.824219 7.507812 12.589844 L 7.5 12.5 L 7.5 8.5 L 3.5 8.5 C 3.253906 8.5 3.050781 8.324219 3.007812 8.089844 L 3 8 C 3 7.753906 3.175781 7.550781 3.410156 7.507812 L 3.5 7.5 L 7.5 7.5 L 7.5 3.5 C 7.5 3.253906 7.675781 3.050781 7.910156 3.007812 L 8 3 Z M 7.910156 3.007812" fill="#ddd"/></svg>