<?xml version="1.0" encoding="UTF-8"?>
<svg xmlns="http://www.w3.org/2000/svg" xmlns:xlink="http://www.w3.org/1999/xlink" width="16px" height="16px" viewBox="0 0 16 16" version="1.1">
<g id="surface1">
<path style=" stroke:none;fill-rule:nonzero;fill:rgb(86.666667%,86.666667%,86.666667%);fill-opacity:1;" d="M 11.292969 12 L 14.144531 14.855469 C 14.339844 15.046875 14.660156 15.046875 14.855469 14.855469 C 15.046875 14.660156 15.046875 14.339844 14.855469 14.144531 L 1.855469 1.144531 C 1.660156 0.953125 1.339844 0.953125 1.144531 1.144531 C 0.953125 1.339844 0.953125 1.660156 1.144531 1.855469 L 3.910156 4.617188 C 3.648438 5.191406 3.5 5.828125 3.5 6.5 L 3.5 8.902344 L 2.535156 11.316406 C 2.472656 11.46875 2.492188 11.644531 2.585938 11.78125 C 2.679688 11.917969 2.835938 12 3 12 L 6 12 C 6 13.109375 6.890625 14 8 14 C 9.109375 14 10 13.109375 10 12 Z M 10.292969 11 L 3.738281 11 L 4.464844 9.183594 C 4.488281 9.125 4.5 9.0625 4.5 8.996094 L 4.5 6.5 C 4.5 6.109375 4.5625 5.738281 4.679688 5.386719 Z M 8 13 C 7.445312 13 7 12.554688 7 12 L 9 12 C 9 12.554688 8.554688 13 8 13 Z M 11.691406 9.566406 L 11.535156 9.183594 C 11.511719 9.125 11.5 9.0625 11.5 8.996094 L 11.5 6.5 C 11.5 4.566406 9.933594 3 8 3 C 7.191406 3 6.449219 3.273438 5.855469 3.734375 L 5.144531 3.023438 C 5.921875 2.382812 6.914062 2 8 2 C 10.484375 2 12.5 4.015625 12.5 6.5 L 12.5 8.902344 L 13.464844 11.316406 C 13.46875 11.328125 13.476562 11.34375 13.480469 11.359375 Z M 11.691406 9.566406 "/>
</g>
</svg>
