<?xml version="1.0" encoding="UTF-8"?>
<svg xmlns="http://www.w3.org/2000/svg" xmlns:xlink="http://www.w3.org/1999/xlink" width="16px" height="16px" viewBox="0 0 16 16" version="1.1">
<g id="surface1">
<path style=" stroke:none;fill-rule:nonzero;fill:rgb(86.666667%,86.666667%,86.666667%);fill-opacity:1;" d="M 10.703125 1.042969 C 10.449219 0.929688 10.15625 1.042969 10.042969 1.296875 C 9.929688 1.550781 10.042969 1.84375 10.296875 1.957031 C 10.304688 1.960938 10.410156 2.011719 10.582031 2.109375 C 10.757812 2.214844 11.003906 2.371094 11.28125 2.585938 C 11.839844 3.015625 12.523438 3.671875 13.070312 4.585938 C 14.089844 6.296875 14.015625 8.109375 14 8.449219 C 14 8.472656 14 8.492188 14 8.5 C 14 8.777344 14.222656 9 14.5 9 C 14.777344 9 15 8.777344 15 8.5 L 15 8.503906 L 15 8.480469 C 15.003906 8.457031 15.003906 8.425781 15.003906 8.386719 C 15.007812 8.308594 15.011719 8.203125 15.007812 8.074219 C 15.007812 7.816406 14.992188 7.460938 14.9375 7.046875 C 14.828125 6.21875 14.5625 5.132812 13.929688 4.074219 C 12.679688 1.980469 10.820312 1.09375 10.703125 1.042969 Z M 10.703125 1.042969 "/>
<path style=" stroke:none;fill-rule:nonzero;fill:rgb(86.666667%,86.666667%,86.666667%);fill-opacity:1;" d="M 10.792969 3.597656 C 10.570312 3.4375 10.257812 3.488281 10.09375 3.710938 C 9.933594 3.933594 9.984375 4.246094 10.207031 4.410156 C 10.210938 4.410156 10.21875 4.414062 10.226562 4.421875 C 10.347656 4.503906 10.949219 4.90625 11.355469 5.660156 C 11.78125 6.453125 11.773438 7.1875 11.773438 7.246094 L 11.773438 7.25 C 11.773438 7.527344 12 7.75 12.273438 7.75 C 12.550781 7.75 12.773438 7.527344 12.773438 7.25 C 12.773438 7.25 12.773438 7.222656 12.773438 7.1875 C 12.773438 7.152344 12.773438 7.101562 12.769531 7.042969 C 12.761719 6.925781 12.746094 6.765625 12.714844 6.578125 C 12.648438 6.203125 12.515625 5.707031 12.234375 5.183594 C 11.953125 4.660156 11.601562 4.269531 11.3125 4.007812 C 11.027344 3.746094 10.789062 3.59375 10.792969 3.597656 Z M 2.539062 10.707031 C 1.433594 8.792969 2.089844 6.347656 4 5.242188 C 5.914062 4.136719 8.359375 4.792969 9.464844 6.707031 L 10.285156 8.125 L 12.191406 9.511719 C 12.328125 9.613281 12.40625 9.773438 12.394531 9.945312 C 12.386719 10.113281 12.292969 10.265625 12.148438 10.351562 L 9.617188 11.8125 L 9.621094 11.8125 L 6.882812 13.394531 L 6.882812 13.390625 L 4.351562 14.851562 C 4.207031 14.933594 4.027344 14.941406 3.875 14.863281 C 3.726562 14.785156 3.625 14.636719 3.605469 14.46875 L 3.359375 12.125 Z M 3.402344 10.207031 L 4.277344 11.71875 C 4.3125 11.78125 4.332031 11.847656 4.339844 11.917969 L 4.519531 13.601562 L 10.980469 9.867188 L 9.613281 8.875 C 9.554688 8.832031 9.507812 8.78125 9.472656 8.71875 L 8.597656 7.207031 C 7.769531 5.773438 5.9375 5.28125 4.5 6.109375 C 3.066406 6.9375 2.574219 8.773438 3.402344 10.207031 Z M 7.25 14.335938 C 7.78125 15.007812 8.738281 15.207031 9.5 14.765625 C 10.261719 14.328125 10.566406 13.398438 10.25 12.605469 Z M 7.25 14.335938 "/>
</g>
</svg>
