<svg xmlns="http://www.w3.org/2000/svg" width="16" height="16"><path d="M 8 2 C 5.515625 2 3.5 4.015625 3.5 6.5 L 3.5 8.902344 L 2.535156 11.316406 C 2.472656 11.46875 2.492188 11.644531 2.585938 11.78125 C 2.679688 11.917969 2.835938 12 3 12 L 6 12 C 6 13.109375 6.890625 14 8 14 C 9.109375 14 10 13.109375 10 12 L 13 12 C 13.164062 12 13.320312 11.917969 13.414062 11.78125 C 13.507812 11.644531 13.527344 11.46875 13.464844 11.316406 L 12.5 8.902344 L 12.5 6.5 C 12.5 4.015625 10.484375 2 8 2 Z M 9 12 C 9 12.554688 8.554688 13 8 13 C 7.445312 13 7 12.554688 7 12 Z M 4.5 6.5 C 4.5 4.566406 6.066406 3 8 3 C 9.933594 3 11.5 4.566406 11.5 6.5 L 11.5 8.996094 C 11.5 9.0625 11.511719 9.125 11.535156 9.183594 L 12.261719 11 L 3.738281 11 L 4.464844 9.183594 C 4.488281 9.125 4.5 9.0625 4.5 8.996094 Z M 4.5 6.5" fill="#ddd"/></svg>