<?xml version="1.0" encoding="UTF-8"?>
<svg xmlns="http://www.w3.org/2000/svg" xmlns:xlink="http://www.w3.org/1999/xlink" width="16px" height="16px" viewBox="0 0 16 16" version="1.1">
<g id="surface1">
<path style=" stroke:none;fill-rule:nonzero;fill:rgb(86.666667%,86.666667%,86.666667%);fill-opacity:1;" d="M 11.808594 2.449219 C 11.226562 1.863281 10.273438 1.863281 9.6875 2.449219 L 7.960938 4.175781 C 7.8125 3.503906 7.214844 3 6.496094 3 L 3.496094 3 C 2.667969 3 1.996094 3.671875 1.996094 4.5 L 1.996094 12.5 C 1.996094 13.007812 2.25 13.460938 2.640625 13.730469 C 2.882812 13.902344 3.179688 14 3.5 14 L 11.5 14 C 12.328125 14 13 13.328125 13 12.5 L 13 9.5 C 13 8.800781 12.523438 8.214844 11.875 8.046875 L 13.582031 6.339844 C 14.167969 5.753906 14.167969 4.804688 13.582031 4.21875 Z M 9.578125 8 L 7.996094 8 L 7.996094 6.417969 Z M 10.394531 3.15625 C 10.589844 2.960938 10.90625 2.960938 11.101562 3.15625 L 12.875 4.925781 C 13.070312 5.121094 13.070312 5.4375 12.875 5.632812 L 11.101562 7.40625 C 10.90625 7.601562 10.589844 7.601562 10.394531 7.40625 L 8.625 5.632812 C 8.429688 5.4375 8.429688 5.121094 8.625 4.925781 Z M 6.996094 4.5 L 6.996094 8 L 2.996094 8 L 2.996094 4.5 C 2.996094 4.222656 3.222656 4 3.496094 4 L 6.496094 4 C 6.773438 4 6.996094 4.222656 6.996094 4.5 Z M 3 12.5 L 3 9 L 6.996094 9 L 6.996094 13 L 3.496094 13 C 3.390625 13 3.292969 12.964844 3.210938 12.910156 C 3.082031 12.820312 3 12.667969 3 12.5 Z M 7.996094 9 L 11.5 9 C 11.777344 9 12 9.222656 12 9.5 L 12 12.5 C 12 12.777344 11.777344 13 11.5 13 L 7.996094 13 Z M 7.996094 9 "/>
</g>
</svg>
