<?xml version="1.0" encoding="UTF-8"?>
<svg xmlns="http://www.w3.org/2000/svg" xmlns:xlink="http://www.w3.org/1999/xlink" width="16px" height="16px" viewBox="0 0 16 16" version="1.1">
<g id="surface1">
<path style=" stroke:none;fill-rule:nonzero;fill:rgb(86.666667%,86.666667%,86.666667%);fill-opacity:1;" d="M 7 7 C 6.722656 7 6.5 7.222656 6.5 7.5 C 6.5 7.777344 6.722656 8 7 8 L 9 8 C 9.277344 8 9.5 7.777344 9.5 7.5 C 9.5 7.222656 9.277344 7 9 7 Z M 7 7 "/>
<path style=" stroke:none;fill-rule:nonzero;fill:rgb(86.666667%,86.666667%,86.666667%);fill-opacity:1;" d="M 2 5 C 2 5.550781 2.449219 6 3 6 L 3 12 C 3 13.105469 3.894531 14 5 14 L 11 14 C 12.105469 14 13 13.105469 13 12 L 13 6 C 13.550781 6 14 5.550781 14 5 L 14 3 C 14 2.449219 13.550781 2 13 2 L 3 2 C 2.449219 2 2 2.449219 2 3 Z M 13 3 L 13 5 L 3 5 L 3 3 Z M 4 6 L 12 6 L 12 12 C 12 12.550781 11.550781 13 11 13 L 5 13 C 4.449219 13 4 12.550781 4 12 Z M 4 6 "/>
</g>
</svg>
