<?xml version="1.0" encoding="UTF-8"?>
<svg xmlns="http://www.w3.org/2000/svg" xmlns:xlink="http://www.w3.org/1999/xlink" width="16px" height="16px" viewBox="0 0 16 16" version="1.1">
<g id="surface1">
<path style=" stroke:none;fill-rule:nonzero;fill:rgb(86.666667%,86.666667%,86.666667%);fill-opacity:1;" d="M 13.5 8.5 C 13.777344 8.5 14 8.277344 14 8 C 14 7.722656 13.777344 7.5 13.5 7.5 L 3.804688 7.5 L 7.835938 3.871094 C 8.039062 3.6875 8.054688 3.371094 7.871094 3.164062 C 7.6875 2.960938 7.371094 2.945312 7.164062 3.128906 L 2.164062 7.628906 C 2.058594 7.722656 2 7.859375 2 8 C 2 8.140625 2.058594 8.277344 2.164062 8.371094 L 7.164062 12.871094 C 7.371094 13.054688 7.6875 13.039062 7.871094 12.835938 C 8.054688 12.628906 8.039062 12.3125 7.835938 12.128906 L 3.804688 8.5 Z M 13.5 8.5 "/>
</g>
</svg>
