<svg xmlns="http://www.w3.org/2000/svg" width="16" height="16"><path d="M 2.5 2 C 2.222656 2 2 2.222656 2 2.5 C 2 2.777344 2.222656 3 2.5 3 L 2.746094 3 C 2.96875 3 3.164062 3.148438 3.226562 3.363281 L 4.8125 8.910156 C 4.996094 9.554688 5.585938 10 6.253906 10 L 10.824219 10 C 11.4375 10 11.988281 9.625 12.214844 9.058594 L 13.691406 5.371094 C 13.953125 4.714844 13.46875 4 12.761719 4 L 4.449219 4 L 4.1875 3.089844 C 4.003906 2.445312 3.414062 2 2.746094 2 Z M 5.773438 8.636719 L 4.734375 5 L 12.761719 5 L 11.289062 8.6875 C 11.210938 8.875 11.027344 9 10.824219 9 L 6.253906 9 C 6.03125 9 5.835938 8.851562 5.773438 8.636719 Z M 6.5 14 C 7.328125 14 8 13.328125 8 12.5 C 8 11.671875 7.328125 11 6.5 11 C 5.671875 11 5 11.671875 5 12.5 C 5 13.328125 5.671875 14 6.5 14 Z M 6.5 13 C 6.222656 13 6 12.777344 6 12.5 C 6 12.222656 6.222656 12 6.5 12 C 6.777344 12 7 12.222656 7 12.5 C 7 12.777344 6.777344 13 6.5 13 Z M 10.5 14 C 11.328125 14 12 13.328125 12 12.5 C 12 11.671875 11.328125 11 10.5 11 C 9.671875 11 9 11.671875 9 12.5 C 9 13.328125 9.671875 14 10.5 14 Z M 10.5 13 C 10.222656 13 10 12.777344 10 12.5 C 10 12.222656 10.222656 12 10.5 12 C 10.777344 12 11 12.222656 11 12.5 C 11 12.777344 10.777344 13 10.5 13 Z M 10.5 13" fill="#ddd"/></svg>