<?xml version="1.0" encoding="UTF-8"?>
<svg xmlns="http://www.w3.org/2000/svg" xmlns:xlink="http://www.w3.org/1999/xlink" width="16px" height="16px" viewBox="0 0 16 16" version="1.1">
<g id="surface1">
<path style=" stroke:none;fill-rule:nonzero;fill:rgb(86.666667%,86.666667%,86.666667%);fill-opacity:1;" d="M 4.171875 3.910156 L 5.601562 3.910156 L 8.773438 11.960938 L 7.425781 11.960938 L 6.652344 9.886719 L 3.109375 9.886719 L 2.339844 11.960938 L 1 11.960938 Z M 3.492188 8.871094 L 6.269531 8.871094 L 4.910156 5.230469 L 4.863281 5.230469 Z M 12.519531 5.976562 C 13.398438 5.976562 14.042969 6.1875 14.457031 6.617188 C 14.816406 6.988281 15 7.53125 15 8.242188 L 15 11.960938 L 13.871094 11.960938 L 13.871094 11.140625 C 13.636719 11.433594 13.34375 11.675781 13.003906 11.839844 C 12.613281 12.019531 12.152344 12.121094 11.621094 12.121094 C 10.996094 12.121094 10.511719 11.960938 10.167969 11.660156 C 9.785156 11.355469 9.601562 10.960938 9.601562 10.472656 C 9.601562 9.820312 9.867188 9.3125 10.398438 8.964844 C 10.882812 8.625 11.574219 8.457031 12.453125 8.433594 L 13.789062 8.398438 L 13.789062 8.164062 C 13.789062 7.351562 13.339844 6.945312 12.441406 6.945312 C 12.058594 6.945312 11.746094 7.011719 11.515625 7.148438 C 11.238281 7.304688 11.066406 7.542969 10.996094 7.871094 L 9.785156 7.769531 C 9.914062 7.136719 10.238281 6.664062 10.746094 6.371094 C 11.183594 6.097656 11.78125 5.976562 12.519531 5.976562 Z M 13.789062 9.269531 L 12.53125 9.300781 C 11.414062 9.324219 10.859375 9.707031 10.859375 10.429688 C 10.859375 10.65625 10.953125 10.835938 11.148438 10.980469 C 11.332031 11.128906 11.585938 11.207031 11.898438 11.207031 C 12.417969 11.207031 12.855469 11.050781 13.222656 10.746094 C 13.59375 10.441406 13.789062 10.058594 13.789062 9.605469 Z M 13.789062 9.269531 "/>
</g>
</svg>
