<svg xmlns="http://www.w3.org/2000/svg" width="16" height="16"><g fill="#ddd"><path d="M 2.5 6.550781 C 2.316406 6.550781 2.148438 6.5 2 6.414062 C 1.703125 6.242188 1.5 5.921875 1.5 5.550781 C 1.5 5.183594 1.703125 4.859375 2 4.6875 C 2.148438 4.601562 2.316406 4.554688 2.5 4.554688 C 2.683594 4.554688 2.851562 4.601562 3 4.6875 C 3.296875 4.859375 3.5 5.183594 3.5 5.550781 C 3.5 5.921875 3.296875 6.242188 3 6.414062 C 2.851562 6.5 2.683594 6.550781 2.5 6.550781 Z M 2.5 6.550781"/><path d="M 2.175781 3.578125 C 2.28125 3.5625 2.390625 3.554688 2.5 3.554688 C 2.761719 3.554688 3.007812 3.601562 3.234375 3.691406 C 3.503906 3.277344 3.96875 3 4.5 3 L 11.5 3 C 12.328125 3 13 3.671875 13 4.5 L 13 11.5 C 13 12.328125 12.328125 13 11.5 13 L 4.5 13 C 3.671875 13 3 12.328125 3 11.5 L 3 7.488281 C 2.839844 7.527344 2.671875 7.550781 2.5 7.550781 C 2.328125 7.550781 2.160156 7.527344 2 7.488281 L 2 11.5 C 2 12.878906 3.121094 14 4.5 14 L 11.5 14 C 12.882812 14 14 12.878906 14 11.5 L 14 4.5 C 14 3.121094 12.882812 2 11.5 2 L 4.5 2 C 3.445312 2 2.542969 2.652344 2.175781 3.578125 Z M 2.175781 3.578125"/><path d="M 6 6 C 5.722656 6 5.5 6.222656 5.5 6.5 C 5.5 6.777344 5.722656 7 6 7 L 10 7 C 10.277344 7 10.5 6.777344 10.5 6.5 C 10.5 6.222656 10.277344 6 10 6 Z M 6 9 C 5.722656 9 5.5 9.222656 5.5 9.5 C 5.5 9.777344 5.722656 10 6 10 L 8.613281 10 C 8.890625 10 9.113281 9.777344 9.113281 9.5 C 9.113281 9.222656 8.890625 9 8.613281 9 Z M 6 9"/></g></svg>