<?xml version="1.0" encoding="UTF-8"?>
<svg xmlns="http://www.w3.org/2000/svg" xmlns:xlink="http://www.w3.org/1999/xlink" width="16px" height="16px" viewBox="0 0 16 16" version="1.1">
<g id="surface1">
<path style=" stroke:none;fill-rule:nonzero;fill:rgb(86.666667%,86.666667%,86.666667%);fill-opacity:1;" d="M 6 7 C 6 6.722656 6.222656 6.5 6.5 6.5 L 9.5 6.5 C 9.777344 6.5 10 6.722656 10 7 C 10 7.277344 9.777344 7.5 9.5 7.5 L 6.5 7.5 C 6.222656 7.5 6 7.277344 6 7 Z M 6.5 8.5 C 6.222656 8.5 6 8.722656 6 9 C 6 9.277344 6.222656 9.5 6.5 9.5 L 8.5 9.5 C 8.777344 9.5 9 9.277344 9 9 C 9 8.722656 8.777344 8.5 8.5 8.5 Z M 6.5 8.5 "/>
<path style=" stroke:none;fill-rule:nonzero;fill:rgb(86.666667%,86.666667%,86.666667%);fill-opacity:1;" d="M 2 8 C 2 4.6875 4.6875 2 8 2 C 11.3125 2 14 4.6875 14 8 C 14 11.3125 11.3125 14 8 14 C 6.90625 14 5.878906 13.707031 4.996094 13.195312 L 2.65625 13.972656 C 2.480469 14.03125 2.289062 13.988281 2.152344 13.859375 C 2.019531 13.734375 1.96875 13.539062 2.019531 13.363281 L 2.730469 10.871094 C 2.265625 10.019531 2 9.039062 2 8 Z M 8 3 C 5.238281 3 3 5.238281 3 8 C 3 8.933594 3.253906 9.804688 3.699219 10.550781 C 3.769531 10.671875 3.789062 10.8125 3.75 10.945312 L 3.242188 12.726562 L 4.898438 12.171875 C 5.042969 12.125 5.199219 12.144531 5.324219 12.226562 C 6.097656 12.714844 7.015625 13 8 13 C 10.761719 13 13 10.761719 13 8 C 13 5.238281 10.761719 3 8 3 Z M 8 3 "/>
</g>
</svg>
