<?xml version="1.0" encoding="UTF-8"?>
<svg xmlns="http://www.w3.org/2000/svg" xmlns:xlink="http://www.w3.org/1999/xlink" width="16px" height="16px" viewBox="0 0 16 16" version="1.1">
<g id="surface1">
<path style=" stroke:none;fill-rule:nonzero;fill:rgb(86.666667%,86.666667%,86.666667%);fill-opacity:1;" d="M 2.589844 2.714844 L 2.644531 2.644531 C 2.820312 2.472656 3.089844 2.453125 3.285156 2.589844 L 3.355469 2.644531 L 8 7.292969 L 12.644531 2.644531 C 12.839844 2.453125 13.160156 2.453125 13.355469 2.644531 C 13.546875 2.839844 13.546875 3.160156 13.355469 3.355469 L 8.707031 8 L 13.355469 12.644531 C 13.527344 12.820312 13.546875 13.089844 13.410156 13.285156 L 13.355469 13.355469 C 13.179688 13.527344 12.910156 13.546875 12.714844 13.410156 L 12.644531 13.355469 L 8 8.707031 L 3.355469 13.355469 C 3.160156 13.546875 2.839844 13.546875 2.644531 13.355469 C 2.453125 13.160156 2.453125 12.839844 2.644531 12.644531 L 7.292969 8 L 2.644531 3.355469 C 2.472656 3.179688 2.453125 2.910156 2.589844 2.714844 L 2.644531 2.644531 Z M 2.589844 2.714844 "/>
</g>
</svg>
