<svg xmlns="http://www.w3.org/2000/svg" width="16" height="16"><path d="M 9.804688 3.042969 C 10.054688 3.15625 10.167969 3.449219 10.058594 3.703125 L 6.058594 12.703125 C 5.945312 12.957031 5.648438 13.070312 5.398438 12.957031 C 5.144531 12.84375 5.03125 12.550781 5.144531 12.296875 L 9.144531 3.296875 C 9.253906 3.042969 9.550781 2.929688 9.804688 3.042969 Z M 4.332031 5.375 C 4.539062 5.558594 4.558594 5.875 4.375 6.082031 L 2.667969 8 L 4.375 9.917969 C 4.558594 10.125 4.539062 10.441406 4.332031 10.625 C 4.125 10.808594 3.808594 10.789062 3.625 10.582031 L 1.625 8.332031 C 1.457031 8.144531 1.457031 7.855469 1.625 7.667969 L 3.625 5.417969 C 3.808594 5.210938 4.125 5.191406 4.332031 5.375 Z M 11.667969 5.375 C 11.875 5.191406 12.191406 5.210938 12.375 5.417969 L 14.375 7.667969 C 14.542969 7.855469 14.542969 8.144531 14.375 8.332031 L 12.375 10.582031 C 12.191406 10.789062 11.875 10.808594 11.667969 10.625 C 11.460938 10.441406 11.441406 10.125 11.625 9.917969 L 13.332031 8 L 11.625 6.082031 C 11.441406 5.875 11.460938 5.558594 11.667969 5.375 Z M 11.667969 5.375" fill="#ddd"/></svg>