<svg width="480" height="480" xmlns="http://www.w3.org/2000/svg">
    <defs>
        <linearGradient x1="-16.697%" y1="44.659%" x2="104.491%" y2="44.659%" id="a">
            <stop stop-color="#EEE" stop-opacity=".19" offset="0%"/>
            <stop stop-color="#FFF" offset="100%"/>
        </linearGradient>
    </defs>
    <g fill="none" fill-rule="evenodd">
        <g fill="#FB9B62">
            <path d="M231.858238,399.420331 C322.306846,418.825809 436.264537,322.879976 438.197623,207.482922 C432.751123,94.3001304 343.399347,-0.805100111 222.14208,0.00513921086 C100.884813,0.815378533 21.0866157,119.893649 15.8026956,207.482922 C9.6355912,307.280257 108.645644,389.250765 231.858238,399.420331 Z"
                  opacity=".2" transform="translate(20 32)"/>
            <path d="M194.117647,415.317432 C298.441178,419.928417 390.528293,324.223948 388.235294,238.900126 C377.37391,127.203317 301.325863,39.3632784 194.117647,47.0951088 C86.9094309,54.8269393 2.84217094e-14,133.811658 2.84217094e-14,223.512415 C2.85822416,295.058588 90.7620466,402.91958 194.117647,415.317432 Z"
                  opacity=".3" transform="translate(20 32)"/>
            <path d="M207.923106,378.451963 C329.175142,399.419058 412.859954,307.792275 412.38677,207.196851 C419.925706,112.254378 303.590533,9.60386334 196.305556,13.0339825 C83.9119772,13.0339825 14.3454351,98.7560049 15.544671,188.495495 C21.6579476,237.084688 48.4126179,360.782064 207.923106,378.451963 Z"
                  opacity=".4" transform="translate(20 32)"/>
            <path d="M193.181639,374.498124 C301.535358,396.142754 386.312217,368.733672 385.130088,207.216628 C361.237788,87.0872792 272.503537,44.9778587 201.882353,45.6749686 C73.4910599,50.7488836 23.7231619,120.224662 18.6346022,207.216628 C27.247047,258.653672 77.0609229,362.210048 193.181639,374.498124 Z"
                  opacity=".4" transform="translate(20 32)"/>
            <path d="M195.43098,335.609755 C298.698602,321.770596 368.302145,258.816499 369.99012,186.110465 C382.856623,81.0748083 305.703532,23.4231811 203.195686,28.8409875 C111.063078,50.3047747 59.4969389,107.241076 46.754193,186.110465 C46.6357003,254.066277 36.5053399,362.539179 195.43098,335.609755 Z"
                  opacity=".6" transform="translate(20 32)"/>
        </g>
        <path d="M219.084368,96 C213.132909,96 207.586706,99.535 204.796236,105.053333 L179.404118,156.27 L122.680003,166.513333 C116.334869,167.318333 111.587596,171.623333 109.596057,177.526667 C108.021352,183.045 109.596057,189.753333 113.972811,194.093333 L154.82251,231.951667 L144.100622,287.1 C142.919593,293.015 145.686906,299.326667 150.457336,302.85 C153.12044,304.856667 156.44353,305.848333 159.720306,305.848334 C162.302359,305.848334 164.838097,305.23 167.095946,304.028333 L219.084368,278.42 L270.655956,304.028333 C273.041171,305.195 275.808483,306 278.182119,306 C281.759942,306 284.944088,304.833333 287.306145,302.85 C292.076575,299.326667 294.832309,293.411667 293.662859,287.1 L283.334647,231.951667 L324.184346,193.72 C328.5611,189.38 330.135805,183.068333 328.155845,177.153333 C326.491633,171.246671 321.487843,166.912009 315.442418,166.14 L258.729881,156.293333 L233.337764,105.076667 C230.987285,99.5699999 225.035826,96 219.084368,96 Z"
              fill="url(#a)" transform="translate(20 32)"/>
        <path d="M154.98626,231.951667 L144.271664,287.1 C143.091438,293.015 145.856868,299.326667 150.624054,302.85 C153.285347,304.856667 156.606177,305.848333 159.880724,305.848334 C162.461021,305.848334 164.995035,305.23 167.251348,304.028333 L219.204412,278.42 L270.740925,304.028333 C273.124518,305.195 275.889948,306 278.26197,306 C281.837359,306 285.01934,304.833333 287.379791,302.85 C292.146976,299.326667 294.900835,293.411667 293.732181,287.1 L283.410993,231.951667 M258.822962,156.293333 L233.448114,105.076667 C231.099234,99.5699999 225.151823,96 219.204412,96 L219.204412,96 C213.257001,96 207.714569,99.535 204.925998,105.053333 L179.551149,156.27"
              fill="#FFF" fill-rule="nonzero" transform="translate(20 32)"/>
        <path d="M255.139091,150.703859 C267.671951,173.257573 276.958921,201.68962 283,236 L154,236 C159.569383,201.68962 168.915139,173.257573 182.037271,150.703859 C201.012382,134.701107 237.144413,135.501451 255.139091,150.703859 Z"
              fill="#FFF" transform="translate(20 32)"/>
    </g>
</svg>