<svg xmlns="http://www.w3.org/2000/svg" width="16" height="16"><path d="M 1 4.5 C 1 3.121094 2.121094 2 3.5 2 L 12.5 2 C 13.878906 2 15 3.121094 15 4.5 L 15 9.5 C 15 10.878906 13.878906 12 12.5 12 L 8.6875 12 L 5.625 14.679688 C 4.992188 15.234375 4 14.785156 4 13.941406 L 4 12 L 3.5 12 C 2.121094 12 1 10.878906 1 9.5 Z M 3.5 3 C 2.671875 3 2 3.671875 2 4.5 L 2 9.5 C 2 10.328125 2.671875 11 3.5 11 L 5 11 L 5 13.898438 L 8.3125 11 L 12.5 11 C 13.328125 11 14 10.328125 14 9.5 L 14 4.5 C 14 3.671875 13.328125 3 12.5 3 Z M 3.5 3" fill="#ddd"/></svg>