<?xml version="1.0" encoding="UTF-8"?>
<svg xmlns="http://www.w3.org/2000/svg" xmlns:xlink="http://www.w3.org/1999/xlink" width="16px" height="16px" viewBox="0 0 16 16" version="1.1">
<g id="surface1">
<path style=" stroke:none;fill-rule:nonzero;fill:rgb(86.666667%,86.666667%,86.666667%);fill-opacity:1;" d="M 8 3 C 4.6875 3 2 5.6875 2 9 C 2 10.65625 2.667969 12.152344 3.753906 13.238281 C 3.949219 13.433594 3.949219 13.75 3.753906 13.945312 C 3.558594 14.140625 3.242188 14.140625 3.046875 13.945312 C 1.78125 12.679688 1 10.929688 1 9 C 1 5.132812 4.132812 2 8 2 C 11.867188 2 15 5.132812 15 9 C 15 10.929688 14.21875 12.679688 12.953125 13.945312 C 12.757812 14.140625 12.441406 14.140625 12.246094 13.945312 C 12.050781 13.75 12.050781 13.433594 12.246094 13.238281 C 13.332031 12.152344 14 10.65625 14 9 C 14 5.6875 11.3125 3 8 3 Z M 8 3 "/>
<path style=" stroke:none;fill-rule:nonzero;fill:rgb(86.666667%,86.666667%,86.666667%);fill-opacity:1;" d="M 8 5.5 C 6.066406 5.5 4.5 7.066406 4.5 9 C 4.5 9.964844 4.890625 10.839844 5.523438 11.476562 C 5.71875 11.671875 5.71875 11.988281 5.523438 12.183594 C 5.328125 12.378906 5.011719 12.378906 4.816406 12.183594 C 4.003906 11.367188 3.5 10.242188 3.5 9 C 3.5 6.515625 5.515625 4.5 8 4.5 C 10.484375 4.5 12.5 6.515625 12.5 9 C 12.5 10.242188 11.996094 11.367188 11.183594 12.183594 C 10.988281 12.378906 10.671875 12.378906 10.476562 12.183594 C 10.28125 11.988281 10.28125 11.671875 10.476562 11.476562 C 11.109375 10.839844 11.5 9.964844 11.5 9 C 11.5 7.066406 9.933594 5.5 8 5.5 Z M 8 5.5 "/>
<path style=" stroke:none;fill-rule:nonzero;fill:rgb(86.666667%,86.666667%,86.666667%);fill-opacity:1;" d="M 8 7 C 6.894531 7 6 7.894531 6 9 C 6 10.105469 6.894531 11 8 11 C 9.105469 11 10 10.105469 10 9 C 10 7.894531 9.105469 7 8 7 Z M 7 9 C 7 8.449219 7.449219 8 8 8 C 8.550781 8 9 8.449219 9 9 C 9 9.550781 8.550781 10 8 10 C 7.449219 10 7 9.550781 7 9 Z M 7 9 "/>
</g>
</svg>
