<?xml version="1.0" encoding="UTF-8"?>
<svg xmlns="http://www.w3.org/2000/svg" xmlns:xlink="http://www.w3.org/1999/xlink" width="16px" height="16px" viewBox="0 0 16 16" version="1.1">
<g id="surface1">
<path style=" stroke:none;fill-rule:nonzero;fill:rgb(86.666667%,86.666667%,86.666667%);fill-opacity:1;" d="M 8 1.601562 C 7.117188 1.601562 6.398438 2.316406 6.398438 3.199219 L 6.398438 12.800781 C 6.398438 13.683594 7.117188 14.398438 8 14.398438 C 8.882812 14.398438 9.601562 13.683594 9.601562 12.800781 L 9.601562 3.199219 C 9.601562 2.316406 8.882812 1.601562 8 1.601562 Z M 3.199219 8 C 2.316406 8 1.601562 8.714844 1.601562 9.601562 L 1.601562 12.800781 C 1.601562 13.683594 2.316406 14.398438 3.199219 14.398438 C 4.082031 14.398438 4.800781 13.683594 4.800781 12.800781 L 4.800781 9.601562 C 4.800781 8.714844 4.082031 8 3.199219 8 Z M 12.800781 4.800781 C 11.917969 4.800781 11.199219 5.515625 11.199219 6.398438 L 11.199219 12.800781 C 11.199219 13.683594 11.917969 14.398438 12.800781 14.398438 C 13.683594 14.398438 14.398438 13.683594 14.398438 12.800781 L 14.398438 6.398438 C 14.398438 5.515625 13.683594 4.800781 12.800781 4.800781 Z M 12.800781 4.800781 "/>
</g>
</svg>
