<svg width="16" height="16" fill="none" xmlns="http://www.w3.org/2000/svg"><path d="M8 1.6C7.116344 1.6 6.4 2.316344 6.4 3.2v9.6c0 .88368.716344 1.6 1.6 1.6.88368 0 1.6-.71632 1.6-1.6V3.2C9.6 2.316344 8.88368 1.6 8 1.6zM3.2 8C2.316344 8 1.6 8.71632 1.6 9.6v3.2c0 .88368.716344 1.6 1.6 1.6.883656 0 1.6-.71632 1.6-1.6V9.6C4.8 8.71632 4.083656 8 3.2 8zM12.8 4.8c-.88368 0-1.6.716344-1.6 1.6v6.4c0 .88368.71632 1.6 1.6 1.6.88368 0 1.6-.71632 1.6-1.6V6.4c0-.883656-.71632-1.6-1.6-1.6z" fill="#ddd" stroke-width=".8"/></svg>