<svg xmlns="http://www.w3.org/2000/svg" width="16" height="16"><path d="M 4 2 C 2.894531 2 2 2.894531 2 4 L 2 9.996094 C 2 11.101562 2.894531 11.996094 4 11.996094 L 6.003906 11.996094 L 6.003906 13.007812 L 4.507812 13.007812 C 4.230469 13.007812 4.007812 13.230469 4.007812 13.507812 C 4.007812 13.785156 4.230469 14.007812 4.507812 14.007812 L 11.503906 14.007812 C 11.777344 14.007812 12.003906 13.785156 12.003906 13.507812 C 12.003906 13.230469 11.777344 13.007812 11.503906 13.007812 L 10.003906 13.007812 L 10.003906 11.996094 L 12 11.996094 C 13.105469 11.996094 14 11.101562 14 9.996094 L 14 4 C 14 2.894531 13.105469 2 12 2 Z M 9.003906 11.996094 L 9.003906 13.007812 L 7.003906 13.007812 L 7.003906 11.996094 Z M 3 4 C 3 3.449219 3.449219 3 4 3 L 12 3 C 12.550781 3 13 3.449219 13 4 L 13 9.996094 C 13 10.550781 12.550781 10.996094 12 10.996094 L 4 10.996094 C 3.449219 10.996094 3 10.550781 3 9.996094 Z M 3 4" fill="#ddd"/></svg>