<?xml version="1.0" encoding="UTF-8"?>
<svg xmlns="http://www.w3.org/2000/svg" xmlns:xlink="http://www.w3.org/1999/xlink" width="16px" height="16px" viewBox="0 0 16 16" version="1.1">
<g id="surface1">
<path style=" stroke:none;fill-rule:nonzero;fill:rgb(86.666667%,86.666667%,86.666667%);fill-opacity:1;" d="M 5 1 C 3.894531 1 3 1.894531 3 3 L 3 13 C 3 14.105469 3.894531 15 5 15 L 11 15 C 12.105469 15 13 14.105469 13 13 L 13 5.414062 C 13 5.015625 12.84375 4.636719 12.5625 4.355469 L 9.644531 1.4375 C 9.363281 1.15625 8.984375 1 8.585938 1 Z M 4 3 C 4 2.449219 4.449219 2 5 2 L 8 2 L 8 4.5 C 8 5.328125 8.671875 6 9.5 6 L 12 6 L 12 13 C 12 13.550781 11.550781 14 11 14 L 5 14 C 4.449219 14 4 13.550781 4 13 Z M 11.792969 5 L 9.5 5 C 9.222656 5 9 4.777344 9 4.5 L 9 2.207031 Z M 11.792969 5 "/>
</g>
</svg>
