<svg xmlns="http://www.w3.org/2000/svg" width="16" height="16"><path d="M 2 6.039062 L 2 11 C 2 12.105469 2.894531 13 4 13 L 12 13 C 13.105469 13 14 12.105469 14 11 L 14 5 C 14 3.894531 13.105469 3 12 3 L 4 3 C 2.894531 3 2 3.894531 2 5 Z M 4 4 L 12 4 C 12.550781 4 13 4.449219 13 5 L 13 5.738281 L 8 8.433594 L 3 5.738281 L 3 5 C 3 4.449219 3.449219 4 4 4 Z M 3 6.875 L 7.761719 9.441406 C 7.910156 9.519531 8.089844 9.519531 8.238281 9.441406 L 13 6.875 L 13 11 C 13 11.550781 12.550781 12 12 12 L 4 12 C 3.449219 12 3 11.550781 3 11 Z M 3 6.875" fill="#ddd"/></svg>