<svg xmlns="http://www.w3.org/2000/svg" width="16" height="16"><path d="M 5.667969 2.5 C 5.667969 2.222656 5.441406 2 5.167969 2 C 4.890625 2 4.667969 2.222656 4.667969 2.5 L 4.667969 4.167969 C 4.667969 4.441406 4.441406 4.667969 4.167969 4.667969 L 2.5 4.667969 C 2.222656 4.667969 2 4.890625 2 5.167969 C 2 5.441406 2.222656 5.667969 2.5 5.667969 L 4.167969 5.667969 C 4.996094 5.667969 5.667969 4.996094 5.667969 4.167969 Z M 5.667969 13.5 C 5.667969 13.777344 5.441406 14 5.167969 14 C 4.890625 14 4.667969 13.777344 4.667969 13.5 L 4.667969 11.832031 C 4.667969 11.558594 4.441406 11.332031 4.167969 11.332031 L 2.5 11.332031 C 2.222656 11.332031 2 11.109375 2 10.832031 C 2 10.558594 2.222656 10.332031 2.5 10.332031 L 4.167969 10.332031 C 4.996094 10.332031 5.667969 11.003906 5.667969 11.832031 Z M 10.832031 2 C 10.558594 2 10.332031 2.222656 10.332031 2.5 L 10.332031 4.167969 C 10.332031 4.996094 11.003906 5.667969 11.832031 5.667969 L 13.5 5.667969 C 13.777344 5.667969 14 5.441406 14 5.167969 C 14 4.890625 13.777344 4.667969 13.5 4.667969 L 11.832031 4.667969 C 11.558594 4.667969 11.332031 4.441406 11.332031 4.167969 L 11.332031 2.5 C 11.332031 2.222656 11.109375 2 10.832031 2 Z M 10.332031 13.5 C 10.332031 13.777344 10.558594 14 10.832031 14 C 11.109375 14 11.332031 13.777344 11.332031 13.5 L 11.332031 11.832031 C 11.332031 11.558594 11.558594 11.332031 11.832031 11.332031 L 13.5 11.332031 C 13.777344 11.332031 14 11.109375 14 10.832031 C 14 10.558594 13.777344 10.332031 13.5 10.332031 L 11.832031 10.332031 C 11.003906 10.332031 10.332031 11.003906 10.332031 11.832031 Z M 10.332031 13.5" fill="#ddd"/></svg>