<svg xmlns="http://www.w3.org/2000/svg" width="16" height="16"><path d="M 8.40625 2.25 L 9.953125 5.394531 L 9.945312 5.394531 L 13.550781 5.394531 C 13.777344 5.394531 13.964844 5.5625 13.996094 5.785156 L 14 5.84375 C 14 6.070312 13.828125 6.261719 13.609375 6.289062 L 13.550781 6.292969 L 9.664062 6.292969 C 9.511719 6.292969 9.371094 6.21875 9.289062 6.09375 L 9.257812 6.039062 L 8.78125 5.042969 L 8.003906 3.46875 L 6.691406 6.128906 C 6.628906 6.261719 6.5 6.351562 6.351562 6.375 L 3.417969 6.796875 L 5.542969 8.867188 C 5.648438 8.96875 5.699219 9.121094 5.671875 9.265625 L 5.167969 12.1875 L 7.769531 10.816406 C 7.726562 10.949219 7.703125 11.09375 7.703125 11.238281 C 7.703125 11.441406 7.746094 11.632812 7.828125 11.804688 L 4.78125 13.410156 C 4.449219 13.582031 4.066406 13.304688 4.128906 12.933594 L 4.746094 9.347656 L 2.136719 6.804688 C 1.871094 6.546875 2.015625 6.09375 2.386719 6.039062 L 5.992188 5.519531 L 7.597656 2.25 C 7.765625 1.917969 8.242188 1.917969 8.40625 2.25 Z M 13.550781 10.789062 C 13.796875 10.789062 14 10.992188 14 11.238281 C 14 11.46875 13.832031 11.65625 13.609375 11.6875 L 13.550781 11.691406 L 9.054688 11.691406 C 8.804688 11.691406 8.601562 11.488281 8.601562 11.238281 C 8.601562 11.011719 8.773438 10.824219 8.992188 10.792969 L 9.054688 10.789062 Z M 13.550781 8.097656 C 13.796875 8.097656 14 8.296875 14 8.546875 C 14 8.773438 13.828125 8.964844 13.609375 8.992188 L 13.550781 8.996094 L 9.050781 8.996094 C 8.804688 8.996094 8.601562 8.796875 8.601562 8.546875 C 8.601562 8.320312 8.769531 8.132812 8.992188 8.101562 L 9.050781 8.097656 Z M 13.550781 8.097656" fill="#ddd"/></svg>