<svg width="16" height="16" fill="none" xmlns="http://www.w3.org/2000/svg"><path d="m 8.4064172,2.2510159 1.5479331,3.1417933 h -0.00899 l 0.00102,0.0018 3.6026297,9.59e-5 c 0.227686,0 0.415856,0.1691969 0.445598,0.3887103 l 0.0041,0.061026 c 0,0.2276866 -0.169221,0.4158504 -0.388752,0.4456349 l -0.06098,0.0041 H 9.6635207 c -0.1512914,0 -0.2908296,-0.075844 -0.3735212,-0.1991673 L 9.2581582,6.0393324 8.7796385,5.0444133 8.0029736,3.4675652 6.6925733,6.1280384 C 6.6270557,6.2610465 6.500188,6.3532245 6.353442,6.3744281 L 3.4182397,6.7985656 5.5435625,8.8669937 C 5.6498203,8.9703732 5.6982779,9.1195058 5.6730986,9.2656402 L 5.1694597,12.188268 7.7713893,10.817171 c -0.043954,0.133302 -0.0677,0.275479 -0.0677,0.422812 0,0.201722 0.044254,0.39307 0.1235876,0.564869 l -3.0464911,1.60478 C 4.4506968,13.58347 4.064631,13.303015 4.1279899,12.93531 L 4.7464615,9.3463529 2.1365626,6.806361 C 1.8691973,6.5461375 2.0166569,6.0922934 2.3859085,6.0389366 L 5.9903427,5.5180818 7.5995299,2.2510159 c 0.1648435,-0.3346879 0.6420439,-0.3346879 0.8068873,0 z m 5.1438468,8.5392311 c 0.248374,0 0.449736,0.201362 0.449736,0.449736 0,0.227687 -0.169221,0.415857 -0.388692,0.445659 l -0.06104,0.0041 H 9.0528984 c -0.2483744,0 -0.4497365,-0.201362 -0.4497365,-0.449737 0,-0.227686 0.1692209,-0.415856 0.3886923,-0.445658 l 0.061044,-0.0041 z m -0.0013,-2.6929023 c 0.248374,0 0.449736,0.201362 0.449736,0.4497365 0,0.2276866 -0.169221,0.4158563 -0.388752,0.4455989 l -0.06098,0.00414 H 9.0516392 c -0.2483745,0 -0.4497365,-0.2013621 -0.4497365,-0.4497365 0,-0.2276866 0.1691609,-0.4158564 0.3886922,-0.4456589 l 0.061044,-0.00408 z" fill="#ddd"/></svg>