<?xml version="1.0" encoding="UTF-8"?>
<svg xmlns="http://www.w3.org/2000/svg" xmlns:xlink="http://www.w3.org/1999/xlink" width="16px" height="16px" viewBox="0 0 16 16" version="1.1">
<g id="surface1">
<path style=" stroke:none;fill-rule:nonzero;fill:rgb(86.666667%,86.666667%,86.666667%);fill-opacity:1;" d="M 4 9 L 4 3 L 12.027344 3 L 10.09375 5.710938 C 9.96875 5.882812 9.96875 6.117188 10.09375 6.289062 L 12.027344 9 Z M 4 10 L 13 10 C 13.40625 10 13.644531 9.539062 13.40625 9.210938 L 11.113281 6 L 13.40625 2.789062 C 13.644531 2.460938 13.40625 2 13 2 L 3.5 2 C 3.222656 2 3 2.222656 3 2.5 L 3 13.5 C 3 13.777344 3.222656 14 3.5 14 C 3.777344 14 4 13.777344 4 13.5 Z M 4 10 "/>
</g>
</svg>
