<?xml version="1.0" encoding="UTF-8"?>
<svg xmlns="http://www.w3.org/2000/svg" xmlns:xlink="http://www.w3.org/1999/xlink" width="16px" height="16px" viewBox="0 0 16 16" version="1.1">
<g id="surface1">
<path style=" stroke:none;fill-rule:nonzero;fill:rgb(86.666667%,86.666667%,86.666667%);fill-opacity:1;" d="M 15 5.5 C 15 6.878906 13.878906 8 12.5 8 C 11.289062 8 10.28125 7.140625 10.050781 6 L 9.730469 6 C 9.253906 6 8.84375 6.335938 8.75 6.804688 L 8.230469 9.390625 C 8.042969 10.328125 7.222656 11 6.269531 11 L 5.949219 11 C 5.71875 12.140625 4.710938 13 3.5 13 C 2.121094 13 1 11.878906 1 10.5 C 1 9.121094 2.121094 8 3.5 8 C 4.710938 8 5.71875 8.859375 5.949219 10 L 6.269531 10 C 6.746094 10 7.15625 9.664062 7.25 9.195312 L 7.769531 6.609375 C 7.957031 5.671875 8.777344 5 9.730469 5 L 10.050781 5 C 10.28125 3.859375 11.289062 3 12.5 3 C 13.878906 3 15 4.121094 15 5.5 Z M 14 5.5 C 14 4.671875 13.328125 4 12.5 4 C 11.671875 4 11 4.671875 11 5.5 C 11 6.328125 11.671875 7 12.5 7 C 13.328125 7 14 6.328125 14 5.5 Z M 3.5 12 C 4.328125 12 5 11.328125 5 10.5 C 5 9.671875 4.328125 9 3.5 9 C 2.671875 9 2 9.671875 2 10.5 C 2 11.328125 2.671875 12 3.5 12 Z M 3.5 12 "/>
</g>
</svg>
