<svg width="480" height="480" xmlns="http://www.w3.org/2000/svg">
    <defs>
        <linearGradient x1="12.252%" y1="50%" x2="100%" y2="50%" id="a">
            <stop stop-color="#EEE" stop-opacity=".19" offset="0%"/>
            <stop stop-color="#FFF" offset="100%"/>
        </linearGradient>
        <linearGradient x1="12.252%" y1="50%" x2="100%" y2="50%" id="b">
            <stop stop-color="#EEE" stop-opacity=".19" offset="0%"/>
            <stop stop-color="#FFF" offset="100%"/>
        </linearGradient>
    </defs>
    <g fill="none" fill-rule="evenodd">
        <g fill="#8694FD">
            <path d="M231.858238,399.420331 C322.306846,418.825809 436.264537,322.879976 438.197623,207.482922 C432.751123,94.3001304 343.399347,-0.805100111 222.14208,0.00513921086 C100.884813,0.815378533 21.0866157,119.893649 15.8026956,207.482922 C9.6355912,307.280257 108.645644,389.250765 231.858238,399.420331 Z"
                  opacity=".2" transform="translate(20 32)"/>
            <path d="M194.117647,415.317432 C298.441178,419.928417 390.528293,324.223948 388.235294,238.900126 C377.37391,127.203317 301.325863,39.3632784 194.117647,47.0951088 C86.9094309,54.8269393 2.84217094e-14,133.811658 2.84217094e-14,223.512415 C2.85822416,295.058588 90.7620466,402.91958 194.117647,415.317432 Z"
                  opacity=".3" transform="translate(20 32)"/>
            <path d="M207.923106,378.451963 C329.175142,399.419058 412.859954,307.792275 412.38677,207.196851 C419.925706,112.254378 303.590533,9.60386334 196.305556,13.0339825 C83.9119772,13.0339825 14.3454351,98.7560049 15.544671,188.495495 C21.6579476,237.084688 48.4126179,360.782064 207.923106,378.451963 Z"
                  opacity=".4" transform="translate(20 32)"/>
            <path d="M193.181639,374.498124 C301.535358,396.142754 386.312217,368.733672 385.130088,207.216628 C361.237788,87.0872792 272.503537,44.9778587 201.882353,45.6749686 C73.4910599,50.7488836 23.7231619,120.224662 18.6346022,207.216628 C27.247047,258.653672 77.0609229,362.210048 193.181639,374.498124 Z"
                  opacity=".4" transform="translate(20 32)"/>
            <path d="M195.43098,335.609755 C298.698602,321.770596 368.302145,258.816499 369.99012,186.110465 C382.856623,81.0748083 305.703532,23.4231811 203.195686,28.8409875 C111.063078,50.3047747 59.4969389,107.241076 46.754193,186.110465 C46.6357003,254.066277 36.5053399,362.539179 195.43098,335.609755 Z"
                  opacity=".6" transform="translate(20 32)"/>
        </g>
        <path d="M122,184 L319,184 L319,272 C319,280.836556 310.18001,288 299.3,288 L141.7,288 C130.81999,288 122,280.836556 122,272 L122,184 Z"
              fill="#FFF" fill-rule="nonzero" transform="translate(20 32)"/>
        <path d="M157.6,122 L219.816,122 C224.7,122 228.671,125.263333 228.748,129.333333 C228.825,133.403333 232.807,136.666667 237.691,136.666667 L298.4,136.666667 C308.120212,136.666667 316,143.233157 316,151.333333 L316,166 L140,166 L140,136.666667 C140,128.56649 147.879788,122 157.6,122 Z"
              fill="url(#a)" transform="translate(20 32)"/>
        <path d="M164.8,114 L224.188,114 C228.85,114 232.6405,117.040833 232.714,120.833333 C232.7875,124.625833 236.5885,127.666667 241.2505,127.666667 L299.2,127.666667 C308.478384,127.666667 316,133.785442 316,141.333333 L316,155 L148,155 L148,127.666667 C148,120.118775 155.521616,114 164.8,114 Z"
              fill="url(#b)" opacity=".5" transform="translate(20 32)"/>
        <path d="M141.7,127 L211.3395,127 C216.80625,127 221.251062,130.485833 221.33725,134.833333 C221.423437,139.180833 225.880562,142.666667 231.347312,142.666667 L299.3,142.666667 C310.18001,142.666667 319,149.680872 319,158.333333 L319,174 L122,174 L122,142.666667 C122,134.014206 130.81999,127 141.7,127 Z"
              fill="#FFF" fill-rule="nonzero" transform="translate(20 32)"/>
    </g>
</svg>