<svg xmlns="http://www.w3.org/2000/svg" class="icon" version="1.1" width="239.951" height="120" id="svg8"><defs id="defs4"><style type="text/css" id="style2"/><path id="rect839" d="M969.268 200.008H3166.275V1184.661H969.268z"/></defs><path d="m 10,109.41395 h 8.321328 v -14.4875 h 13.635343 l 4.407994,-7.45042 v -0.0342 H 18.321328 V 79.475485 H 38.79563 V 71.99087 H 10 Z M 69.612055,93.428255 c 0,5.93506 -3.07995,8.981225 -8.15755,8.981225 -5.079195,0 -8.157555,-3.153795 -8.157555,-9.247845 v -21.17078 h -8.32146 v 21.38272 C 44.97549,104.38783 51.189015,110 61.34581,110 71.502465,110 77.931785,104.44079 77.931785,93.10709 V 71.990855 h -8.31973 z m 13.80192,-13.84515 h 11.508506 v 29.830845 h 8.319869 V 79.58297 h 11.50838 V 71.990985 H 83.413975 Z m 62.036095,13.84515 c 0,5.93506 -3.07995,8.981225 -8.15914,8.981225 -5.0776,0 -8.15755,-3.153795 -8.15755,-9.247845 v -21.17078 h -8.31973 v 21.38272 c 0,11.014255 6.21338,16.626425 16.37018,16.626425 10.15679,0 16.58611,-5.55921 16.58611,-16.89291 V 71.990855 h -8.31987 z m 63.97122,8.661655 v -7.85887 h 13.45095 l 4.33562,-7.32403 h -17.78657 v -7.590395 h 20.25837 v -7.32576 h -28.52621 v 37.423095 h 28.79723 v -7.32404 z M 193.57504,84.20689 v -0.1075 c 0,-3.52791 -1.13433,-6.22643 -3.24227,-8.312545 -2.48445,-2.45984 -6.21179,-3.79586 -11.02184,-3.79586 H 166.4177 l -4.39549,7.423815 v 0.0079 h 16.58612 c 4.05196,0 6.53802,1.577625 6.53802,5.10553 v 0.107645 c 0,3.152185 -2.32214,5.05098 -6.37411,5.05098 h -16.75003 v 19.727275 h 8.32147 V 96.95794 h 6.53641 l 8.10554,12.45619 h 9.72347 l -9.23826,-13.846755 c 4.80819,-1.76322 8.10406,-5.319205 8.10406,-11.360305" fill="gray" id="path6" fill-opacity="1" stroke-width=".06"/><g aria-label="Avaliable in" transform="matrix(.7158 0 0 .66814 -1358.302 -125.719)" id="text837" style="line-height:.95;white-space:pre;shape-inside:url(#rect839)" font-style="normal" font-weight="400" font-size="40" font-family="sans-serif" fill="gray" fill-opacity="1" stroke="none"><g id="g877" font-style="normal" font-variant="normal" font-weight="400" font-stretch="normal" font-size="40" font-family="JetBrains Mono" text-anchor="middle" fill="gray" fill-opacity="1"><path d="m 1961.7718,234.20781 7.6,-29.2 h 4.84 l 7.56,29.2 h -3.64 l -1.92,-7.76 h -8.84 l -1.92,7.76 z m 6.32,-10.8 h 7.36 l -2.24,-9 q -0.64,-2.56 -1,-4.28 -0.36,-1.72 -0.44,-2.24 -0.08,0.52 -0.44,2.24 -0.36,1.72 -1,4.24 z" style="-inkscape-font-specification:'JetBrains Mono, Normal';font-variant-ligatures:normal;font-variant-caps:normal;font-variant-numeric:normal;font-variant-east-asian:normal;text-align:center" id="path843" opacity=".999"/><path d="m 1993.3317,234.20781 -7.36,-22 h 3.68 l 4.88,14.8 q 0.44,1.32 0.8,2.56 0.36,1.2 0.52,1.88 0.2,-0.68 0.56,-1.88 0.36,-1.24 0.76,-2.56 l 4.76,-14.8 h 3.64 l -7.36,22 z" style="-inkscape-font-specification:'JetBrains Mono, Normal';font-variant-ligatures:normal;font-variant-caps:normal;font-variant-numeric:normal;font-variant-east-asian:normal;text-align:center" id="path845" opacity=".999"/><path d="m 2017.8516,234.60781 q -3.48,0 -5.48,-1.76 -2,-1.8 -2,-4.84 0,-3.08 2,-4.84 2,-1.76 5.4,-1.76 h 6.8 v -2.2 q 0,-2.04 -1.24,-3.12 -1.2,-1.12 -3.44,-1.12 -1.96,0 -3.28,0.84 -1.32,0.8 -1.52,2.2 h -3.6 q 0.36,-2.84 2.68,-4.52 2.32,-1.68 5.8,-1.68 3.8,0 6,1.96 2.2,1.96 2.2,5.32 v 15.12 h -3.52 v -4.2 h -0.04 q -0.24,2.12 -2.08,3.36 -1.8,1.24 -4.68,1.24 z m 0.88,-2.84 q 2.56,0 4.2,-1.28 1.64,-1.28 1.64,-3.28 v -3.12 h -6.72 q -1.8,0 -2.84,1 -1.04,1 -1.04,2.72 0,1.84 1.24,2.92 1.28,1.04 3.52,1.04 z" style="-inkscape-font-specification:'JetBrains Mono, Normal';font-variant-ligatures:normal;font-variant-caps:normal;font-variant-numeric:normal;font-variant-east-asian:normal;text-align:center" id="path847" opacity=".999"/><path d="m 2046.7716,234.20781 q -2.92,0 -4.68,-1.68 -1.72,-1.72 -1.72,-4.52 v -19.72 h -7.4 v -3.28 h 11 v 23 q 0,1.36 0.76,2.16 0.76,0.76 2.04,0.76 h 7 v 3.28 z" style="-inkscape-font-specification:'JetBrains Mono, Normal';font-variant-ligatures:normal;font-variant-caps:normal;font-variant-numeric:normal;font-variant-east-asian:normal;text-align:center" id="path849" opacity=".999"/><path d="m 2059.1715,234.20781 v -3.28 h 7.8 v -15.44 h -6.8 v -3.28 h 10.4 v 18.72 h 7.4 v 3.28 z m 9.2,-25.96 q -1.32,0 -2.08,-0.68 -0.76,-0.68 -0.76,-1.84 0,-1.2 0.76,-1.88 0.76,-0.72 2.08,-0.72 1.32,0 2.08,0.72 0.76,0.68 0.76,1.88 0,1.16 -0.76,1.84 -0.76,0.68 -2.08,0.68 z" style="-inkscape-font-specification:'JetBrains Mono, Normal';font-variant-ligatures:normal;font-variant-caps:normal;font-variant-numeric:normal;font-variant-east-asian:normal;text-align:center" id="path851" opacity=".999"/><path d="m 2089.8515,234.60781 q -3.48,0 -5.48,-1.76 -2,-1.8 -2,-4.84 0,-3.08 2,-4.84 2,-1.76 5.4,-1.76 h 6.8 v -2.2 q 0,-2.04 -1.24,-3.12 -1.2,-1.12 -3.44,-1.12 -1.96,0 -3.28,0.84 -1.32,0.8 -1.52,2.2 h -3.6 q 0.36,-2.84 2.68,-4.52 2.32,-1.68 5.8,-1.68 3.8,0 6,1.96 2.2,1.96 2.2,5.32 v 15.12 h -3.52 v -4.2 h -0.04 q -0.24,2.12 -2.08,3.36 -1.8,1.24 -4.68,1.24 z m 0.88,-2.84 q 2.56,0 4.2,-1.28 1.64,-1.28 1.64,-3.28 v -3.12 h -6.72 q -1.8,0 -2.84,1 -1.04,1 -1.04,2.72 0,1.84 1.24,2.92 1.28,1.04 3.52,1.04 z" style="-inkscape-font-specification:'JetBrains Mono, Normal';font-variant-ligatures:normal;font-variant-caps:normal;font-variant-numeric:normal;font-variant-east-asian:normal;text-align:center" id="path853" opacity=".999"/><path d="m 2117.0514,234.60781 q -2.48,0 -4.08,-1.2 -1.6,-1.24 -1.88,-3.4 h -0.04 v 4.2 h -3.6 v -29.2 h 3.6 v 6.4 l -0.08,5 h 0.12 q 0.28,-2.12 1.88,-3.36 1.6,-1.24 4.08,-1.24 3.32,0 5.32,2.2 2,2.2 2,6 v 6.44 q 0,3.76 -2,5.96 -2,2.2 -5.32,2.2 z m -1.2,-3.12 q 2.28,0 3.6,-1.36 1.32,-1.36 1.32,-3.92 v -6 q 0,-2.56 -1.32,-3.92 -1.32,-1.36 -3.6,-1.36 -2.2,0 -3.52,1.4 -1.28,1.4 -1.28,3.88 v 6 q 0,2.48 1.28,3.88 1.32,1.4 3.52,1.4 z" style="-inkscape-font-specification:'JetBrains Mono, Normal';font-variant-ligatures:normal;font-variant-caps:normal;font-variant-numeric:normal;font-variant-east-asian:normal;text-align:center" id="path855" opacity=".999"/><path d="m 2142.7713,234.20781 q -2.92,0 -4.68,-1.68 -1.72,-1.72 -1.72,-4.52 v -19.72 h -7.4 v -3.28 h 11 v 23 q 0,1.36 0.76,2.16 0.76,0.76 2.04,0.76 h 7 v 3.28 z" style="-inkscape-font-specification:'JetBrains Mono, Normal';font-variant-ligatures:normal;font-variant-caps:normal;font-variant-numeric:normal;font-variant-east-asian:normal;text-align:center" id="path857" opacity=".999"/><path d="m 2163.7713,234.60781 q -2.6,0 -4.56,-1.04 -1.92,-1.04 -3,-2.92 -1.04,-1.92 -1.04,-4.44 v -6 q 0,-2.56 1.04,-4.44 1.08,-1.88 3,-2.92 1.96,-1.04 4.56,-1.04 2.6,0 4.52,1.04 1.96,1.04 3,2.92 1.08,1.88 1.08,4.44 v 3.88 h -13.68 v 2.12 q 0,2.6 1.32,4 1.32,1.36 3.76,1.36 2.08,0 3.36,-0.72 1.28,-0.76 1.56,-2.24 h 3.6 q -0.36,2.76 -2.72,4.4 -2.32,1.6 -5.8,1.6 z m -5.08,-13.24 h 10.16 v -1.16 q 0,-2.6 -1.32,-4 -1.28,-1.4 -3.76,-1.4 -2.44,0 -3.76,1.4 -1.32,1.4 -1.32,4 z" style="-inkscape-font-specification:'JetBrains Mono, Normal';font-variant-ligatures:normal;font-variant-caps:normal;font-variant-numeric:normal;font-variant-east-asian:normal;text-align:center" id="path859" opacity=".999"/><path d="m 2047.1715,276.49872 v -3.28 h 7.8 v -15.44 h -6.8 v -3.28 h 10.4 v 18.72 h 7.4 v 3.28 z m 9.2,-25.96 q -1.32,0 -2.08,-0.68 -0.76,-0.68 -0.76,-1.84 0,-1.2 0.76,-1.88 0.76,-0.72 2.08,-0.72 1.32,0 2.08,0.72 0.76,0.68 0.76,1.88 0,1.16 -0.76,1.84 -0.76,0.68 -2.08,0.68 z" style="-inkscape-font-specification:'JetBrains Mono, Normal';font-variant-ligatures:normal;font-variant-caps:normal;font-variant-numeric:normal;font-variant-east-asian:normal;text-align:center" id="path861" opacity=".999"/><path d="m 2071.4515,276.49872 v -22 h 3.6 v 4.2 h 0.04 q 0.28,-2.2 1.8,-3.4 1.52,-1.2 4.04,-1.2 3.32,0 5.28,2.04 1.96,2.04 1.96,5.56 v 14.8 h -3.6 v -14.4 q 0,-2.36 -1.28,-3.6 -1.24,-1.28 -3.4,-1.28 -2.24,0 -3.56,1.36 -1.28,1.36 -1.28,3.92 v 14 z" style="-inkscape-font-specification:'JetBrains Mono, Normal';font-variant-ligatures:normal;font-variant-caps:normal;font-variant-numeric:normal;font-variant-east-asian:normal;text-align:center" id="path863" opacity=".999"/></g></g></svg>