<?xml version="1.0" encoding="UTF-8" standalone="no"?>
<svg
        xmlns:inkscape="http://www.inkscape.org/namespaces/inkscape"
        xmlns:sodipodi="http://sodipodi.sourceforge.net/DTD/sodipodi-0.dtd"
        t="1630080143638"
        class="icon"
        viewBox="0 0 1024 1024"
        version="1.1"
        p-id="2510"
        width="24"
        height="24"
        id="svg12"
        sodipodi:docname="gamma.svg"
        inkscape:version="1.1 (c4e8f9ed74, 2021-05-24)"
        xmlns="http://www.w3.org/2000/svg"
>
    <sodipodi:namedview
            id="namedview14"
            pagecolor="#505050"
            bordercolor="#ffffff"
            borderopacity="1"
            inkscape:pageshadow="0"
            inkscape:pageopacity="0"
            inkscape:pagecheckerboard="1"
            showgrid="false"
            inkscape:zoom="35.166667"
            inkscape:cx="11.985782"
            inkscape:cy="12"
            inkscape:window-width="1920"
            inkscape:window-height="1044"
            inkscape:window-x="0"
            inkscape:window-y="36"
            inkscape:window-maximized="1"
            inkscape:current-layer="svg12"/>
    <defs
            id="defs4">
        <style
                type="text/css"
                id="style2"/>
    </defs>
    <path
            d="m 522.90013,565.85274 c -20.183,-96.03 -42.48,-172.2 -66.895,-228.516 -24.414,-56.315 -46.712,-84.473 -66.894,-84.473 -10.092,0 -18.23,4.883 -24.414,14.649 -6.185,9.765 -10.092,23.6 -11.72,41.504 h -22.948 v -29.785 c 0,-40.04 5.778,-69.906 17.334,-89.6 11.556,-19.694 29.052,-29.541 52.49,-29.541 42.969,0 87.727,106.607 134.277,319.824 l 8.79,41.016 c 32.226,-76.498 53.873,-160.156 64.94,-250.977 1.303,-11.719 2.442,-20.02 3.419,-24.902 3.906,-29.623 10.09,-51.025 18.554,-64.21 8.464,-13.183 19.857,-19.774 34.18,-19.774 13.997,0 24.658,3.743 31.982,11.23 7.325,7.487 10.987,18.392 10.987,32.715 0,26.693 -20.345,81.298 -61.035,163.818 -40.69,82.52 -71.29,149.17 -91.797,199.951 5.208,37.435 9.196,71.045 11.963,100.83 2.766,29.786 4.15,54.932 4.15,75.44 0,33.529 -3.418,57.536 -10.254,72.021 -6.836,14.486 -17.74,21.729 -32.715,21.729 -14.648,0 -25.716,-6.022 -33.203,-18.067 -7.487,-12.044 -11.23,-29.947 -11.23,-53.71 0,-23.764 3.418,-52.49 10.253,-86.182 6.836,-33.692 16.765,-72.021 29.786,-114.99 z"
            p-id="2511"
            fill="#dddddd"
            id="path6"/>
    <path
            d="m 522.90013,565.85274 c -20.183,-96.03 -42.48,-172.2 -66.895,-228.516 -24.414,-56.315 -46.712,-84.473 -66.894,-84.473 -10.092,0 -18.23,4.883 -24.414,14.649 -6.185,9.765 -10.092,23.6 -11.72,41.504 h -22.948 v -29.785 c 0,-40.04 5.778,-69.906 17.334,-89.6 11.556,-19.694 29.052,-29.541 52.49,-29.541 42.969,0 87.727,106.607 134.277,319.824 l 8.79,41.016 c 32.226,-76.498 53.873,-160.156 64.94,-250.977 1.303,-11.719 2.442,-20.02 3.419,-24.902 3.906,-29.623 10.09,-51.025 18.554,-64.21 8.464,-13.183 19.857,-19.774 34.18,-19.774 13.997,0 24.658,3.743 31.982,11.23 7.325,7.487 10.987,18.392 10.987,32.715 0,26.693 -20.345,81.298 -61.035,163.818 -40.69,82.52 -71.29,149.17 -91.797,199.951 5.208,37.435 9.196,71.045 11.963,100.83 2.766,29.786 4.15,54.932 4.15,75.44 0,33.529 -3.418,57.536 -10.254,72.021 -6.836,14.486 -17.74,21.729 -32.715,21.729 -14.648,0 -25.716,-6.022 -33.203,-18.067 -7.487,-12.044 -11.23,-29.947 -11.23,-53.71 0,-23.764 3.418,-52.49 10.253,-86.182 6.836,-33.692 16.765,-72.021 29.786,-114.99 z"
            p-id="2512"
            fill="#dddddd"
            id="path8"/>
    <path
            d="M293.978 158.138c5.627 0.514 8.445-0.75 8.265-3.849-0.232-3.977-1.57-4.539-8.115-4.538H294a0.25 0.25 0 0 0 0 0.5h0.128c6.308 0 7.405 0.46 7.615 4.067 0.157 2.686-2.354 3.812-7.72 3.322a0.25 0.25 0 1 0-0.045 0.498zM293 161.25h9.523a0.25 0.25 0 0 0 0-0.5H293a0.25 0.25 0 0 0 0 0.5z"
            p-id="2513"
            fill="#dddddd"
            id="path10"/>
</svg>
