<?xml version="1.0" encoding="UTF-8"?>
<svg xmlns="http://www.w3.org/2000/svg" xmlns:xlink="http://www.w3.org/1999/xlink" width="16px" height="16px" viewBox="0 0 16 16" version="1.1">
<g id="surface1">
<path style=" stroke:none;fill-rule:nonzero;fill:rgb(86.666667%,86.666667%,86.666667%);fill-opacity:1;" d="M 8 2 C 11.3125 2 14 4.6875 14 8 C 14 11.3125 11.3125 14 8 14 C 6.859375 14 5.765625 13.679688 4.820312 13.089844 C 4.433594 12.847656 4.078125 12.5625 3.757812 12.242188 C 3.433594 11.921875 3.152344 11.5625 2.910156 11.175781 C 2.316406 10.230469 2 9.140625 2 8 C 2 7.816406 2.007812 7.636719 2.023438 7.453125 C 2.050781 7.179688 2.292969 6.976562 2.566406 7 C 2.84375 7.027344 3.046875 7.269531 3.019531 7.542969 C 3.007812 7.695312 3 7.847656 3 8 C 3 8.949219 3.265625 9.859375 3.757812 10.648438 C 3.957031 10.96875 4.195312 11.265625 4.464844 11.535156 C 4.730469 11.804688 5.03125 12.039062 5.351562 12.242188 C 6.140625 12.734375 7.050781 13 8 13 C 10.761719 13 13 10.761719 13 8 C 13 5.238281 10.761719 3 8 3 C 6.402344 3 4.933594 3.753906 4 5 L 5.835938 5 C 6.113281 5 6.335938 5.226562 6.335938 5.5 C 6.335938 5.753906 6.148438 5.964844 5.902344 5.996094 L 5.835938 6 L 2.832031 6 C 2.582031 6 2.371094 5.8125 2.339844 5.570312 L 2.332031 5.5 L 2.332031 2.5 C 2.332031 2.226562 2.558594 2 2.832031 2 C 3.085938 2 3.296875 2.191406 3.328125 2.433594 L 3.332031 2.5 L 3.332031 4.230469 C 4.457031 2.835938 6.15625 2 8 2 Z M 7.5 4.667969 C 7.753906 4.667969 7.960938 4.855469 7.996094 5.097656 L 8 5.167969 L 8 8 L 9.5 8 C 9.777344 8 10 8.222656 10 8.5 C 10 8.753906 9.8125 8.960938 9.566406 8.996094 L 9.5 9 L 7.5 9 C 7.246094 9 7.039062 8.8125 7.003906 8.566406 L 7 8.5 L 7 5.167969 C 7 4.890625 7.222656 4.667969 7.5 4.667969 Z M 7.5 4.667969 "/>
</g>
</svg>
