<svg width="16" height="16" xmlns="http://www.w3.org/2000/svg">
    <path d="m 8,2 c 3.313708,0 6,2.6862915 6,6 0,3.313708 -2.686292,6 -6,6 C 6.8602583,14 5.7662987,13.681196 4.8205374,13.089188 4.4352938,12.848042 4.0784647,12.563784 3.7571101,12.242391 3.435266,11.92051 3.1506748,11.563051 2.9093392,11.177109 2.3182672,10.23187 2,9.138783 2,8 2,7.8172307 2.0081866,7.6353881 2.0244644,7.4548474 2.0492611,7.1798207 2.2923162,6.9769691 2.567343,7.0017659 2.8423697,7.0265627 3.0452212,7.2696177 3.0204244,7.5446445 3.0068377,7.6953387 3,7.8472187 3,8 c 0,0.9499109 0.2648447,1.859519 0.7572174,2.646918 0.2012061,0.321767 0.4385679,0.619904 0.7070408,0.888408 0.2680647,0.268096 0.5656766,0.50518 0.8868624,0.706229 C 6.138957,12.734708 7.0492907,13 8,13 10.761424,13 13,10.761424 13,8 13,5.2385763 10.761424,3 8,3 6.4018052,3 4.9330168,3.7552073 3.9984967,5.0013087 l 1.8376278,8.69e-5 c 0.2761424,0 0.5,0.2238576 0.5,0.5 0,0.2531305 -0.1881026,0.4623273 -0.4321529,0.4954356 l -0.067847,0.00456 H 2.8333333 c -0.2531305,0 -0.4623273,-0.1881026 -0.4954356,-0.432153 l -0.00456,-0.067847 v -3 c 0,-0.2761424 0.2238577,-0.5 0.5,-0.5 0.2531305,0 0.4623273,0.1881026 0.4954356,0.432153 l 0.00456,0.067847 -6.655e-4,1.7275916 C 4.4572462,2.8373559 6.1575185,2 8,2 Z M 7.5,4.6666667 c 0.253,0 0.4623055,0.1882222 0.4954329,0.4321828 L 8,5.1666667 V 8 H 9.5 C 9.776,8 10,8.224 10,8.5 10,8.753 9.811778,8.9623055 9.567817,8.9954329 L 9.5,9 h -2 C 7.247,9 7.0376945,8.8117778 7.0045671,8.5678171 L 7,8.5 V 5.1666667 c 0,-0.276 0.224,-0.5 0.5,-0.5 z"
          fill="#ddd" stroke-width=".667"/>
</svg>