<?xml version="1.0" encoding="UTF-8"?>
<svg xmlns="http://www.w3.org/2000/svg" xmlns:xlink="http://www.w3.org/1999/xlink" width="16px" height="16px" viewBox="0 0 16 16" version="1.1">
<g id="surface1">
<path style=" stroke:none;fill-rule:nonzero;fill:rgb(86.666667%,86.666667%,86.666667%);fill-opacity:1;" d="M 7.3125 1.261719 C 7.699219 0.898438 8.300781 0.898438 8.6875 1.261719 L 13.53125 5.839844 C 13.832031 6.125 14 6.519531 14 6.929688 L 14 12.5 C 14 13.328125 13.328125 14 12.5 14 L 10.5 14 C 9.671875 14 9 13.328125 9 12.5 L 9 10 C 9 9.722656 8.777344 9.5 8.5 9.5 L 7.5 9.5 C 7.222656 9.5 7 9.722656 7 10 L 7 12.5 C 7 13.328125 6.328125 14 5.5 14 L 3.5 14 C 2.671875 14 2 13.328125 2 12.5 L 2 6.929688 C 2 6.519531 2.167969 6.125 2.46875 5.839844 Z M 8 1.988281 L 3.15625 6.566406 C 3.054688 6.660156 3 6.792969 3 6.929688 L 3 12.5 C 3 12.777344 3.222656 13 3.5 13 L 5.5 13 C 5.777344 13 6 12.777344 6 12.5 L 6 10 C 6 9.171875 6.671875 8.5 7.5 8.5 L 8.5 8.5 C 9.328125 8.5 10 9.171875 10 10 L 10 12.5 C 10 12.777344 10.222656 13 10.5 13 L 12.5 13 C 12.777344 13 13 12.777344 13 12.5 L 13 6.929688 C 13 6.792969 12.945312 6.660156 12.84375 6.566406 Z M 8 1.988281 "/>
</g>
</svg>
