<?xml version="1.0" encoding="UTF-8"?>
<svg xmlns="http://www.w3.org/2000/svg" xmlns:xlink="http://www.w3.org/1999/xlink" width="16px" height="16px" viewBox="0 0 16 16" version="1.1">
<g id="surface1">
<path style=" stroke:none;fill-rule:nonzero;fill:rgb(86.666667%,86.666667%,86.666667%);fill-opacity:1;" d="M 7.601562 8.992188 C 5.925781 8.785156 4.667969 7.363281 4.671875 5.675781 C 4.671875 3.828125 6.160156 2.332031 8 2.332031 C 9.839844 2.332031 11.328125 3.828125 11.328125 5.675781 C 11.328125 6.132812 11.238281 6.570312 11.070312 6.96875 C 10.789062 6.9375 10.507812 6.9375 10.230469 6.972656 C 10.457031 6.578125 10.578125 6.128906 10.578125 5.675781 C 10.582031 4.246094 9.425781 3.089844 8 3.085938 C 6.574219 3.089844 5.417969 4.246094 5.421875 5.675781 C 5.417969 7.101562 6.574219 8.257812 8 8.261719 L 8.023438 8.261719 C 7.851562 8.488281 7.710938 8.730469 7.601562 8.992188 Z M 7.59375 8.992188 C 7.589844 8.988281 7.582031 8.988281 7.578125 8.984375 C 7.65625 8.796875 7.71875 8.664062 7.761719 8.59375 C 7.804688 8.519531 7.886719 8.414062 8 8.285156 L 8.003906 8.289062 C 8.632812 7.441406 9.621094 6.945312 10.671875 6.945312 C 12.511719 6.945312 14 8.441406 14 10.285156 C 14 12.132812 12.511719 13.628906 10.671875 13.628906 C 9.617188 13.628906 8.625 13.128906 8 12.277344 C 7.375 13.128906 6.382812 13.628906 5.328125 13.628906 C 3.488281 13.628906 2 12.132812 2 10.285156 C 1.996094 8.597656 3.253906 7.175781 4.929688 6.96875 C 5.039062 7.230469 5.179688 7.472656 5.351562 7.699219 L 5.328125 7.699219 C 3.902344 7.699219 2.746094 8.859375 2.75 10.285156 C 2.746094 11.710938 3.902344 12.871094 5.328125 12.875 C 6.753906 12.871094 7.910156 11.710938 7.90625 10.285156 C 7.90625 9.8125 7.777344 9.367188 7.558594 8.984375 Z M 8.414062 9.035156 C 8.570312 9.421875 8.65625 9.84375 8.65625 10.285156 C 8.65625 10.730469 8.570312 11.152344 8.414062 11.539062 C 8.867188 12.363281 9.730469 12.875 10.671875 12.875 C 12.097656 12.871094 13.253906 11.710938 13.25 10.285156 C 13.253906 8.859375 12.097656 7.699219 10.671875 7.699219 C 9.730469 7.699219 8.867188 8.210938 8.414062 9.035156 Z M 8.414062 9.035156 "/>
</g>
</svg>
