<?xml version="1.0" encoding="UTF-8" standalone="no"?>
<svg
   t="1630080549084"
   class="icon"
   viewBox="0 0 1024 1024"
   version="1.1"
   p-id="3486"
   width="24"
   height="24"
   id="svg8"
   sodipodi:docname="hue.svg"
   inkscape:version="1.1 (c4e8f9ed74, 2021-05-24)"
   xmlns:inkscape="http://www.inkscape.org/namespaces/inkscape"
   xmlns:sodipodi="http://sodipodi.sourceforge.net/DTD/sodipodi-0.dtd"
   xmlns="http://www.w3.org/2000/svg"
   xmlns:svg="http://www.w3.org/2000/svg">
  <sodipodi:namedview
     id="namedview10"
     pagecolor="#505050"
     bordercolor="#ffffff"
     borderopacity="1"
     inkscape:pageshadow="0"
     inkscape:pageopacity="0"
     inkscape:pagecheckerboard="1"
     showgrid="false"
     inkscape:zoom="35.166667"
     inkscape:cx="11.985782"
     inkscape:cy="12"
     inkscape:window-width="1920"
     inkscape:window-height="1044"
     inkscape:window-x="0"
     inkscape:window-y="36"
     inkscape:window-maximized="1"
     inkscape:current-layer="svg8" />
  <defs
     id="defs4">
    <style
       type="text/css"
       id="style2" />
  </defs>
  <path
     d="M 486.56577,575.48284 A 213.59428,213.59428 0 0 1 298.99313,363.1535 c 0,-118.04608 95.3675,-213.82017 213.007,-213.82017 117.63948,0 213.00698,95.77409 213.00698,213.82017 0,29.3647 -5.87294,57.3741 -16.57976,82.85362 a 214.9044,214.9044 0 0 0 -53.7148,0.36142 A 165.34583,165.34583 0 0 0 676.98453,363.1535 165.34583,165.34583 0 0 0 512.00013,197.53662 165.34583,165.34583 0 0 0 347.01571,363.1535 165.34583,165.34583 0 0 0 512.00013,528.81556 h 1.49082 a 213.77499,213.77499 0 0 0 -26.92518,46.66728 z m -0.58729,-0.0452 a 240.42909,240.42909 0 0 1 -0.99388,-0.36141 c 5.01458,-12.1073 8.94494,-20.46494 11.74588,-25.16329 2.80094,-4.65317 7.90588,-11.29411 15.36,-19.78728 l 0.22588,0.27105 A 212.4197,212.4197 0 0 1 682.99301,444.47109 C 800.6325,444.47109 896,540.24518 896,658.33643 c 0,118.09126 -95.32233,213.8202 -213.00699,213.8202 A 212.4197,212.4197 0 0 1 512.00013,785.86958 212.4197,212.4197 0 0 1 341.00724,872.15665 c -117.68467,0 -213.00699,-95.77412 -213.00699,-213.8202 A 213.59428,213.59428 0 0 1 315.5729,446.00712 c 6.95717,16.62494 16.03764,32.30117 26.92516,46.66728 h -1.49082 A 165.34583,165.34583 0 0 0 176.02282,658.33646 165.34583,165.34583 0 0 0 341.00724,823.95335 165.34583,165.34583 0 0 0 505.99165,658.33646 c 0,-30.35858 -8.13176,-58.72939 -22.27199,-83.21503 z m 52.5854,2.75577 c 9.93881,24.75669 15.45034,51.81739 15.45034,80.14302 0,28.32564 -5.51153,55.34117 -15.45034,80.09786 A 164.84889,164.84889 0 0 0 682.99301,823.95335 165.34583,165.34583 0 0 0 847.97742,658.33646 165.34583,165.34583 0 0 0 682.99301,492.6744 164.89407,164.89407 0 0 0 538.56388,578.19343 Z"
     p-id="3487"
     fill="#dddddd"
     id="path6"
     style="stroke-width:1.14706" />
</svg>
