<svg xmlns="http://www.w3.org/2000/svg" width="16" height="16"><path d="M 12.5 1.996094 C 12.777344 1.996094 13 2.21875 13 2.496094 L 13 5.003906 L 13.5 5.003906 C 13.777344 5.003906 14 5.226562 14 5.503906 C 14 5.777344 13.777344 6.003906 13.5 6.003906 L 13 6.003906 L 13 10.5 C 13 10.777344 12.777344 11 12.5 11 C 12.222656 11 12 10.777344 12 10.5 L 12 2.496094 C 12 2.21875 12.222656 1.996094 12.5 1.996094 Z M 7.5 2.996094 L 10 2.996094 L 10 4.25 C 10 4.664062 9.84375 4.957031 9.601562 5.15625 C 9.347656 5.367188 8.96875 5.5 8.503906 5.5 C 8.226562 5.5 8.003906 5.722656 8.003906 6 C 8.003906 6.277344 8.226562 6.5 8.503906 6.5 C 9.152344 6.5 9.769531 6.316406 10.238281 5.929688 C 10.714844 5.53125 11 4.953125 11 4.25 L 11 2.496094 C 11 2.363281 10.949219 2.234375 10.855469 2.140625 C 10.761719 2.046875 10.632812 1.996094 10.5 1.996094 L 7.5 1.996094 C 7.222656 1.996094 7 2.21875 7 2.496094 C 7 2.773438 7.222656 2.996094 7.5 2.996094 Z M 6.453125 5.300781 C 6.375 5.117188 6.195312 5 5.996094 5 C 5.796875 5 5.617188 5.117188 5.539062 5.300781 L 2.042969 13.300781 C 1.929688 13.550781 2.046875 13.847656 2.300781 13.957031 C 2.554688 14.070312 2.847656 13.953125 2.957031 13.699219 L 4.136719 11 L 7.835938 11 C 7.84375 11 7.851562 11 7.859375 11 L 9.042969 13.699219 C 9.152344 13.953125 9.449219 14.070312 9.699219 13.957031 C 9.953125 13.847656 10.070312 13.550781 9.957031 13.300781 Z M 7.421875 10 L 4.574219 10 L 5.996094 6.746094 Z M 7.421875 10" fill="#ddd"/></svg>