<svg width="480" height="480" xmlns="http://www.w3.org/2000/svg">
    <defs>
        <linearGradient x1="12.252%" y1="50%" x2="100%" y2="50%" id="a">
            <stop stop-color="#EEE" stop-opacity=".19" offset="0%"/>
            <stop stop-color="#FFF" offset="100%"/>
        </linearGradient>
    </defs>
    <g fill="none" fill-rule="evenodd">
        <g fill="#FE4EBC">
            <path d="M231.858238,399.420331 C322.306846,418.825809 436.264537,322.879976 438.197623,207.482922 C432.751123,94.3001304 343.399347,-0.805100111 222.14208,0.00513921086 C100.884813,0.815378533 21.0866157,119.893649 15.8026956,207.482922 C9.6355912,307.280257 108.645644,389.250765 231.858238,399.420331 Z"
                  opacity=".2" transform="translate(20 32)"/>
            <path d="M194.117647,415.317432 C298.441178,419.928417 390.528293,324.223948 388.235294,238.900126 C377.37391,127.203317 301.325863,39.3632784 194.117647,47.0951088 C86.9094309,54.8269393 2.84217094e-14,133.811658 2.84217094e-14,223.512415 C2.85822416,295.058588 90.7620466,402.91958 194.117647,415.317432 Z"
                  opacity=".3" transform="translate(20 32)"/>
            <path d="M207.923106,378.451963 C329.175142,399.419058 412.859954,307.792275 412.38677,207.196851 C419.925706,112.254378 303.590533,9.60386334 196.305556,13.0339825 C83.9119772,13.0339825 14.3454351,98.7560049 15.544671,188.495495 C21.6579476,237.084688 48.4126179,360.782064 207.923106,378.451963 Z"
                  opacity=".4" transform="translate(20 32)"/>
            <path d="M193.181639,374.498124 C301.535358,396.142754 386.312217,368.733672 385.130088,207.216628 C361.237788,87.0872792 272.503537,44.9778587 201.882353,45.6749686 C73.4910599,50.7488836 23.7231619,120.224662 18.6346022,207.216628 C27.247047,258.653672 77.0609229,362.210048 193.181639,374.498124 Z"
                  opacity=".4" transform="translate(20 32)"/>
            <path d="M195.43098,335.609755 C298.698602,321.770596 368.302145,258.816499 369.99012,186.110465 C382.856623,81.0748083 305.703532,23.4231811 203.195686,28.8409875 C111.063078,50.3047747 59.4969389,107.241076 46.754193,186.110465 C46.6357003,254.066277 36.5053399,362.539179 195.43098,335.609755 Z"
                  opacity=".6" transform="translate(20 32)"/>
        </g>
        <path fill="url(#a)" transform="rotate(14 162.305 361.627)"
              d="M281.525872 241.58654L268.512325 230.514391 248.285529 230.51104 234.729172 242.774134 234.732249 261.359151 282.621729 297.855562 330.500896 261.283204 330.497712 242.054092 317.167576 230.522452 294.972868 230.518775z"/>
        <path fill="#FFF" fill-rule="nonzero"
              d="M190.615493 152.604278L162.083613 124 117.730616 124 88 155.692994 88 203.715696 192.998043 298 298 203.478457 298 153.791443 268.774076 124 220.105873 124z"
              transform="translate(20 32)"/>
    </g>
</svg>