<svg class="icon" viewBox="0 0 4096 4096" version="1.1" width="256" height="256" id="svg8" xmlns="http://www.w3.org/2000/svg"><defs id="defs4"><style type="text/css" id="style2"/></defs><path d="m 3463.2768,1450.0978 c -68.7712,-162.5867 -163.9756,-310.3866 -283.324,-440.2949 23.6268,-46.54374 36.9544,-99.19558 36.9544,-154.9665 C 3216.9072,665.49308 3063.414,512 2874.0708,512 c -99.832,0 -189.6812,42.68268 -252.3372,110.77876 C 2439.4057,549.2744 2246.5389,512 2048.0035,512 1840.6736,512 1639.5114,552.62204 1450.1154,632.73384 1267.1896,710.09928 1102.9362,820.8464 961.89832,961.88424 820.84992,1102.9256 710.10632,1267.186 632.7444,1450.1013 552.62908,1639.5079 512,1840.67 512,2048.0035 c 0,207.3265 40.62908,408.4921 120.73384,597.8917 77.36548,182.9188 188.11256,347.1756 329.15392,488.2172 141.03434,141.0412 305.29124,251.7848 488.21704,329.1536 189.3996,80.1084 390.5617,120.734 597.8917,120.734 207.33,0 408.4921,-40.6256 597.9023,-120.734 182.9152,-77.3688 347.1756,-188.116 488.2136,-329.1536 141.0484,-141.0416 251.792,-305.2984 329.1536,-488.2172 C 3543.3672,2456.4956 3584,2255.33 3584,2048.0035 c 0,-207.3335 -40.622,-408.4921 -120.7232,-597.9057 z m -123.5716,1143.5394 c -70.6036,166.9224 -171.6836,316.8464 -300.442,445.6152 -128.7728,128.762 -278.6896,229.8528 -445.626,300.4492 C 2420.8564,3412.77 2237.2765,3449.83 2048,3449.83 c -189.266,0 -372.8458,-37.0532 -545.6442,-110.1284 -166.9224,-70.6032 -316.8464,-171.6872 -445.6153,-300.4492 C 927.9716,2910.4836 826.88768,2760.5596 756.29844,2593.6372 683.21604,2420.8564 646.15968,2237.273 646.15968,2047.9965 c 0,-189.2765 37.05636,-372.8564 110.13876,-545.6372 70.58924,-166.9225 171.67668,-316.8534 300.44206,-445.6153 128.769,-128.76188 278.6929,-229.84932 445.6153,-300.4526 172.7984,-73.07892 356.3783,-110.13528 545.6442,-110.13528 173.8815,0 342.9419,31.29644 503.2464,93.03828 -12.9476,36.13152 -20.0156,75.05864 -20.0156,115.64552 0,189.34328 153.4932,342.83648 342.8364,342.83648 84.444,0 161.7356,-30.5474 221.4836,-81.1703 102.188,114.6785 184.2024,244.1121 244.1544,385.8532 73.0788,172.7808 110.1352,356.3607 110.1352,545.6372 0,189.2765 -37.0528,372.8599 -110.1352,545.6407 z" fill="#ddd" id="path6" stroke-width="3.436"/></svg>