<?xml version="1.0" encoding="UTF-8"?>
<svg xmlns="http://www.w3.org/2000/svg" xmlns:xlink="http://www.w3.org/1999/xlink" width="16px" height="16px" viewBox="0 0 16 16" version="1.1">
<g id="surface1">
<path style=" stroke:none;fill-rule:nonzero;fill:rgb(86.666667%,86.666667%,86.666667%);fill-opacity:1;" d="M 7.835938 1.503906 L 8 1.5 C 9.324219 1.5 10.410156 2.53125 10.496094 3.835938 L 10.5 4 L 10.5 5 L 11.5 5 C 12.328125 5 13 5.671875 13 6.5 L 13 12.5 C 13 13.328125 12.328125 14 11.5 14 L 4.5 14 C 3.671875 14 3 13.328125 3 12.5 L 3 6.5 C 3 5.671875 3.671875 5 4.5 5 L 5.5 5 L 5.5 4 C 5.5 2.675781 6.53125 1.589844 7.835938 1.503906 Z M 11.5 6 L 4.5 6 C 4.222656 6 4 6.222656 4 6.5 L 4 12.5 C 4 12.777344 4.222656 13 4.5 13 L 11.5 13 C 11.777344 13 12 12.777344 12 12.5 L 12 6.5 C 12 6.222656 11.777344 6 11.5 6 Z M 8 8.5 C 8.550781 8.5 9 8.949219 9 9.5 C 9 10.050781 8.550781 10.5 8 10.5 C 7.449219 10.5 7 10.050781 7 9.5 C 7 8.949219 7.449219 8.5 8 8.5 Z M 8.144531 2.507812 L 8 2.5 C 7.21875 2.5 6.578125 3.09375 6.507812 3.855469 L 6.5 4 L 6.5 5 L 9.5 5 L 9.5 4 C 9.5 3.21875 8.90625 2.578125 8.144531 2.507812 Z M 8.144531 2.507812 "/>
</g>
</svg>
