<svg class="icon" viewBox="0 0 682.667 682.667" version="1.1" width="16" height="16" id="svg8" xmlns="http://www.w3.org/2000/svg"><defs id="defs4"><style type="text/css" id="style2"/></defs><path d="m 588.16604,422.78788 a 35.5814,34.583272 0 0 0 -26.5783,-11.63637 36.419455,35.397818 0 0 0 -14.11524,2.79273 213.8356,207.83709 0 0 1 -81.13564,20.48 c -107.8217,0 -202.41412,-92.39273 -202.41412,-197.81818 0,-26.18182 19.82598,-59.81091 35.76099,-86.80728 2.51416,-4.30545 4.95649,-8.37818 7.25515,-12.4509 a 35.916623,34.909091 0 0 0 -31.12773,-52.014547 36.4434,35.421091 0 0 0 -14.11523,2.79273 C 161.1174,130.48243 85.333333,239.28242 85.333333,341.33332 c 0,141.1491 122.858787,256.00001 273.876207,256.00001 A 268.68028,261.14327 0 0 0 592.73942,463.16606 35.916623,34.909091 0 0 0 588.16604,422.78788 Z M 359.17363,562.42424 c -127.9829,0 -238.15115,-96 -238.15115,-221.09092 0,-93.32362 72.34804,-186.41453 154.81261,-221.0909 -18.94003,32.81454 -47.62544,75.98545 -47.62544,116.36364 0,125.0909 110.14431,232.72727 238.13918,232.72727 A 251.21283,244.16582 0 0 0 561.61169,446.0606 233.03902,226.50182 0 0 1 359.14968,562.42424 Z m 53.32421,-334.66182 -7.33896,41.89091 a 17.958311,17.454545 0 0 0 25.90785,18.38546 l 38.4667,-19.78183 38.45473,19.78183 a 18.592838,18.071273 0 0 0 8.32069,1.97817 17.958311,17.454545 0 0 0 17.59915,-20.36363 l -7.35094,-41.89091 31.12774,-29.67272 a 18.018173,17.512727 0 0 0 -9.88904,-29.7891 l -43.01615,-6.0509 -19.22736,-38.05091 a 17.778728,17.28 0 0 0 -32.02566,0 l -19.22736,38.05091 -43.01614,6.0509 a 17.958311,17.454545 0 0 0 -9.90101,29.7891 z m 36.2279,-32.34909 a 17.635062,17.140364 0 0 0 13.44479,-9.54182 l 7.3629,-14.54545 7.37489,14.54545 a 17.62309,17.128727 0 0 0 13.44478,9.54182 l 16.48574,2.44363 -11.97221,11.28727 a 18.125923,17.617455 0 0 0 -5.14805,15.47637 l 2.81346,16.05818 -14.72581,-7.56363 a 17.742811,17.245091 0 0 0 -16.61742,0 l -14.76174,7.56363 2.81348,-16.05818 a 18.078033,17.570909 0 0 0 -5.13608,-15.47637 l -11.97221,-11.28727 z" fill="#ddd" id="path6" stroke-width=".761"/></svg>