<?xml version="1.0" encoding="UTF-8"?>
<svg xmlns="http://www.w3.org/2000/svg" xmlns:xlink="http://www.w3.org/1999/xlink" width="16px" height="16px" viewBox="0 0 16 16" version="1.1">
<g id="surface1">
<path style=" stroke:none;fill-rule:nonzero;fill:rgb(86.666667%,86.666667%,86.666667%);fill-opacity:1;" d="M 7.851562 3.015625 C 10.425781 3.214844 12.457031 5.371094 12.457031 8 C 12.457031 10.761719 10.21875 13 7.457031 13 C 5.703125 13 4.15625 12.097656 3.265625 10.726562 C 4.667969 10.347656 6.582031 9.425781 7.425781 7.175781 C 7.976562 5.703125 8.007812 4.238281 7.851562 3.015625 Z M 13.457031 8 C 13.457031 4.6875 10.769531 2 7.457031 2 C 7.386719 2 7.316406 2 7.246094 2.003906 C 7.101562 2.007812 6.964844 2.078125 6.871094 2.191406 C 6.78125 2.304688 6.746094 2.453125 6.769531 2.597656 C 7 3.808594 7.050781 5.324219 6.488281 6.824219 C 5.6875 8.957031 3.6875 9.664062 2.410156 9.894531 C 2.257812 9.921875 2.125 10.019531 2.054688 10.160156 C 1.984375 10.300781 1.980469 10.464844 2.050781 10.605469 C 3.019531 12.613281 5.074219 14 7.457031 14 C 10.769531 14 13.457031 11.3125 13.457031 8 Z M 13.457031 8 "/>
</g>
</svg>
