<?xml version="1.0" encoding="UTF-8"?>
<svg xmlns="http://www.w3.org/2000/svg" xmlns:xlink="http://www.w3.org/1999/xlink" width="16px" height="16px" viewBox="0 0 16 16" version="1.1">
<g id="surface1">
<path style=" stroke:none;fill-rule:nonzero;fill:rgb(86.666667%,86.666667%,86.666667%);fill-opacity:1;" d="M 13.21875 4.246094 L 7.085938 6.238281 C 7.015625 6.285156 6.933594 6.3125 6.847656 6.316406 L 4.742188 7 L 13.5 7 C 13.777344 7 14 7.222656 14 7.5 L 14 12.5 C 14 13.882812 12.878906 15 11.5 15 L 4.5 15 C 3.121094 15 2 13.882812 2 12.5 L 2 7.5 C 2 7.394531 2.035156 7.292969 2.089844 7.214844 L 1.894531 6.609375 C 1.46875 5.296875 2.1875 3.886719 3.5 3.460938 L 10.15625 1.296875 C 11.46875 0.871094 12.878906 1.589844 13.308594 2.902344 L 13.539062 3.617188 C 13.625 3.878906 13.480469 4.160156 13.21875 4.246094 Z M 9.472656 4.410156 L 10.757812 2.183594 C 10.660156 2.195312 10.5625 2.21875 10.464844 2.25 L 9.222656 2.652344 L 7.914062 4.917969 Z M 11.769531 2.433594 C 11.761719 2.445312 11.757812 2.457031 11.75 2.46875 L 10.894531 3.949219 L 12.433594 3.449219 L 12.355469 3.210938 C 12.25 2.882812 12.039062 2.613281 11.769531 2.433594 Z M 7.800781 3.117188 L 6.238281 3.621094 L 4.929688 5.886719 L 6.492188 5.378906 Z M 2.921875 6.539062 L 3.511719 6.347656 L 4.816406 4.085938 L 3.808594 4.410156 C 3.019531 4.667969 2.589844 5.515625 2.847656 6.300781 Z M 3 8 L 3 12.5 C 3 13.328125 3.671875 14 4.5 14 L 11.5 14 C 12.328125 14 13 13.328125 13 12.5 L 13 8 Z M 3 8 "/>
</g>
</svg>
