<svg width="16" height="16" xmlns="http://www.w3.org/2000/svg">
    <path d="M 1.9880374,11.737532 H 14.012521 c 0.269227,0 0.487479,0.218252 0.487479,0.487479 0,0.246792 -0.183392,0.45075 -0.421331,0.483029 l -0.06615,0.0045 H 1.9880374 c -0.2692272,0 -0.487479,-0.218252 -0.487479,-0.487479 0,-0.246792 0.1833921,-0.45075 0.421331,-0.483029 l 0.066148,-0.0045 H 14.012521 Z m 0,-4.2228649 H 14.012521 c 0.269227,0 0.487479,0.2182518 0.487479,0.4874791 0,0.2467917 -0.183392,0.4507496 -0.421331,0.4830286 l -0.06615,0.0045 H 1.9880374 c -0.2692272,0 -0.487479,-0.2182513 -0.487479,-0.4874786 0,-0.2467917 0.1833921,-0.4507498 0.421331,-0.483029 l 0.066148,-0.00445 H 14.012521 Z M 1.987479,3.29 h 12.024484 c 0.269227,0 0.487479,0.2182518 0.487479,0.4874791 0,0.2467916 -0.183392,0.4507497 -0.421331,0.4830289 l -0.06615,0.00445 H 1.987479 C 1.7182518,4.264958 1.5,4.0467062 1.5,3.777479 1.5,3.5306873 1.6833921,3.3267292 1.921331,3.29445 L 1.987479,3.29 h 12.024484 z"
          fill="#ddd" stroke-width=".65"/>
</svg>