<?xml version="1.0" encoding="UTF-8"?>
<svg xmlns="http://www.w3.org/2000/svg" xmlns:xlink="http://www.w3.org/1999/xlink" width="16px" height="16px" viewBox="0 0 16 16" version="1.1">
<g id="surface1">
<path style=" stroke:none;fill-rule:nonzero;fill:rgb(86.666667%,86.666667%,86.666667%);fill-opacity:1;" d="M 3.578125 2.148438 C 2.914062 1.679688 2 2.152344 2 2.964844 L 2 13.035156 C 2 13.84375 2.914062 14.320312 3.578125 13.851562 L 10.710938 8.816406 C 11.273438 8.417969 11.273438 7.582031 10.710938 7.183594 Z M 3 2.964844 L 10.132812 8 L 3 13.035156 Z M 14 2.5 C 14 2.222656 13.777344 2 13.5 2 C 13.222656 2 13 2.222656 13 2.5 L 13 13.5 C 13 13.777344 13.222656 14 13.5 14 C 13.777344 14 14 13.777344 14 13.5 Z M 14 2.5 "/>
</g>
</svg>
