<?xml version="1.0" encoding="UTF-8"?>
<svg xmlns="http://www.w3.org/2000/svg" xmlns:xlink="http://www.w3.org/1999/xlink" width="16px" height="16px" viewBox="0 0 16 16" version="1.1">
<g id="surface1">
<path style=" stroke:none;fill-rule:nonzero;fill:rgb(86.666667%,86.666667%,86.666667%);fill-opacity:1;" d="M 10 5.5 C 10 7.984375 7.984375 10 5.5 10 C 3.015625 10 1 7.984375 1 5.5 C 1 3.015625 3.015625 1 5.5 1 C 7.984375 1 10 3.015625 10 5.5 Z M 6 3.5 C 6 3.222656 5.777344 3 5.5 3 C 5.222656 3 5 3.222656 5 3.5 L 5 5 L 3.5 5 C 3.222656 5 3 5.222656 3 5.5 C 3 5.777344 3.222656 6 3.5 6 L 5 6 L 5 7.5 C 5 7.777344 5.222656 8 5.5 8 C 5.777344 8 6 7.777344 6 7.5 L 6 6 L 7.5 6 C 7.777344 6 8 5.777344 8 5.5 C 8 5.222656 7.777344 5 7.5 5 L 6 5 Z M 6 3.5 "/>
<path style=" stroke:none;fill-rule:nonzero;fill:rgb(86.666667%,86.666667%,86.666667%);fill-opacity:1;" d="M 12.5 4 L 10.792969 4 C 10.695312 3.652344 10.5625 3.316406 10.398438 3 L 12.5 3 C 13.878906 3 15 4.121094 15 5.5 L 15 9.785156 C 15 10.183594 14.84375 10.566406 14.5625 10.847656 L 10.847656 14.5625 C 10.566406 14.84375 10.183594 15 9.785156 15 L 5.5 15 C 4.121094 15 3 13.878906 3 12.5 L 3 10.398438 C 3.316406 10.5625 3.652344 10.695312 4 10.792969 L 4 12.5 C 4 13.328125 4.671875 14 5.5 14 L 9 14 L 9 12 C 9 10.34375 10.34375 9 12 9 L 14 9 L 14 5.5 C 14 4.671875 13.328125 4 12.5 4 Z M 10 13.953125 C 10.050781 13.925781 10.097656 13.894531 10.140625 13.855469 L 13.855469 10.140625 C 13.894531 10.097656 13.925781 10.050781 13.953125 10 L 12 10 C 10.894531 10 10 10.894531 10 12 Z M 10 13.953125 "/>
</g>
</svg>
