<?xml version="1.0" encoding="UTF-8"?>
<svg xmlns="http://www.w3.org/2000/svg" xmlns:xlink="http://www.w3.org/1999/xlink" width="16px" height="16px" viewBox="0 0 16 16" version="1.1">
<g id="surface1">
<path style=" stroke:none;fill-rule:nonzero;fill:rgb(86.666667%,86.666667%,86.666667%);fill-opacity:1;" d="M 4.5 3 C 3.671875 3 3 3.671875 3 4.5 L 3 11.5 C 3 12.328125 3.671875 13 4.5 13 L 11.5 13 C 12.328125 13 13 12.328125 13 11.5 L 13 9.269531 C 13 8.992188 13.222656 8.769531 13.5 8.769531 C 13.777344 8.769531 14 8.992188 14 9.269531 L 14 11.5 C 14 12.878906 12.878906 14 11.5 14 L 4.5 14 C 3.121094 14 2 12.878906 2 11.5 L 2 4.5 C 2 3.121094 3.121094 2 4.5 2 L 6.730469 2 C 7.007812 2 7.230469 2.222656 7.230469 2.5 C 7.230469 2.777344 7.007812 3 6.730469 3 Z M 8.769531 2.5 C 8.769531 2.222656 8.992188 2 9.269531 2 L 13.5 2 C 13.777344 2 14 2.222656 14 2.5 L 14 6.730469 C 14 7.007812 13.777344 7.230469 13.5 7.230469 C 13.222656 7.230469 13 7.007812 13 6.730469 L 13 3.707031 L 9.621094 7.085938 C 9.425781 7.28125 9.109375 7.28125 8.914062 7.085938 C 8.71875 6.890625 8.71875 6.574219 8.914062 6.378906 L 12.292969 3 L 9.269531 3 C 8.992188 3 8.769531 2.777344 8.769531 2.5 Z M 8.769531 2.5 "/>
</g>
</svg>
