<svg width="1080" height="1080" xmlns="http://www.w3.org/2000/svg"><defs><filter id="a" x="-.013" y="-.013" width="1.026" height="1.026" color-interpolation-filters="sRGB"><feGaussianBlur stdDeviation="5.183"/></filter></defs><circle cx="535.39" cy="559.91" fill="#fff" filter="url(#a)" stroke="#fff" stroke-width="2.553" r="518.29" transform="matrix(1.0175 0 0 1.0065 -9.236 -25.361)" stroke-opacity="0"/><path d="m 510,1009.4 c -31.666,-2.7463 -54.717,-6.3232 -79.769,-12.378 -135.32,-32.706 -249.64,-124.36 -311.19,-249.51 -26.915,-54.719 -42.472,-112.09 -47.121,-173.76 -1.5038,-19.949 -0.65082,-66.174 1.573,-85.241 6.5083,-55.801 21.536,-107.28 45.535,-156 60.979,-123.78 173.9,-215.19 306.98,-248.49 39.62,-9.9165 73.367,-14.011 115.4,-14.002 86.443,0.01877 169.74,23.129 242.34,67.237 131.47,79.87 214.73,215.51 226.34,368.76 1.5267,20.14 0.6634,67.83 -1.5567,86 -6.9433,56.824 -21.574,106.68 -45.68,155.65 -65.541,133.15 -190.84,228.1 -336.34,254.87 -27.858,5.1258 -44.596,6.5861 -79.5,6.936 -17.875,0.1792 -34.525,0.1502 -37,-0.064 z M 309.5,646.08 c 34.004,-9.2228 55.942,-33.083 64.822,-70.505 1.886,-7.9477 2.1432,-11.882 2.0962,-32.059 -0.0524,-22.527 -0.11829,-23.245 -3.2,-34.88 -8.4111,-31.759 -26.406,-53.22 -53.331,-63.603 -20.225,-7.7996 -46.637,-9.0966 -69.387,-3.4076 -15.309,3.8284 -34.45,16.067 -44.057,28.169 -17.149,21.604 -25.633,54.566 -22.475,87.315 4.8442,50.227 31.077,82.326 73.881,90.402 11.806,2.2277 41.16,1.4144 51.651,-1.431 z m -43.469,-41.048 c -17.95,-6.6351 -26.069,-25.474 -26.109,-60.586 -0.0303,-26.269 4.2867,-42.619 13.932,-52.767 12.413,-13.06 37.607,-13.813 51.549,-1.5402 5.595,4.9249 10.625,14.932 13.257,26.377 2.7917,12.137 2.5251,46.858 -0.44301,57.697 -4.4415,16.218 -9.7886,23.99 -19.945,28.99 -5.977,2.9424 -7.6833,3.3063 -16.714,3.5641 -8.1266,0.232 -11.108,-0.10109 -15.527,-1.7346 z m 228.09,42.516 c 34.351,-6.016 58.719,-26.241 64.497,-53.532 2.1229,-10.027 1.38,-26.108 -1.6172,-35.005 -3.0368,-9.0147 -6.1135,-13.847 -12.996,-20.412 -7.8096,-7.449 -19.273,-12.791 -41.887,-19.519 -18.673,-5.5555 -28.234,-9.7329 -30.482,-13.319 -2.1313,-3.3993 -2.8415,-9.2562 -1.6562,-13.658 2.282,-8.4746 11.547,-12.488 28.524,-12.355 13.935,0.10927 27.438,2.9454 41.755,8.7707 1.4127,0.57477 2.2316,-0.33199 4.1947,-4.6449 3.7276,-8.1896 7.581,-22.592 7.8282,-29.259 l 0.22176,-5.9808 -9,-2.8187 c -26.844,-8.407 -57.803,-10.007 -81,-4.1868 -3.3,0.82803 -10.2,3.5321 -15.334,6.009 -7.321,3.5321 -10.902,6.0536 -16.602,11.69 -12.298,12.162 -17.205,25.952 -16.255,45.687 1.4553,30.239 14.184,42.565 56.691,54.899 19.008,5.515 29.316,10.071 32.374,14.31 2.4388,3.38 3.3409,12.651 1.6323,16.776 -1.8303,4.4188 -7.9536,9.467 -14.626,12.058 -4.7697,1.8521 -8.4321,2.3674 -19.384,2.7275 -15.414,0.50676 -25.121,-0.91024 -39.477,-5.763 -4.892,-1.6536 -9.3915,-3.0065 -9.9989,-3.0065 -2.3593,0 -9.9666,24.408 -11.157,35.797 l -0.62225,5.9533 6.3794,2.0768 c 8.8677,2.8868 18.061,5.1725 26.879,6.6828 10.665,1.8267 40.74,1.8395 51.119,0.0218 z m 232.91,0.0267 c 11.577,-1.5414 30.866,-5.6652 40.684,-8.6976 l 6.2964,-1.9448 -0.25495,-97.196 -0.25494,-97.196 -5,-0.8396 c -6.4405,-1.0815 -36.347,-1.0907 -43.5,-0.0134 l -5.5,0.82835 -0.256,79.145 c -0.22671,70.092 -0.43166,79.213 -1.7917,79.735 -3.7016,1.4204 -20.573,2.7838 -27.143,2.1935 -17.279,-1.5525 -27.815,-8.0952 -32.327,-20.073 -4.363,-11.582 -4.3454,-11.306 -4.9254,-77.5 l -0.55634,-63.5 -5.5,-0.79939 c -7.2488,-1.0536 -37.142,-1.0561 -43.5,-0.004 l -5,0.82766 -0.27463,62.488 c -0.23039,52.42 -0.0231,64.222 1.2863,73.25 6.0579,41.767 27.613,63.673 68.072,69.182 13.342,1.8164 46.19,1.88 59.446,0.11505 z m 153.96,-2.3168 c 3.2372,-0.76115 3.5566,-1.1851 4.356,-5.7818 1.1192,-6.4353 1.1178,-40.493 -0.002,-46.934 -0.85273,-4.9054 -0.92639,-4.9861 -5.356,-5.8707 -5.8232,-1.1628 -37.55,-1.3946 -46.138,-0.337 -8.0983,0.9973 -7.6682,-0.17612 -8.4956,23.181 -0.51592,14.566 0.55837,33.75 1.969,35.16 2.077,2.077 45.314,2.5458 53.666,0.5819 z m -6.5539,-89.285 c 3.8167,-0.55162 7.095,-1.1585 7.285,-1.3485 0.266,-0.26601 4.184,-172.55 4.2593,-187.29 0.011,-2.1631 -0.54435,-3.36 -1.7337,-3.7362 -4.7593,-1.5054 -29.748,-2.3987 -42.25,-1.5102 -16.182,1.1499 -16.807,1.3101 -16.402,4.201 0.1717,1.2254 1.0736,44.078 2.0042,95.228 0.9306,51.15 1.755,93.092 1.832,93.204 0.077,0.11205 3.0483,0.61901 6.6029,1.1266 8.895,1.2701 30.01,1.34 38.402,0.12712 z" fill="#f06ea8" transform="matrix(1.0175 0 0 1.0065 -17.367 -4.633)"/><path d="M 602.03,999.75 C 600.3861,996.8625 588.505,976.275 575.627,954 l -23.414,-40.5 -75.061,-1 18.424,-31.848 C 505.709,863.136 514,848.466 514,848.052 c 0,-0.82234 -27.74,-49.14 -28.829,-50.214 -0.36897,-0.36398 -24.296,40.291 -53.171,90.344 -28.875,50.053 -52.774,91.45 -53.109,91.992 -0.90694,1.4697 -23.448,-7.8801 -46.391,-19.243 -31.184,-15.444 -24.658,-8.0959 -57,-64.18 -15.4,-26.705 -28.286,-48.38 -28.635,-48.166 -0.34919,0.21431 -5.5191,8.9035 -11.489,19.309 -8.6933,15.154 -11.161,18.755 -12.398,18.093 -2.8286,-1.5138 -31.342,-31.364 -41.082,-43.008 -19.204,-22.958 -37.128,-48.784 -50.65,-72.981 -7.0219,-12.565 -14.247,-26.498 -14.247,-27.475 0,-0.28873 22.323,-0.52496 49.607,-0.52496 41.968,0 49.525,-0.2143 49.073,-1.3917 -0.29373,-0.76543 -14.483,-25.551 -31.533,-55.078 -29.884,-51.756 -31.052,-53.603 -32.473,-51.358 -2.6124,4.1251 -38.878,67.091 -42.786,74.288 l -3.7795,6.9595 -2.1412,-4.9595 c -1.1777,-2.7277 -4.5498,-12.159 -7.4935,-20.959 -27.686,-82.764 -31.809,-170.51 -12.04,-256.23 27.132,-117.65 100.21,-221.81 201.75,-287.58 62.548,-40.511 131.02,-64.675 207.88,-73.363 21.683,-2.4509 74.181,-2.4509 95.864,0 58.999,6.6689 109.93,21.47 160.57,46.66 47.284,23.523 84.998,50.598 122.59,88.011 38.844,38.655 66.856,77.552 90.383,125.5 34.174,69.65 50.158,142.1 48.202,218.5 -0.5233,20.44 -3.5099,54.744 -5.2411,60.198 -0.3167,0.99789 -3.1669,5.974 -6.3338,11.058 -3.1669,5.0841 -13.327,22.406 -22.577,38.494 -9.2506,16.088 -17.157,29.25 -17.57,29.25 -0.413,0 -8.9571,-14.288 -18.988,-31.75 -10.0309,-17.462 -18.793,-32.351 -19.473,-33.085 -1.0024,-1.0823 -3.411,2.4149 -12.741,18.5 -20.016,34.507 -50.754,88.294 -50.754,88.812 0,0.27443 17.519,0.61668 38.931,0.76056 l 38.931,0.26161 -8.4164,14.5 c -4.629,7.975 -8.4231,14.827 -8.4313,15.227 -0.008,0.40009 8.0988,0.85009 18.016,1 l 18.03,0.27256 -6.3742,11.101 c -12.321,21.457 -29.64,46.072 -47.775,67.899 -10.781,12.977 -42.627,44.801 -55.41,55.372 -9.7296,8.046 -10.035,8.2115 -11.391,6.169 -0.76646,-1.1544 -17.274,-29.648 -36.682,-63.32 -19.409,-33.671 -35.576,-61.221 -35.926,-61.221 -0.35037,0 -9.9886,16.2 -21.418,36 -11.43,19.8 -30.049,51.975 -41.375,71.5 l -20.594,35.5 134.25,1 -7.4314,5.095 c -43.376,29.738 -100.13,54.722 -152.93,67.323 -14.99,3.57743 -38.988,8.08183 -43.058,8.08183 -2.4822,0 -3.3772,-0.7946 -5.9138,-5.25003 z M 293.5,648.97 c 41.995,-4.717 69.717,-28.836 80.074,-69.667 7.0876,-27.94 4.897,-62.498 -5.5529,-87.6 -10.52,-25.269 -31.49,-43.339 -59.022,-50.857 -7.6438,-2.0873 -10.563,-2.3157 -29,-2.2681 -23.859,0.0615 -30.204,1.3001 -45.678,8.9171 -31.383,15.448 -49.179,46.831 -51.037,90.002 -1.489,34.607 7.8782,64.521 26.503,84.638 19.227,20.767 49.975,30.624 83.712,26.835 z m -22.368,-42.985 c -14.48,-3.0608 -23.513,-13.481 -28.383,-32.744 -1.9452,-7.6942 -2.2036,-11.262 -2.1539,-29.743 0.0494,-18.358 0.3301,-21.995 2.2309,-28.91 4.4694,-16.26 10.036,-24.418 19.98,-29.283 4.6787,-2.2891 7.2653,-2.8189 15.345,-3.1435 17.903,-0.71906 27.383,4.451 34.585,18.861 6.0154,12.035 7.6858,21.328 7.7252,42.976 0.0355,19.457 -1.0813,27.219 -5.6398,39.202 -5.6505,14.853 -15.894,22.422 -31.505,23.279 -4.2992,0.23603 -9.7824,0.0136 -12.185,-0.4942 z m 224.61,41.503 c 32.919,-6.2447 55.992,-25.066 62.685,-51.135 0.94692,-3.6883 1.5716,-10.284 1.5627,-16.5 -0.0262,-18.327 -4.301,-30.301 -14.455,-40.49 -8.1764,-8.2042 -17.918,-12.966 -40.672,-19.882 -29.957,-9.1049 -33.861,-11.468 -34.649,-20.971 -0.53615,-6.4653 0.96987,-10.793 4.6726,-13.427 10.231,-7.2785 35.649,-6.6937 59.043,1.3585 4.0838,1.4057 7.7636,2.5558 8.1773,2.5558 2.1221,0 10.433,-26.973 11.078,-35.952 0.3147,-4.383 0.25626,-4.4764 -3.7564,-6 l -4.0761,-1.5477 63.538,-110 39.057,-0.26161 c 21.481,-0.14388 39.057,0.0822 39.057,0.50238 0,0.42019 -5.3788,10.1 -11.953,21.512 l -11.953,20.748 h 36.06 c 33.329,0 36.011,0.12698 35.417,1.6764 -0.3538,0.922 -17.502,30.879 -38.107,66.572 -20.605,35.693 -37.464,65.313 -37.464,65.824 0,0.54786 11.231,0.92781 27.425,0.92781 h 27.425 l 0.32534,-31.474 c 0.32145,-31.098 0.35221,-31.5 2.5753,-33.722 l 2.25,-2.2487 v 155.26 l -7.1504,1.2061 c -9.5332,1.608 -29.817,0.77701 -36.044,-1.4766 -6.3514,-2.2985 -13.151,-8.5121 -16.253,-14.852 -5.6837,-11.617 -5.8473,-13.76 -6.1989,-81.197 l -0.32319,-62 -3.7653,-0.8859 c -4.9211,-1.1578 -36.833,-1.3513 -45.591,-0.27635 l -6.8261,0.83774 0.41045,64.662 c 0.35033,55.191 0.659,66.042 2.1073,74.079 3.6119,20.044 10.698,35.115 21.659,46.065 16.366,16.35 36.846,22.289 76.976,22.32 25.171,0.0196 44.101,-2.7185 70,-10.125 l 6.5,-1.8588 0.25506,-95.874 c 0.24346,-91.517 0.33436,-95.762 2,-93.409 1.5407,2.1768 1.8035,6.0934 2.2449,33.465 l 0.5,31 21.43,0.27041 c 11.786,0.14873 21.822,-0.12175 22.301,-0.60106 1.1486,-1.1486 2.1531,0.6638 -42.654,-76.964 l -38.843,-67.295 -1.933,3.1785 c -1.0702,1.7598 -2.2994,2.7842 -2.7539,2.295 -0.45151,-0.48593 -5.6056,-9.2085 -11.454,-19.384 l -10.633,-18.5 35.907,-1 -12.934,-22.311 c -7.1135,-12.271 -12.934,-22.508 -12.934,-22.75 0,-0.24164 26.005,-0.43934 57.788,-0.43934 h 57.788 l 21.174,36.704 c 11.646,20.187 21.078,36.798 20.962,36.913 -0.11683,0.115 -3.5874,-0.18214 -7.7124,-0.66032 -10.468,-1.2135 -28.285,-1.1573 -39.789,0.12548 -5.3405,0.5955 -9.797,1.1697 -9.9033,1.2761 -0.10634,0.10634 0.70698,43.146 1.8074,95.644 1.4252,67.993 2.3262,95.652 3.132,96.15 3.6529,2.2576 46.171,2.299 50.375,0.0491 1.9198,-1.0275 2.0193,-3.4987 3.7997,-94.379 1.0055,-51.328 2.1261,-94.129 2.4901,-95.114 0.60712,-1.6428 0.84615,-1.5948 2.8889,0.57959 1.6074,1.711 2.2738,3.7396 2.3953,7.291 0.15386,4.4986 2.6979,9.3136 29.678,56.17 l 29.51,51.25 h 47.633 l -0.60918,-5.75 c -1.3788,-13.014 -11.405,-57.485 -14.184,-62.909 -0.51864,-1.0125 -1.2394,-3.4159 -1.6016,-5.3409 -0.66407,-3.529 -3.9114,-12.73 -8.1717,-23.154 -2.4922,-6.0978 -2.3594,-6.8463 1.2152,-6.8463 1.2833,0 2.3333,-0.28086 2.3333,-0.62414 0,-0.34328 -1.599,-4.2808 -3.5534,-8.75 -1.9544,-4.4692 -4.7315,-10.826 -6.1714,-14.126 -4.0994,-9.3954 -13.562,-28.229 -15.423,-30.696 l -1.6841,-2.2327 -3.7047,4.5752 -4.2661,-7.8231 c -2.3464,-4.3027 -4.8131,-8.7048 -5.4816,-9.7824 -2.8814,-4.6448 -7.7774,-12.125 -8.5768,-13.104 -0.47748,-0.58464 -1.3948,-2.0471 -2.0386,-3.25 -1.0203,-1.9064 -0.91691,-2.187 0.80571,-2.187 1.0869,0 2.2313,-0.4128 2.5431,-0.91734 0.49594,-0.80246 -3.598,-7.4172 -9.9489,-16.075 -1.1,-1.4996 -2.8896,-4.0272 -3.9769,-5.617 -1.0873,-1.5898 -2.2298,-3.1156 -2.5389,-3.3906 -0.30911,-0.275 -2.7945,-3.4017 -5.5231,-6.9482 -2.7286,-3.5465 -5.6361,-7.1986 -6.4611,-8.1158 -0.825,-0.9172 -3.525,-4.0619 -6,-6.9883 -2.475,-2.9264 -5.175,-6.0377 -6,-6.914 -0.825,-0.87625 -4.875,-5.3491 -9,-9.9396 -6.9626,-7.7484 -21.401,-21.433 -33.86,-32.094 -2.8927,-2.475 -6.5474,-5.625 -8.1216,-7 -1.5742,-1.375 -3.4751,-2.95 -4.2241,-3.5 -0.749,-0.55 -3.5966,-2.8063 -6.3279,-5.014 -2.7313,-2.2077 -6.991,-5.3342 -9.466,-6.9478 -2.475,-1.6136 -4.95,-3.446 -5.5,-4.072 -0.55,-0.62605 -2.8,-2.3361 -5,-3.8001 -2.2,-1.464 -5.7705,-3.8469 -7.9345,-5.2952 l -3.9345,-2.6334 -3.3797,4.1737 -4.5136,-2.8624 c -2.4825,-1.5743 -5.9795,-5.0418 -7.7711,-7.7056 -3.833,-5.6988 -5.8974,-7.5505 -11.967,-10.734 -2.475,-1.2981 -6.8839,-3.6162 -9.7976,-5.1515 -6.4626,-3.4051 -6.0462,-3.7162 -14.194,10.604 l -5.9385,10.438 23.264,1 16.897,29.4 -28.866,49.995 c -15.876,27.497 -29.166,49.682 -29.533,49.3 -0.36675,-0.38249 -9.6716,-16.318 -20.677,-35.412 l -20.011,-34.717 24.997,-43.283 c 13.748,-23.806 25.078,-43.671 25.177,-44.144 0.17652,-0.84072 -3.9997,-2.7252 -23.319,-10.522 -11.577,-4.6725 -15.503,-5.74 -14.37,-3.9072 0.43885,0.70954 5.209,8.9401 10.6,18.29 l 9.8024,17 -102.63,1 20.255,35 c 11.14,19.25 20.274,35.45 20.297,36 0.0231,0.55 -9.9724,18.325 -22.212,39.5 l -22.254,38.5 -217.31,1 40.939,70.891 c 22.517,38.99 40.696,71.134 40.399,71.431 -0.29704,0.29703 -3.7962,1.3648 -7.776,2.3727 -21.761,5.5114 -38.156,19.012 -45.455,37.428 -2.5485,6.4304 -2.7275,7.8849 -2.7531,22.377 -0.0241,13.598 0.25174,16.298 2.248,22 3.0318,8.6607 7.8651,15.007 16.003,21.012 8.5386,6.3009 18.498,10.471 39.221,16.42 9.075,2.6054 19.425,6.1614 23,7.9024 5.4232,2.641 6.8727,3.9046 8.75,7.6273 4.3621,8.6504 1.7975,17.828 -6.4455,23.066 -8.1654,5.1883 -14.108,6.4748 -29.805,6.452 -15.174,-0.0221 -22.727,-1.317 -38.214,-6.5518 -4.7467,-1.6045 -8.7162,-2.8071 -8.8211,-2.6725 -0.10489,0.13459 -1.4236,3.3616 -2.9304,7.1711 -3.1982,8.0857 -7.0176,22.827 -7.8529,30.31 l -0.58453,5.236 9.7012,2.9941 c 12.733,3.9298 22.57,5.9488 34.201,7.0202 12.313,1.1341 32.62,0.42325 42.738,-1.496 z m 386.45,-2.0385 c 2.3877,-0.5877 2.7824,-1.2991 3.5,-6.3071 1.0388,-7.2502 1.0337,-41.196 -0.007,-47.36 -0.74581,-4.4169 -1.0299,-4.7649 -4.4901,-5.5 -5.8466,-1.2421 -49.264,-0.86276 -52.349,0.45741 -2.486,1.0638 -2.7057,1.6974 -3.4486,9.947 -1.3944,15.485 -0.45282,43.983 1.5608,47.241 0.44498,0.71999 3.4492,1.6734 6.676,2.1188 6.5412,0.90276 44.353,0.43744 48.558,-0.59756 z m -727.21,-131.2 c -0.0121,-0.4125 -6.519,-12 -14.46,-25.75 l -14.438,-25 45.625,-1 -8.8526,-15.311 c -4.8689,-8.4213 -8.8526,-15.734 -8.8526,-16.25 0,-0.57393 22.532,-0.93854 58,-0.93854 31.9,0 58,-0.1597 58,-0.3549 0,-0.19519 -10.497,-18.533 -23.326,-40.75 -12.829,-22.217 -33.71,-58.407 -46.402,-80.421 -12.692,-22.014 -24.072,-41.715 -25.29,-43.779 l -2.2144,-3.753 -5.1341,7.1323 c -2.8237,3.9228 -5.5841,7.863 -6.1341,8.756 -0.55,0.893 -1.5137,2.0841 -2.1415,2.6468 -0.6278,0.5627 -2.4278,3.0073 -4,5.4326 -1.5722,2.4253 -3.5335,5.4143 -4.3585,6.6423 -1.5361,2.2865 -6.321,10.04 -11.296,18.304 -1.5377,2.5543 -3.4894,5.9942 -4.3371,7.6442 -0.8477,1.65 -2.8251,5.25 -4.3941,8 -3.4727,6.0864 -14.964,29.297 -14.995,30.288 -0.0123,0.39163 -1.3522,3.4121 -2.9776,6.7121 -1.6254,3.3 -2.9653,6.5804 -2.9776,7.2898 -0.0123,0.70941 -0.97089,3.149 -2.1301,5.4213 -2.1144,4.1445 -3.3148,7.3723 -9.1292,24.547 -2.5515,7.5368 -3.4499,9.1583 -4.8311,8.72 -1.3994,-0.44416 -2.0769,0.91228 -3.8667,7.7415 -1.1935,4.554 -2.591,9.405 -3.1055,10.78 -0.5145,1.375 -1.6209,5.875 -2.4587,10 -0.83776,4.125 -2.205,10.425 -3.0384,14 -2.6975,11.572 -5.5276,30.129 -7.0765,46.402 -1.2467,13.098 -1.282,16.049 -0.19991,16.735 1.6331,1.0356 80.822,1.1471 80.792,0.1137 z m -43.222,-75.507 -4.7446,-8.2434 4.9946,-0.30226 c 2.747,-0.16624 7.2421,-0.16624 9.9891,0 l 4.9946,0.30226 -4.7446,8.2434 c -2.6095,4.5339 -4.9696,8.2434 -5.2446,8.2434 -0.275,0 -2.635,-3.7096 -5.2446,-8.2434 z m 404.07,59.135 c 1.7436,-3.092 3.1702,-6.0922 3.1702,-6.6671 0,-0.57498 -2.2722,-1.5327 -5.0492,-2.1283 -5.3526,-1.1479 -13.951,-1.4666 -13.951,-0.51712 0,0.7631 1.523,3.6402 6.231,11.771 4.4587,7.7004 3.7703,7.8767 9.5987,-2.4587 z m -87.963,-319.75 c 28.674,-49.705 52.134,-90.592 52.134,-90.858 0,-0.2669 -1.0125,-0.23905 -2.25,0.06188 -1.2375,0.30093 -7.2,1.2584 -13.25,2.1278 -32.725,4.7024 -70.435,15.745 -105.86,30.998 -4.5341,1.9524 -5.3954,1.4932 -3.7935,-2.0225 1.1009,-2.4162 1.0338,-2.532 -1.0876,-1.8764 -7.435,2.2975 -52.761,25.793 -52.761,27.35 0,0.96695 17.754,32.078 19.456,34.093 0.69671,0.825 2.4742,3.5987 3.9501,6.1639 l 2.6833,4.6639 -9.56,16.545 c -5.258,9.0996 -9.8226,17.229 -10.144,18.066 -0.50876,1.3258 2.0731,1.5556 20.13,1.7915 l 20.714,0.27059 12.135,21 c 14.671,25.388 13.694,23.86 14.615,22.837 0.41439,-0.46042 24.214,-41.505 52.887,-91.21 z m 175.94,45.623 c -0.78085,-1.2375 -15.105,-25.988 -31.831,-55 -16.726,-29.012 -30.667,-52.75 -30.979,-52.75 -0.312,0 -14.253,23.738 -30.979,52.75 -16.726,29.012 -31.05,53.762 -31.831,55 l -1.4197,2.25 h 128.46 z m 3.0494,-115.88 c 4.9831,-8.5964 9.1907,-16.207 9.3503,-16.912 0.38914,-1.7207 -15.182,-4.5749 -30.146,-5.5259 l -11.436,-0.72672 2.3007,3.8974 c 1.2654,2.1436 6.3784,10.98 11.362,19.638 4.9839,8.6571 9.162,15.632 9.2848,15.5 0.12275,-0.13207 4.3003,-7.2735 9.2834,-15.87 z m 360.79,625.37 c -0.26842,-0.43431 0.59637,-3.0292 1.9218,-5.7663 1.32543,-2.7371 2.4139,-5.7376 2.4189,-6.6676 0.01,-1.828 1.7703,-3.3812 2.7369,-2.4146 0.65789,0.65788 -4.6434,14.435 -5.8386,15.174 -0.41299,0.25524 -0.9705,0.10873 -1.2389,-0.32559 z m 35.429,-111.66 c -0.043,-1.0542 0.193,-1.6448 0.5253,-1.3125 0.3323,0.3323 0.3678,1.1948 0.079,1.9167 -0.3192,0.79773 -0.5562,0.56078 -0.6042,-0.60417 z" fill="#ea68a2" transform="matrix(1.0175 0 0 1.0065 -17.367 -4.633)"/><path d="m 578.91,959.04 -26.407,-45.964 -37.25,-0.0357 c -20.488,-0.0196 -37.25,-0.30566 -37.25,-0.63564 0,-0.32999 8.2125,-14.825 18.25,-32.212 10.0375,-17.387 18.105,-32.079 17.927,-32.65 -0.62387,-2.0065 -28.684,-50.46 -29.244,-50.499 -0.312,-0.0217 -24.113,40.798 -52.891,90.711 -28.778,49.913 -52.823,91.268 -53.433,91.901 -1.5466,1.6048 -22.883,-7.0811 -47.109,-19.178 -29.98,-14.969 -23.717,-7.8255 -55.985,-63.868 -15.392,-26.733 -28.217,-48.598 -28.5,-48.59 -0.28333,0.008 -5.4013,8.5579 -11.373,19 -5.972,10.442 -11.368,18.986 -11.991,18.986 -1.8015,0 -30.14,-29.289 -41.559,-42.954 -17.766,-21.259 -32.443,-41.861 -45.27,-63.546 -6.0372,-10.206 -19.822,-35.649 -19.822,-36.587 -1.3e-4,-0.22697 22.551,-0.2919 50.114,-0.1443 42.565,0.22795 50.034,0.058 49.578,-1.1283 -1.1173,-2.9117 -62.783,-109.15 -63.5,-109.4 -0.68382,-0.23638 -45.17,75.922 -46.736,80.01 -0.3687,0.9625 -1.014,1.75 -1.434,1.75 -0.82143,0 -9.4358,-23.391 -13.442,-36.5 -8.8486,-28.954 -14.643,-57.883 -18.129,-90.5 -1.7899,-16.752 -2.9867,-54.941 -2.0369,-65 l 0.70817,-7.5 83.986,0.54288 -2.4856,-4.2714 c -1.3671,-2.3493 -7.9238,-13.721 -14.57,-25.271 l -12.085,-21 22.516,-0.26877 c 12.384,-0.14783 22.516,-0.64049 22.516,-1.0948 0,-0.45431 -4.0023,-7.7584 -8.8939,-16.231 l -8.8939,-15.405 58.394,-0.25799 c 32.117,-0.1419 58.394,-0.44001 58.394,-0.66246 0,-0.38129 -23.013,-40.45 -73.847,-128.58 -12.214,-21.175 -22.833,-39.322 -23.597,-40.328 -1.3158,-1.73 -1.555,-1.6552 -4.4731,1.3983 -1.6956,1.7743 -3.083,3.6093 -3.083,4.0777 0,0.46843 -0.7875,1.7012 -1.75,2.7395 -0.9625,1.0383 -3.325,4.2118 -5.25,7.0524 -1.925,2.8406 -4.625,6.6752 -6,8.5215 -1.375,1.8463 -4.75,7.0248 -7.5,11.508 -2.75,4.4832 -5.9712,9.6581 -7.1583,11.5 -1.1871,1.842 -4.2912,7.3274 -6.8981,12.19 -2.6068,4.8624 -5.9542,11.091 -7.4384,13.841 -1.4842,2.75 -5.2904,10.85 -8.4579,18 -3.1676,7.15 -6.5971,14.8 -7.6212,17 -1.0241,2.2 -2.8326,6.7 -4.0189,10 -3.7709,10.49 -5.7052,15.852 -7.7565,21.5 -1.0986,3.025 -2.5569,5.5 -3.2407,5.5 -1.2191,0 -2.4707,3.2333 -4.9465,12.779 -0.6817,2.6283 -1.4452,4.573 -1.6966,4.3215 -0.77246,-0.77246 6.6536,-26.312 11.95,-41.1 15.935,-44.487 37.671,-85.107 66.087,-123.5 25.093,-33.903 61.865,-70.593 96.646,-96.429 142.83,-106.1 333.85,-122.22 492.55,-41.565 46.045,23.401 82.42,49.87 119.52,86.972 48.406,48.406 82.464,100.92 107.62,165.93 14.063,36.346 23.62903,77.571 28.56103,123.09 1.9038,17.57 1.5838,72.017 -0.5289,90 -2.8019,23.85 -2.8054,23.863 -8.93923,33.595 -3.0871,4.8979 -13.483,22.555 -23.103,39.237 l -17.49,30.332 -5.8208,-9.9536 c -3.2014,-5.4745 -11.896,-20.569 -19.321,-33.544 -7.425,-12.975 -13.925,-23.466 -14.445,-23.313 -0.89751,0.26282 -42.792,71.936 -44.509,76.147 -0.44862,1.1 -4.9174,9.0905 -9.9306,17.757 -5.0132,8.6661 -9.1149,15.979 -9.1149,16.25 0,0.27137 17.55,0.4934 39,0.4934 21.45,0 39,0.17373 39,0.38606 0,0.21233 -3.7682,6.8498 -8.3738,14.75 l -8.3738,14.364 36.766,0.5442 -2.0241,3.9676 c -9.4264,18.477 -31.716,50.726 -51.83,74.988 -17.552,21.171 -64.134,65.685 -66.193,63.255 -0.352,-0.41528 -9.5561,-16.28 -20.454,-35.255 -42.401,-73.83 -50.892,-88.56 -52.005,-90.217 -0.97883,-1.4572 -3.8308,2.9325 -18.841,29 -9.7284,16.894 -20.271,35.118 -23.429,40.497 -22.501,38.331 -42.241,72.832 -42.241,73.827 0,0.90457 15.715,1.009 67,0.44534 36.85,-0.40503 67,-0.52236 67,-0.26074 0,0.26163 -5.2363,3.9482 -11.636,8.1924 -51.155,33.924 -115.19,59.486 -175.34,69.98902 -7.9611,1.3902 -15.428,2.5276 -16.593,2.5276 -1.7435,0 -6.7863,-8.12572 -28.525,-45.96402 z M 305.96,647.07 c 17.287,-3.773 31.232,-11.21 43.075,-22.973 13.242,-13.152 21.38,-29.148 26.12,-51.339 2.9201,-13.671 3.1754,-41.684 0.50243,-55.124 -7.5589,-38.007 -25.807,-61.67 -56.764,-73.608 -12.534,-4.8336 -23.687,-6.3113 -43.389,-5.7484 -14.634,0.41807 -18.242,0.85703 -25.921,3.1534 -30.691,9.178 -50.21,28.769 -60.386,60.611 -8.3854,26.239 -8.1901,58.971 0.50894,85.264 7.8308,23.669 23.088,42.072 43.298,52.227 10.563,5.3078 17.998,7.3239 36.5,9.8975 6.2588,0.87061 28.147,-0.54599 36.456,-2.3594 z m -34.601,-41.102 c -6.3042,-1.2477 -13.556,-5.334 -17.797,-10.028 -8.1805,-9.0549 -12.438,-23.641 -13.291,-45.539 -1.2059,-30.941 5.1962,-53.197 17.963,-62.445 6.2724,-4.5437 13.428,-6.2457 24.266,-5.7717 14.934,0.65318 24.152,6.2353 30.258,18.323 9.7934,19.389 10.863,59.25 2.2157,82.541 -6.6018,17.781 -23.832,26.835 -43.615,22.92 z m 214.56,43 c 31.93,-3.2767 57.896,-18.964 68.504,-41.389 4.131,-8.7323 5.5771,-16.011 5.5771,-28.071 0,-18.837 -4.5722,-31.129 -15.319,-41.182 -8.3956,-7.8537 -17.02,-11.909 -41.181,-19.366 -29.61,-9.138 -32.586,-11 -33.297,-20.83 -0.59136,-8.1754 1.3674,-11.569 8.6186,-14.933 4.8124,-2.2324 7.3841,-2.6929 16.855,-3.0177 12.626,-0.43304 22.327,1.1278 36.631,5.8936 4.8438,1.6138 9.1591,2.9342 9.5895,2.9342 2.5346,0 12.104,-31.191 12.104,-39.452 0,-0.67718 -1.7691,-1.7613 -3.9313,-2.4091 l -3.9312,-1.1778 11.681,-20.239 c 6.4247,-11.131 20.681,-35.864 31.681,-54.962 l 20,-34.724 77.333,-0.0361 -11.916,20.562 c -6.554,11.309 -11.916,20.984 -11.916,21.5 0,0.56672 14.057,0.93825 35.5,0.93825 19.525,0 35.5,0.23583 35.5,0.52406 0,0.28823 -16.544,29.201 -36.764,64.25 -20.22,35.049 -37.311,64.963 -37.979,66.476 l -1.2141,2.75 h 57.875 l 0.29093,-30.951 c 0.21716,-23.103 0.6079,-31.268 1.5409,-32.2 0.99999,-0.99892 1.25,13.969 1.25,74.835 v 76.083 l -2.75,0.63112 c -6.373,1.4626 -27.118,1.8534 -33.587,0.63277 -8.1566,-1.539 -15.984,-6.0875 -20.345,-11.823 -8.1849,-10.764 -9.641,-26.416 -9.1542,-98.408 l 0.33614,-49.719 -5.5,-0.79039 c -7.2554,-1.0427 -37.93,-1.0145 -45.33,0.0416 l -5.8305,0.83201 0.45076,65.668 c 0.38365,55.891 0.69821,66.922 2.1128,74.088 3.8634,19.572 10.938,34.329 21.597,45.048 16.084,16.174 36.62,22.22 76,22.377 10.773,0.0428 23.751,-0.49741 29,-1.2072 10.178,-1.3764 31.376,-5.8934 42,-8.9495 l 6.5,-1.8698 0.5,-93.909 c 0.275,-51.65 0.83136,-92.784 1.2364,-91.409 0.40504,1.375 0.74249,15.662 0.75,31.75 l 0.0136,29.25 h 24 c 13.2,0 24,-0.24293 24,-0.53984 0,-1.3005 -6.5264,-12.837 -43.255,-76.46 -21.432,-37.125 -39.206,-67.899 -39.499,-68.386 -0.29241,-0.48708 -1.482,0.68907 -2.6436,2.6137 l -2.1119,3.4993 -21.386,-37.227 36.061,-0.54576 -2.962,-5.2271 c -1.6291,-2.8749 -7.7128,-13.44 -13.519,-23.477 l -10.557,-18.25 h 114.42 l 19.437,33.75 c 10.69,18.562 20.234,35.122 21.208,36.8 l 1.7711,3.0499 -6.7307,-0.74855 c -10.046,-1.1173 -30.534,-0.99139 -40.731,0.2503 -4.95,0.60275 -9.1023,1.1913 -9.2273,1.3078 -0.12501,0.11654 0.67602,43.141 1.7801,95.611 1.4592,69.348 2.3239,95.595 3.1666,96.115 3.2806,2.0275 44.056,2.3278 50.345,0.37072 2.0397,-0.63472 2.0785,-1.3886 3.286,-63.824 2.1914,-113.31 2.4649,-123.77 3.2151,-122.97 0.40745,0.4333 2.022,3.7539 3.5878,7.3791 1.5658,3.6252 15.632,28.713 31.258,55.75 l 28.411,49.159 h 51.67907 v -2.75 c 0.013,-7.9554 -10.18207,-52.536 -16.18007,-70.75 -1.0867,-3.3 -2.5879,-8.025 -3.3359,-10.5 -0.74806,-2.475 -2.514,-7.558 -3.9243,-11.295 -2.9784,-7.9054 -3.0761,-8.7045 -1.0596,-8.7045 0.825,0 1.5,-0.16842 1.5,-0.37427 0,-0.9618 -3.3184,-9.6133 -5.5961,-14.59 -1.3936,-3.0448 -3.3294,-7.336 -4.3018,-9.536 -3.544,-8.0182 -15.596,-31.687 -16.382,-32.173 -0.44437,-0.27464 -1.4435,0.0281 -2.2203,0.67279 -1.154,0.95769 -1.8433,0.27884 -3.7679,-3.7108 -1.2956,-2.6856 -3.9467,-7.3368 -5.8914,-10.336 -9.7041,-14.966 -10.847,-17.228 -9.2857,-18.37 1.2577,-0.91963 0.72023,-2.1678 -3.4814,-8.0855 -2.7328,-3.8489 -6.8684,-9.698 -9.1902,-12.998 -4.8253,-6.8582 -25.551,-31.968 -33.231,-40.26 -12.485,-13.48 -25.249,-25.616 -39.652,-37.703 -5.775,-4.846 -11.175,-9.4347 -12,-10.197 -2.2856,-2.1121 -8.8428,-7.1018 -15.378,-11.702 -3.2331,-2.2758 -7.1244,-5.0379 -8.6473,-6.1379 -11.462,-8.2796 -12.224,-8.6788 -13.713,-7.1903 -1.256,1.256 -2.3787,0.80916 -8.704,-3.4641 -3.9941,-2.6983 -8.7065,-6.9175 -10.472,-9.3758 -1.7655,-2.4584 -3.7445,-4.4827 -4.3978,-4.4986 -0.65332,-0.0158 -5.0129,-2.2198 -9.6879,-4.8977 -7.7168,-4.4203 -8.6578,-4.729 -10.213,-3.3499 -0.94202,0.83546 -2.3815,1.2624 -3.1989,0.94873 -1.1637,-0.44655 -1.3122,-0.1 -0.68437,1.5971 0.61814,1.671 -0.31378,4.0561 -4.0689,10.414 -7.2976,12.355 -7.7563,11.317 4.9996,11.317 h 11.049 l 5.5086,9.3599 c 3.0297,5.1479 6.9672,12.034 8.7498,15.303 l 3.2412,5.9436 -28.404,49.184 c -15.622,27.051 -28.722,48.852 -29.111,48.447 -0.38865,-0.40536 -9.4958,-15.995 -20.238,-34.644 -16.95,-29.426 -19.387,-34.184 -18.438,-36 0.60154,-1.1512 12.055,-21.096 25.451,-44.323 13.397,-23.226 24.357,-42.837 24.357,-43.579 0,-0.742 -2.1375,-2.2946 -4.75,-3.45 -20.256,-8.958 -35.715,-14.66 -37.69,-13.902 -0.84377,0.32379 -4.8024,-0.50039 -8.7968,-1.8315 -16.124,-5.3731 -39.513,-11.24 -54.013,-13.548 -4.8116,-0.76596 -7.75,-1.7014 -7.75,-2.4673 0,-0.79986 -2.5491,-1.4815 -7.25,-1.9386 -3.9875,-0.38777 -13.325,-1.5639 -20.75,-2.6136 -17.202,-2.4318 -18.4,-2.4448 -17.569,-0.18981 0.35459,0.9625 5.8614,10.867 12.237,22.01 l 11.593,20.26 -12.07,20.98 24.309,0.016 41.472,71.9 -44.472,77.068 -109.25,0.008 c -60.088,0.004 -109.25,0.18998 -109.25,0.41267 0,0.22269 18.29,32.06 40.644,70.75 22.354,38.69 40.822,71.02 41.041,71.845 0.29881,1.1292 -1.4055,1.9268 -6.8939,3.2264 -4.01,0.94955 -11.449,3.7795 -16.531,6.2887 -16.334,8.0644 -26.584,20.503 -30.853,37.438 -2.2971,9.1131 -1.5271,30.204 1.3976,38.28 6.3928,17.653 20.31,27.193 53.696,36.809 28.213,8.1259 33.55,11.44 35.104,21.802 1.4198,9.4676 -5.6115,17.966 -17.947,21.691 -13.683,4.1322 -36.16,2.5389 -56.034,-3.9718 -5.9825,-1.96 -11.002,-3.5636 -11.155,-3.5636 -0.153,0 -1.7045,3.9375 -3.4477,8.75 -3.3389,9.2176 -6.4362,21.556 -7.4001,29.478 l -0.5752,4.7278 9.7278,3.007 c 22.695,7.0155 44.664,9.305 67.147,6.9978 z m 396.77,-3.4854 c 1.7692,-0.54695 2.3464,-1.7639 3,-6.3261 1.047,-7.308 1.0494,-41.245 0.003,-47.364 -0.7546,-4.4142 -1.0419,-4.7653 -4.5,-5.5 -4.786,-1.0168 -46.578,-1.0222 -51.353,-0.007 l -3.6588,0.7782 -0.84121,9.7218 c -1.4258,16.478 -0.49582,43.736 1.6083,47.14 0.44914,0.72673 3.4567,1.6874 6.6836,2.1348 6.6353,0.92002 45.701,0.45968 49.058,-0.57808 z m -365.64,-149.58 c 1.6931,-3.354 2.8282,-6.3484 2.5225,-6.6541 -0.87563,-0.87564 -9.5638,-2.1166 -15.277,-2.1821 l -5.2017,-0.0596 1.2017,2.75 c 0.66095,1.5125 3.1652,6.2727 5.565,10.578 l 4.3633,7.8283 1.8738,-3.0812 c 1.0306,-1.6947 3.2591,-5.8254 4.9522,-9.1795 z m -123.31,-257.65 c 66.284,-114.67 88.471,-153.37 88.129,-153.71 -0.21323,-0.21323 -4.2092,0.04011 -8.88,0.56299 -27.713,3.1024 -80.184,17.176 -104.99,28.161 -2.475,1.0959 -6.2396,2.6085 -8.3657,3.3612 -3.6928,1.3074 -3.8424,1.2794 -3.3436,-0.62781 0.54027,-2.066 -0.70233,-2.7574 -1.7907,-0.99646 -0.33992,0.55 -1.2929,1 -2.1178,1 -2.1339,0 -39.907,18.956 -49.034,24.608 -3.0316,1.8771 -3.102,2.0714 -1.8398,5.0733 0.72186,1.7168 6.1141,11.324 11.983,21.35 5.8687,10.026 11.132,19.242 11.697,20.481 0.88429,1.9408 -0.36673,4.6573 -9.0356,19.621 l -10.062,17.368 41.347,1 13.031,22.719 c 7.1673,12.495 13.327,22.733 13.688,22.75 0.36094,0.017 9.1751,-14.706 19.587,-32.719 z m 207.58,-19.073 c -12.495,-22.281 -59.909,-104.09 -60.326,-104.09 -0.417,0 -47.831,81.814 -60.326,104.09 l -3.8264,6.823 h 128.31 z m 370.67,505.88 c 0,-0.51754 0.44485,-1.2159 0.98855,-1.5519 0.56686,-0.35034 0.7345,0.0511 0.39301,0.94098 -0.66479,1.7324 -1.3816,2.0494 -1.3816,0.61096 z m -893.84,-266.06 c 0,-1.375 0.22697,-1.9375 0.50439,-1.25 0.27741,0.6875 0.27741,1.8125 0,2.5 -0.27741,0.6875 -0.50439,0.125 -0.50439,-1.25 z m 33.959,-20.154 c -2.278,-3.9348 -3.9679,-7.3281 -3.7552,-7.5408 0.21268,-0.21268 4.2654,-0.25584 9.0061,-0.0959 l 8.6194,0.29077 -4.1824,7.25 c -2.3003,3.9875 -4.4892,7.25 -4.8642,7.25 -0.375,0 -2.5457,-3.2193 -4.8237,-7.1541 z m -29.917,0.65408 c 0,-1.1 0.36029,-3.125 0.80064,-4.5 0.63397,-1.9796 0.80064,-2.0837 0.80064,-0.5 0,1.1 -0.36029,3.125 -0.80064,4.5 -0.63397,1.9796 -0.80064,2.0837 -0.80064,0.5 z m 1.8796,-8.9167 c -0.04342,-1.0542 0.19293,-1.6448 0.52522,-1.3125 0.33229,0.33229 0.36782,1.1948 0.07895,1.9167 -0.31923,0.79773 -0.55618,0.56078 -0.60417,-0.60417 z" fill="#e6649e" transform="matrix(1.0175 0 0 1.0065 -17.367 -4.633)"/><path d="m 579.5,959.79 c -14.3,-24.835 -26.147,-45.514 -26.328,-45.954 -0.181,-0.44 11.309,-0.91946 25.532,-1.0662 l 25.859,-0.26676 -31.532,-54.73 c -17.342,-30.102 -31.757,-54.732 -32.032,-54.735 -0.275,-0.002 -6.125,9.8747 -13,21.949 -6.875,12.0743 -12.734,21.968 -13.02,21.985 -0.2858,0.0171 -6.6752,-10.656 -14.199,-23.719 -7.5238,-13.063 -14.265,-24.528 -14.98,-25.479 -1.1418,-1.5166 -7.8399,9.6054 -54.605,90.669 l -53.303,92.398 -14.27,-5.8222 c -15.482,-6.3166 -35.838,-16.014 -50.174,-23.903 l -9.0509,-4.9804 -28.289,-49.067 c -15.559,-26.987 -28.599,-49.067 -28.978,-49.067 -0.37895,0 -5.6262,8.5462 -11.66,18.992 -6.0338,10.4458 -11.41,18.995 -11.947,19 -0.53633,0.005 -8.2945,-7.4408 -17.24,-16.545 l -16.265,-16.554 1.9195,-2.6964 c 2.3237,-3.2642 108.47,-187.21 109.34,-189.49 0.3864,-1.007 0.16918,-1.4417 -0.58356,-1.1679 -0.65949,0.23986 -5.5866,0.82993 -10.949,1.3113 -19.33,1.735 -40.717,-1.9074 -57.078,-9.721 -13.005,-6.2106 -19.668,-11.41 -30.877,-24.093 -3.9398,-4.458 -11.624,-18.776 -15.582,-29.035 -7.4635,-19.343 -9.4612,-51.98 -4.6392,-75.792 1.4154,-6.9894 3.8668,-16.083 5.4475,-20.208 2.6947,-7.0319 9.6662,-21 10.481,-21 0.20253,0 -1.3588,3.7125 -3.4695,8.25 -11.484,24.687 -14.355,60.62 -7.1077,88.956 9.9028,38.719 34.704,62.788 72.075,69.945 9.9166,1.8991 34.795,1.6059 45,-0.53035 36.489,-7.6386 61.111,-32.232 69.992,-69.913 6.0113,-25.504 4.7223,-56.474 -3.3121,-79.577 -1.3638,-3.9217 -2.3113,-7.1303 -2.1056,-7.1303 1.5837,0 7.6339,16.932 9.3888,26.275 1.5647,8.3305 1.8886,8.1466 9.5809,-5.4392 l 5.6807,-10.033 2.2484,3.8488 c 13.019,22.286 16.654,28.31 17.34,28.733 0.44127,0.27272 -0.0714,-2.7397 -1.1393,-6.6943 -3.8909,-14.409 -2.0744,-38.58 3.6403,-48.44 1.036,-1.7875 1.9844,-3.25 2.1076,-3.25 0.12324,0 -0.62202,3.2625 -1.6561,7.25 -1.1842,4.5664 -1.9106,10.952 -1.9623,17.25 -0.15092,18.38 3.6178,29.136 13.689,39.067 8.391,8.2748 19.997,13.807 43.713,20.836 27.059,8.0202 31.627,10.545 33.822,18.699 1.3765,5.1119 0.75187,10.092 -1.7251,13.753 l -1.7888,2.6442 -0.52681,-5.167 c -0.29223,-2.8663 -1.307,-6.0291 -2.2789,-7.103 -3.9133,-4.3242 -16.955,-9.4033 -36.208,-14.101 -10.329,-2.5203 -22.721,-7.9426 -31.084,-13.602 -4.1281,-2.7933 -12.302,-11.406 -14.07,-14.826 -0.8211,-1.5878 -1.6992,-2.6807 -1.9513,-2.4285 -0.50974,0.50973 6.1513,12.531 24.926,44.985 11.685,20.199 12.393,21.713 9.8835,21.143 -10.277,-2.3352 -19.012,-4.7483 -23.288,-6.434 -2.7438,-1.0815 -5.3796,-1.9664 -5.8572,-1.9664 -2.0682,0 -9.8153,25.676 -11.522,38.186 l -0.63925,4.6865 9.3473,2.9942 c 17.686,5.6654 30.119,7.482 51.256,7.4893 14.526,0.005 20.884,-0.41064 27,-1.765 33.754,-7.4748 55.406,-25.31 61.978,-51.052 1.7458,-6.838 2.0147,-25.689 0.46248,-32.422 -0.55563,-2.4101 -0.78222,-4.61 -0.50353,-4.8887 1.6567,-1.6567 5.5524,18.101 5.5589,28.193 0.006,9.6383 -2.8298,22.249 -6.7202,29.883 -3.2781,6.4324 -11.517,17.739 -13.514,18.546 -0.47785,0.1931 -1.8573,1.3663 -3.0656,2.607 -8.6072,8.8392 -28.991,17.601 -47.903,20.591 l -7.7064,1.2184 1.6053,3.116 c 0.88292,1.7138 6.3141,11.216 12.069,21.116 33.799,58.14 175.21,303.26 175.72,304.6 0.51162,1.3349 -2.4546,2.3573 -18.186,6.2686 -17.929,4.4574 -44.375,9.66961 -48.746,9.60711 -1.6452,-0.024 -7.2014,-8.97301 -28.052,-45.18401 z m 182.18,-17.023 c -2.971,-5.0949 -6.632,-11.401 -8.1356,-14.013 l -2.7338,-4.75 h 30.295 c 17.153,0 29.883,0.37595 29.345,0.86664 -2.954,2.6948 -32.533,21.361 -41.195,25.997 -2.0385,1.091 -2.5098,0.58702 -7.5756,-8.1001 z m 52.554,-71.083 c -11.144,-19.349 -27.625,-48.006 -36.624,-63.681 -8.9993,-15.675 -16.755,-28.38 -17.236,-28.234 -0.78383,0.23832 -16.124,26.41 -37.812,64.512 -4.3133,7.5777 -8.1794,13.986 -8.5914,14.241 -0.412,0.255 -3.8363,-4.9279 -7.6097,-11.517 l -6.8607,-11.98 -40.25,-0.011 c -22.138,-0.006 -40.25,-0.28667 -40.25,-0.62354 0,-0.33687 8.85,-15.941 19.667,-34.676 10.817,-18.735 19.651,-34.547 19.631,-35.138 -0.0197,-0.5906 -8.1947,-15.135 -18.167,-32.32 -9.972,-17.185 -18.131,-31.698 -18.131,-32.25 0,-0.65384 13.048,-1.0038 37.425,-1.0038 h 37.425 l 7.9479,-13.75 c 4.3714,-7.5625 9.3404,-16.235 11.042,-19.273 l 3.0946,-5.5227 -20.217,-0.0783 c -35.594,-0.13783 -58.392,-5.1548 -71.828,-15.806 -1.436,-1.1384 -3.6202,-2.7449 -4.8539,-3.5699 -3.5087,-2.3464 -13.471,-14.946 -16.417,-20.764 -4.7002,-9.2807 -8.5184,-21.452 -10.089,-32.162 -2.1898,-14.932 -2.2149,-135.25 -0.029,-139.07 1.2519,-2.19 1.434,4.444 1.468,53.5 0.0219,31.592 0.50447,60.971 1.1071,67.404 4.3631,46.579 25.887,71.434 67.129,77.519 31.962,4.7164 68.023,1.9401 101.3,-7.7987 l 8,-2.3416 0.50798,-90.392 c 0.27939,-49.715 0.61689,-77.679 0.75,-62.142 0.15102,17.628 0.6107,28.25 1.2225,28.25 0.60235,0 1.0844,8.3883 1.25,21.75 l 0.2695,21.75 3.4243,-5.29 c 2.7391,-4.2315 3.6651,-5.0318 4.6276,-4 0.66181,0.70949 7.387,12.09 14.945,25.29 16.205,28.303 18.754,32.496 19.753,32.498 0.4125,9.9e-4 0.75,-1.7484 0.75,-3.8874 0,-2.4514 0.74503,-4.762 2.0153,-6.25 l 2.0153,-2.3608 -0.6434,2.8286 c -0.97244,4.2751 -0.99966,29.998 -0.0423,39.982 0.78886,8.227 1.0208,8.8861 3.5,9.947 3.0852,1.3202 46.503,1.6996 52.349,0.45741 3.4581,-0.73469 3.7454,-1.0858 4.5,-5.5 0.44333,-2.5934 0.80605,-14.254 0.80605,-25.913 0,-17.524 0.21588,-20.786 1.2455,-18.82 2.2535,4.3032 3.5724,26.087 2.4171,39.924 -1.7217,20.62 -2.7134,21.561 -23.555,22.341 -13.86,0.51882 -14.616,0.65158 -14.04,2.4657 0.33471,1.0546 4.4307,8.5256 9.1022,16.602 4.6715,8.0767 9.5582,16.525 10.859,18.773 l 2.3658,4.0884 -9.4468,16.412 c -5.1957,9.0264 -9.4471,16.744 -9.4475,17.15 -3.8e-4,0.40612 17.534,0.85612 38.965,1 l 38.966,0.26161 -16.797,29 36.843,1 -5.1283,9 c -12.529,21.988 -33.52,51.674 -51.265,72.5 -11.464,13.454 -38.336,40.255 -50.585,50.45 -5.225,4.3489 -10.176,8.4705 -11.002,9.1592 -1.2898,1.0752 -4.3661,-3.7204 -21.764,-33.929 z m -685.67,-106.39 c -0.54268,-1.4252 -0.42782,-1.5401 0.5598,-0.5598 0.68342,0.67834 0.99067,1.4852 0.68278,1.7931 -0.30789,0.3079 -0.86705,-0.24711 -1.2426,-1.2333 z m -10,-20 c -0.54268,-1.4252 -0.42782,-1.5401 0.5598,-0.5598 0.68342,0.67834 0.99067,1.4852 0.68278,1.7931 -0.30789,0.3079 -0.86705,-0.24711 -1.2426,-1.2333 z M 103.161,710.751 C 98.2257,698.194 89.249,669.727 85.445,654.572 76.9544,620.743 72.483,587.946 71.346,551.172 c -0.76468,-24.752 0.02108,-36.169 2.489,-36.167 1.5196,0.002 1.6685,2.9859 1.708,34.25 0.04676,37.01 1.1908,50.355 7.0937,82.748 4.3734,24 13.959,59.49 19.312,71.5 1.7688,3.9689 3.5416,10.5 2.8501,10.5 -0.19812,0 -0.93504,-1.4625 -1.6376,-3.25 z m 898.86,-95.98 c -0.01,-0.95147 0.9053,-9.8273 2.0323,-19.724 1.6409,-14.41 1.808,-18.444 0.839,-20.255 -0.6655,-1.2436 -12.838,-22.399 -27.049,-47.012 -14.211,-24.613 -25.839,-44.948 -25.839,-45.189 0,-0.241 11.438,-0.58437 25.418,-0.76356 13.98,-0.17919 25.65,-0.55853 25.934,-0.84298 0.6832,-0.68532 -1.7934,-19.295 -3.3095,-24.869 -0.65624,-2.4125 -1.7879,-7.5875 -2.5148,-11.5 -1.4371,-7.735 -7.2321,-30.326 -8.1673,-31.839 -0.31818,-0.51482 -1.1602,-3.2621 -1.8711,-6.1052 -0.71095,-2.843 -2.9612,-9.6691 -5.0007,-15.169 -5.021,-13.541 -5.1996,-14.5 -2.6999,-14.5 2.3762,0 5.7299,8.5068 12.315,31.237 17.721,61.172 22.987,126.49 15.259,189.26 -1.0652,8.6519 -2.2241,14.003 -3.4647,16 -1.2899,2.0759 -1.8693,2.4671 -1.881,1.27 z m -287.02,-57.77 c 0,-38.251 0.19406,-44 1.4853,-44 1.2749,0 1.525,-4.2861 1.7652,-30.25 0.15394,-16.638 0.38553,3.1625 0.51466,44 0.23292,73.662 0.21893,74.25 -1.7652,74.25 -1.9697,0 -2,-0.66667 -2,-44 z m -402.63,27.25 3.0818,-8.75 -0.001,-24 c -10e-4,-23.628 -0.0448,-24.132 -2.8137,-32.5 -2.8052,-8.4781 -6.3512,-14.879 -10.14,-18.302 -1.1,-0.99403 -4.7,-3.1323 -8,-4.7517 -11.334,-5.562 -28.208,-3.3366 -36.839,4.8584 -4.2534,4.0383 -7.3893,9.9519 -10.234,19.298 -4.9691,16.328 -4.4375,50.189 1.0277,65.468 1.451,4.0566 1.8707,6.1248 1.0124,4.989 -4.8032,-6.3568 -8.3288,-21.856 -9.1121,-40.06 -1.4918,-34.665 6.2815,-57.266 22.421,-65.19 5.2677,-2.5863 6.6409,-2.8101 17.245,-2.8101 11.002,0 11.821,0.14789 18.194,3.2849 7.3958,3.641 11.401,7.941 15.254,16.379 7.3669,16.131 9.5059,46.007 4.9284,68.836 -1.2804,6.3856 -7.4568,22 -8.7023,22 -0.22198,0 0.98323,-3.9375 2.6782,-8.75 z m 345.26,-3.4392 c -3.2866,-9.0004 -3.6377,-16.209 -3.6377,-74.694 0,-46.812 0.25001,-58.267 1.25,-57.268 0.95902,0.95802 1.3997,15.728 1.8932,63.45 0.35651,34.48 1.0883,64.43 1.642,67.201 1.2676,6.3453 0.86071,6.8102 -1.1475,1.3108 z m 179.36,-13.432 c -4.2413,-0.76902 -9.8515,-3.5488 -10.483,-5.1942 -0.84022,-2.1896 -1.3522,-17.45 -3.0258,-90.184 -2.1996,-95.596 -2.2277,-100.4 -0.59883,-102.37 0.76588,-0.92553 1.5741,-1.5012 1.7961,-1.2792 0.22195,0.22196 1.2821,42.168 2.3559,93.214 1.461,69.454 2.2551,92.998 3.1555,93.554 4.3135,2.6659 47.414,2.7098 51.448,0.0524 0.82577,-0.54404 4.1252,-132.93 4.4658,-179.18 l 0.0552,-7.5 1.7427,4 c 1.6044,3.6825 1.68,7.0158 0.95217,42 -0.43479,20.9 -1.2226,61.85 -1.7507,91 -0.59495,32.842 -1.3671,54.064 -2.0301,55.798 -1.9255,5.0361 -6.3049,6.0562 -27.083,6.3085 -10.175,0.12356 -19.625,0.0207 -21,-0.22864 z m -365.01,-62.628 c -2.6555,-4.3554 -2.6469,-11.949 0.0184,-16.262 1.2732,-2.06 3.925,-4.115 7.25,-5.618 4.7656,-2.1543 6.5619,-2.3649 19.743,-2.3146 15.252,0.0583 19.56,0.81165 35.319,6.1769 6.6554,2.2658 7.9559,2.4466 8.7379,1.2149 3.0547,-4.8115 9.943,-27.401 9.943,-32.607 0,-3.1604 1.8027,-2.9744 2.617,0.26997 1.149,4.5781 -0.45969,16.604 -3.4633,25.89 -4.6948,14.514 -6.6367,16.904 -13.574,16.707 -3.061,-0.087 -19.58,-5.0325 -19.58,-5.8618 0,-0.26223 0.45447,-1.326 1.0099,-2.3639 1.1088,-2.0717 1.6596,-1.8894 -12.01,-3.9748 -9.8598,-1.5041 -10.122,-1.4585 -8.9752,1.5584 1.3406,3.5262 1.4122,3.4349 -2.6928,3.4349 -2.0174,0 -6.5103,0.49495 -9.9841,1.0999 -5.2944,0.92198 -6.8187,1.6724 -9.4237,4.6393 -2.5642,2.9204 -3.0432,4.2146 -2.7395,7.4001 0.2025,2.1234 0.23718,3.8607 0.0771,3.8607 -0.16012,0 -1.1828,-1.4625 -2.2727,-3.25 z m -105.37,-16.289 c -0.96498,-2.5147 -0.68031,-3.1636 0.49853,-1.1363 0.58369,1.0038 0.8506,2.0357 0.59313,2.2931 -0.25747,0.2574 -0.74872,-0.26309 -1.0917,-1.1568 z m 51.376,-14.402 c 0,-0.51754 0.44485,-1.2159 0.98855,-1.5519 0.56686,-0.35034 0.7345,0.0511 0.39301,0.94098 -0.66479,1.7324 -1.3816,2.0494 -1.3816,0.61096 z m -325.78,-68.925 c -0.96979,-0.59936 -0.34537,-3.5552 2.6895,-12.731 23.296,-70.438 61.347,-131.89 114.52,-184.93 31.34,-31.267 59.17,-52.702 96.073,-73.997 136.09,-78.529 301.18,-84.498 441,-15.944 77.419,37.957 141.35,94.537 188.87,167.15 12.13,18.537 29.773,51.037 34.605,63.746 2.1328,5.6098 1.4e-4,1.8551 -7.924,-13.95 -6.8408,-13.645 -8.5295,-16.321 -9.6904,-15.358 -1.696,1.4075 -1.0768,2.0948 -6.8631,-7.6182 -2.6212,-4.4 -6.7594,-11.068 -9.1961,-14.818 -3.5578,-5.4752 -4.1963,-7.1 -3.2419,-8.25 0.92413,-1.1135 0.8919,-1.7894 -0.14492,-3.0387 -0.73338,-0.88366 -1.801,-2.3943 -2.3724,-3.357 -1.9135,-3.2234 -6.2838,-9.5137 -8.1709,-11.761 -1.0275,-1.2233 -2.9931,-3.8611 -4.3681,-5.8617 -2.529,-3.6796 -21.705,-27.227 -25.175,-30.914 -1.0353,-1.1 -3.2901,-3.575 -5.0107,-5.5 -10.171,-11.379 -23.229,-24.113 -36.388,-35.486 -3.8093,-3.292 -7.151,-6.2414 -7.426,-6.5542 -0.49836,-0.56679 -15.7,-12.67 -19.5,-15.526 -1.1,-0.82663 -3.8,-2.8809 -6,-4.5651 -10.057,-7.699 -20.657,-14.112 -21.664,-13.105 -1.5117,1.5117 -16.685,-7.9532 -20.111,-12.545 -1.7462,-2.3405 -6.1847,-5.6461 -11.976,-8.9192 -7.9422,-4.4888 -9.4101,-5.0117 -10.726,-3.8207 -1.1021,0.99737 -2.0264,1.099 -3.3348,0.36684 -0.99556,-0.55715 -2.5061,-0.74592 -3.3567,-0.4195 -1.7181,0.6593 -14.332,-5.1674 -14.332,-6.6203 0,-2.3617 -32.712,-15.291 -51.5,-20.355 -4.95,-1.3342 -13.95,-3.791 -20,-5.4595 -6.05,-1.6685 -14.383,-3.6598 -18.518,-4.4251 -4.1347,-0.76525 -10.336,-2.1217 -13.781,-3.0144 -10.607,-2.7486 -34.117,-6.39 -46.108,-7.1416 -10.899,-0.68317 -11.384,-0.63033 -10.908,1.1872 0.4823,1.8411 -0.37263,1.8915 -26.594,1.5675 -23.708,-0.29288 -42.72,0.49542 -58.77,2.4368 -4.3708,0.52868 -4.6425,0.4289 -4.1334,-1.5181 0.66043,-2.5255 0.13906,-2.5585 -10.328,-0.65304 -4.3233,0.78702 -10.335,1.7259 -13.36,2.0863 -3.025,0.3604 -8.875,1.471 -13,2.4679 -4.125,0.9969 -9.3,2.1161 -11.5,2.4873 -8.288,1.3982 -32.323,8.4142 -49,14.304 -17.005,6.0054 -20.222,7.2804 -27.855,11.039 -0.47022,0.23158 -0.55239,-0.53219 -0.18261,-1.6973 0.36978,-1.1651 0.47323,-2.1183 0.22989,-2.1183 -1.5897,0 -29.293,13.534 -44.237,21.611 -13.394,7.2398 -14.045,7.7983 -12.652,10.856 0.79624,1.7476 0.82218,2.5329 0.0837,2.5329 -0.58872,0 -2.2666,0.93067 -3.7286,2.0682 -1.462,1.1375 -7.237,5.075 -12.833,8.75 -31.451,20.653 -47.383,33.559 -73.19,59.287 -12.951,12.911 -18.055,18.469 -29.036,31.616 -5.3574,6.4139 -9.8418,10.931 -10.573,10.65 -0.71434,-0.27411 -2.9668,1.8237 -5.1478,4.7945 -2.1328,2.905 -4.8732,6.6436 -6.0899,8.308 -2.3644,3.2343 -9.0508,12.963 -10.757,15.65 -0.56703,0.89332 -2.6359,4.0433 -4.5975,7 -9.9544,15.004 -23.881,40.711 -31.354,57.876 -2.0353,4.675 -4.5367,10.3 -5.5587,12.5 -2.7292,5.8747 -9.0212,22.285 -9.0212,23.528 0,0.58915 -0.75569,2.5113 -1.6793,4.2715 -0.92361,1.7602 -2.1655,5.3187 -2.7597,7.9079 -0.77531,3.3781 -1.4371,4.4871 -2.3434,3.9269 z m 886.41,-33.673 c -0.96498,-2.5147 -0.68031,-3.1636 0.49853,-1.1363 0.58369,1.0038 0.8506,2.0357 0.59313,2.2931 -0.25747,0.2574 -0.74872,-0.26309 -1.0917,-1.1568 z m -5.5569,-13.528 c -1.2132,-2.8201 -2.0139,-5.3194 -1.7794,-5.554 0.2345,-0.2346 1.3953,1.9047 2.5794,4.754 1.1841,2.8492 1.9848,5.3485 1.7794,5.554 -0.2054,0.2055 -1.3662,-1.9338 -2.5794,-4.754 z" fill="#e15e98" transform="matrix(1.0175 0 0 1.0065 -17.367 -4.633)"/><path d="m 767,950.4 c 0,-0.82792 1.4625,-2.1763 3.25,-2.9963 3.863,-1.7722 7.826,-4.1393 17.25,-10.303 3.85,-2.5182 7.7232,-5.0342 8.607,-5.5911 0.88386,-0.55687 3.5046,-2.2766 5.8238,-3.8216 2.3192,-1.545 4.9711,-2.6438 5.893,-2.4417 1.851,0.40576 -14.836,11.71 -31.074,21.051 -6.8647,3.9488 -9.75,5.1631 -9.75,4.1032 z m 67,-45.847 c 0,-0.79381 0.83534,-2.0313 1.8563,-2.75 5.5107,-3.8791 14.501,-12.206 31.122,-28.828 17.2,-17.2 21.217,-21.547 30.164,-32.643 2.9883,-3.7061 7.3038,-6.223 8.5438,-4.983 0.87971,0.8797 -18.275,22.375 -33.116,37.164 -13.867,13.818 -36.044,33.445 -37.82,33.472 -0.4125,0.006 -0.75,-0.63794 -0.75,-1.4318 z m 97.476,-107.95 c 0.0144,-2.6125 0.6867,-5.1474 1.6577,-6.25 0.89842,-1.0202 2.5946,-3.6549 3.7692,-5.8549 1.1747,-2.2 3.7192,-6.7 5.6545,-10 1.9353,-3.3 3.7665,-6.7392 4.0693,-7.6427 0.46157,-1.3771 6.0916,-3.4724 6.97,-2.594 0.56581,0.56581 -21.063,36.737 -21.967,36.737 -0.0978,0 -0.16701,-1.9778 -0.15371,-4.3951 z m -474.98,-136.26 c -10.937,-0.89591 -26.437,-3.5787 -34.5,-5.9714 -15.706,-4.661 -16.915,-6.2077 -15.16,-19.393 1.196,-8.9833 6.3679,-26.662 8.3225,-28.449 0.80767,-0.7383 0.98514,-0.60503 0.62007,0.46564 -2.4697,7.2428 -6.7829,27.009 -6.7829,31.084 0,1.3063 17.525,6.5684 30.046,9.0216 15.2,2.9781 45.06,3.2306 57.454,0.4858 28.332,-6.274 47.902,-19.578 57.504,-39.091 4.3657,-8.8716 6.0159,-16.636 6.1639,-29 0.12672,-10.586 0.16613,-10.774 1.048,-5 0.50399,3.3 0.70163,11 0.43919,17.111 -0.40638,9.4627 -0.9457,12.281 -3.6356,19 -6.8343,17.071 -17.459,28.478 -34.225,36.745 -10.737,5.2949 -23.482,9.2791 -32.795,10.252 -3.575,0.37355 -6.7993,1.1417 -7.1652,1.707 -0.69429,1.0729 -18.589,1.7486 -27.335,1.0321 z m 263.5,-1.4328 c 0,-0.92527 -2.7163,-1.0656 -11.25,-0.58128 -17.313,0.98264 -42.236,-0.82586 -54.75,-3.9729 -16.99,-4.2725 -30.313,-12.138 -38.238,-22.573 -9.4527,-12.447 -11.782,-17.05 -16.09,-31.788 l -3.0689,-10.5 -0.1189,-69.5 -0.11891,-69.5 0.63109,61 c 0.52531,50.777 0.90856,62.432 2.2867,69.546 7.8506,40.524 27.964,60.776 65.921,66.377 31.962,4.7163 68.022,1.9402 101.3,-7.7986 l 8,-2.3415 0.51137,-62.392 c 0.28125,-34.315 0.61875,-51.678 0.75,-38.583 0.15594,15.559 0.58513,23.595 1.2386,23.191 0.66055,-0.40824 1,13.506 1,40.991 0,48.062 0.3353,46.118 -8.5233,49.432 -3.0534,1.1424 -6.1177,2.0772 -6.8094,2.0772 -0.69171,0 -5.5123,1.0886 -10.712,2.4191 -5.2002,1.3305 -13.73,2.9356 -18.955,3.5668 -5.225,0.6312 -10.288,1.3729 -11.25,1.6483 -0.98384,0.28146 -1.75,-0.0334 -1.75,-0.71915 z m -457.5,-1.0464 c -12.447,-1.191 -29.835,-7.4056 -39.977,-14.289 -21.196,-14.384 -35.501,-39.108 -39.949,-69.048 -1.8521,-12.467 -1.9373,-33.725 -0.18044,-45.032 1.2102,-7.7889 1.2311,-7.5778 0.79434,8 -0.47397,16.904 0.58007,28.362 3.7487,40.751 9.8905,38.671 34.711,62.746 72.064,69.9 9.9166,1.8991 34.795,1.6059 45,-0.53035 48.775,-10.211 76.107,-51.233 73.7,-110.62 -0.30087,-7.425 -0.28909,-12.825 0.0262,-12 0.31527,0.825 1.0674,1.8206 1.6714,2.2123 0.7123,0.46205 1.2246,7.4022 1.4579,19.753 0.30788,16.292 0.047,20.736 -1.8075,30.788 -4.1411,22.446 -8.4336,32.607 -20.762,49.144 -5.7015,7.6483 -17.81,17.654 -27.277,22.54 -10.537,5.4383 -27.387,10.575 -28.224,8.6044 -0.15712,-0.36998 -3.8857,-0.33764 -8.2857,0.0718 -10.075,0.93763 -20.475,0.85812 -32,-0.24464 z m 570.08,-0.86979 c -6.6782,-1.1964 -9.7105,-4.3743 -10.681,-11.194 -1.0537,-7.4063 -1.087,-37.805 -0.0414,-37.805 0.47264,0 1.2859,-2.3625 1.8072,-5.25 0.78711,-4.3598 0.93812,-2.7915 0.89064,9.25 -0.0315,7.975 0.323,18.465 0.78765,23.311 0.78886,8.227 1.0208,8.8861 3.5,9.947 3.0704,1.3138 46.493,1.7024 52.293,0.46789 4.6771,-0.99545 4.7582,-1.3664 5.6227,-25.726 0.67808,-19.107 0.70613,-19.298 1.3904,-9.5 0.78657,11.264 0.10238,32.192 -1.2266,37.521 -1.1935,4.7854 -4.7756,6.6668 -14.993,7.8746 -12.732,1.5051 -33.809,2.0961 -39.35,1.1034 z m -754.39,-36.499 c -0.02038,-1.65 0.18706,-2.4461 0.46099,-1.769 0.27393,0.6771 0.2906,2.027 0.03705,3 -0.25354,0.97297 -0.47766,0.41903 -0.49804,-1.231 z m -1,-6 c -0.02038,-1.65 0.18706,-2.4461 0.46099,-1.769 0.27393,0.6771 0.2906,2.027 0.03705,3 -0.25354,0.97297 -0.47766,0.41903 -0.49804,-1.231 z m 926.87,-3 c 7e-4,-0.55 0.6533,-5.5 1.4502,-11 2.1975,-15.167 1.9594,-21.636 -1.0123,-27.5 -2.4927,-4.919 -2.5,-5.017 -2.5,-33.416 0,-25.999 -1.0972,-42.753 -3.5912,-54.834 -0.48983,-2.3728 -0.24819,-2.7521 1.7617,-2.7653 4.847,-0.0319 5.2175,-1.0102 3.8353,-10.128 -0.6968,-4.5962 -1.9097,-11.507 -2.6955,-15.357 -3.9802,-19.503 -5.3548,-25.763 -5.823,-26.521 -0.28238,-0.4569 -1.3568,-4.1267 -2.3876,-8.1551 -2.8504,-11.14 -6.6428,-23.302 -10.547,-33.824 -4.0177,-10.829 -4.0511,-11 -2.1475,-11 1.7208,0 6.1401,11.928 12.062,32.555 7.3981,25.769 12.893,54.129 16.206,83.645 2.6613,23.71 2.3841,73.36 -0.5457,97.717 -1.2184,10.129 -2.632,19.129 -3.1412,20 -0.5092,0.871 -0.9253,1.1331 -0.9246,0.58312 z m -927.9,-3.5 c 0,-1.375 0.22697,-1.9375 0.50439,-1.25 0.27741,0.6875 0.27741,1.8125 0,2.5 -0.27741,0.6875 -0.50439,0.125 -0.50439,-1.25 z m -1,-7 c 0,-1.375 0.22697,-1.9375 0.50439,-1.25 0.27741,0.6875 0.27741,1.8125 0,2.5 -0.27741,0.6875 -0.50439,0.125 -0.50439,-1.25 z m 641.84,-44 c 0,-28.667 0.34848,-44 1,-44 0.65152,0 1,15.333 1,44 0,28.667 -0.34848,44 -1,44 -0.65152,0 -1,-15.333 -1,-44 z m 169.08,40.583 c -0.0434,-1.0542 0.19293,-1.6448 0.52522,-1.3125 0.33229,0.3323 0.36781,1.1948 0.0789,1.9167 -0.31922,0.79773 -0.55618,0.56078 -0.60416,-0.60417 z m -812.45,-8.807 c -2.4099,-26.818 -3.2516,-55.505 -1.9843,-67.63 1.3011,-12.448 1.9854,-5.5608 1.5518,15.616 -0.24509,11.969 0.0776,30.028 0.7171,40.13 1.1535,18.221 0.9707,25.854 -0.2846,11.884 z m 428.63,-2.6416 c -2.8203,-6.1478 -7.6149,-9.3931 -19.539,-13.226 -4.978,-1.6 -9.597,-2.909 -10.264,-2.909 -0.66729,0 -5.6546,-1.3825 -11.083,-3.0721 -25.288,-7.8712 -37.606,-16.828 -45.28,-32.925 -3.5399,-7.4245 -3.5804,-7.6583 -3.9025,-22.502 -0.17903,-8.25 0.088,-16.8 0.59337,-19 0.74268,-3.233 0.91512,-1.8908 0.89933,7 -0.0345,19.43 3.6123,30.009 13.812,40.067 8.391,8.2748 19.997,13.807 43.713,20.836 20.005,5.9293 26.232,8.4192 30.159,12.058 3.7089,3.4373 5.6686,12.077 3.8058,16.78 -0.53593,1.353 -1.1854,0.66054 -2.9135,-3.1064 z m -185.96,-10.702 c 3.2981,-17.379 3.2326,-31.483 -0.22902,-49.34 -4.0849,-21.073 -12.698,-31.501 -28.173,-34.111 -13.975,-2.3572 -27.266,1.6898 -34.118,10.388 -4.0515,5.1436 -7.727,13.861 -9.255,21.951 -2.3922,12.665 -3.4457,27.706 -2.4989,35.679 1.1068,9.3208 1.0554,12.596 -0.12555,8 -1.5774,-6.1393 -2.2084,-30.973 -1.0292,-40.503 2.8596,-23.11 9.6377,-36.162 21.91,-42.187 5.2677,-2.5863 6.6409,-2.8101 17.245,-2.8101 11.002,0 11.821,0.14789 18.194,3.2849 7.3958,3.641 11.401,7.941 15.254,16.379 7.2879,15.958 9.4119,44.604 5.0122,67.599 -0.79242,4.1416 -1.7395,7.8018 -2.1046,8.1337 -0.36509,0.33191 -0.40187,-0.7767 -0.0817,-2.4636 z m -73.137,-1.4329 c 0,-1.375 0.22698,-1.9375 0.50439,-1.25 0.27741,0.6875 0.27741,1.8125 0,2.5 -0.27741,0.6875 -0.50439,0.125 -0.50439,-1.25 z m 411.48,-5.6125 c -0.3518,-2.5666 -0.54043,-29.916 -0.41918,-60.777 l 0.22046,-56.11 0.52954,60.5 c 0.29125,33.275 0.47988,60.625 0.41918,60.777 -0.0607,0.152 -0.3982,-1.8229 -0.75,-4.3896 z m 183.36,-3.0193 c -5.5635,-0.6995 -8.6452,-2.2989 -9.9918,-5.1858 -0.92124,-1.9749 -1.4751,-17.585 -2.0999,-59.182 -0.46674,-31.075 -1.2997,-72.425 -1.851,-91.888 -0.5605,-19.788 -0.6239,-36.064 -0.14384,-36.922 1.1664,-2.0842 1.8097,17.031 3.5927,106.75 1.1164,56.18 1.8053,75.632 2.6981,76.184 4.3102,2.6639 47.371,2.7056 51.457,0.0498 0.85159,-0.55345 4.2069,-135.3 4.4242,-177.68 0.0333,-6.5022 0.23589,-7.5319 1.0819,-5.5 1.1325,2.7202 0.77325,29.668 -1.7088,128.18 -0.7993,31.723 -1.8964,58.843 -2.4381,60.268 -0.54166,1.4246 -2.2304,3.0875 -3.7528,3.6953 -2.7772,1.1087 -34.668,2.0572 -41.268,1.2274 z m -461.84,-45.368 c 0,-1.375 0.22698,-1.9375 0.50439,-1.25 0.27741,0.6875 0.27741,1.8125 0,2.5 -0.27741,0.6875 -0.50439,0.125 -0.50439,-1.25 z m -191.96,-1.5 c -0.0204,-1.65 0.18706,-2.4461 0.46099,-1.769 0.27392,0.67703 0.29059,2.027 0.0371,3 -0.25354,0.97297 -0.47766,0.41903 -0.49804,-1.231 z m 286.45,-15.983 c -0.35471,-0.92436 -0.64493,-3.7282 -0.64493,-6.2308 0,-6.4094 2.83,-10.511 9.2574,-13.416 4.7656,-2.1543 6.5619,-2.3649 19.743,-2.3146 15.236,0.0582 19.563,0.81339 35.245,6.1512 4.2599,1.45 8.0038,2.3778 8.3197,2.0618 1.4552,-1.4552 6.53,-15.559 8.5241,-23.69 2.1837,-8.9042 3.911,-10.996 3.911,-4.7375 0,1.7727 -0.6714,5.6836 -1.492,8.691 -0.8206,3.0074 -2.002,7.7179 -2.6253,10.468 -0.6233,2.75 -2.4294,7.5795 -4.0135,10.732 -3.718,7.3997 -5.5957,7.918 -15.984,4.4115 -4.3077,-1.4541 -8.5278,-2.6438 -9.378,-2.6438 -1.1167,0 -1.3844,-0.64283 -0.96457,-2.3157 0.54198,-2.1594 0.15524,-2.3926 -5.731,-3.4554 -3.4717,-0.62683 -8.7447,-1.452 -11.718,-1.8338 -5.1534,-0.6617 -5.38,-0.5959 -4.8555,1.4099 0.4864,1.86 0.0115,2.1756 -4.0943,2.7208 -7.1222,0.94574 -15.21,3.625 -17.848,5.9123 -1.3079,1.134 -2.9693,3.7938 -3.6921,5.9107 -0.98133,2.8742 -1.4774,3.4233 -1.959,2.1682 z m -378.77,-97.973 c -1.3629,-1.3764 10.1,-33.516 19.654,-55.106 23.654,-53.453 55.57,-99.735 97.902,-141.97 31.34,-31.267 59.17,-52.702 96.073,-73.997 103.19,-59.548 222.47,-77.81 338.86,-51.883 111.78,24.9 212.97,92.35 279.65,186.41 13.671,19.285 33.335,51.563 30.252,49.658 -0.61419,-0.37959 -1.407,-0.22044 -1.7618,0.35367 -0.63833,1.0328 -3.1364,-2.2448 -6.9029,-9.057 -2.0562,-3.7189 -7.738,-12.821 -10.657,-17.072 -1.1954,-1.7409 -1.4634,-2.952 -0.79993,-3.6154 0.92354,-0.92354 -0.40677,-3.126 -12.564,-20.801 -1.1476,-1.6685 -2.6421,-3.6935 -3.321,-4.5 -1.4866,-1.7659 -6.6308,-8.1712 -10.749,-13.384 -1.65,-2.0886 -3.9,-4.8233 -5,-6.0771 -1.1,-1.2538 -4.025,-4.6572 -6.5,-7.5632 -4.8087,-5.646 -5.8933,-6.828 -16.085,-17.529 -7.7212,-8.1071 -20.292,-20.046 -27.813,-26.414 -2.9231,-2.475 -6.2794,-5.4443 -7.4584,-6.5985 -2.1464,-2.1012 -19.244,-15.614 -23.298,-18.414 -1.1848,-0.81814 -5.1438,-3.625 -8.7979,-6.2375 -3.6541,-2.6125 -6.8948,-4.75 -7.2015,-4.75 -0.30676,0 -1.9248,-1.1504 -3.5958,-2.5563 -2.0445,-1.7203 -3.3682,-2.2262 -4.0476,-1.5468 -1.2117,1.2117 -2.325,0.66574 -13.203,-6.4748 -4.4,-2.8882 -8.8334,-6.5352 -9.852,-8.1043 -2.6517,-4.085 -17.296,-11.709 -20.79,-10.824 -1.6606,0.42051 -3.7968,0.072 -5.75,-0.93796 -1.7092,-0.88389 -3.1077,-1.1944 -3.1077,-0.68994 0,1.2917 -10.195,-3.995 -11.794,-6.1158 -0.72566,-0.9625 -1.9222,-1.75 -2.6589,-1.75 -0.7367,0 -4.6487,-1.5133 -8.6933,-3.363 -6.7284,-3.077 -13.916,-5.8785 -27.354,-10.662 -2.75,-0.97894 -7.7,-2.462 -11,-3.2957 -3.3,-0.83368 -10.05,-2.7114 -15,-4.1726 -4.95,-1.4613 -12.825,-3.5056 -17.5,-4.5429 -4.675,-1.0373 -11.2,-2.5563 -14.5,-3.3755 -12.206,-3.03 -33.348,-6.5923 -45,-7.5824 -6.6,-0.56081 -13.912,-1.2926 -16.25,-1.6262 -2.5587,-0.36518 -4.25,-0.21062 -4.25,0.3884 0,0.889 -63.639,2.6241 -86,2.3448 -4.125,-0.05152 -11.325,0.61479 -16,1.4807 -4.675,0.86591 -12.1,2.1842 -16.5,2.9296 -8.8946,1.5068 -27.187,5.631 -34.953,7.8806 -14.128,4.0924 -28.937,8.8127 -36.547,11.649 -4.675,1.7426 -10.827,3.984 -13.672,4.9808 -2.8446,0.99682 -6.1753,2.3494 -7.4016,3.0057 -1.918,1.0265 -2.143,0.96732 -1.6095,-0.42304 0.84953,-2.2138 -0.7269,-2.0297 -6.1816,0.72202 -2.5494,1.2861 -12.06,6.0162 -21.135,10.511 -27.672,13.707 -30.494,15.425 -30.541,18.594 -0.0252,1.6732 -0.80549,3.1496 -2,3.7845 -1.0772,0.57256 -5.1086,3.1124 -8.9586,5.644 -3.85,2.5317 -7.7448,5.0586 -8.6551,5.6155 -3.056,1.8694 -16.271,10.999 -17.816,12.308 -0.84094,0.71255 -6.5881,5.248 -12.771,10.079 -15.375,12.012 -23.307,19.12 -40.285,36.098 -15.107,15.107 -23.103,23.868 -32.143,35.218 -2.9308,3.6798 -6.0174,6.7172 -6.859,6.75 -0.84163,0.0328 -3.3166,2.5845 -5.5,5.6705 -2.1834,3.086 -5.0709,6.9688 -6.4167,8.6284 -2.344,2.8906 -16.396,24.07 -20.54,30.958 -12.005,19.956 -29.534,55.702 -36.926,75.302 -1.452,3.85 -3.4963,9.25 -4.5429,12 -1.0466,2.75 -2.4973,7.1778 -3.2238,9.8395 -0.72646,2.6617 -1.604,4.5536 -1.9501,4.2041 z" fill="#d65a91" transform="matrix(1.0175 0 0 1.0065 -17.367 -4.633)"/><path d="m 452.5,656.34 c -8.8792,-1.0544 -26.879,-4.8806 -32.918,-6.9976 -7.2496,-2.5411 -9.4968,-4.4214 -9.5497,-7.9907 -0.0317,-2.1386 -0.009,-2.1368 8.8076,0.69834 27.068,8.7045 59.981,10.259 84.489,3.99 21.037,-5.3809 40.168,-18.412 48.515,-33.044 3.9605,-6.9429 4.1579,-4.8393 0.2356,2.5108 -10.892,20.412 -31.352,33.542 -59.12,37.942 -5.7527,0.91148 -10.609,2.0825 -10.793,2.6024 -0.31143,0.88301 -22.818,1.1024 -29.667,0.28921 z m -183,-1.0218 c -13.737,-1.1729 -30.525,-5.8132 -37.5,-10.365 -1.375,-0.89732 -3.2399,-1.8973 -4.1442,-2.2222 -5.6754,-2.0391 -20.933,-16.649 -26.354,-25.235 -3.0642,-4.8531 -7.1804,-13.5 -9.9343,-20.869 -3.6598,-9.7932 -3.1515,-10.526 0.88621,-1.2768 5.1124,11.711 9.2428,18.066 17.427,26.814 12.47,13.329 27.175,21.45 46.135,25.479 10.308,2.1905 37.215,2.4827 46.484,0.50484 25.026,-5.3398 44.646,-17.808 57.404,-36.479 4.509,-6.5989 10.567,-19.771 12.966,-28.194 2.7894,-9.7917 2.5947,-5.8681 -0.24921,5.0211 -2.8575,10.941 -5.95,19.086 -8.6222,22.71 -1.0991,1.4902 -1.9984,2.9636 -1.9984,3.2741 0,3.9382 -23.723,28.516 -27.524,28.516 -0.45005,0 -1.5287,0.6375 -2.397,1.4167 -1.4484,1.2997 -6.6383,3.5816 -16.341,7.1846 -2.069,0.76833 -6.119,1.6015 -9,1.8515 -2.881,0.25 -9.2882,0.91738 -14.238,1.4831 -8.7206,0.99664 -14.68,1.0968 -23,0.38636 z m 419.5,-4.7e-4 c -25.62,-1.436 -45.152,-6.0126 -55.636,-13.037 -3.1073,-2.0818 -6.5979,-4.4121 -7.7569,-5.1783 -3.8355,-2.5356 -11.284,-12.488 -15.423,-20.607 -5.5228,-10.835 -6.3571,-15.02 -0.99663,-5 2.8706,5.3659 6.7546,10.505 11.796,15.607 13.33,13.491 28.615,19.286 58.016,21.995 24.597,2.266 51.66,-0.27361 80.5,-7.5543 7.7,-1.9439 14.112,-3.5373 14.25,-3.5409 0.1375,-0.004 0.25,0.81494 0.25,1.8191 0,4.8558 -11.252,9.2422 -32.5,12.669 -4.95,0.79845 -11.247,1.876 -13.993,2.3945 -2.746,0.51854 -5.221,0.58057 -5.5,0.13785 -0.279,-0.44272 -5.6822,-0.431 -12.007,0.026 -6.325,0.45705 -12.4,0.77372 -13.5,0.70373 -1.1,-0.07 -4.475,-0.26599 -7.5,-0.43553 z m 146.13,-2.2176 c -3.8779,-0.49272 -5.8924,-1.3274 -7.25,-3.004 -2.8201,-3.4827 -2.4652,-5.3855 0.86999,-4.6647 7.3536,1.5894 28.184,2.3646 39.994,1.4886 7.0156,-0.52038 13.267,-1.1325 13.892,-1.3603 1.9667,-0.71645 0.24557,3.4699 -2.0203,4.914 -2.9231,1.863 -36.319,3.7913 -45.487,2.6264 z M 505,583.65313 c 0,-0.92168 -1.3416,-3.0796 -2.9814,-4.7955 -4.8504,-5.0755 -12.185,-8.0204 -34.519,-13.859 -19.234,-5.0286 -29.781,-10.304 -39.104,-19.561 -5.398,-5.3595 -7.6244,-8.4366 -9.2523,-12.788 -2.8689,-7.6678 -2.6898,-8.1394 0.78809,-2.0758 3.9803,6.9394 12.313,14.285 21.808,19.225 4.8234,2.5094 15.931,6.5342 28.346,10.271 21.554,6.4878 27.945,9.1511 31.75,13.231 2.2406,2.4027 4.8096,10.383 3.6998,11.493 -0.29408,0.29408 -0.53469,-0.2194 -0.53469,-1.1411 z m 503.16,-5.6576 c 0,-1.375 0.227,-1.9375 0.5044,-1.25 0.2774,0.6875 0.2774,1.8125 0,2.5 -0.2774,0.6875 -0.5044,0.125 -0.5044,-1.25 z m -633,-4 c 0,-1.375 0.22698,-1.9375 0.50439,-1.25 0.27741,0.6875 0.27741,1.8125 0,2.5 -0.27741,0.6875 -0.50439,0.125 -0.50439,-1.25 z m 633.99,-24.67 c -0.1441,-25.394 -1.4185,-51.347 -3.0484,-62.08 -0.7705,-5.0735 0.3552,-7.5686 1.3534,-3 2.3721,10.856 4.0523,58.966 2.7329,78.25 -0.8516,12.448 -0.8957,11.889 -1.0379,-13.17 z m -632.95,19.17 c -0.0204,-1.65 0.18706,-2.4461 0.46099,-1.769 0.27392,0.67703 0.29059,2.027 0.0371,3 -0.25354,0.97297 -0.47766,0.41903 -0.49804,-1.231 z m 463.1,-6.4855 c -5.4524,-1.16 -8.2965,-2.7217 -8.2965,-4.5555 0,-1.2397 1.3739,-1.352 8.75,-0.71481 11.276,0.97403 21.546,0.95773 32.566,-0.0517 8.7622,-0.80259 8.8091,-0.79468 7.6892,1.2979 -0.61973,1.158 -2.3369,2.5895 -3.816,3.1812 -3.4485,1.3796 -31.372,2.0176 -36.893,0.84293 z m -523.2,-49.09 c -1.4062,-4.6933 -6.7721,-13.402 -10.236,-16.612 -1.2979,-1.2029 -5.4097,-3.6136 -9.1372,-5.3571 -6.5875,-3.0812 -7.0918,-3.1587 -18,-2.7662 -9.6918,0.34873 -11.905,0.76024 -16.223,3.0167 -6.4221,3.3561 -10.438,7.0568 -14.426,13.294 -3.4064,5.3271 -3.2949,2.9484 0.18761,-4 3.666,-7.3145 7.6137,-11.313 14.527,-14.715 6.339,-3.119 7.2324,-3.2834 17.694,-3.2557 9.3358,0.0248 11.813,0.38462 16.231,2.3576 9.2003,4.1086 16.837,14.303 20.273,27.064 1.4804,5.4978 0.71489,6.3344 -0.89115,0.97393 z m 154.35,-19.877 c 0.74125,-4.3968 3.8536,-7.775 9.5512,-10.367 3.5976,-1.6366 6.8062,-2.0822 16,-2.222 6.325,-0.0962 8.866,0.009 5.6466,0.23333 -5.1893,0.36194 -5.7964,0.62646 -5.3505,2.3314 0.41111,1.5721 -0.16326,2.0311 -3.1466,2.5146 -12.921,2.0939 -19.286,4.7754 -22.259,9.3774 -0.76108,1.178 -0.87424,0.69927 -0.44146,-1.8678 z m 59.138,-2.5825 c -8.0866,-2.8769 -7.8212,-2.69 -6.9702,-4.9076 0.82761,-2.1567 4.9212,-1.5355 14.103,2.1401 5.1505,2.0619 6.1182,2.7933 5.1843,3.9184 -1.6092,1.939 -4.3515,1.6828 -12.317,-1.151 z m 14.145,-3.5458 c 0.35361,-1.3522 0.8069,-1.8055 1.0566,-1.0566 0.24048,0.72144 -0.0382,1.7872 -0.61931,2.3683 -0.74207,0.74207 -0.87221,0.35164 -0.43724,-1.3117 z m 398.27,-189.92 c -0.5887,-1.1 -0.84537,-2 -0.57037,-2 0.275,0 0.98167,0.9 1.5704,2 0.58873,1.1 0.84537,2 0.57037,2 -0.275,0 -0.98167,-0.9 -1.5704,-2 z m -3.4887,-5.6231 c -0.9453,-1.4427 -1.2245,-2.3177 -0.62038,-1.9443 1.1544,0.71346 3.4827,4.5674 2.7593,4.5674 -0.23109,0 -1.1936,-1.1804 -2.1389,-2.6231 z m -769.33,-37.812 c 0.70397,-3.1254 23.244,-28.965 39.323,-45.079 24.447,-24.501 48.308,-43.968 76.453,-62.375 10.668,-6.9769 12.581,-7.9082 13.365,-6.5071 0.69036,1.2336 0.21122,2.2119 -1.9516,3.9845 -1.5766,1.2922 -3.7666,2.6417 -4.8666,2.9988 -1.1,0.3571 -2.7634,1.319 -3.6965,2.1375 -0.93305,0.81854 -4.5872,3.3528 -8.1204,5.6317 -10.435,6.7309 -21.073,13.922 -22.683,15.334 -1.472,1.291 -6.6072,5.3579 -13.017,10.309 -1.7801,1.375 -4.4765,3.625 -5.992,5 -1.5155,1.375 -5.1362,4.525 -8.0459,7 -7.8592,6.685 -20.413,18.585 -27.864,26.414 -10.241,10.759 -11.285,11.898 -16.081,17.533 -2.475,2.9085 -5.625,6.5395 -7,8.0688 -4.7905,5.3283 -8,9.4202 -8,10.2 0,0.43159 -0.483,0.7847 -1.0733,0.7847 -0.59033,0 -0.92783,-0.64595 -0.75,-1.4354 z m 622.75,-107.43 c -7.5056,-4.903 -10.852,-6.9291 -14.501,-8.781 -2.8853,-1.464 -6.038,-5.0812 -5.1782,-5.941 0.6082,-0.6082 26.75,15.601 26.75,16.586 0,2.0446 -1.8227,1.564 -7.0707,-1.8642 z m -43.047,-23.831 c -2.5396,-1.3156 -5.8566,-2.6167 -7.3712,-2.8913 -1.5146,-0.27465 -4.1618,-1.5496 -5.8826,-2.8331 -1.7209,-1.2836 -4.7038,-3.028 -6.6288,-3.8765 -10.462,-4.6117 -13.961,-6.0602 -18.5,-7.6589 -19.151,-6.7457 -25.839,-8.9445 -32,-10.521 -3.85,-0.98496 -11.725,-3.0909 -17.5,-4.68 -5.775,-1.589 -13.875,-3.518 -18,-4.2867 -4.125,-0.7687 -11.325,-2.3045 -16,-3.4131 -9.6562,-2.2897 -25.488,-4.8178 -38.002,-6.0682 -11.062,-1.1054 -86.456,0.43641 -95.378,1.9505 -5.4613,0.92675 -7.0407,0.9077 -7.6588,-0.09239 -0.62106,-1.0049 -2.8717,-0.93006 -11.12,0.3698 -5.6877,0.89634 -12.591,1.913 -15.341,2.2593 -2.75,0.34629 -8.375,1.44 -12.5,2.4305 -4.125,0.9905 -9.3,2.0913 -11.5,2.4461 -12.699,2.0485 -52.711,14.522 -71.5,22.29 -2.8884,1.1942 -3.2479,1.0738 -2.5099,-0.84015 1.0766,-2.7921 36.987,-15.344 62.354,-21.795 98.153,-24.961 199.54,-18.345 292.44,19.082 21.133,8.5141 39.96,17.573 39.485,18.998 -0.62291,1.8688 -1.9204,1.7049 -6.8914,-0.87028 z" fill="#bc5281" transform="matrix(1.0175 0 0 1.0065 -17.367 -4.633)"/><path d="m 447,652.31 c -4.5385,-0.47798 -24.711,-5.0943 -28.178,-6.4483 -2.509,-0.97991 -6.8947,-4.863 -5.4924,-4.863 0.35193,0 4.5842,1.1438 9.405,2.5417 12.986,3.7656 24.993,5.583 41.684,6.3092 10.567,0.45978 15.04,1.0138 15.333,1.8991 0.32038,0.96712 -2.9427,1.2138 -14.419,1.09 -8.1583,-0.088 -16.408,-0.32591 -18.333,-0.52864 z m 277.87,-2.0759 c 0.70271,-1.313 3.7184,-2.2328 11.785,-3.5945 5.9624,-1.0064 16.016,-3.1362 22.341,-4.7328 6.325,-1.5966 11.598,-2.9041 11.719,-2.9055 0.12023,-10e-4 -0.0313,0.64862 -0.33679,1.4447 -0.78692,2.0507 -10.49,5.0238 -27.838,8.53 -17.811,3.5997 -18.967,3.682 -17.67,1.2582 z m 111.98,0.0424 c -2.0042,-0.21227 -4.4703,-1.2991 -5.4803,-2.4152 -1.8342,-2.0267 -1.8273,-2.0283 5.6439,-1.3168 8.413,0.80129 8.9803,0.99164 8.9803,3.0131 0,1.4556 -1.2555,1.5543 -9.1439,0.71884 z m -528.86,-1.0778 c 0,-1.3267 2.2978,-3.1988 3.95,-3.2183 2.7771,-0.0328 17.448,-6.535 23.572,-10.448 3.288,-2.1005 8.4262,-5.8925 11.418,-8.4266 6.6019,-5.5913 5.7834,-3.7659 -1.3059,2.9124 -9.0163,8.4936 -19.335,14.686 -30.093,18.06 -6.8193,2.1384 -7.5415,2.2457 -7.5415,1.1203 z m 46,-29.7 c 0.68469,-0.825 1.4699,-1.5 1.7449,-1.5 0.275,0 -0.0602,0.675 -0.74489,1.5 -0.68469,0.825 -1.4699,1.5 -1.7449,1.5 -0.275,0 0.0602,-0.675 0.74489,-1.5 z m 135.73,-546.16 c 0.67703,-0.27392 2.027,-0.2906 3,-0.03705 0.97297,0.25354 0.41903,0.47766 -1.231,0.49804 -1.65,0.02038 -2.4461,-0.18706 -1.769,-0.46099 z m 6.5074,-1.0311 c 0.95609,-0.25029 2.7561,-0.25937 4,-0.02018 1.2439,0.23919 0.46166,0.44398 -1.7383,0.45508 -2.19996,0.0111 -3.2178,-0.1846 -2.2617,-0.4349 z m 12,-1 c 0.95609,-0.25029 2.7561,-0.25937 4,-0.02018 1.2439,0.23919 0.46166,0.44398 -1.7383,0.45508 -2.19996,0.0111 -3.2178,-0.1846 -2.2617,-0.4349 z m 25.012,-1.0562 c 4.2625,-0.18745 11.238,-0.18745 15.5,0 4.262,0.18745 0.775,0.34082 -7.75,0.34082 -8.525,0 -12.012,-0.15337 -7.75,-0.34082 z" fill="#b84d7d" transform="matrix(1.0175 0 0 1.0065 -17.367 -4.633)"/><path d="M244.14 665.98c-36.778-9.6004-59.219-35.828-66.723-77.981-9.4782-53.242 11.145-101.19 51.576-119.92 16.634-7.7042 54.325-9.8191 73.847-4.1438 25.838 7.5114 46.053 27.313 57.008 55.844 6.2321 16.23 8.591 54.812 4.5434 74.309-6.3586 30.629-28.344 58.343-53.857 67.888-16.187 6.0562-50.584 8.13-66.395 4.0029zm44.46-41.464c17.807-9.2081 24.055-27.551 22.716-66.68-.72722-21.246-1.7406-26.838-6.5602-36.198-7.2336-14.048-17.029-19.619-34.5-19.619-23.369 0-34.858 13.104-39.311 44.836-2.9454 20.99.13843 49.076 6.8074 61.999 6.6267 12.841 17.016 19.012 32.009 19.012 6.798 0 15.275-1.5075 18.838-3.35zM437.49 667.69c-3.1462-.57089-12.707-2.7655-21.246-4.877-15.497-3.832-15.523-3.8516-14.143-10.813 2.6781-13.509 8.012-30.78 9.8581-31.921 1.0271-.63478 6.8789.35407 13.004 2.1975 16.204 4.8768 39.601 6.5206 50.554 3.5516 14.877-4.033 21.464-10.43 21.464-20.845 0-11.768-6.3567-16.555-33.072-24.905-41.684-13.03-53.96-23.727-57.454-50.067-1.9968-15.053 2.1136-31.967 10.56-43.452 9.3744-12.747 30.349-23.435 49.775-25.364 18.295-1.8163 50.21.70636 64.514 5.0995 10.042 3.0842 10.283 3.3796 9.7312 11.968-.311 4.8429-2.1466 13.566-4.0792 19.384l-3.5137 10.579-15.37-4.3694c-10.468-2.9757-20.597-4.1374-31.757-3.642-20.063.89066-25.944 4.9973-25.944 18.116 0 10.475 3.0487 12.427 37.536 24.041 26.487 8.9199 35.361 14.399 43.399 26.795 11.017 16.991 10.897 45.002-.27179 63.067-14.019 22.676-38.942 34.563-74.943 35.745-12.585.41308-25.456.28395-28.602-.28695zM656.5 666.71c-28.029-4.4316-47.066-18.125-57.945-41.681l-6.617-14.328-.71553-73.792-.71553-73.792h52.66l.69913 66.928c.64312 61.566 1.0658 67.656 5.2754 76.017 6.9192 13.742 16.764 18.343 39.28 18.357 10.278.006 19.157-.50316 19.732-1.1324 1.71-1.8715 3.8272-64.128 3.8712-113.83l.041-46.335h49.649l1.4773 22.309c.81253 12.27 1.4827 55.945 1.4892 97.055l.0118 74.746-21.165 4.9895c-23.874 5.6282-66.071 7.807-87.027 4.4937zM821.04 549.5c-.72048-14.158-1.918-56.751-2.6612-94.652l-1.3512-68.911 5.2956-1.4182c6.7568-1.8095 42.582-1.8504 49.274-.0563 4.935 1.323 5.0494 2.0591 3.9938 25.71-.59765 13.392-1.7151 56.01-2.4831 94.708l-1.3965 70.36h-49.362zM825.33 664.89l-6.8644-1.5913-.65189-24.821c-.42913-16.339.25302-25.911 1.9963-28.011 1.9688-2.3722 9.0522-3.1908 27.609-3.1908 21.621 0 25.181.53587 26.605 4.0042 2.2175 5.4 2.1041 50.075-.13274 52.309-2.3394 2.3364-39.77 3.3391-48.562 1.3009z" transform="matrix(1.0175 0 0 1.0065 -9.236 -25.361)" fill="#fff" stroke-opacity="0"/></svg>