<svg xmlns="http://www.w3.org/2000/svg" width="480" height="480"><g fill="#e8748a" fill-rule="evenodd"><path d="M 231.85824,399.42033 C 322.30685,418.82581 436.26454,322.87998 438.19762,207.48292 432.75112,94.30013 343.39935,-0.80510011 222.14208,0.00513921 100.88481,0.81537853 21.086616,119.89365 15.802696,207.48292 9.6355912,307.28026 108.64564,389.25076 231.85824,399.42033 Z" opacity=".2" transform="translate(20 32)"/><path d="M 194.11765,415.31743 C 298.44118,419.92842 390.52829,324.22395 388.23529,238.90013 377.37391,127.20332 301.32586,39.363278 194.11765,47.095109 86.909431,54.826939 0,133.81166 0,223.51241 2.8582242,295.05859 90.762047,402.91958 194.11765,415.31743 Z" opacity=".3" transform="translate(20 32)"/><path d="M 207.92311,378.45196 C 329.17514,399.41906 412.85995,307.79228 412.38677,207.19685 419.92571,112.25438 303.59053,9.6038633 196.30556,13.033983 c -112.393583,0 -181.960125,85.722022 -180.760889,175.461507 6.113277,48.5892 32.867947,172.28657 192.378439,189.95647 z" opacity=".4" transform="translate(20 32)"/><path d="M 193.18164,374.49812 C 301.53536,396.14275 386.31222,368.73367 385.13009,207.21663 361.23779,87.087279 272.50354,44.977859 201.88235,45.674969 73.49106,50.748884 23.723162,120.22466 18.634602,207.21663 27.247047,258.65367 77.060923,362.21005 193.18164,374.49812 Z" opacity=".4" transform="translate(20 32)"/><path d="M 195.43098,335.60975 C 298.6986,321.7706 368.30214,258.8165 369.99012,186.11046 382.85662,81.074808 305.70353,23.423181 203.19569,28.840987 111.06308,50.304775 59.496939,107.24108 46.754193,186.11046 46.6357,254.06628 36.50534,362.53918 195.43098,335.60975 Z" opacity=".6" transform="translate(20 32)"/></g><path d="m 345.27195,178.44427 a 1.6067151,1.6067151 0 0 0 -1.60672,1.60672 v 69.23334 c 0,0.88369 0.72301,1.60672 1.60672,1.60672 h 12.85372 a 1.6067151,1.6067151 0 0 0 1.6067,-1.60672 v -69.23334 a 1.6067151,1.6067151 0 0 0 -1.6067,-1.59869 H 345.27195 Z M 139.77309,202.545 c -39.12351,-0.0643 -37.091,41.0596 -37.091,41.0596 -0.29725,16.25995 7.0615,39.10744 36.135,39.27614 29.09761,0.16871 36.1511,-23.18489 36.11895,-39.27614 0,0 1.9602,-41.00336 -35.17901,-41.0596 z m 79.37172,0 c -13.2313,-0.0884 -35.86991,3.90431 -36.13502,24.99245 -0.1687,13.3036 8.93334,17.93897 13.76151,19.63405 8.8289,3.109 34.32747,1.28538 34.43994,11.59245 0.1446,13.31967 -34.2873,6.2662 -41.54965,4.62734 a 1.5665472,1.5665472 0 0 0 -1.81558,1.04437 l -4.32207,11.97003 a 1.5585136,1.5585136 0 0 0 0.88369,2.01643 c 3.43034,1.33356 12.84569,4.49076 24.71128,4.44256 22.0843,-0.0884 38.12734,-6.93297 38.15948,-26.76787 0.0322,-18.42098 -16.3885,-20.56596 -22.95192,-21.43358 -6.42687,-0.84352 -25.13705,-0.75516 -25.24953,-7.93717 -0.10442,-6.86067 12.29137,-11.9379 37.83814,-5.80828 a 1.6067151,1.6067151 0 0 0 1.92806,-1.03633 l 3.89628,-12.18694 a 1.5745807,1.5745807 0 0 0 -1.06043,-2.02445 91.823764,91.823764 0 0 0 -22.53418,-3.12506 z m 37.86224,0 c -0.8837,0 -1.60671,0.65071 -1.61474,1.53441 -0.0562,5.10132 -0.20085,22.68681 0.016,48.67543 0.25708,31.1301 27.76404,30.07771 42.77076,30.1259 13.61691,0.0401 21.38537,-5.02098 21.38537,-5.02098 v -73.71608 a 1.6067151,1.6067151 0 0 0 -1.60671,-1.59868 h -12.85372 a 1.6067151,1.6067151 0 0 0 -1.60672,1.60671 v 62.66189 c 0,0 -14.73358,2.153 -24.10071,0 -8.17016,-1.87986 -8.03359,-20.08394 -8.03359,-20.08394 v -42.57795 a 1.6067151,1.6067151 0 0 0 -1.60671,-1.60671 z m -118.19799,16.06715 c 5.98501,-0.016 20.06787,2.72337 20.08394,24.10072 0.016,19.73046 -14.57291,24.15696 -20.08394,24.10073 -5.61547,-0.0562 -20.05181,-4.3783 -20.08394,-24.10073 -0.0322,-21.46571 13.96236,-24.08466 20.08394,-24.10072 z m 206.46289,48.03274 a 1.6067151,1.6067151 0 0 0 -1.60672,1.59868 v 13.0385 c 0,0.88369 0.72301,1.59867 1.60672,1.59867 h 12.85372 a 1.6067151,1.6067151 0 0 0 1.6067,-1.6067 v -13.03047 a 1.6067151,1.6067151 0 0 0 -1.6067,-1.60672 h -12.85372 z" stroke-width="8.034" fill="#fff" fill-opacity=".867"/></svg>