<?xml version="1.0" encoding="UTF-8"?>
<svg xmlns="http://www.w3.org/2000/svg" xmlns:xlink="http://www.w3.org/1999/xlink" width="16px" height="16px" viewBox="0 0 16 16" version="1.1">
<g id="surface1">
<path style=" stroke:none;fill-rule:nonzero;fill:rgb(86.666667%,86.666667%,86.666667%);fill-opacity:1;" d="M 3.832031 2 C 3.1875 2 2.664062 2.523438 2.664062 3.167969 L 2.664062 12.832031 C 2.664062 13.476562 3.1875 14 3.832031 14 L 6.164062 14 C 6.808594 14 7.332031 13.476562 7.332031 12.832031 L 7.332031 3.167969 C 7.332031 2.523438 6.808594 2 6.164062 2 Z M 3.664062 3.167969 C 3.664062 3.074219 3.738281 3 3.832031 3 L 6.164062 3 C 6.257812 3 6.332031 3.074219 6.332031 3.167969 L 6.332031 12.832031 C 6.332031 12.925781 6.257812 13 6.164062 13 L 3.832031 13 C 3.738281 13 3.664062 12.925781 3.664062 12.832031 Z M 9.832031 2 C 9.1875 2 8.664062 2.523438 8.664062 3.167969 L 8.664062 12.832031 C 8.664062 13.476562 9.1875 14 9.832031 14 L 12.164062 14 C 12.808594 14 13.332031 13.476562 13.332031 12.832031 L 13.332031 3.167969 C 13.332031 2.523438 12.808594 2 12.164062 2 Z M 9.664062 3.167969 C 9.664062 3.074219 9.738281 3 9.832031 3 L 12.164062 3 C 12.257812 3 12.332031 3.074219 12.332031 3.167969 L 12.332031 12.832031 C 12.332031 12.925781 12.257812 13 12.164062 13 L 9.832031 13 C 9.738281 13 9.664062 12.925781 9.664062 12.832031 Z M 9.664062 3.167969 "/>
</g>
</svg>
