<svg xmlns="http://www.w3.org/2000/svg" width="16" height="16"><path d="M 6.78125 9.296875 C 6.558594 9.566406 6.414062 9.90625 6.378906 10.273438 L 2.960938 10.273438 C 2.691406 10.273438 2.476562 10.492188 2.476562 10.761719 L 2.476562 11.136719 C 2.476562 11.484375 2.597656 11.820312 2.824219 12.085938 C 3.589844 12.980469 4.765625 13.464844 6.378906 13.519531 C 6.414062 13.890625 6.558594 14.226562 6.78125 14.5 L 6.699219 14.5 C 4.652344 14.5 3.101562 13.910156 2.085938 12.71875 C 1.707031 12.277344 1.5 11.714844 1.5 11.136719 L 1.5 10.761719 C 1.5 9.988281 2.101562 9.351562 2.863281 9.300781 L 2.960938 9.296875 Z M 9.785156 7.671875 L 11.738281 7.671875 C 12.15625 7.671875 12.503906 7.992188 12.546875 8.402344 L 12.550781 8.484375 L 12.550781 9.296875 L 13.363281 9.296875 C 13.992188 9.296875 14.5 9.808594 14.5 10.4375 L 14.5 13.363281 C 14.5 13.988281 13.992188 14.5 13.363281 14.5 L 8.160156 14.5 C 7.53125 14.5 7.023438 13.988281 7.023438 13.363281 L 7.023438 10.4375 C 7.023438 9.808594 7.53125 9.296875 8.160156 9.296875 L 8.972656 9.296875 L 8.972656 8.484375 C 8.972656 8.066406 9.292969 7.71875 9.703125 7.675781 L 9.785156 7.671875 L 11.738281 7.671875 Z M 13.363281 10.273438 L 8.160156 10.273438 C 8.070312 10.273438 8 10.347656 8 10.4375 L 8 13.363281 C 8 13.453125 8.070312 13.523438 8.160156 13.523438 L 13.363281 13.523438 C 13.453125 13.523438 13.523438 13.453125 13.523438 13.363281 L 13.523438 10.4375 C 13.523438 10.347656 13.453125 10.273438 13.363281 10.273438 Z M 11.574219 8.648438 L 9.949219 8.648438 L 9.949219 9.296875 L 11.574219 9.296875 Z M 6.699219 1.5 C 8.492188 1.5 9.949219 2.957031 9.949219 4.75 C 9.949219 6.546875 8.492188 8 6.699219 8 C 4.902344 8 3.449219 6.546875 3.449219 4.75 C 3.449219 2.957031 4.902344 1.5 6.699219 1.5 Z M 6.699219 2.476562 C 5.441406 2.476562 4.421875 3.492188 4.421875 4.75 C 4.421875 6.007812 5.441406 7.027344 6.699219 7.027344 C 7.957031 7.027344 8.972656 6.007812 8.972656 4.75 C 8.972656 3.492188 7.957031 2.476562 6.699219 2.476562 Z M 6.699219 2.476562" fill="#ddd"/></svg>