<svg width="16" height="16" xmlns="http://www.w3.org/2000/svg">
    <path d="M 6.7823711,9.2981812 C 6.5593328,9.568172 6.4140556,9.904769 6.3808379,10.273673 l -3.4188093,-1.77e-4 c -0.2688831,0 -0.4868559,0.217973 -0.4868559,0.486856 v 0.375557 c 0,0.348246 0.124243,0.685063 0.3503911,0.949889 0.7654662,0.896405 1.9397917,1.378595 3.5552405,1.433694 0.032059,0.370642 0.177612,0.708897 0.4015668,0.979998 l -0.083753,5.02e-4 c -2.0451728,0 -3.596356,-0.588469 -4.6146332,-1.78093 C 1.7070736,12.277688 1.5,11.71632 1.5,11.135909 V 10.760352 C 1.5,9.98654 2.1011612,9.3531367 2.8619291,9.3016965 l 0.1000995,-0.00337 z M 9.786665,7.6730871 h 1.950346 c 0.42076,0 0.766833,0.3197752 0.808448,0.7295558 l 0.0042,0.083088 -2.98e-4,0.8123999 0.812942,2.44e-4 C 13.990634,9.2983749 14.5,9.807741 14.5,10.436076 v 2.925518 c 0,0.628336 -0.509366,1.137702 -1.137701,1.137702 H 8.1613776 c -0.6283352,0 -1.1377015,-0.509366 -1.1377015,-1.137702 v -2.925518 c 0,-0.628335 0.5093663,-1.1377011 1.1377015,-1.1377011 l 0.8123458,-2.44e-4 2.981e-4,-0.8123999 c 0,-0.4207602 0.3197751,-0.7668328 0.7295555,-0.8084483 l 0.08309,-0.0042 h 1.950346 z m 3.575634,2.6004609 H 8.1613776 c -0.089762,0 -0.1625288,0.07277 -0.1625288,0.162528 v 2.925518 c 0,0.08976 0.072767,0.162529 0.1625288,0.162529 h 5.2009214 c 0.08976,0 0.162528,-0.07277 0.162528,-0.162529 v -2.925518 c 0,-0.08976 -0.07277,-0.162528 -0.162528,-0.162528 z M 11.574482,8.6482598 H 9.949194 l -2.98e-4,0.6498711 h 1.625288 z M 6.6986186,1.5 c 1.7952433,0 3.2505754,1.4553323 3.2505754,3.2505756 0,1.7952433 -1.4553321,3.2505756 -3.2505754,3.2505756 -1.7952434,0 -3.2505756,-1.4553323 -3.2505756,-3.2505756 C 3.448043,2.9553323 4.9033752,1.5 6.6986186,1.5 Z m 0,0.9751727 c -1.2566704,0 -2.275403,1.0187326 -2.275403,2.2754029 0,1.2566703 1.0187326,2.2754029 2.275403,2.2754029 1.2566703,0 2.2754029,-1.0187326 2.2754029,-2.2754029 0,-1.2566703 -1.0187326,-2.2754029 -2.2754029,-2.2754029 z"
          fill="#ddd" stroke-width=".65"/>
</svg>