<svg xmlns="http://www.w3.org/2000/svg" width="16" height="16"><path d="M 10.058594 2.445312 C 9.347656 1.730469 8.148438 1.910156 7.671875 2.796875 L 5.652344 6.589844 L 2.84375 7.527344 C 2.675781 7.582031 2.554688 7.714844 2.511719 7.886719 C 2.472656 8.054688 2.523438 8.230469 2.644531 8.355469 L 4.792969 10.5 L 2.144531 13.148438 L 2 14 L 2.855469 13.855469 L 5.5 11.207031 L 7.644531 13.355469 C 7.769531 13.476562 7.945312 13.527344 8.113281 13.488281 C 8.285156 13.445312 8.417969 13.324219 8.472656 13.160156 L 9.410156 10.347656 L 13.191406 8.324219 C 14.074219 7.851562 14.253906 6.65625 13.542969 5.941406 Z M 8.554688 3.269531 C 8.714844 2.972656 9.113281 2.914062 9.351562 3.152344 L 12.835938 6.648438 C 13.074219 6.886719 13.011719 7.285156 12.71875 7.441406 L 8.765625 9.558594 C 8.652344 9.621094 8.566406 9.722656 8.527344 9.84375 L 7.78125 12.074219 L 3.925781 8.21875 L 6.15625 7.476562 C 6.28125 7.433594 6.382812 7.347656 6.441406 7.234375 Z M 8.554688 3.269531" fill="#ddd"/></svg>