<svg width="24" height="24" fill="none" xmlns="http://www.w3.org/2000/svg"><path d="m 8.642934,18.34824 3.173256,-3.17328 c 0.234288,-0.23424 0.614208,-0.23424 0.848568,0 0.23424,0.23436 0.23424,0.61428 0,0.84852 L 8.502714,20.18556 C 8.39265,20.3166 8.22753,20.4 8.042934,20.4 H 8.040942 C 7.946514,20.4 7.852086,20.37792 7.766118,20.33364 7.711962,20.3058 7.661154,20.2692 7.615794,20.22396 L 7.603818,20.2116 3.415734,16.02348 c -0.234312,-0.23424 -0.234312,-0.61416 0,-0.84852 0.234312,-0.23436 0.614208,-0.23436 0.848532,0 l 3.178668,3.17868 V 4.2 c 0,-0.331368 0.268632,-0.6 0.6,-0.6 0.331368,0 0.6,0.268632 0.6,0.6 z M 11.391462,4.8 c -0.331368,0 -0.6,0.268632 -0.6,0.6 0,0.331368 0.268632,0.6 0.6,0.6 h 8.399976 c 0.33144,0 0.6,-0.268632 0.6,-0.6 0,-0.331368 -0.26856,-0.6 -0.6,-0.6 z m 0,3.6 c -0.331368,0 -0.6,0.268632 -0.6,0.6 0,0.331368 0.268632,0.6 0.6,0.6 h 5.999976 c 0.33144,0 0.6,-0.268632 0.6,-0.6 0,-0.331368 -0.26856,-0.6 -0.6,-0.6 z m 0,3.6 c -0.331368,0 -0.6,0.26868 -0.6,0.6 0,0.33132 0.268632,0.6 0.6,0.6 h 2.399976 c 0.33144,0 0.6,-0.26868 0.6,-0.6 0,-0.33132 -0.26856,-0.6 -0.6,-0.6 z" fill="#ddd" stroke-width="1.2"/></svg>