<svg xmlns="http://www.w3.org/2000/svg" width="16" height="16"><path d="M 1.332031 3.167969 C 1.332031 2.890625 1.558594 2.667969 1.832031 2.667969 L 14.167969 2.667969 C 14.441406 2.667969 14.667969 2.890625 14.667969 3.167969 C 14.667969 3.441406 14.441406 3.667969 14.167969 3.667969 L 1.832031 3.667969 C 1.558594 3.667969 1.332031 3.441406 1.332031 3.167969 Z M 4.144531 5.480469 C 4.339844 5.285156 4.660156 5.285156 4.855469 5.480469 L 6.855469 7.480469 C 7.046875 7.675781 7.046875 7.992188 6.855469 8.1875 C 6.660156 8.382812 6.339844 8.382812 6.144531 8.1875 L 5 7.039062 L 5 12.5 C 5 12.777344 4.777344 13 4.5 13 C 4.222656 13 4 12.777344 4 12.5 L 4 7.039062 L 2.855469 8.1875 C 2.660156 8.382812 2.339844 8.382812 2.144531 8.1875 C 1.953125 7.992188 1.953125 7.675781 2.144531 7.480469 Z M 7.667969 5.832031 C 7.667969 5.558594 7.890625 5.332031 8.167969 5.332031 L 14.167969 5.332031 C 14.441406 5.332031 14.667969 5.558594 14.667969 5.832031 C 14.667969 6.109375 14.441406 6.332031 14.167969 6.332031 L 8.167969 6.332031 C 7.890625 6.332031 7.667969 6.109375 7.667969 5.832031 Z M 7.667969 8.5 C 7.667969 8.222656 7.890625 8 8.167969 8 L 14.167969 8 C 14.441406 8 14.667969 8.222656 14.667969 8.5 C 14.667969 8.777344 14.441406 9 14.167969 9 L 8.167969 9 C 7.890625 9 7.667969 8.777344 7.667969 8.5 Z M 7.667969 11.167969 C 7.667969 10.890625 7.890625 10.667969 8.167969 10.667969 L 14.167969 10.667969 C 14.441406 10.667969 14.667969 10.890625 14.667969 11.167969 C 14.667969 11.441406 14.441406 11.667969 14.167969 11.667969 L 8.167969 11.667969 C 7.890625 11.667969 7.667969 11.441406 7.667969 11.167969 Z M 7.667969 11.167969" fill="#ddd"/></svg>