<svg class="icon" viewBox="0 0 1024 1024" version="1.1" width="24" height="24" id="svg8" xmlns="http://www.w3.org/2000/svg"><defs id="defs4"><style type="text/css" id="style2"/></defs><path d="m 797.60854,642.30935 c -5.4662,-5.4662 -13.66548,-10.93238 -21.86477,-8.19929 -16.39858,0 -30.06406,13.66548 -30.06406,30.06406 0,8.19929 5.46619,16.39857 10.93239,21.86477 l 35.53024,35.53024 c -38.26333,-5.46619 -73.79359,-19.13167 -103.85765,-43.72953 -2.73309,0 -2.73309,-2.7331 -5.46618,-5.46619 L 360.31317,333.46949 c -54.66193,-60.12811 -120.25623,-92.92526 -199.51602,-92.92526 -16.39857,0 -30.06406,13.66547 -30.06406,30.06405 0,16.39858 13.66549,27.33096 30.06406,27.33096 62.86121,0 114.79004,27.33096 155.78648,73.79359 l 327.97153,341.63702 5.46619,5.46619 c 40.99645,32.79715 92.92527,54.66192 147.58719,60.12811 L 756.6121,817.2275 c -8.19929,5.46619 -13.66548,16.39857 -13.66548,24.59786 0,16.39858 16.39857,30.06406 32.79715,27.33097 8.19929,0 16.39857,-5.4662 21.86477,-10.93239 l 84.72598,-79.25979 C 896,765.29868 896,743.4339 882.33452,729.76842 Z m -2.73309,-475.55872 c -10.93239,-13.66548 -27.33097,-16.39858 -40.99644,-5.46619 -8.1993,5.46619 -10.93239,13.66547 -10.93239,21.86476 0,10.93239 2.73309,19.13168 13.66548,24.59787 l 35.53024,35.53025 c -62.86121,8.19929 -120.25622,32.79715 -163.98575,76.52669 l -98.39147,101.12455 c -10.93238,10.93239 -10.93238,27.33097 0,38.26335 5.4662,5.46619 13.66548,8.19929 21.86477,8.19929 8.19929,0 16.39858,-2.7331 21.86477,-8.19929 l 95.65836,-101.12456 c 35.53025,-32.79715 79.25979,-54.66191 125.72243,-60.12811 l -38.26335,38.26335 c -5.4662,5.46619 -10.93239,13.66547 -10.93239,21.86476 0,16.39858 13.66548,30.06406 27.33097,30.06406 8.19928,0 16.39857,-2.73309 24.59786,-8.19929 l 90.19217,-87.45907 c 10.93239,-10.93238 10.93239,-30.06406 0,-40.99644 L 794.87545,166.75063 M 420.44128,549.38408 c -8.19928,0 -16.39857,2.7331 -21.86477,8.19928 L 297.45195,661.44102 c -40.99644,38.26334 -81.99288,57.39502 -136.6548,57.39502 h -2.73309 c -16.39858,0 -30.06406,13.66547 -30.06406,30.06405 0,16.39859 13.66548,27.33097 30.06406,27.33097 h 2.73309 c 71.0605,0 125.72242,-27.33097 180.38435,-73.7936 L 445.03915,595.84671 c 5.46618,-5.46618 8.19929,-10.93238 8.19929,-19.13167 0,-8.19929 -2.73311,-13.66548 -8.19929,-19.13168 -8.19929,-5.46618 -16.39858,-8.19928 -24.59787,-8.19928 z" fill="#ddd" id="path6" stroke-width=".854"/></svg>