<svg width="24" height="24" fill="none" xmlns="http://www.w3.org/2000/svg">
    <path d="m 22,18.75 c 0,0.41421 -0.33579,0.75 -0.75,0.75 H 2.75 C 2.3358,19.5 2,19.16421 2,18.75 2,18.33579 2.3358,18 2.75,18 h 18.5 c 0.41421,0 0.75,0.33579 0.75,0.75 z m -4.21967,-3.46967 c -0.29289,0.29289 -0.76777,0.29289 -1.06066,0 L 13.7197,12.2803 c -0.2929,-0.2929 -0.2929,-0.7677 0,-1.0606 0.29286,-0.2929 0.76774,-0.2929 1.06063,0 L 16.5,12.9393 V 4.75 C 16.5,4.3358 16.83579,4 17.25,4 17.66421,4 18,4.3358 18,4.75 v 8.1893 l 1.71967,-1.7196 c 0.29289,-0.2929 0.76777,-0.2929 1.06066,0 0.29289,0.2929 0.29289,0.7677 0,1.0606 z M 12.5,14.75 c 0,0.41421 -0.3358,0.75 -0.75,0.75 h -9 C 2.3358,15.5 2,15.16421 2,14.75 2,14.33579 2.3358,14 2.75,14 h 9 c 0.4142,0 0.75,0.33579 0.75,0.75 z m 0,-4 c 0,0.41421 -0.3358,0.75 -0.75,0.75 h -9 C 2.3358,11.5 2,11.16421 2,10.75 2,10.33579 2.3358,10 2.75,10 h 9 c 0.4142,0 0.75,0.33579 0.75,0.75 z m 0,-4 c 0,0.41421 -0.3358,0.75 -0.75,0.75 h -9 C 2.3358,7.5 2,7.16421 2,6.75 2,6.33579 2.3358,6 2.75,6 h 9 c 0.4142,0 0.75,0.33579 0.75,0.75 z"
          fill="#ddd"/>
</svg>