<svg width="24" height="24" fill="none" xmlns="http://www.w3.org/2000/svg"><path d="m 16.8,4.8 c 1.98828,0 3.6,1.61178 3.6,3.6 0,1.98822 -1.61172,3.6 -3.6,3.6 H 7.2 c -1.325484,0 -2.4,1.07448 -2.4,2.4 0,1.32552 1.074516,2.4 2.4,2.4 h 12.35148 l -0.7758,-0.77568 c -0.23424,-0.23436 -0.23424,-0.61428 0,-0.84864 0.23436,-0.23424 0.61428,-0.23424 0.84864,0 l 1.8,1.8 c 0.23424,0.23436 0.23424,0.61428 0,0.84864 l -1.8,1.8 c -0.23436,0.23424 -0.61428,0.23424 -0.84864,0 -0.23424,-0.23436 -0.23424,-0.61428 0,-0.84864 L 19.55148,18 H 7.2 c -1.98822,0 -3.6,-1.61172 -3.6,-3.6 0,-1.98828 1.61178,-3.6 3.6,-3.6 h 9.6 c 1.32552,0 2.4,-1.074516 2.4,-2.4 C 19.2,7.074516 18.12552,6 16.8,6 H 4.2 C 3.868632,6 3.6,5.731368 3.6,5.4 3.6,5.068632 3.868632,4.8 4.2,4.8 Z" fill="#ddd" stroke-width="1.2"/></svg>