<svg width="24" height="24" fill="none" xmlns="http://www.w3.org/2000/svg">
    <path d="M 14.6102,2.47047 14.5334,2.4031 C 14.2394,2.17855 13.818,2.20101 13.5495,2.47047 L 13.4824,2.54755 C 13.2587,2.84259 13.281,3.26552 13.5495,3.53498 L 15.521,5.5118 H 8.5 L 8.26687,5.51592 C 4.785,5.63911 2,8.51085 2,12.0354 c 0,1.6905 0.6407,3.2309 1.6917,4.3898 l 0.07237,0.0695 C 3.89496,16.6065 4.06463,16.674 4.25,16.674 4.66421,16.674 5,16.337 5,15.9213 5,15.7481 4.9417,15.5885 4.84373,15.4613 L 4.64439,15.2306 C 3.92953,14.3627 3.5,13.2494 3.5,12.0354 3.5,9.26396 5.73858,7.01725 8.5,7.01725 h 6.881 L 17.26095,7.017 v 0 c 0.755381,0 1.054304,-0.8299359 0.53125,-1.35299 z M 20.23,7.57108 C 20.0999,7.46224 19.9326,7.39677 19.75,7.39677 19.3358,7.39677 19,7.73378 19,8.14949 19,8.33618 19.0677,8.507 19.1791,8.63722 19.9992,9.53109 20.5,10.7246 20.5,12.0354 c 0,2.7715 -2.2386,5.0182 -5,5.0182 H 8.558 l -1.6888095,4e-4 v 0 c -0.7848376,0 -0.9860415,0.934439 -0.7155805,1.2049 l 0.06712,0.0771 3.18198,3.1935 0.08412,0.0729 c 0.29361,0.2187 0.71027,0.1944 0.97657,-0.0729 0.2685,-0.2694 0.2908,-0.6924 0.0671,-0.9874 L 10.4634,20.465 8.564,18.559 H 15.5 l 0.2331,-0.0041 C 19.215,18.4317 22,15.56 22,12.0354 22,10.342 21.3571,8.79923 20.3029,7.63965 Z"
          fill="#ddd"/>
    <rect height="6.936" x="11.561" y="8.644" ry=".483" rx=".429" width="1.014" fill="#ddd" stroke="#ddd"
          stroke-width=".5" stroke-linecap="square" paint-order="fill markers stroke"/>
</svg>