<?xml version="1.0" encoding="UTF-8"?>
<svg xmlns="http://www.w3.org/2000/svg" xmlns:xlink="http://www.w3.org/1999/xlink" width="16px" height="16px" viewBox="0 0 16 16" version="1.1">
<g id="surface1">
<path style=" stroke:none;fill-rule:nonzero;fill:rgb(86.666667%,86.666667%,86.666667%);fill-opacity:1;" d="M 9.738281 1.648438 L 9.6875 1.601562 C 9.492188 1.453125 9.210938 1.46875 9.03125 1.648438 L 8.988281 1.699219 C 8.839844 1.894531 8.855469 2.175781 9.03125 2.355469 L 10.347656 3.675781 L 5.511719 3.675781 C 3.191406 3.757812 1.332031 5.675781 1.332031 8.023438 C 1.332031 9.152344 1.761719 10.175781 2.460938 10.949219 L 2.507812 10.996094 C 2.597656 11.070312 2.710938 11.117188 2.832031 11.117188 C 3.109375 11.117188 3.332031 10.890625 3.332031 10.613281 C 3.332031 10.5 3.292969 10.390625 3.230469 10.308594 L 3.097656 10.152344 C 2.621094 9.574219 2.332031 8.832031 2.332031 8.023438 C 2.332031 6.175781 3.824219 4.679688 5.667969 4.679688 L 11.507812 4.679688 C 12.011719 4.679688 12.210938 4.125 11.863281 3.777344 Z M 13.488281 5.046875 C 13.398438 4.976562 13.289062 4.929688 13.167969 4.929688 C 12.890625 4.929688 12.667969 5.15625 12.667969 5.433594 C 12.667969 5.558594 12.710938 5.671875 12.785156 5.757812 C 13.332031 6.355469 13.667969 7.148438 13.667969 8.023438 C 13.667969 9.871094 12.175781 11.367188 10.332031 11.367188 L 5.707031 11.367188 L 4.578125 11.371094 C 4.054688 11.371094 3.921875 11.992188 4.101562 12.171875 L 4.148438 12.222656 L 6.269531 14.351562 L 6.324219 14.402344 C 6.519531 14.546875 6.796875 14.53125 6.976562 14.351562 C 7.15625 14.171875 7.167969 13.890625 7.019531 13.695312 L 6.976562 13.644531 L 5.710938 12.371094 L 10.488281 12.371094 C 12.808594 12.289062 14.667969 10.375 14.667969 8.023438 C 14.667969 6.894531 14.238281 5.867188 13.535156 5.09375 Z M 13.488281 5.046875 "/>
<path style="fill-rule:nonzero;fill:rgb(86.666667%,86.666667%,86.666667%);fill-opacity:1;stroke-width:0.5;stroke-linecap:square;stroke-linejoin:miter;stroke:rgb(86.666667%,86.666667%,86.666667%);stroke-opacity:1;stroke-miterlimit:4;" d="M 11.988281 8.642578 L 12.146484 8.642578 C 12.380859 8.642578 12.574219 8.859375 12.574219 9.128906 L 12.574219 15.099609 C 12.574219 15.363281 12.380859 15.580078 12.146484 15.580078 L 11.988281 15.580078 C 11.753906 15.580078 11.560547 15.363281 11.560547 15.099609 L 11.560547 9.128906 C 11.560547 8.859375 11.753906 8.642578 11.988281 8.642578 Z M 11.988281 8.642578 " transform="matrix(0.666667,0,0,0.666667,0,0)"/>
</g>
</svg>
