<svg xmlns="http://www.w3.org/2000/svg" width="16" height="16"><path d="M 12.421875 13.851562 C 13.085938 14.320312 14 13.847656 14 13.035156 L 14 2.964844 C 14 2.15625 13.085938 1.679688 12.421875 2.148438 L 5.289062 7.183594 C 4.726562 7.582031 4.726562 8.417969 5.289062 8.816406 Z M 13 13.035156 L 5.867188 8 L 13 2.964844 Z M 2 13.5 C 2 13.777344 2.222656 14 2.5 14 C 2.777344 14 3 13.777344 3 13.5 L 3 2.5 C 3 2.222656 2.777344 2 2.5 2 C 2.222656 2 2 2.222656 2 2.5 Z M 2 13.5" fill="#ddd"/></svg>