<svg width="16" height="16" fill="none" xmlns="http://www.w3.org/2000/svg">
    <path d="M12.4233 13.8522C13.0857 14.3198 14 13.846 14 13.0352L14 2.96513C14 2.15431 13.0857 1.68057 12.4233 2.14816L5.29034 7.1832C4.72592 7.58162 4.72592 8.41872 5.29034 8.81714L12.4233 13.8522zM13 13.0352L5.86703 8.00017 13 2.96513 13 13.0352zM2 13.5002C2 13.7763 2.22386 14.0002 2.5 14.0002 2.77614 14.0002 3 13.7763 3 13.5002L3 2.50015C3 2.22401 2.77614 2.00015 2.5 2.00015 2.22386 2.00015 2 2.22401 2 2.50015V13.5002z"
          fill="#ddd"/>
</svg>