<svg xmlns="http://www.w3.org/2000/svg" width="16" height="16"><g fill="#ddd"><path d="M 8.855469 12.285156 L 10.570312 12.285156 L 10.570312 14 L 8.855469 14 Z M 12.285156 12.285156 L 14 12.285156 L 14 14 L 12.285156 14 Z M 8.855469 8.855469 L 10.570312 8.855469 L 10.570312 10.570312 L 8.855469 10.570312 Z M 10.570312 10.570312 L 12.285156 10.570312 L 12.285156 12.285156 L 10.570312 12.285156 Z M 12.285156 8.855469 L 14 8.855469 L 14 10.570312 L 12.285156 10.570312 Z M 2 3.714844 C 2 2.765625 2.765625 2 3.714844 2 L 5.429688 2 C 6.375 2 7.144531 2.765625 7.144531 3.714844 L 7.144531 5.429688 C 7.144531 6.375 6.375 7.144531 5.429688 7.144531 L 3.714844 7.144531 C 2.765625 7.144531 2 6.375 2 5.429688 Z M 3.714844 2.855469 C 3.242188 2.855469 2.855469 3.242188 2.855469 3.714844 L 2.855469 5.429688 C 2.855469 5.902344 3.242188 6.285156 3.714844 6.285156 L 5.429688 6.285156 C 5.902344 6.285156 6.285156 5.902344 6.285156 5.429688 L 6.285156 3.714844 C 6.285156 3.242188 5.902344 2.855469 5.429688 2.855469 Z M 3.714844 2.855469"/><path d="M 3.714844 3.714844 L 5.429688 3.714844 L 5.429688 5.429688 L 3.714844 5.429688 Z M 2 10.570312 C 2 9.625 2.765625 8.855469 3.714844 8.855469 L 5.429688 8.855469 C 6.375 8.855469 7.144531 9.625 7.144531 10.570312 L 7.144531 12.285156 C 7.144531 13.234375 6.375 14 5.429688 14 L 3.714844 14 C 2.765625 14 2 13.234375 2 12.285156 Z M 3.714844 9.714844 C 3.242188 9.714844 2.855469 10.097656 2.855469 10.570312 L 2.855469 12.285156 C 2.855469 12.757812 3.242188 13.144531 3.714844 13.144531 L 5.429688 13.144531 C 5.902344 13.144531 6.285156 12.757812 6.285156 12.285156 L 6.285156 10.570312 C 6.285156 10.097656 5.902344 9.714844 5.429688 9.714844 Z M 3.714844 9.714844"/><path d="M 3.714844 10.570312 L 5.429688 10.570312 L 5.429688 12.285156 L 3.714844 12.285156 Z M 8.855469 3.714844 C 8.855469 2.765625 9.625 2 10.570312 2 L 12.285156 2 C 13.234375 2 14 2.765625 14 3.714844 L 14 5.429688 C 14 6.375 13.234375 7.144531 12.285156 7.144531 L 10.570312 7.144531 C 9.625 7.144531 8.855469 6.375 8.855469 5.429688 Z M 10.570312 2.855469 C 10.097656 2.855469 9.714844 3.242188 9.714844 3.714844 L 9.714844 5.429688 C 9.714844 5.902344 10.097656 6.285156 10.570312 6.285156 L 12.285156 6.285156 C 12.757812 6.285156 13.144531 5.902344 13.144531 5.429688 L 13.144531 3.714844 C 13.144531 3.242188 12.757812 2.855469 12.285156 2.855469 Z M 10.570312 2.855469"/><path d="M 10.570312 3.714844 L 12.285156 3.714844 L 12.285156 5.429688 L 10.570312 5.429688 Z M 10.570312 3.714844"/></g></svg>