<svg width="16" height="16" fill="none" xmlns="http://www.w3.org/2000/svg"><path d="M8.8571425 12.285714H10.571428V14H8.8571425zM12.285714 12.285714H14V14h-1.714286zM8.8571425 8.8571425H10.571428V10.571428H8.8571425zM10.571428 10.571428h1.714286v1.714286h-1.714286zM12.285714 8.8571425H14v1.7142855h-1.714286zM2 3.7142858C2 2.7675114 2.7675114 2 3.7142858 2h1.7142856c.9467744 0 1.7142858.7675114 1.7142858 1.7142858v1.7142856c0 .9467744-.7675114 1.7142858-1.7142858 1.7142858H3.7142858C2.7675114 7.1428572 2 6.3753458 2 5.4285714zm1.7142858-.857143c-.473383 0-.857143.38376-.857143.857143v1.7142856c0 .4733828.38376.8571428.857143.8571428h1.7142856c.4733828 0 .8571428-.38376.8571428-.8571428V3.7142858c0-.473383-.38376-.857143-.8571428-.857143z" fill="#ddd" stroke-width=".857"/><path d="M3.7142858 3.7142858H5.4285714V5.4285714H3.7142858zM2 10.571428C2 9.6246283 2.7675114 8.8571425 3.7142858 8.8571425h1.7142856c.9467744 0 1.7142858.7674858 1.7142858 1.7142855v1.714286C7.1428572 13.232514 6.3753458 14 5.4285714 14H3.7142858C2.7675114 14 2 13.232514 2 12.285714zM3.7142858 9.7142858c-.473383 0-.857143.3837422-.857143.8571422v1.714286c0 .4734.38376.857144.857143.857144h1.7142856c.4733828 0 .8571428-.383744.8571428-.857144v-1.714286c0-.4734-.38376-.8571422-.8571428-.8571422z" fill="#ddd" stroke-width=".857"/><path d="M3.7142858 10.571428h1.7142856v1.714286H3.7142858zM8.8571425 3.7142858C8.8571425 2.7675114 9.6246283 2 10.571428 2h1.714286C13.232514 2 14 2.7675114 14 3.7142858v1.7142856c0 .9467744-.767486 1.7142858-1.714286 1.7142858h-1.714286c-.9467997 0-1.7142855-.7675114-1.7142855-1.7142858zm1.7142855-.857143c-.4734 0-.8571422.38376-.8571422.857143v1.7142856c0 .4733828.3837422.8571428.8571422.8571428h1.714286c.4734 0 .857144-.38376.857144-.8571428V3.7142858c0-.473383-.383744-.857143-.857144-.857143z" fill="#ddd" stroke-width=".857"/><path d="m 10.571428,3.7142858 h 1.714286 v 1.7142856 h -1.714286 z" fill="#ddd" stroke-width=".857"/></svg>