<svg xmlns="http://www.w3.org/2000/svg" width="16" height="16"><path d="M 8 1.5 C 11.589844 1.5 14.5 4.410156 14.5 8 C 14.5 11.589844 11.589844 14.5 8 14.5 C 4.410156 14.5 1.5 11.589844 1.5 8 C 1.5 4.410156 4.410156 1.5 8 1.5 Z M 8 2.476562 C 4.949219 2.476562 2.476562 4.949219 2.476562 8 C 2.476562 11.050781 4.949219 13.523438 8 13.523438 C 11.050781 13.523438 13.523438 11.050781 13.523438 8 C 13.523438 4.949219 11.050781 2.476562 8 2.476562 Z M 7.996094 4.097656 C 10.152344 4.097656 11.894531 5.84375 11.894531 7.996094 C 11.894531 10.152344 10.152344 11.894531 7.996094 11.894531 C 5.84375 11.894531 4.097656 10.152344 4.097656 7.996094 C 4.097656 5.84375 5.84375 4.097656 7.996094 4.097656 Z M 7.996094 4.097656" fill="#ddd"/></svg>