<svg width="16" height="16" xmlns="http://www.w3.org/2000/svg"><path d="m 8,1.5 c 3.589851,0 6.5,2.9101491 6.5,6.5 0,3.589851 -2.910149,6.5 -6.5,6.5 C 4.4101491,14.5 1.5,11.589851 1.5,8 1.5,4.4101491 4.4101491,1.5 8,1.5 Z M 8,2.4748488 C 4.9485433,2.4748488 2.4748489,4.9485433 2.4748489,8 c 0,3.051457 2.4736944,5.525152 5.5251511,5.525152 3.051456,0 5.525151,-2.473695 5.525151,-5.525152 C 13.525151,4.9485433 11.051456,2.4748488 8,2.4748488 Z M 7.99777,4.0995969 c 2.152899,0 3.898169,1.74527 3.898169,3.8981697 0,2.1529004 -1.74527,3.8981704 -3.898169,3.8981704 -2.1528996,0 -3.8981697,-1.74527 -3.8981697,-3.8981704 0,-2.1528997 1.7452701,-3.8981697 3.8981697,-3.8981697 z" fill="#ddd" stroke-width=".65"/></svg>