<?xml version="1.0" encoding="UTF-8"?>
<svg xmlns="http://www.w3.org/2000/svg" xmlns:xlink="http://www.w3.org/1999/xlink" width="16px" height="16px" viewBox="0 0 16 16" version="1.1">
<g id="surface1">
<path style=" stroke:none;fill-rule:nonzero;fill:rgb(86.666667%,86.666667%,86.666667%);fill-opacity:1;" d="M 10.667969 11.28125 C 10.445312 11.3125 10.226562 11.332031 10 11.332031 C 9.773438 11.332031 9.554688 11.3125 9.332031 11.28125 L 9.332031 8.941406 L 7.667969 10.59375 C 7.332031 10.332031 7 10 6.738281 9.667969 L 8.394531 8 L 6.054688 8 C 6.019531 7.78125 6 7.558594 6 7.332031 C 6 7.105469 6.019531 6.886719 6.054688 6.667969 L 8.394531 6.667969 L 6.738281 5 C 6.867188 4.832031 7 4.667969 7.171875 4.507812 C 7.332031 4.332031 7.5 4.199219 7.667969 4.074219 L 9.332031 5.726562 L 9.332031 3.386719 C 9.554688 3.351562 9.773438 3.332031 10 3.332031 C 10.226562 3.332031 10.445312 3.351562 10.667969 3.386719 L 10.667969 5.726562 L 12.332031 4.074219 C 12.667969 4.332031 13 4.667969 13.261719 5 L 11.605469 6.667969 L 13.945312 6.667969 C 13.980469 6.886719 14 7.105469 14 7.332031 C 14 7.558594 13.980469 7.78125 13.945312 8 L 11.605469 8 L 13.261719 9.667969 C 13.132812 9.832031 13 10 12.828125 10.160156 C 12.667969 10.332031 12.5 10.464844 12.332031 10.59375 L 10.667969 8.941406 L 10.667969 11.28125 M 3.332031 12.667969 C 3.332031 11.933594 3.933594 11.332031 4.667969 11.332031 C 5.398438 11.332031 6 11.933594 6 12.667969 C 6 13.398438 5.398438 14 4.667969 14 C 3.933594 14 3.332031 13.398438 3.332031 12.667969 Z M 3.332031 12.667969 "/>
</g>
</svg>
