<svg xmlns="http://www.w3.org/2000/svg" width="16" height="16"><path d="M 8 1 C 5.238281 1 3 3.238281 3 6 C 3 7.636719 3.785156 9.089844 5 10 L 5 14.5 C 5 14.679688 5.097656 14.847656 5.253906 14.933594 C 5.410156 15.023438 5.601562 15.019531 5.757812 14.929688 L 8 13.582031 L 10.242188 14.929688 C 10.398438 15.019531 10.589844 15.023438 10.746094 14.933594 C 10.902344 14.847656 11 14.679688 11 14.5 L 11 10 C 12.214844 9.089844 13 7.636719 13 6 C 13 3.238281 10.761719 1 8 1 Z M 4 6 C 4 3.789062 5.789062 2 8 2 C 10.210938 2 12 3.789062 12 6 C 12 8.210938 10.210938 10 8 10 C 5.789062 10 4 8.210938 4 6 Z M 10 10.585938 L 10 13.617188 L 8.257812 12.570312 C 8.097656 12.476562 7.902344 12.476562 7.742188 12.570312 L 6 13.617188 L 6 10.585938 C 6.613281 10.851562 7.289062 11 8 11 C 8.710938 11 9.386719 10.851562 10 10.585938 Z M 10 10.585938" fill="#ddd"/></svg>