<?xml version="1.0" encoding="UTF-8"?>
<svg xmlns="http://www.w3.org/2000/svg" xmlns:xlink="http://www.w3.org/1999/xlink" width="16px" height="16px" viewBox="0 0 16 16" version="1.1">
<g id="surface1">
<path style=" stroke:none;fill-rule:nonzero;fill:rgb(86.666667%,86.666667%,86.666667%);fill-opacity:1;" d="M 2.5 8.5 C 2.222656 8.5 2 8.277344 2 8 C 2 7.722656 2.222656 7.5 2.5 7.5 L 12.195312 7.5 L 8.164062 3.871094 C 7.960938 3.6875 7.945312 3.371094 8.128906 3.164062 C 8.3125 2.960938 8.628906 2.945312 8.835938 3.128906 L 13.835938 7.628906 C 13.941406 7.722656 14 7.859375 14 8 C 14 8.140625 13.941406 8.277344 13.835938 8.371094 L 8.835938 12.871094 C 8.628906 13.054688 8.3125 13.039062 8.128906 12.835938 C 7.945312 12.628906 7.960938 12.3125 8.164062 12.128906 L 12.195312 8.5 Z M 2.5 8.5 "/>
</g>
</svg>
