<svg xmlns="http://www.w3.org/2000/svg" width="16" height="16"><path d="M 8 1.453125 C 8.675781 1.453125 12.847656 5.71875 12.847656 9.097656 C 12.847656 11.832031 10.675781 14.0625 8 14.0625 C 5.324219 14.0625 3.152344 11.832031 3.152344 9.097656 C 3.152344 5.472656 7.199219 1.453125 8 1.453125 Z M 7.964844 1.945312 L 7.949219 1.949219 C 7.636719 2.066406 6.546875 3.050781 5.660156 4.210938 C 4.410156 5.851562 3.636719 7.601562 3.636719 9.097656 C 3.636719 11.570312 5.59375 13.574219 8 13.574219 C 10.40625 13.574219 12.363281 11.570312 12.363281 9.097656 C 12.363281 7.71875 11.570312 5.992188 10.289062 4.300781 C 9.777344 3.621094 9.214844 2.996094 8.710938 2.527344 C 8.527344 2.355469 8.332031 2.191406 8.128906 2.042969 C 8.082031 2.011719 8.039062 1.984375 7.992188 1.957031 Z M 10.398438 6.8125 C 11.726562 8.136719 11.726562 10.285156 10.398438 11.613281 C 9.074219 12.9375 6.925781 12.9375 5.597656 11.613281 Z M 10.398438 6.8125" fill="#ddd"/></svg>