<?xml version="1.0" encoding="UTF-8"?>
<svg xmlns="http://www.w3.org/2000/svg" xmlns:xlink="http://www.w3.org/1999/xlink" width="16px" height="16px" viewBox="0 0 16 16" version="1.1">
<g id="surface1">
<path style=" stroke:none;fill-rule:nonzero;fill:rgb(86.666667%,86.666667%,86.666667%);fill-opacity:1;" d="M 9.308594 10.015625 C 8.539062 10.632812 7.5625 11 6.5 11 C 4.015625 11 2 8.984375 2 6.5 C 2 4.015625 4.015625 2 6.5 2 C 8.984375 2 11 4.015625 11 6.5 C 11 7.5625 10.632812 8.539062 10.015625 9.308594 L 13.855469 13.144531 C 14.046875 13.339844 14.046875 13.660156 13.855469 13.855469 C 13.660156 14.046875 13.339844 14.046875 13.144531 13.855469 Z M 10 6.5 C 10 4.566406 8.433594 3 6.5 3 C 4.566406 3 3 4.566406 3 6.5 C 3 8.433594 4.566406 10 6.5 10 C 8.433594 10 10 8.433594 10 6.5 Z M 10 6.5 "/>
</g>
</svg>
