<svg width="16" height="16" fill="none" xmlns="http://www.w3.org/2000/svg"><path d="m 13.6641,3.7511197 c 0.583933,0.2052 1.002533,0.7614866 1.002533,1.4155466 v 6.6666667 c 0,1.5648 -1.268533,2.833333 -2.833333,2.833333 H 5.1666333 c -0.65406,0 -1.2103466,-0.4186 -1.4155466,-1.002533 l 1.3981866,0.0023 6.6840267,2.33e-4 c 1.012533,0 1.833333,-0.8208 1.833333,-1.833333 V 5.1666663 l -0.0027,-0.033987 z M 11.497833,1.333333 c 0.828467,0 1.5,0.6715733 1.5,1.5 v 8.664533 c 0,0.828467 -0.671533,1.5 -1.5,1.5 H 2.8333 c -0.8284267,0 -1.5,-0.671533 -1.5,-1.5 V 2.833333 c 0,-0.8284267 0.6715733,-1.5 1.5,-1.5 z m 0,1 H 2.8333 c -0.27614,0 -0.5,0.22386 -0.5,0.5 v 8.664533 c 0,0.276134 0.22386,0.5 0.5,0.5 h 8.664533 c 0.276134,0 0.5,-0.223866 0.5,-0.5 V 2.833333 c 0,-0.27614 -0.223866,-0.5 -0.5,-0.5 z M 6.3874,7.572133 8.9797666,4.9797797 c 0.1952667,-0.19526 0.5118004,-0.19526 0.7070664,0 0.177534,0.1775133 0.193667,0.4552866 0.0484,0.6510266 l -0.0484,0.05608 -2.9999997,2.99998 c -0.1972066,0.1972667 -0.51264,0.1924 -0.7044666,0.00273 L 5.9333,8.633333 l -1,-1.3333333 c -0.1656867,-0.2209334 -0.1209133,-0.5343334 0.1,-0.7 0.2008333,-0.15062 0.4781,-0.1273134 0.6513333,0.044147 L 5.7333,6.6999997 6.3874,7.572133 8.9797666,4.9797797 Z" fill="#ddd" stroke-width=".667"/></svg>