<?xml version="1.0" encoding="UTF-8"?>
<svg xmlns="http://www.w3.org/2000/svg" xmlns:xlink="http://www.w3.org/1999/xlink" width="16px" height="16px" viewBox="0 0 16 16" version="1.1">
<g id="surface1">
<path style=" stroke:none;fill-rule:nonzero;fill:rgb(86.666667%,86.666667%,86.666667%);fill-opacity:1;" d="M 1.175781 1.117188 C 1.328125 0.988281 1.542969 0.964844 1.722656 1.054688 L 14.722656 7.554688 C 14.894531 7.636719 15 7.8125 15 8 C 15 8.1875 14.894531 8.363281 14.722656 8.445312 L 1.722656 14.945312 C 1.542969 15.035156 1.328125 15.011719 1.175781 14.882812 C 1.023438 14.753906 0.964844 14.542969 1.023438 14.351562 L 2.976562 8 L 1.023438 1.648438 C 0.964844 1.457031 1.023438 1.246094 1.175781 1.117188 Z M 3.871094 8.5 L 2.320312 13.53125 L 13.382812 8 L 2.320312 2.46875 L 3.871094 7.5 L 9.5 7.5 C 9.777344 7.5 10 7.722656 10 8 C 10 8.277344 9.777344 8.5 9.5 8.5 Z M 3.871094 8.5 "/>
</g>
</svg>
