<svg xmlns="http://www.w3.org/2000/svg" width="16" height="16"><g fill="#ddd"><path d="M 8 6 C 6.894531 6 6 6.894531 6 8 C 6 9.105469 6.894531 10 8 10 C 9.105469 10 10 9.105469 10 8 C 10 6.894531 9.105469 6 8 6 Z M 7 8 C 7 7.449219 7.449219 7 8 7 C 8.550781 7 9 7.449219 9 8 C 9 8.550781 8.550781 9 8 9 C 7.449219 9 7 8.550781 7 8 Z M 7 8"/><path d="M 10.617188 4.398438 C 10.234375 4.46875 9.863281 4.214844 9.792969 3.832031 L 9.535156 2.414062 C 9.507812 2.273438 9.398438 2.164062 9.257812 2.132812 C 8.847656 2.046875 8.425781 2 8 2 C 7.574219 2 7.152344 2.046875 6.738281 2.132812 C 6.597656 2.164062 6.492188 2.273438 6.464844 2.414062 L 6.207031 3.832031 C 6.199219 3.867188 6.1875 3.90625 6.175781 3.941406 C 6.042969 4.308594 5.640625 4.5 5.269531 4.367188 L 3.910156 3.882812 C 3.777344 3.835938 3.625 3.875 3.527344 3.980469 C 2.960938 4.605469 2.527344 5.347656 2.265625 6.152344 C 2.222656 6.289062 2.265625 6.4375 2.375 6.53125 L 3.476562 7.460938 C 3.507812 7.488281 3.535156 7.515625 3.558594 7.542969 C 3.8125 7.839844 3.773438 8.285156 3.476562 8.539062 L 2.375 9.46875 C 2.265625 9.5625 2.222656 9.710938 2.265625 9.847656 C 2.527344 10.652344 2.960938 11.394531 3.527344 12.019531 C 3.625 12.125 3.777344 12.164062 3.910156 12.117188 L 5.269531 11.632812 C 5.308594 11.617188 5.34375 11.609375 5.382812 11.601562 C 5.765625 11.53125 6.136719 11.785156 6.207031 12.167969 L 6.464844 13.585938 C 6.492188 13.726562 6.597656 13.835938 6.738281 13.867188 C 7.152344 13.953125 7.574219 13.996094 8 13.996094 C 8.425781 13.996094 8.847656 13.953125 9.257812 13.867188 C 9.398438 13.835938 9.507812 13.726562 9.535156 13.585938 L 9.792969 12.167969 C 9.800781 12.132812 9.8125 12.09375 9.824219 12.058594 C 9.957031 11.691406 10.359375 11.5 10.730469 11.632812 L 12.089844 12.117188 C 12.222656 12.164062 12.375 12.125 12.472656 12.019531 C 13.039062 11.394531 13.472656 10.652344 13.734375 9.847656 C 13.777344 9.710938 13.734375 9.5625 13.625 9.46875 L 12.523438 8.539062 C 12.492188 8.511719 12.464844 8.484375 12.441406 8.457031 C 12.1875 8.160156 12.226562 7.714844 12.523438 7.460938 L 13.625 6.53125 C 13.734375 6.4375 13.777344 6.289062 13.734375 6.152344 C 13.472656 5.347656 13.039062 4.605469 12.472656 3.980469 C 12.375 3.875 12.222656 3.835938 12.089844 3.882812 L 10.730469 4.367188 C 10.691406 4.382812 10.65625 4.390625 10.617188 4.398438 Z M 4 4.976562 L 4.933594 5.3125 C 5.820312 5.625 6.796875 5.167969 7.117188 4.28125 C 7.148438 4.191406 7.171875 4.101562 7.191406 4.011719 L 7.367188 3.042969 C 7.574219 3.015625 7.785156 3 8 3 C 8.214844 3 8.425781 3.015625 8.632812 3.042969 L 8.808594 4.011719 C 8.980469 4.941406 9.871094 5.550781 10.796875 5.382812 C 10.886719 5.367188 10.976562 5.339844 11.066406 5.3125 L 12 4.976562 C 12.257812 5.3125 12.46875 5.675781 12.632812 6.0625 L 11.878906 6.699219 C 11.15625 7.308594 11.066406 8.386719 11.679688 9.105469 C 11.742188 9.175781 11.808594 9.242188 11.878906 9.300781 L 12.632812 9.9375 C 12.46875 10.324219 12.257812 10.6875 12 11.023438 L 11.066406 10.6875 C 10.179688 10.375 9.203125 10.832031 8.882812 11.71875 C 8.851562 11.808594 8.828125 11.898438 8.808594 11.988281 L 8.632812 12.957031 C 8.425781 12.984375 8.214844 12.996094 8 12.996094 C 7.785156 12.996094 7.574219 12.984375 7.367188 12.957031 L 7.191406 11.988281 C 7.019531 11.058594 6.128906 10.449219 5.203125 10.617188 C 5.113281 10.632812 5.023438 10.65625 4.933594 10.6875 L 4 11.023438 C 3.742188 10.6875 3.53125 10.324219 3.367188 9.9375 L 4.121094 9.300781 C 4.84375 8.691406 4.933594 7.613281 4.320312 6.894531 C 4.257812 6.824219 4.191406 6.757812 4.121094 6.699219 L 3.367188 6.0625 C 3.53125 5.675781 3.742188 5.3125 4 4.976562 Z M 4 4.976562"/></g></svg>