<?xml version="1.0" encoding="UTF-8"?>
<svg xmlns="http://www.w3.org/2000/svg" xmlns:xlink="http://www.w3.org/1999/xlink" width="16px" height="16px" viewBox="0 0 16 16" version="1.1">
<g id="surface1">
<path style=" stroke:none;fill-rule:nonzero;fill:rgb(86.666667%,86.666667%,86.666667%);fill-opacity:1;" d="M 7.5 4 C 7.777344 4 8 4.222656 8 4.5 L 8 8 L 10.5 8 C 10.777344 8 11 8.222656 11 8.5 C 11 8.777344 10.777344 9 10.5 9 L 7.5 9 C 7.222656 9 7 8.777344 7 8.5 L 7 4.5 C 7 4.222656 7.222656 4 7.5 4 Z M 4.496094 2 C 3.117188 2 1.996094 3.121094 1.996094 4.5 L 1.996094 11.5 C 1.996094 12.878906 3.117188 14 4.496094 14 L 11.496094 14 C 12.878906 14 13.996094 12.878906 13.996094 11.5 L 13.996094 4.5 C 13.996094 3.121094 12.878906 2 11.496094 2 Z M 2.996094 4.5 C 2.996094 3.671875 3.667969 3 4.496094 3 L 11.496094 3 C 12.324219 3 12.996094 3.671875 12.996094 4.5 L 12.996094 11.5 C 12.996094 12.328125 12.324219 13 11.496094 13 L 4.496094 13 C 3.667969 13 2.996094 12.328125 2.996094 11.5 Z M 2.996094 4.5 "/>
</g>
</svg>
