<svg width="16" height="16" xmlns="http://www.w3.org/2000/svg"><path d="M 12.334728,13.850552 H 7.5652725 C 7.3825968,14.234558 6.991047,14.5 6.5375,14.5 5.9092761,14.5 5.4,13.990724 5.4,13.3625 5.4,12.907165 5.6675382,12.514318 6.053994,12.332577 L 6.0539,9.94675 3.6668104,9.947306 C 3.497371,10.30642 3.1455308,10.562563 2.7307927,10.596229 L 2.6375,10.6 C 2.0092761,10.6 1.5,10.090724 1.5,9.4625 1.5,9.0086976 1.7657406,8.6169623 2.1500967,8.4344192 l 1.19e-5,-4.7691467 C 1.7661023,3.4825968 1.5006607,3.091047 1.5006607,2.6375 c 0,-0.6282239 0.5092761,-1.1375 1.1375,-1.1375 0.453547,0 0.8450968,0.2654416 1.0277724,0.6494479 H 8.4347275 C 8.6174032,1.7654416 9.008953,1.5 9.4625,1.5 10.090724,1.5 10.6,2.0092761 10.6,2.6375 10.6,3.0923239 10.333062,3.484801 9.947306,3.6668104 L 9.94675,6.0526 l 2.38644,9.4e-5 C 12.502629,5.6935795 12.854469,5.4374375 13.269207,5.4037708 L 13.3625,5.4 c 0.628224,0 1.1375,0.5092761 1.1375,1.1375 0,0.4532916 -0.265143,0.8446559 -0.648799,1.0274637 V 12.335036 C 14.234857,12.517844 14.5,12.909208 14.5,13.3625 c 0,0.628224 -0.509276,1.1375 -1.1375,1.1375 -0.453547,0 -0.845097,-0.265442 -1.027772,-0.649448 H 7.5652725 Z m 0.0012,-6.822407 -2.389215,-5.45e-4 5.63e-4,1.4038888 c 0.357412,0.1700242 0.612112,0.5209924 0.645678,0.9344798 l 0.0038,0.093293 c 0,0.6282234 -0.509276,1.1374994 -1.1374997,1.1374994 -0.453547,0 -0.8450968,-0.265441 -1.0277725,-0.649448 L 7.0289,9.94675 l 5.4e-4,2.389836 c 0.2345395,0.112669 0.4244783,0.303398 0.5361408,0.538511 h 4.7688382 c 0.112484,-0.236843 0.304401,-0.428647 0.541327,-0.540986 V 7.5658889 C 12.673594,7.4700377 12.504209,7.3163368 12.388972,7.1261689 L 12.335965,7.028145 Z M 8.97175,7.0276 7.564035,7.028145 C 7.45217,7.2617689 7.2629007,7.4512629 7.02944,7.5634139 L 7.0289,8.97175 8.4311804,8.971858 C 8.5435621,8.7352313 8.7352313,8.5435621 8.971858,8.4311804 Z M 8.4344192,3.1249033 H 3.6662415 C 3.5538599,3.36153 3.3621906,3.5531992 3.1255521,3.6655809 V 8.4347275 C 3.3607992,8.5466369 3.5515497,8.7369356 3.664035,8.971855 L 6.0539,8.97175 6.053994,7.5674227 C 5.6941978,7.3982197 5.4374781,7.0460311 5.4037708,6.6307927 L 5.4,6.5375 C 5.4,5.9092761 5.9092761,5.4 6.5375,5.4 6.9923239,5.4 7.384801,5.6669383 7.5668104,6.052694 L 8.97175,6.0526 8.971855,3.664035 C 8.7703105,3.5675304 8.6016087,3.4134191 8.4870739,3.2230251 Z" fill="#ddd" stroke-width=".65"/></svg>