<svg xmlns="http://www.w3.org/2000/svg" width="16" height="16"><path d="M 7.195312 2.101562 C 7.523438 1.433594 8.476562 1.433594 8.808594 2.101562 L 10.328125 5.183594 L 13.730469 5.679688 C 14.46875 5.785156 14.761719 6.691406 14.230469 7.214844 L 11.769531 9.613281 L 12.347656 13 C 12.476562 13.734375 11.703125 14.296875 11.042969 13.949219 L 8 12.347656 L 4.957031 13.949219 C 4.296875 14.296875 3.527344 13.734375 3.652344 13 L 4.234375 9.613281 L 1.773438 7.214844 C 1.238281 6.691406 1.535156 5.785156 2.273438 5.679688 L 5.671875 5.183594 Z M 8 2.726562 L 6.546875 5.671875 C 6.414062 5.9375 6.160156 6.125 5.867188 6.164062 L 2.617188 6.636719 L 4.96875 8.933594 C 5.183594 9.140625 5.277344 9.4375 5.226562 9.730469 L 4.671875 12.96875 L 7.582031 11.441406 C 7.84375 11.300781 8.15625 11.300781 8.417969 11.441406 L 11.328125 12.96875 L 10.773438 9.730469 C 10.722656 9.4375 10.820312 9.140625 11.03125 8.933594 L 13.386719 6.636719 L 10.132812 6.164062 C 9.839844 6.125 9.585938 5.9375 9.457031 5.671875 Z M 8 2.726562" fill="#ddd"/></svg>