<svg class="icon" viewBox="0 0 1024.001 1024.001" width="24" height="24" version="1.1" id="svg8" xmlns="http://www.w3.org/2000/svg"><defs id="defs4"><style id="style2"/></defs><path d="m 512.00025,288.00014 c -123.48806,0 -224.00011,100.51205 -224.00011,224.00011 0,123.48807 100.51205,224.00011 224.00011,224.00011 123.48807,0 224.00011,-100.51204 224.00011,-224.00011 0,-123.48806 -100.51204,-224.00011 -224.00011,-224.00011 z m 0,384.00019 c -88.38404,0 -160.00007,-71.61604 -160.00007,-160.00008 0,-88.38404 71.61603,-160.00007 160.00007,-160.00007 88.38404,0 160.00008,71.61603 160.00008,160.00007 0,88.38404 -71.61604,160.00008 -160.00008,160.00008 z m 0,-448.00022 c 17.664,0 32.00002,-14.33601 32.00002,-32.00001 v -64.00004 c 0,-17.66401 -14.33602,-32.000013 -32.00002,-32.000013 -17.66401,0 -32.00001,14.336003 -32.00001,32.000013 v 64.00004 c 0,17.664 14.336,32.00001 32.00001,32.00001 z m 0,576.00027 c -17.66401,0 -32.00001,14.33602 -32.00001,32.00003 v 64.00002 c 0,17.66401 14.336,32.00003 32.00001,32.00003 17.664,0 32.00002,-14.33602 32.00002,-32.00003 v -64.00002 c 0,-17.66401 -14.33602,-32.00003 -32.00002,-32.00003 z m 248.86413,-491.68022 45.24801,-45.24803 c 12.512,-12.51201 12.512,-32.73602 0,-45.24802 -12.512,-12.512 -32.73601,-12.512 -45.24801,0 l -45.24804,45.24802 c -12.512,12.51201 -12.512,32.73601 0,45.24803 12.51202,12.512 32.76803,12.512 45.24804,0 z m -497.72825,407.36019 -45.24802,45.24802 c -12.51201,12.51201 -12.51201,32.73601 0,45.24803 12.512,12.512 32.73602,12.512 45.24802,0 l 45.24802,-45.24803 c 12.51201,-12.544 12.51201,-32.76802 0,-45.24802 -12.512,-12.512 -32.76801,-12.54401 -45.24802,0 z m -39.13602,-203.6801 c 0,-17.66401 -14.33601,-32.00001 -32.00001,-32.00001 h -64.00004 c -17.66401,0 -32.000013,14.336 -32.000013,32.00001 0,17.664 14.336003,32.00002 32.000013,32.00002 h 64.00004 c 17.664,0 32.00001,-14.33602 32.00001,-32.00002 z m 672.00032,-32.00001 h -64.00002 c -17.66401,0 -32.00003,14.336 -32.00003,32.00001 0,17.664 14.33602,32.00002 32.00003,32.00002 h 64.00002 c 17.66401,0 32.00003,-14.33602 32.00003,-32.00002 0,-17.66401 -14.33602,-32.00001 -32.00003,-32.00001 z M 263.07213,308.32016 c 12.51201,12.512 32.76802,12.512 45.24803,0 12.512,-12.51202 12.512,-32.73602 0,-45.24803 l -45.24803,-45.24802 c -12.51201,-12.512 -32.73602,-12.512 -45.24802,0 -12.512,12.512 -12.512,32.73601 0,45.24802 z m 497.85624,407.29618 c -12.544,-12.512 -32.76802,-12.512 -45.24802,0 -12.512,12.51202 -12.54401,32.73602 0,45.24804 l 45.24802,45.24801 c 12.51201,12.512 32.73601,12.512 45.24803,0 12.512,-12.512 12.512,-32.73601 0,-45.24801 z" fill="#ddd" id="path6" stroke-width="1"/></svg>