<svg xmlns="http://www.w3.org/2000/svg" width="16" height="16"><path d="M 8 4.5 C 6.070312 4.5 4.5 6.070312 4.5 8 C 4.5 9.929688 6.070312 11.5 8 11.5 C 9.929688 11.5 11.5 9.929688 11.5 8 C 11.5 6.070312 9.929688 4.5 8 4.5 Z M 8 10.5 C 6.617188 10.5 5.5 9.382812 5.5 8 C 5.5 6.617188 6.617188 5.5 8 5.5 C 9.382812 5.5 10.5 6.617188 10.5 8 C 10.5 9.382812 9.382812 10.5 8 10.5 Z M 8 3.5 C 8.277344 3.5 8.5 3.277344 8.5 3 L 8.5 2 C 8.5 1.722656 8.277344 1.5 8 1.5 C 7.722656 1.5 7.5 1.722656 7.5 2 L 7.5 3 C 7.5 3.277344 7.722656 3.5 8 3.5 Z M 8 12.5 C 7.722656 12.5 7.5 12.722656 7.5 13 L 7.5 14 C 7.5 14.277344 7.722656 14.5 8 14.5 C 8.277344 14.5 8.5 14.277344 8.5 14 L 8.5 13 C 8.5 12.722656 8.277344 12.5 8 12.5 Z M 11.886719 4.816406 L 12.59375 4.109375 C 12.789062 3.914062 12.789062 3.597656 12.59375 3.402344 C 12.398438 3.207031 12.085938 3.207031 11.886719 3.402344 L 11.179688 4.109375 C 10.984375 4.304688 10.984375 4.621094 11.179688 4.816406 C 11.378906 5.011719 11.695312 5.011719 11.886719 4.816406 Z M 4.113281 11.183594 L 3.40625 11.890625 C 3.210938 12.085938 3.210938 12.402344 3.40625 12.597656 C 3.601562 12.792969 3.914062 12.792969 4.113281 12.597656 L 4.820312 11.890625 C 5.015625 11.695312 5.015625 11.378906 4.820312 11.183594 C 4.621094 10.988281 4.304688 10.988281 4.113281 11.183594 Z M 3.5 8 C 3.5 7.722656 3.277344 7.5 3 7.5 L 2 7.5 C 1.722656 7.5 1.5 7.722656 1.5 8 C 1.5 8.277344 1.722656 8.5 2 8.5 L 3 8.5 C 3.277344 8.5 3.5 8.277344 3.5 8 Z M 14 7.5 L 13 7.5 C 12.722656 7.5 12.5 7.722656 12.5 8 C 12.5 8.277344 12.722656 8.5 13 8.5 L 14 8.5 C 14.277344 8.5 14.5 8.277344 14.5 8 C 14.5 7.722656 14.277344 7.5 14 7.5 Z M 4.109375 4.816406 C 4.304688 5.011719 4.621094 5.011719 4.816406 4.816406 C 5.011719 4.621094 5.011719 4.304688 4.816406 4.109375 L 4.109375 3.402344 C 3.914062 3.207031 3.597656 3.207031 3.402344 3.402344 C 3.207031 3.597656 3.207031 3.914062 3.402344 4.109375 Z M 11.890625 11.179688 C 11.695312 10.984375 11.378906 10.984375 11.183594 11.179688 C 10.988281 11.378906 10.988281 11.691406 11.183594 11.886719 L 11.890625 12.59375 C 12.085938 12.789062 12.402344 12.789062 12.597656 12.59375 C 12.792969 12.398438 12.792969 12.085938 12.597656 11.886719 Z M 11.890625 11.179688" fill="#ddd"/></svg>