<svg class="icon" viewBox="0 0 682.667 682.667" width="16" height="16" version="1.1" id="svg8"
     xmlns="http://www.w3.org/2000/svg">
    <defs id="defs4">
        <style id="style2"/>
    </defs>
    <path d="M 341.33333,192 C 259.008,192 192,259.008 192,341.33333 c 0,82.32534 67.008,149.33334 149.33333,149.33334 82.32534,0 149.33334,-67.008 149.33334,-149.33334 C 490.66667,259.008 423.65867,192 341.33333,192 Z m 0,256 c -58.92266,0 -106.66666,-47.744 -106.66666,-106.66667 0,-58.92266 47.744,-106.66666 106.66666,-106.66666 C 400.256,234.66667 448,282.41067 448,341.33333 448,400.256 400.256,448 341.33333,448 Z m 0,-298.66667 c 11.776,0 21.33334,-9.55733 21.33334,-21.33333 V 85.33333 C 362.66667,73.55733 353.10933,64 341.33333,64 329.55733,64 320,73.55733 320,85.33333 V 128 c 0,11.776 9.55733,21.33333 21.33333,21.33333 z m 0,384 c -11.776,0 -21.33333,9.55734 -21.33333,21.33334 v 42.66666 c 0,11.776 9.55733,21.33334 21.33333,21.33334 11.776,0 21.33334,-9.55734 21.33334,-21.33334 v -42.66666 c 0,-11.776 -9.55734,-21.33334 -21.33334,-21.33334 z M 507.24267,205.54667 537.408,175.38133 c 8.34133,-8.34133 8.34133,-21.824 0,-30.16533 -8.34133,-8.34133 -21.824,-8.34133 -30.16533,0 l -30.16534,30.16533 c -8.34133,8.34134 -8.34133,21.824 0,30.16534 8.34134,8.34133 21.84534,8.34133 30.16534,0 z M 175.424,477.12 145.25867,507.28533 c -8.34134,8.34134 -8.34134,21.824 0,30.16534 8.34133,8.34133 21.824,8.34133 30.16533,0 l 30.16533,-30.16534 c 8.34134,-8.36266 8.34134,-21.84533 0,-30.16533 -8.34133,-8.34133 -21.84533,-8.36267 -30.16533,0 z M 149.33333,341.33333 C 149.33333,329.55733 139.776,320 128,320 H 85.33333 C 73.55733,320 64,329.55733 64,341.33333 c 0,11.776 9.55733,21.33334 21.33333,21.33334 H 128 c 11.776,0 21.33333,-9.55734 21.33333,-21.33334 z m 448,-21.33333 h -42.66666 c -11.776,0 -21.33334,9.55733 -21.33334,21.33333 0,11.776 9.55734,21.33334 21.33334,21.33334 h 42.66666 c 11.776,0 21.33334,-9.55734 21.33334,-21.33334 0,-11.776 -9.55734,-21.33333 -21.33334,-21.33333 z m -421.952,-114.45333 c 8.34134,8.34133 21.84534,8.34133 30.16534,0 8.34133,-8.34134 8.34133,-21.824 0,-30.16534 L 175.38133,145.216 c -8.34133,-8.34133 -21.824,-8.34133 -30.16533,0 -8.34133,8.34133 -8.34133,21.824 0,30.16533 z m 331.904,271.53066 c -8.36266,-8.34133 -21.84533,-8.34133 -30.16533,0 -8.34133,8.34134 -8.36267,21.824 0,30.16534 l 30.16533,30.16533 c 8.34134,8.34133 21.824,8.34133 30.16534,0 8.34133,-8.34133 8.34133,-21.824 0,-30.16533 z"
          fill="#ddd" id="path6" stroke-width=".667"/>
</svg>