<svg xmlns="http://www.w3.org/2000/svg" width="16" height="16"><g fill="#ddd"><path d="M 10 2.832031 C 10 2.113281 9.148438 1.734375 8.613281 2.210938 L 5.617188 4.871094 C 5.527344 4.953125 5.410156 5 5.285156 5 L 2.832031 5 C 2.003906 5 1.332031 5.671875 1.332031 6.5 L 1.332031 9.496094 C 1.332031 10.324219 2.003906 10.996094 2.832031 10.996094 L 5.285156 10.996094 C 5.410156 10.996094 5.527344 11.042969 5.617188 11.125 L 8.613281 13.785156 C 9.148438 14.265625 10 13.882812 10 13.164062 Z M 6.28125 5.621094 L 9 3.203125 L 9 12.792969 L 6.28125 10.375 C 6.007812 10.132812 5.652344 9.996094 5.285156 9.996094 L 2.832031 9.996094 C 2.558594 9.996094 2.332031 9.773438 2.332031 9.496094 L 2.332031 6.5 C 2.332031 6.222656 2.558594 6 2.832031 6 L 5.285156 6 C 5.652344 6 6.007812 5.863281 6.28125 5.621094 Z M 12.660156 3.929688 C 12.882812 3.765625 13.195312 3.8125 13.359375 4.035156 C 14.179688 5.144531 14.667969 6.515625 14.667969 8 C 14.667969 9.484375 14.179688 10.855469 13.359375 11.964844 C 13.195312 12.1875 12.882812 12.234375 12.660156 12.070312 C 12.4375 11.902344 12.390625 11.589844 12.558594 11.367188 C 13.253906 10.425781 13.667969 9.261719 13.667969 8 C 13.667969 6.738281 13.253906 5.574219 12.558594 4.632812 C 12.390625 4.410156 12.4375 4.097656 12.660156 3.929688 Z M 12.660156 3.929688"/><path d="M 11.429688 5.578125 C 11.671875 5.449219 11.976562 5.539062 12.105469 5.78125 C 12.464844 6.441406 12.667969 7.199219 12.667969 8 C 12.667969 8.800781 12.464844 9.558594 12.105469 10.21875 C 11.976562 10.460938 11.671875 10.550781 11.429688 10.421875 C 11.1875 10.289062 11.09375 9.984375 11.226562 9.742188 C 11.507812 9.226562 11.667969 8.632812 11.667969 8 C 11.667969 7.367188 11.507812 6.773438 11.226562 6.257812 C 11.09375 6.015625 11.1875 5.710938 11.429688 5.578125 Z M 11.429688 5.578125"/></g></svg>