<svg xmlns="http://www.w3.org/2000/svg" width="16" height="16"><path d="M 8.613281 2.210938 C 9.148438 1.734375 10 2.113281 10 2.832031 L 10 13.164062 C 10 13.882812 9.148438 14.265625 8.613281 13.785156 L 5.617188 11.125 C 5.527344 11.042969 5.410156 10.996094 5.285156 10.996094 L 2.832031 10.996094 C 2.003906 10.996094 1.332031 10.324219 1.332031 9.496094 L 1.332031 6.5 C 1.332031 5.671875 2.003906 5 2.832031 5 L 5.285156 5 C 5.410156 5 5.527344 4.953125 5.617188 4.871094 Z M 9 3.203125 L 6.28125 5.621094 C 6.007812 5.863281 5.652344 6 5.285156 6 L 2.832031 6 C 2.558594 6 2.332031 6.222656 2.332031 6.5 L 2.332031 9.496094 C 2.332031 9.773438 2.558594 9.996094 2.832031 9.996094 L 5.285156 9.996094 C 5.652344 9.996094 6.007812 10.132812 6.28125 10.375 L 9 12.792969 Z M 10.8125 6.144531 C 11.007812 5.953125 11.324219 5.953125 11.519531 6.144531 L 12.667969 7.292969 L 13.8125 6.144531 C 14.007812 5.953125 14.324219 5.953125 14.519531 6.144531 C 14.714844 6.339844 14.714844 6.660156 14.519531 6.855469 L 13.375 8 L 14.519531 9.144531 C 14.714844 9.339844 14.714844 9.660156 14.519531 9.855469 C 14.324219 10.046875 14.007812 10.046875 13.8125 9.855469 L 12.667969 8.707031 L 11.519531 9.855469 C 11.324219 10.046875 11.007812 10.046875 10.8125 9.855469 C 10.617188 9.660156 10.617188 9.339844 10.8125 9.144531 L 11.960938 8 L 10.8125 6.855469 C 10.617188 6.660156 10.617188 6.339844 10.8125 6.144531 Z M 10.8125 6.144531" fill="#ddd"/></svg>