<?xml version="1.0" encoding="UTF-8"?>
<svg xmlns="http://www.w3.org/2000/svg" xmlns:xlink="http://www.w3.org/1999/xlink" width="16px" height="16px" viewBox="0 0 16 16" version="1.1">
<g id="surface1">
<path style=" stroke:none;fill-rule:nonzero;fill:rgb(86.666667%,86.666667%,86.666667%);fill-opacity:1;" d="M 7.273438 1.855469 C 7.964844 1.472656 8.832031 1.695312 9.257812 2.347656 L 9.3125 2.441406 L 14.484375 11.777344 C 14.609375 12 14.671875 12.25 14.671875 12.503906 C 14.671875 13.300781 14.054688 13.949219 13.273438 14.003906 L 2.828125 14.003906 C 2.574219 14.003906 2.324219 13.941406 2.101562 13.816406 C 1.410156 13.433594 1.136719 12.582031 1.46875 11.875 L 1.515625 11.777344 L 6.6875 2.441406 C 6.824219 2.195312 7.027344 1.992188 7.273438 1.855469 Z M 13.609375 12.261719 L 8.4375 2.925781 C 8.304688 2.683594 8 2.597656 7.757812 2.730469 C 7.695312 2.761719 7.640625 2.808594 7.601562 2.867188 L 7.5625 2.925781 L 2.390625 12.261719 C 2.257812 12.503906 2.34375 12.808594 2.585938 12.941406 C 2.640625 12.972656 2.703125 12.992188 2.765625 13 L 2.828125 13.003906 L 13.171875 13.003906 C 13.449219 13.003906 13.671875 12.78125 13.671875 12.503906 C 13.671875 12.441406 13.660156 12.378906 13.636719 12.320312 L 13.609375 12.261719 L 8.4375 2.925781 Z M 8 10.667969 C 8.367188 10.667969 8.667969 10.964844 8.667969 11.332031 C 8.667969 11.703125 8.367188 12 8 12 C 7.632812 12 7.335938 11.703125 7.335938 11.332031 C 7.335938 10.964844 7.632812 10.667969 8 10.667969 Z M 7.996094 5.667969 C 8.25 5.667969 8.460938 5.855469 8.492188 6.097656 L 8.496094 6.164062 L 8.5 9.167969 C 8.5 9.441406 8.277344 9.667969 8 9.667969 C 7.746094 9.667969 7.539062 9.480469 7.503906 9.234375 L 7.5 9.167969 L 7.496094 6.167969 C 7.496094 5.890625 7.722656 5.667969 7.996094 5.667969 Z M 7.996094 5.667969 "/>
</g>
</svg>
