<svg class="icon" viewBox="0 0 682.667 682.667" version="1.1" width="16" height="16" id="svg8"
     xmlns="http://www.w3.org/2000/svg">
    <defs id="defs4">
        <style type="text/css" id="style2"/>
    </defs>
    <path d="m 280.45137,596.27687 h -3.55536 c -5.03439,1.5335 -4.83529,1.2779 3.55536,0 z M 370.61524,89.85952 c -72.78528,-10.22291 -115.70557,-1.32898 -134.10809,8.89394 -36.40686,16.27997 -55.80491,41.73502 -55.80491,78.12858 0,40.38049 39.76314,73.22158 88.88396,73.22158 5.11971,0 9.955,-0.35778 14.84717,-1.02228 -25.76923,-7.20715 -35.12693,-37.05804 -35.12693,-46.43756 0,-22.28595 11.40558,-44.9297 44.59841,-51.42124 0,0 26.65096,-7.99943 75.57268,3.98694 69.08774,23.46157 89.28214,51.47235 107.94064,94.33189 23.3232,67.70122 3.5838,157.8417 -33.6194,209.0074 -70.96498,97.6288 -246.51433,129.3198 -246.51433,129.3198 178.33675,-39.3582 258.09053,-132.1311 273.87633,-252.0714 10.3247,-159.11959 -155.69624,-196.71434 -181.60769,-98.21661 23.03873,-18.32456 48.21065,-14.43986 73.3826,-5.00922 57.88119,35.95908 49.68969,92.79847 44.45619,124.05501 -11.80379,70.48692 -57.88123,138.82712 -125.66057,180.40882 -71.22092,36.3169 -164.96861,52.9035 -196.397972,59.2928 H 276.92446 c 15.89955,-0.8433 84.38997,-4.8047 121.16659,-17.1233 100.17572,-33.6334 199.24222,-114.1133 199.24222,-244.32755 0,-130.31656 -111.6382,-228.81429 -226.74647,-245.04316 z M 179.70675,543.50117 c -20.84862,14.8743 -92.439312,43.7029 -92.439312,43.7029 0,0 66.357202,-5.4181 120.171102,-26.3751 48.26753,-18.759 70.99338,-38.2337 93.57702,-68.289 20.56418,-27.3463 40.13287,-111.17418 -32.65241,-151.19688 -42.32297,-23.25711 -101.2566,-23.76826 -125.60368,4.49809 -28.89795,33.5567 -6.54185,62.84529 -6.54185,62.84529 0,0 8.61817,-26.83509 36.97571,-31.43539 7.59425,-1.27788 36.91883,0.28112 52.24955,12.82973 11.54779,9.43064 30.03566,26.32396 19.59712,69.36246 -7.85023,32.5599 -28.61351,57.8105 -65.33325,84.0834 z"
          fill="#2298ff" id="path6" stroke-width=".527"/>
</svg>