<svg height="1024" width="1024" xmlns="http://www.w3.org/2000/svg">
    <defs>
        <linearGradient gradientUnits="userSpaceOnUse" id="b" spreadMethod="pad" x1="512" x2="964.769" y1="0"
            y2="446.745">
            <stop offset="0" stop-color="#b8cee5" />
            <stop offset="1" stop-color="#b1c6f3" />
        </linearGradient>
        <linearGradient gradientUnits="userSpaceOnUse" id="c" spreadMethod="pad" x1="-487.676" x2="520.108" y1="520.108"
            y2="1527.89">
            <stop offset="0" stop-color="#bbd2df" />
            <stop offset="1" stop-color="#adc0ff" />
        </linearGradient>
        <clipPath id="a">
            <path
                d="M 160.00 0.00 L 864.00 0.00 C 952.37 0.00 1024.00 71.63 1024.00 160.00 L 1024.00 864.00 C 1024.00 952.37 952.37 1024.00 864.00 1024.00 L 160.00 1024.00 C 71.63 1024.00 0.00 952.37 0.00 864.00 L 0.00 160.00 C -0.00 71.63 71.63 0.00 160.00 0.00 Z" />
        </clipPath>
    </defs>
    <g clip-path="url(#a)" transform="matrix(1.12128 0 0 1.12128 -62.095 -62.095)">
        <path
            d="m 160,0 h 704 c 88.37,0 160,71.63 160,160 v 704 c 0,88.37 -71.63,160 -160,160 H 160 C 71.63,1024 0,952.37 0,864 V 160 C 0,71.63 71.63,0 160,0 Z"
            fill="url(#b)" />
        <path
            d="M 1024,512 C 1024,647.79 970.06,778.02 874.04,874.04 778.02,970.06 647.79,1024 512,1024 376.21,1024 245.98,970.06 149.96,874.04 53.94,778.02 0,647.79 0,512 0,376.21 53.94,245.98 149.96,149.96 245.98,53.94 376.21,0 512,0 647.79,0 778.02,53.94 874.04,149.96 970.06,245.98 1024,376.21 1024,512 Z"
            fill="url(#c)" />
        <path
            d="m 196.59,400.69 h 106.93 c 32.94,0 59.65,-26.84 59.65,-59.96 0,-33.12 -26.71,-59.97 -59.65,-59.97 -9.94,0 -19.31,2.45 -27.55,6.77 -11.48,-33.46 -43.08,-57.5 -80.27,-57.5 -46.88,0 -84.88,38.2 -84.88,85.33 0,0.96 0.01,1.93 0.05,2.89 -13.69,7.39 -22.99,21.91 -22.99,38.62 0,24.2 19.51,43.82 43.59,43.82 h 64.23 c 0.14,0 0.89,0 0.89,0 h -0.89 z"
            fill="#f6f6f8" fill-rule="evenodd" />
        <path
            d="m 517.51,1004.91 c 0,51.06 -41.42,92.44 -92.51,92.44 -51.1,0 -92.52,-41.38 -92.52,-92.44 0,-51.05 41.42,-92.43 92.52,-92.43 51.09,0 92.51,41.38 92.51,92.43"
            fill="#bfd881" fill-rule="evenodd" />
        <path
            d="m 477.61,1093.73 c 0,51.05 -41.42,92.43 -92.52,92.43 -51.1,0 -92.52,-41.38 -92.52,-92.43 0,-51.05 41.42,-92.44 92.52,-92.44 51.1,0 92.52,41.39 92.52,92.44 m 94.32,-193.94 c 0,51.06 -41.42,92.44 -92.51,92.44 -51.1,0 -92.52,-41.38 -92.52,-92.44 0,-51.05 41.42,-92.43 92.52,-92.43 51.09,0 92.51,41.38 92.51,92.43"
            fill="#bfd881" fill-rule="evenodd" />
        <path d="m 764.22,1184.12 h 571.43 V 601.54 H 764.22 Z" fill="#ffa9b1" fill-rule="evenodd" />
        <path d="M 1259.92,466.6 H 586.45 v 203.46 h 800 L 1259.92,466.6" fill="#a9555d" fill-rule="evenodd" />
        <path d="M 769.44,1186.16 H 399.37 V 603.58 L 588.03,470.23 769.44,603.58 v 582.58" fill="#fdc3c9"
            fill-rule="evenodd" />
        <path d="M 372.8,664.25 352.48,638.71 588.68,451.05 805.46,629.84 784.67,655 588.3,493.04 372.8,664.25"
            fill="#8c4f54" fill-rule="evenodd" />
        <path
            d="m 1319.64,964.36 h -522.6 c -4.39,0 -6.97,-4.91 -4.48,-8.52 l 70.4,-101.96 c 1.01,-1.46 2.68,-2.35 4.47,-2.35 h 390.31 c 1.9,0 3.67,0.99 4.65,2.62 l 61.9,101.95 c 2.2,3.63 -0.41,8.26 -4.65,8.26"
            fill="#a9555d" fill-rule="evenodd" />
        <path d="M 464,1187.07 H 706.18 V 950.54 H 464 Z" fill="#9e764f" fill-rule="evenodd" />
        <path
            d="M 714.34,1187.07 H 698.01 V 958.7 H 472.16 v 228.37 H 455.84 V 950.54 c 0,-4.5 3.65,-8.16 8.16,-8.16 h 242.18 c 4.5,0 8.16,3.66 8.16,8.16 v 236.53"
            fill="#fcfcfc" fill-rule="evenodd" />
        <path d="m 868.3,818.23 h 84.66 V 716.07 H 868.3 Z" fill="#9cc1dc" fill-rule="evenodd" />
        <path
            d="m 876.47,810.07 h 68.32 v -85.84 h -68.32 z m 76.49,16.32 H 868.3 c -4.5,0 -8.16,-3.66 -8.16,-8.16 V 716.08 c 0,-4.51 3.66,-8.16 8.16,-8.16 h 84.66 c 4.51,0 8.16,3.65 8.16,8.16 v 102.15 c 0,4.5 -3.65,8.16 -8.16,8.16 z"
            fill="#fffffe" fill-rule="evenodd" />
        <path d="M 863.54,1187.98 H 954.7 V 998.57 h -91.16 z" fill="#9e764f" fill-rule="evenodd" />
        <path
            d="m 962.86,1187.98 h -16.32 v -181.25 h -74.83 v 181.25 h -16.33 v -189.4 c 0,-4.51 3.66,-8.16 8.16,-8.16 h 91.16 c 4.51,0 8.16,3.65 8.16,8.16 v 189.4"
            fill="#fcfcfc" fill-rule="evenodd" />
        <path
            d="m 654.27,699.39 c -2.13,-39 -34.37,-70 -73.94,-70 -39.58,0 -71.81,31 -73.95,70 h -0.2 V 835.9 h 148.3 V 699.39 h -0.21"
            fill="#a8cbe4" fill-rule="evenodd" />
        <path
            d="M 514.34,827.75 H 646.31 V 701.19 l -0.19,-1.35 c -1.91,-34.93 -30.81,-62.3 -65.79,-62.3 -34.99,0 -63.88,27.37 -65.8,62.3 l -0.19,1.39 z m 140.14,16.31 h -148.3 c -4.51,0 -8.17,-3.66 -8.17,-8.16 V 699.39 c 0,-0.81 0.12,-1.61 0.35,-2.35 3.31,-42.66 38.95,-75.81 81.97,-75.81 43.01,0 78.65,33.15 81.96,75.81 0.22,0.74 0.35,1.54 0.35,2.35 V 835.9 c 0,4.5 -3.66,8.16 -8.16,8.16 z"
            fill="#fffffe" fill-rule="evenodd" />
        <path d="m 572.16,832.73 h 16.33 v -203.9 h -16.33 z" fill="#fffffe" fill-rule="evenodd" />
        <path d="M 507.54,708.57 H 653.57 V 692.26 H 507.54 Z" fill="#fffffe" fill-rule="evenodd" />
        <path d="m 880.33,1100.07 h 57.59 v -78.84 h -57.59 z" fill="#9cc1dc" fill-rule="evenodd" />
        <path
            d="m 483.05,1186.62 h 17.53 v -227.9 h -17.53 z m 31.17,0 h 17.52 v -227.9 h -17.52 z m 31.16,0 h 17.53 v -227.9 h -17.53 z m 31.17,0 h 17.53 v -227.9 h -17.53 z m 31.16,0 h 17.54 v -227.9 h -17.54 z m 31.17,0 h 17.54 v -227.9 h -17.54 z m 31.17,0 h 17.54 v -227.9 h -17.54 z"
            fill="#b99068" fill-rule="evenodd" />
        <path d="m 794.19,979.77 h 528.39 V 963.45 H 794.19 Z" fill="#32424f" fill-rule="evenodd" />
        <path d="m 769.44,685.24 h 616.88 V 668.93 H 769.44 Z" fill="#813c42" fill-rule="evenodd" />
        <path d="M 868.99,764.31 H 953.8 V 747.99 H 868.99 Z" fill="#fffffe" fill-rule="evenodd" />
        <path
            d="M 1264.9,945.1 H 956.52 c -4.52,0 -8.17,-3.65 -8.17,-8.15 0,-4.51 3.65,-8.16 8.17,-8.16 h 308.38 c 4.51,0 8.17,3.65 8.17,8.16 0,4.5 -3.66,8.15 -8.17,8.15 M 1096.2,912.48 H 857.65 c -4.51,0 -8.16,-3.66 -8.16,-8.16 0,-4.5 3.65,-8.16 8.16,-8.16 h 238.55 c 4.51,0 8.16,3.66 8.16,8.16 0,4.5 -3.65,8.16 -8.16,8.16 m 39.91,-30.81 h -193.2 c -4.51,0 -8.16,-3.66 -8.16,-8.16 0,-4.5 3.65,-8.15 8.16,-8.15 h 193.2 c 4.5,0 8.16,3.65 8.16,8.15 0,4.5 -3.66,8.16 -8.16,8.16 m -217.69,61.62 h -80.73 c -4.5,0 -8.16,-3.65 -8.16,-8.15 0,-4.51 3.66,-8.16 8.16,-8.16 h 80.73 c 4.51,0 8.17,3.65 8.17,8.16 0,4.5 -3.66,8.15 -8.17,8.15"
            fill="#32424f" fill-rule="evenodd" />
        <path
            d="M 1127.04,642.42 H 852.21 c -4.51,0 -8.17,-3.65 -8.17,-8.16 0,-4.5 3.66,-8.15 8.17,-8.15 h 274.83 c 4.51,0 8.16,3.65 8.16,8.15 0,4.51 -3.65,8.16 -8.16,8.16 m 48.07,-38.97 H 816.83 c -4.5,0 -8.16,-3.65 -8.16,-8.16 0,-4.5 3.66,-8.15 8.16,-8.15 h 358.28 c 4.51,0 8.16,3.65 8.16,8.15 0,4.51 -3.65,8.16 -8.16,8.16 m 116.1,-40.78 H 828.63 c -4.52,0 -8.17,-3.66 -8.17,-8.16 0,-4.5 3.65,-8.15 8.17,-8.15 h 462.58 c 4.51,0 8.16,3.65 8.16,8.15 0,4.5 -3.65,8.16 -8.16,8.16 M 1000.05,528.23 H 712.52 c -4.5,0 -8.16,-3.65 -8.16,-8.15 0,-4.51 3.66,-8.16 8.16,-8.16 h 287.53 c 4.51,0 8.17,3.65 8.17,8.16 0,4.5 -3.66,8.15 -8.17,8.15 m 235.83,-31.72 H 678.97 c -4.52,0 -8.17,-3.65 -8.17,-8.16 0,-4.5 3.65,-8.15 8.17,-8.15 h 556.91 c 4.51,0 8.16,3.65 8.16,8.15 0,4.51 -3.65,8.16 -8.16,8.16"
            fill="#813c42" fill-rule="evenodd" />
        <path
            d="m 719.24,182.86 c 0,47.13 -38.21,85.33 -85.34,85.33 -47.12,0 -85.33,-38.2 -85.33,-85.33 0,-47.13 38.21,-85.34 85.33,-85.34 47.13,0 85.34,38.21 85.34,85.34 z"
            fill="#fae7a3" />
        <path
            d="M 735.54,339.74 H 607.7 c -39.39,0 -71.32,-32.1 -71.32,-71.69 0,-39.6 31.93,-71.7 71.32,-71.7 11.88,0 23.09,2.93 32.94,8.09 13.72,-40.01 51.51,-68.75 95.97,-68.75 56.05,0 101.49,45.68 101.49,102.02 0,1.16 -0.02,2.31 -0.06,3.45 16.36,8.84 27.48,26.21 27.48,46.19 0,28.93 -23.33,52.39 -52.11,52.39 h -76.8 c -0.16,0 -1.07,0 -1.07,0 h 1.07 z"
            fill="#f6f6f8" fill-rule="evenodd" />
    </g>
</svg>