<svg height="1024" width="1024" xmlns="http://www.w3.org/2000/svg">
    <defs>
        <linearGradient gradientUnits="userSpaceOnUse" id="b" spreadMethod="pad" x1="512" x2="512" y1="0" y2="1024">
            <stop offset="0" stop-color="#c0dcfe" />
            <stop offset="1" stop-color="#fff" stop-opacity="0" />
            <stop offset="1" stop-color="#8ecbf4" />
        </linearGradient>
        <linearGradient gradientUnits="userSpaceOnUse" id="c" spreadMethod="pad" x1="1341.97" x2="1024" y1="865.017"
            y2="-158.982">
            <stop offset="0" stop-color="#84c8f2" />
            <stop offset="1" stop-color="#c2ddff" />
        </linearGradient>
        <linearGradient gradientUnits="userSpaceOnUse" id="d" spreadMethod="pad" x1="254.5" x2="510" y1="32.501"
            y2="1020">
            <stop offset="0" stop-color="#bfdbfe" />
            <stop offset="1" stop-color="#8fcbf4" />
        </linearGradient>
        <clipPath id="a">
            <path
                d="M 160.00 0.00 L 864.00 0.00 C 952.37 0.00 1024.00 71.63 1024.00 160.00 L 1024.00 864.00 C 1024.00 952.37 952.37 1024.00 864.00 1024.00 L 160.00 1024.00 C 71.63 1024.00 0.00 952.37 0.00 864.00 L 0.00 160.00 C -0.00 71.63 71.63 0.00 160.00 0.00 Z" />
        </clipPath>
    </defs>
    <g clip-path="url(#a)" transform="translate(-61.624 -61.624) scale(1.12036)">
        <path
            d="m 160,0 h 704 c 88.37,0 160,71.63 160,160 v 704 c 0,88.37 -71.63,160 -160,160 H 160 C 71.63,1024 0,952.37 0,864 V 160 C 0,71.63 71.63,0 160,0 Z"
            fill="url(#b)" />
        <path
            d="M 1024,512 C 1024,647.79 970.06,778.02 874.04,874.04 778.02,970.06 647.79,1024 512,1024 376.21,1024 245.98,970.06 149.96,874.04 53.94,778.02 0,647.79 0,512 0,376.21 53.94,245.98 149.96,149.96 245.98,53.94 376.21,0 512,0 647.79,0 778.02,53.94 874.04,149.96 970.06,245.98 1024,376.21 1024,512 Z"
            fill="url(#c)" />
        <path
            d="m 160,0 h 700 c 88.37,0 160,71.63 160,160 v 700 c 0,88.37 -71.63,160 -160,160 H 160 C 71.63,1020 0,948.37 0,860 V 160 C 0,71.63 71.63,0 160,0 Z"
            fill="url(#d)" />
        <path
            d="m -13.14,279.14 c 140.68,0 264.19,159.3 264.19,312 0,20.2 -16.38,36.57 -36.57,36.57 -20.2,0 -36.57,-16.37 -36.57,-36.57 0,-115.79 -95.42,-238.85 -191.05,-238.85 -95.24,0 -189.15,122.52 -189.15,238.85 0,20.2 -16.37,36.57 -36.57,36.57 -20.2,0 -36.57,-16.37 -36.57,-36.57 0,-153.11 121.77,-312 262.29,-312 z"
            fill="#9b61ff" />
        <path
            d="m -13.14,227.71 c 168.35,0 315.62,182.08 315.62,363.43 0,20.2 -16.38,36.57 -36.58,36.57 -20.19,0 -36.57,-16.37 -36.57,-36.57 0,-143.97 -118.34,-290.28 -242.47,-290.28 -123.75,0 -240.57,145.81 -240.57,290.28 0,20.2 -16.38,36.57 -36.58,36.57 -20.19,0 -36.57,-16.37 -36.57,-36.57 0,-181.75 145.56,-363.43 313.72,-363.43 z"
            fill="#2195ff" />
        <path
            d="m -13.14,170.57 c 199.34,0 372.76,207.45 372.76,420.57 0,20.2 -16.37,36.58 -36.57,36.58 -20.2,0 -36.57,-16.38 -36.57,-36.58 0,-175.33 -143.86,-347.42 -299.62,-347.42 -155.39,0 -297.72,171.6 -297.72,347.42 0,20.2 -16.37,36.58 -36.57,36.58 -20.2,0 -36.57,-16.38 -36.57,-36.58 0,-213.51 171.74,-420.57 370.86,-420.57 z"
            fill="#35e6e6" />
        <path
            d="m -13.14,121.05 c 226.33,0 422.28,229.48 422.28,470.09 0,20.2 -16.37,36.58 -36.57,36.58 -20.2,0 -36.57,-16.38 -36.57,-36.58 0,-202.55 -166,-396.95 -349.14,-396.95 -182.77,0 -347.24,193.93 -347.24,396.95 0,20.2 -16.37,36.58 -36.57,36.58 -20.2,0 -36.57,-16.38 -36.57,-36.58 0,-241 194.29,-470.09 420.38,-470.09 z"
            fill="#14d3a1" />
        <path
            d="m -14.1,71.52 c 253.92,0 472.77,251.97 472.77,520.58 0,20.19 -16.38,36.57 -36.57,36.57 -20.2,0 -36.58,-16.38 -36.58,-36.57 0,-230.33 -188.57,-447.43 -399.62,-447.43 -210.67,0 -397.71,216.64 -397.71,447.43 0,20.19 -16.37,36.57 -36.57,36.57 -20.2,0 -36.57,-16.38 -36.57,-36.57 0,-268.99 217.2,-520.58 470.85,-520.58 z"
            fill="#feda42" />
        <path
            d="m -13.14,-36.57 c 316.02,0 586.09,302.51 586.09,633.9 0,20.2 -16.37,36.57 -36.57,36.57 -20.2,0 -36.57,-16.37 -36.57,-36.57 0,-292.73 -239.29,-560.76 -512.95,-560.76 -273.3,0 -511.05,267.59 -511.05,560.76 0,20.2 -16.37,36.57 -36.57,36.57 -20.2,0 -36.57,-16.37 -36.57,-36.57 0,-331.77 268.44,-633.9 584.19,-633.9 z"
            fill="#fb6849" />
        <path
            d="m -13.14,16.29 c 283.64,0 527.04,276.16 527.04,574.85 0,20.2 -16.37,36.57 -36.57,36.57 -20.2,0 -36.57,-16.37 -36.57,-36.57 0,-260.21 -212.86,-501.71 -453.9,-501.71 -240.68,0 -452,241.05 -452,501.71 0,20.2 -16.38,36.57 -36.57,36.57 -20.2,0 -36.58,-16.37 -36.58,-36.57 0,-299.07 241.78,-574.85 525.15,-574.85 z"
            fill="#ffbc01" />
        <path
            d="m 686.72,649.94 c -5.58,0 -10.1,-4.52 -10.1,-10.1 v -108.8 c 0,-5.57 4.52,-10.1 10.1,-10.1 5.59,0 10.11,4.53 10.11,10.1 v 108.8 c 0,5.58 -4.52,10.1 -10.11,10.1 z"
            fill="#674447" />
        <path
            d="m 750.39,521.77 c 0,35.17 -28.51,63.67 -63.67,63.67 -35.16,0 -63.67,-28.5 -63.67,-63.67 0,-35.16 28.51,-143.25 63.67,-143.25 35.16,0.01 63.67,108.09 63.67,143.25 z"
            fill="#43ab5f" />
        <path
            d="m 750.39,521.77 c 0,35.17 -28.51,63.67 -63.67,63.67 -35.16,0 -63.67,-28.5 -63.67,-63.67 0,-35.16 28.51,-143.25 63.67,-143.25 35.16,0.01 63.67,108.09 63.67,143.25 z"
            fill="#bbdbfe" fill-opacity=".3" />
        <path
            d="m 686.72,378.52 c -8.83,0 -17.23,6.83 -24.87,17.59 v 0 c 32.18,0 58.27,98.93 58.27,131.11 0,27.99 -19.76,51.33 -46.08,56.94 4.1,0.83 8.34,1.28 12.68,1.28 35.16,0 63.66,-28.5 63.66,-63.67 0.01,-35.16 -28.5,-143.25 -63.66,-143.25 z"
            fill="#71be63" />
        <path
            d="m 686.72,378.52 c -8.83,0 -17.23,6.83 -24.87,17.59 v 0 c 32.18,0 58.27,98.93 58.27,131.11 0,27.99 -19.76,51.33 -46.08,56.94 4.1,0.83 8.34,1.28 12.68,1.28 35.16,0 63.66,-28.5 63.66,-63.67 0.01,-35.16 -28.5,-143.25 -63.66,-143.25 z"
            fill="#badafd" fill-opacity=".3" />
        <path
            d="m 992.86,915.86 -474,-253.87 12,-25.9 c 114.77,0 313.93,-116.66 676,-75.33 0,127.53 -46.74,244.08 -123.88,333.71 -48.45,11.58 -90.12,21.39 -90.12,21.39 z"
            fill="#9bf4af" />
        <path
            d="m 992.86,915.86 -474,-253.87 12,-25.9 c 114.77,0 313.93,-116.66 676,-75.33 0,127.53 -46.74,244.08 -123.88,333.71 -48.45,11.58 -90.12,21.39 -90.12,21.39 z"
            fill="#477468" fill-opacity=".4" />
        <path
            d="m 530.86,636.1 c 105.24,0 281.56,-98.02 589.28,-82.43 -273.59,0.24 -441.37,122.71 -527.28,122.71 l -24,-8.96 -38.72,-29.78 z"
            fill="#9cffb2" />
        <path
            d="m 530.86,636.1 c 105.24,0 281.56,-98.02 589.28,-82.43 -273.59,0.24 -441.37,122.71 -527.28,122.71 l -24,-8.96 -38.72,-29.78 z"
            fill="#477468" fill-opacity=".7" />
        <path
            d="M 1029.92,722.57 C 1140.96,1046.59 730.73,1115.86 523.04,1115.86 377.19,1115.86 103.4,1056.13 -3.01,947.2 -28.91,924.66 -10.81,812 -31.12,771.51 -50.67,732.54 -3.04,654.36 11.32,642.21 64.42,597.29 157.42,552.65 284.26,562.38 610.91,587.44 753.72,720 1029.92,720 Z"
            fill="#9cffb2" />
        <path
            d="M 1029.92,722.57 C 1140.96,1046.59 730.73,1115.86 523.04,1115.86 377.19,1115.86 103.4,1056.13 -3.01,947.2 -28.91,924.66 -10.81,812 -31.12,771.51 -50.67,732.54 -3.04,654.36 11.32,642.21 64.42,597.29 157.42,552.65 284.26,562.38 610.91,587.44 753.72,720 1029.92,720 Z"
            fill="#477468" fill-opacity=".6" />
        <path
            d="m 902.96,686.57 c -6.34,0 -11.48,-5.14 -11.48,-11.47 V 551.64 c 0,-6.33 5.14,-11.46 11.48,-11.46 6.34,0 11.47,5.13 11.47,11.46 V 675.1 c 0,6.33 -5.14,11.47 -11.47,11.47 z"
            fill="#674447" />
        <path
            d="m 975.2,541.13 c 0,39.9 -32.35,72.24 -72.25,72.24 -39.9,0 -72.24,-32.34 -72.24,-72.24 0,-39.9 32.34,-162.56 72.24,-162.56 39.9,0 72.25,122.66 72.25,162.56 z"
            fill="#43ab5f" />
        <path
            d="m 975.2,541.13 c 0,39.9 -32.35,72.24 -72.25,72.24 -39.9,0 -72.24,-32.34 -72.24,-72.24 0,-39.9 32.34,-162.56 72.24,-162.56 39.9,0 72.25,122.66 72.25,162.56 z"
            fill="#bbdbfe" fill-opacity=".3" />
        <path
            d="m 902.95,378.57 c -10.01,0 -19.55,7.74 -28.22,19.95 v 0 c 36.52,0 66.12,112.26 66.12,148.78 0,31.77 -22.42,58.25 -52.28,64.62 4.65,0.95 9.45,1.46 14.38,1.46 39.9,0 72.25,-32.35 72.25,-72.25 0,-39.9 -32.35,-162.56 -72.25,-162.56 z"
            fill="#71be63" />
        <path
            d="m 902.95,378.57 c -10.01,0 -19.55,7.74 -28.22,19.95 v 0 c 36.52,0 66.12,112.26 66.12,148.78 0,31.77 -22.42,58.25 -52.28,64.62 4.65,0.95 9.45,1.46 14.38,1.46 39.9,0 72.25,-32.35 72.25,-72.25 0,-39.9 -32.35,-162.56 -72.25,-162.56 z"
            fill="#badafd" fill-opacity=".3" />
    </g>
</svg>