<svg height="1024" width="1024" xmlns="http://www.w3.org/2000/svg"><defs><linearGradient gradientUnits="userSpaceOnUse" id="b" spreadMethod="pad" x1="60.952" x2="85.333" y1="-121.905" y2="1170.29"><stop offset=".105" stop-color="#ff2e53"/><stop offset=".606" stop-color="#feda42"/><stop offset=".915" stop-color="#fea747"/></linearGradient><linearGradient gradientUnits="userSpaceOnUse" id="d" spreadMethod="pad" x1="664.389" x2="664.389" y1="769.476" y2="609.795"><stop offset="0" stop-color="#fff"/><stop offset="1" stop-color="#fceebc" stop-opacity=".9"/></linearGradient><linearGradient gradientUnits="userSpaceOnUse" id="e" spreadMethod="pad" x1="617.132" x2="604.855" y1="645.958" y2="582.799"><stop offset="0" stop-color="#fff"/><stop offset="1" stop-color="#fceebc" stop-opacity=".9"/></linearGradient><linearGradient gradientUnits="userSpaceOnUse" id="f" spreadMethod="pad" x1="941.511" x2="-19.293" y1="1026.6" y2="765.541"><stop offset="0" stop-color="#4c1f54"/><stop offset="1" stop-color="#754a6d"/></linearGradient><linearGradient gradientUnits="userSpaceOnUse" id="g" spreadMethod="pad" x1="487.619" x2="463.238" y1="731.428" y2="999.619"><stop offset="0" stop-color="#fff"/><stop offset="1" stop-color="#ffd987"/></linearGradient><linearGradient gradientUnits="userSpaceOnUse" id="h" spreadMethod="pad" x1="966.753" x2="-222.671" y1="1038.29" y2="1018.56"><stop offset="0" stop-color="#36023f"/><stop offset="1" stop-color="#6c3361"/></linearGradient><linearGradient gradientUnits="userSpaceOnUse" id="i" spreadMethod="pad" x1="27.429" x2="24.381" y1="615.619" y2="780.191"><stop offset="0" stop-color="#09000e"/><stop offset="1" stop-color="#380156"/></linearGradient><linearGradient gradientUnits="userSpaceOnUse" id="j" spreadMethod="pad" x1="60.953" x2="182.857" y1="676.572" y2="585.143"><stop offset="0" stop-color="#8b2d7c"/><stop offset="1" stop-color="#f5c471"/></linearGradient><radialGradient cx="0" cy="0" fx="0" fy="0" gradientTransform="matrix(0 786.286 -4956.11 0 493.715 512)" gradientUnits="userSpaceOnUse" id="c" r="1" spreadMethod="pad"><stop offset="0" stop-color="#f7c66b"/><stop offset=".118" stop-color="#ff868c"/><stop offset=".333" stop-color="#661b94"/><stop offset=".95" stop-color="#661b94"/></radialGradient><clipPath id="a"><path d="M 160.00 0.00 L 864.00 0.00 C 952.37 0.00 1024.00 71.63 1024.00 160.00 L 1024.00 864.00 C 1024.00 952.37 952.37 1024.00 864.00 1024.00 L 160.00 1024.00 C 71.63 1024.00 0.00 952.37 0.00 864.00 L 0.00 160.00 C -0.00 71.63 71.63 0.00 160.00 0.00 Z"/></clipPath></defs><g clip-path="url(#a)" transform="matrix(1.10905 0 0 1.10905 -55.833 -55.833)"><path d="m 160,0 h 704 c 88.37,0 160,71.63 160,160 v 704 c 0,88.37 -71.63,160 -160,160 H 160 C 71.63,1024 0,952.37 0,864 V 160 C 0,71.63 71.63,0 160,0 Z" fill="url(#b)"/><path d="m 646.1,499.81 c 0,74.06 -60.04,134.09 -134.1,134.09 -74.06,0 -134.1,-60.03 -134.1,-134.09 0,-74.06 60.04,-134.1 134.1,-134.1 74.06,0 134.1,60.04 134.1,134.1 z" fill="#fdf1dc"/><path d="m 512,1024 c 718.31,83.33 512,-229.23 512,-512 H 0 c 0,282.77 -136.03,548.64 512,512 z" fill="url(#c)"/><path d="m 768,768 c 126.84,9.73 350.31,-30.16 403.41,-75.09 0,0 -275.56,47 -372.68,44.88 -292.83,-6.36 -640,-128 -640,-128 -24.38,0 282.62,133.15 609.27,158.21 z" fill="url(#d)" fill-opacity=".2"/><path d="m 724.1,559.65 c -234.29,32.28 -490.33,-14.36 -456.92,-24 0,0 260.84,21.61 456.92,24 z" fill="#fff" fill-opacity=".2"/><path d="m 786.41,599.7 c 54.73,40.3 -426.79,22.01 -347.55,15.92 79.24,-6.1 262.09,8.03 347.55,-15.92 z" fill="url(#e)" fill-opacity=".2"/><path d="m 1025.68,905.15 c -80.31,177.71 -310.24,316.73 -517.92,316.73 -145.85,0 -317.85,-68.44 -435.48,-170.8 C 46.38,1028.54 17.43,984.23 -2.89,943.74 -22.44,904.77 -19.47,800.38 -5.11,788.23 47.98,743.3 153.18,735.24 280.02,744.97 c 326.65,25.06 469.46,157.62 745.66,157.62 z" fill="url(#f)"/><path d="m 1008.35,938.98 c 6.36,-11.1 12.16,-22.38 17.33,-33.83 v -2.56 C 884.13,902.59 777.62,867.77 663.45,830.46 554.83,794.95 439.27,757.18 280.02,744.97 153.18,735.24 47.98,743.3 -5.11,788.23 v 24.38 c 53.09,-44.93 158.29,-52.99 285.13,-43.26 159.25,12.22 274.81,62.17 383.43,97.68 109.46,35.78 211.89,69.25 344.9,71.95 z" fill="url(#g)" fill-opacity=".25"/><path d="M 1037.99,902.31 C 991.81,1133 759.25,1346.63 515.12,1403 c -171.45,39.58 -392.21,-42.96 -558.27,-131.37 -36.56,-19.46 -82.62,-63.68 -117.49,-105.77 -33.56,-40.5 -34.14,-124.34 -20.56,-142.52 50.22,-67.22 147.44,-144.94 299.18,-167.92 390.79,-59.19 476.82,131.62 919.31,43.87 z" fill="url(#h)"/><path d="M -9.54,826.73 146.29,707.05 H -9.54 Z" fill="#220136" fill-opacity=".5"/><path d="m 1212.95,402.29 c -35.01,0 -54.85,-18.29 -97.52,-18.29 -21.78,0 140.19,52.93 97.52,73.14 -39.6,14.31 -231.62,1.93 -310.85,0 C 822.86,455.22 755.81,512 755.81,512 l 353.52,6.1 -12.19,12.19 286.48,12.19 V 341.33 c 0,0 -48.76,-34.03 -79.24,-6.09 -39.9,36.57 -56.42,67.05 -91.43,67.05 z" fill="#b56c7f"/><path d="m -170.67,402.29 c 35.01,0 54.86,-18.29 97.53,-18.29 21.78,0 60.95,54.86 103.62,75.07 39.59,14.31 84.94,-1.93 109.71,-1.93 24.38,0 146.29,54.86 146.29,54.86 l -353.53,6.1 12.19,12.19 -286.47,12.19 V 341.33 c 0,0 48.76,-34.03 79.23,-6.09 39.9,36.57 56.42,67.05 91.43,67.05 z" fill="#b46a7e"/><path d="M 42.67,654.63 V 615.62 L 0,646.1 v 73.14 h 73.14 l 6.1,-42.67 z" fill="url(#i)"/><path d="m 42.67,655.6 v -39.98 l 85.33,30.48 18.29,60.95 -73.15,12.19 6.1,-42.67 z" fill="url(#j)"/></g></svg>