<svg height="1024" width="1024" xmlns="http://www.w3.org/2000/svg">
    <defs>
        <linearGradient gradientUnits="userSpaceOnUse" id="b" spreadMethod="pad" x1="60.952" x2="85.333" y1="-121.905"
            y2="1170.29">
            <stop offset=".211" stop-color="#1b0e35" />
            <stop offset=".378" stop-color="#311d82" />
        </linearGradient>
        <linearGradient gradientUnits="userSpaceOnUse" id="c" spreadMethod="pad" x1="512" x2="493.714" y1="512"
            y2="1298.29">
            <stop offset="0" stop-color="#470c92" />
            <stop offset=".398" stop-color="#3a16a3" />
            <stop offset=".896" stop-color="#140835" />
        </linearGradient>
        <linearGradient gradientUnits="userSpaceOnUse" id="d" spreadMethod="pad" x1="280.381" x2="532.276" y1="542.476"
            y2="781.122">
            <stop offset="0" stop-color="#feffca" />
            <stop offset=".528" stop-color="#feffca" stop-opacity=".17" />
        </linearGradient>
        <linearGradient gradientUnits="userSpaceOnUse" id="e" spreadMethod="pad" x1="670.476" x2="155.078" y1="743.619"
            y2="558.009">
            <stop offset="0" stop-color="#ed82ff" />
            <stop offset="1" stop-color="#feffca" stop-opacity=".46" />
        </linearGradient>
        <linearGradient gradientUnits="userSpaceOnUse" id="f" spreadMethod="pad" x1="304.762" x2="530.286" y1="591.238"
            y2="505.905">
            <stop offset="0" stop-color="#ed82ff" />
            <stop offset="1" stop-color="#feffca" stop-opacity=".46" />
        </linearGradient>
        <linearGradient gradientUnits="userSpaceOnUse" id="g" spreadMethod="pad" x1="642.099" x2="815.887" y1="659.935"
            y2="582.554">
            <stop offset="0" stop-color="#ed82ff" />
            <stop offset="1" stop-color="#feffca" stop-opacity=".46" />
        </linearGradient>
        <linearGradient gradientUnits="userSpaceOnUse" id="h" spreadMethod="pad" x1="950.858" x2="-19.129" y1="1030.09"
            y2="765.155">
            <stop offset=".442" stop-color="#120534" />
            <stop offset=".916" stop-color="#391468" />
        </linearGradient>
        <linearGradient gradientUnits="userSpaceOnUse" id="i" spreadMethod="pad" x1="853.333" x2="164.571" y1="938.666"
            y2="743.619">
            <stop offset=".32" stop-color="#fff" stop-opacity=".1" />
            <stop offset=".97" stop-color="#feffca" stop-opacity=".5" />
        </linearGradient>
        <linearGradient gradientUnits="userSpaceOnUse" id="j" spreadMethod="pad" x1="959.726" x2="-229.698" y1="1044.31"
            y2="1024.58">
            <stop offset="0" stop-color="#0a0221" />
            <stop offset=".66" stop-color="#2a1563" />
        </linearGradient>
        <linearGradient gradientUnits="userSpaceOnUse" id="k" spreadMethod="pad" x1="27.429" x2="24.381" y1="615.619"
            y2="780.191">
            <stop offset="0" stop-color="#09000e" />
            <stop offset="1" stop-color="#380156" />
        </linearGradient>
        <linearGradient gradientUnits="userSpaceOnUse" id="l" spreadMethod="pad" x1="24.381" x2="182.857" y1="694.857"
            y2="585.143">
            <stop offset=".264" stop-color="#361e7c" />
            <stop offset=".896" stop-color="#feffca" stop-opacity=".5" />
        </linearGradient>
        <clipPath id="a">
            <path
                d="M 160.00 0.00 L 864.00 0.00 C 952.37 0.00 1024.00 71.63 1024.00 160.00 L 1024.00 864.00 C 1024.00 952.37 952.37 1024.00 864.00 1024.00 L 160.00 1024.00 C 71.63 1024.00 0.00 952.37 0.00 864.00 L 0.00 160.00 C -0.00 71.63 71.63 0.00 160.00 0.00 Z" />
        </clipPath>
    </defs>
    <g clip-path="url(#a)" transform="translate(-54.974 -54.974) scale(1.10737)">
        <path
            d="m 160,0 h 704 c 88.37,0 160,71.63 160,160 v 704 c 0,88.37 -71.63,160 -160,160 H 160 C 71.63,1024 0,952.37 0,864 V 160 C 0,71.63 71.63,0 160,0 Z"
            fill="url(#b)" />
        <path d="m 512,1024 c 282.77,0 512,-229.23 512,-512 H 0 c 0,282.77 229.23,512 512,512 z" fill="url(#c)" />
        <path d="M 761.9,536.38 C 827.8,536.31 1267.81,512 1267.81,512 h -1024 c 0,0 315.54,24.61 518.09,24.38 z"
            fill="url(#d)" fill-opacity=".4" />
        <path
            d="m 792.38,750.93 c 126.84,9.73 350.31,-25.28 403.41,-70.2 0,0 -275.55,46.99 -372.68,44.87 -292.82,-6.36 -640,-128 -640,-128 -24.38,0 282.62,128.27 609.27,153.33 z"
            fill="url(#e)" fill-opacity=".4" />
        <path d="m 638.76,571.84 c -234.28,32.28 -490.33,-14.36 -456.91,-24 0,0 260.84,21.62 456.91,24 z" fill="url(#f)"
            fill-opacity=".4" />
        <path d="m 896.13,611.89 c 54.73,40.3 -426.8,22.01 -347.56,15.92 79.24,-6.09 262.1,8.03 347.56,-15.92 z"
            fill="url(#g)" fill-opacity=".4" />
        <path
            d="m 1025.68,905.15 c -80.31,177.71 -310.24,316.73 -517.92,316.73 -145.85,0 -317.85,-68.44 -435.48,-170.8 C 46.38,1028.54 17.43,984.23 -2.89,943.74 -22.44,904.77 -19.47,800.38 -5.11,788.23 47.98,743.3 153.18,735.24 280.02,744.97 c 326.65,25.06 469.46,157.62 745.66,157.62 z"
            fill="url(#h)" />
        <path
            d="m 1008.35,938.98 c 6.36,-11.1 12.16,-22.38 17.33,-33.83 v -2.56 C 884.13,902.59 777.62,867.77 663.45,830.46 554.83,794.95 439.27,757.18 280.02,744.97 153.18,735.24 47.98,743.3 -5.11,788.23 v 24.38 c 53.09,-44.93 158.29,-52.99 285.13,-43.26 159.25,12.22 274.81,62.17 383.43,97.68 109.46,35.78 211.89,69.25 344.9,71.95 z"
            fill="url(#i)" fill-opacity=".45" />
        <path
            d="m 1030.96,908.34 c -46.18,230.68 -278.73,444.32 -522.87,500.68 -171.45,39.58 -392.21,-42.96 -558.26,-131.36 -36.56,-19.47 -82.62,-63.69 -117.49,-105.77 -33.56,-40.51 -34.15,-124.35 -20.57,-142.53 50.23,-67.22 147.44,-144.93 299.18,-167.91 390.79,-59.2 476.82,131.61 919.31,43.87 z"
            fill="url(#j)" />
        <path d="M -8.03,825.22 146.29,707.05 H -8.03 Z" fill="#150529" fill-opacity=".5" />
        <path
            d="m 1212.95,402.29 c -35.01,0 -54.85,-18.29 -97.52,-18.29 -21.78,0 140.19,52.93 97.52,73.14 -39.6,14.31 -231.62,1.93 -310.85,0 C 822.86,455.22 755.81,512 755.81,512 l 353.52,6.1 -12.19,12.19 286.48,12.19 V 341.33 c 0,0 -48.76,-34.03 -79.24,-6.09 -39.9,36.57 -56.42,67.05 -91.43,67.05 z m -1383.62,0 c 35.01,0 54.86,-18.29 97.53,-18.29 21.78,0 60.95,54.86 103.62,75.07 39.59,14.31 84.94,-1.93 109.71,-1.93 24.38,0 146.29,54.86 146.29,54.86 l -353.53,6.1 12.19,12.19 -286.47,12.19 V 341.33 c 0,0 48.76,-34.03 79.23,-6.09 39.9,36.57 56.42,67.05 91.43,67.05 z"
            fill="#1f1332" />
        <path d="M 42.67,654.63 V 615.62 L 0,646.1 v 73.14 h 73.14 l 6.1,-42.67 z" fill="url(#k)" />
        <path d="m 42.67,655.6 v -39.98 l 85.33,30.48 18.29,60.95 -73.15,12.19 6.1,-42.67 z" fill="url(#l)" />
        <path
            d="m 694.86,256 c 0,47.13 -38.21,85.33 -85.34,85.33 -47.12,0 -85.33,-38.2 -85.33,-85.33 0,-47.13 38.21,-85.33 85.33,-85.33 47.13,0 85.34,38.2 85.34,85.33 z"
            fill="#feffca" />
        <path
            d="m 877.71,213.33 c 0,3.37 -2.72,6.1 -6.09,6.1 -3.37,0 -6.1,-2.73 -6.1,-6.1 0,-3.36 2.73,-6.09 6.1,-6.09 3.37,0 6.09,2.73 6.09,6.09 z M 402.29,67.05 c 0,3.36 -2.73,6.09 -6.1,6.09 -3.37,0 -6.1,-2.73 -6.1,-6.09 0,-3.37 2.73,-6.1 6.1,-6.1 3.37,0 6.1,2.73 6.1,6.1 z m -97.53,182.86 c 0,3.36 -2.73,6.09 -6.09,6.09 -3.37,0 -6.1,-2.73 -6.1,-6.09 0,-3.37 2.73,-6.1 6.1,-6.1 3.36,0 6.09,2.73 6.09,6.1 z M 195.05,164.57 c 0,3.37 -2.73,6.1 -6.1,6.1 -3.36,0 -6.09,-2.73 -6.09,-6.1 0,-3.37 2.73,-6.09 6.09,-6.09 3.37,0 6.1,2.72 6.1,6.09 z M 743.62,128 c 0,3.37 -2.73,6.1 -6.1,6.1 -3.36,0 -6.09,-2.73 -6.09,-6.1 0,-3.37 2.73,-6.1 6.09,-6.1 3.37,0 6.1,2.73 6.1,6.1 z"
            fill="#feffcf" />
    </g>
</svg>