<svg width="48" height="48" xmlns="http://www.w3.org/2000/svg"><defs><linearGradient x1="137.991" y1="209.5" x2="274" y2="209.5" id="a" gradientUnits="userSpaceOnUse"><stop stop-color="#EEE" stop-opacity=".19" offset="0%"/><stop stop-color="#FFF" offset="100%"/></linearGradient><linearGradient x1="448.082" y1="152.721" x2="534.726" y2="152.721" id="b" gradientTransform="scale(.65828 1.5191)" gradientUnits="userSpaceOnUse"><stop stop-color="#EEE" stop-opacity=".19" offset="0%"/><stop stop-color="#FFF" offset="100%"/></linearGradient></defs><g transform="matrix(.1 0 0 .1 2 3.2)" fill="none" fill-rule="evenodd"><g fill="#ea94ef"><path d="M 231.85824,399.42033 C 322.30685,418.82581 436.26454,322.87998 438.19762,207.48292 432.75112,94.30013 343.39935,-0.80510011 222.14208,0.00513921 100.88481,0.81537853 21.086616,119.89365 15.802696,207.48292 9.6355912,307.28026 108.64564,389.25076 231.85824,399.42033 Z" opacity=".2"/><path d="M 194.11765,415.31743 C 298.44118,419.92842 390.52829,324.22395 388.23529,238.90013 377.37391,127.20332 301.32586,39.363278 194.11765,47.095109 86.909431,54.826939 0,133.81166 0,223.51241 2.8582242,295.05859 90.762047,402.91958 194.11765,415.31743 Z" opacity=".3"/><path d="M 207.92311,378.45196 C 329.17514,399.41906 412.85995,307.79228 412.38677,207.19685 419.92571,112.25438 303.59053,9.6038633 196.30556,13.033983 c -112.393583,0 -181.960125,85.722022 -180.760889,175.461507 6.113277,48.5892 32.867947,172.28657 192.378439,189.95647 z" opacity=".4"/><path d="M 193.18164,374.49812 C 301.53536,396.14275 386.31222,368.73367 385.13009,207.21663 361.23779,87.087279 272.50354,44.977859 201.88235,45.674969 73.49106,50.748884 23.723162,120.22466 18.634602,207.21663 27.247047,258.65367 77.060923,362.21005 193.18164,374.49812 Z" opacity=".4"/><path d="M 195.43098,335.60975 C 298.6986,321.7706 368.30214,258.8165 369.99012,186.11046 382.85662,81.074808 305.70353,23.423181 203.19569,28.840987 111.06308,50.304775 59.496939,107.24108 46.754193,186.11046 46.6357,254.06628 36.50534,362.53918 195.43098,335.60975 Z" opacity=".6"/></g><circle fill="url(#a)" cx="196.5" cy="209.5" r="77.5"/><path d="m 287,163.35814 c 20.46185,-8.77687 48.85201,-10.19182 58.70322,6.93812 9.68907,16.84079 6.32134,36.65217 -10.10119,59.42925 l -5.53225,7.72777 c -8.8444,12.11908 -14.167,21.45063 -15.96318,27.98168 -1.79878,6.5371 -0.83575,13.03903 2.88535,19.50521 4.91365,8.5471 12.80107,12.10755 23.6709,10.69289 v 0 c 5.90318,-0.73689 9.39763,-0.15943 10.48709,1.73265 1.61302,2.80598 0.9302,5.07545 -2.04616,6.79657 -6.01838,3.48953 -13.35804,3.76082 -22.02217,0.81357 -8.66498,-2.95301 -14.97999,-7.86931 -18.94616,-14.76592 -9.82097,-17.07661 -5.30532,-36.9765 13.54927,-59.70054 l 3.30034,-3.98482 c 16.12475,-19.43429 20.08516,-36.2869 11.87692,-50.56359 -3.67761,-6.38978 -12.93988,-8.55315 -23.18218,-8.17001 -7.74314,0.28282 -16.01358,2.0397 -22.89045,4.49165" fill="url(#b)"/><path d="m 195.11941,106 c 40.45649,0 75.41271,23.62246 91.94544,57.86668 l 3.78557,8.9144 c 4.12304,11.12226 6.38494,23.15134 6.38494,35.71633 C 297.23536,265.10941 251.51711,311 195.11941,311 138.72141,311 93,265.10941 93,208.49741 93,151.89059 138.72141,106 195.11941,106 Z m 0.18574,129.74683 c -12.15932,0 -22.01515,9.87773 -22.01515,22.06024 0,12.18221 9.85583,22.05369 22.01515,22.05369 12.15932,0 22.01485,-9.87148 22.01485,-22.05369 0,-12.18251 -9.85553,-22.06024 -22.01485,-22.06024 z m -46.62,-46.70886 c -12.15932,0 -22.01515,9.8761 -22.01515,22.05697 0,12.18056 9.85583,22.05696 22.01515,22.05696 12.15932,0 22.01485,-9.8764 22.01485,-22.05696 0,-12.18087 -9.85553,-22.05697 -22.01485,-22.05697 z m 93.24,0 c -12.15962,0 -22.01515,9.8761 -22.01515,22.05697 0,12.18056 9.85553,22.05696 22.01515,22.05696 12.15932,0 22.01485,-9.8764 22.01485,-22.05696 0,-12.18087 -9.85553,-22.05697 -22.01485,-22.05697 z m -49.2103,12.97469 c -5.00705,0 -9.06485,4.06847 -9.06485,9.08228 0,5.0138 4.0578,9.08227 9.06485,9.08227 5.00735,0 9.06515,-4.06847 9.06515,-9.08227 0,-5.01381 -4.0578,-9.08228 -9.06515,-9.08228 z m 2.5903,-62.27848 c -12.15932,0 -22.01515,9.87148 -22.01515,22.05398 0,12.18251 9.85583,22.05994 22.01515,22.05994 12.15932,0 22.01485,-9.87743 22.01485,-22.05994 0,-12.1825 -9.85553,-22.05398 -22.01485,-22.05398 z" fill="#fff" fill-rule="nonzero"/></g></svg>