<svg width="480" height="480" xmlns="http://www.w3.org/2000/svg"><defs><linearGradient x1="120.857" y1="389.594" x2="120.857" y2="511.003" id="a" gradientTransform="scale(1.81207 .55186)" gradientUnits="userSpaceOnUse"><stop stop-color="#FFF" stop-opacity=".201" offset="0%"/><stop stop-color="#FFF" offset="100%"/></linearGradient></defs><g fill="none" fill-rule="evenodd"><path d="M 232.69376,400.55936 C 109.03716,390.3608 9.6703141,308.15653 15.859642,208.0746 21.162603,120.23555 101.24836,0.81770376 222.94259,0.00515387 344.63682,-0.80739602 434.31059,94.569047 439.77671,208.0746 437.83666,323.80074 323.46831,420.02018 232.69376,400.55936 Z" fill="#9f8ff8" opacity=".2" transform="matrix(1 0 0 1 20 32)"/><path d="M 194.81717,416.5018 C 91.089117,404.06859 2.8685241,295.90001 0,224.14981 0,134.19325 87.222618,54.98329 194.81717,47.22941 c 107.59455,-7.753879 183.91665,80.33665 194.81717,192.35199 2.30126,85.56714 -90.1177,181.54453 -194.81717,176.9204 z" fill="#ab9cf9" opacity=".3" transform="matrix(1 0 0 1 20 32)"/><path d="M 208.67238,379.5312 C 48.587078,361.81091 21.735994,237.76078 15.600688,189.03303 14.39713,99.037628 84.214363,13.071152 197.01296,13.071152 304.68455,9.6312508 421.43895,112.5745 413.87285,207.78772 414.34774,308.67001 330.36136,400.55809 208.67238,379.5312 Z" fill="#9f8ff8" opacity=".4" transform="matrix(1 0 0 1 20 32)"/><path d="M 193.87779,375.56608 C 77.33862,363.24297 27.345234,259.39128 18.701754,207.80755 23.808651,120.56751 73.755893,50.893605 202.60986,45.80522 c 70.87567,-0.699097 159.92969,41.530407 183.90808,162.00233 1.18639,161.97764 -83.89597,189.46489 -192.64015,167.75853 z" fill="#9f8ff8" opacity=".4" transform="matrix(1 0 0 1 20 32)"/><path d="M 196.13524,336.56682 C 36.636891,363.57304 46.803757,254.7908 46.922677,186.6412 59.711342,107.5469 111.46331,50.448229 203.92792,28.923234 306.80517,23.489977 384.23629,81.30601 371.32342,186.6412 369.62936,259.55457 299.77499,322.68819 196.13524,336.56682 Z" fill="#9f8ff8" opacity=".6" transform="matrix(1 0 0 1 20 32)"/><path d="m 220,122 c 53.57162,0 97,43.71225 97,97.63405 l -10e-4,0.18595 -0.18512,-1.2e-4 C 316.93579,220.38169 317,220.965 317,221.56332 v 18.25355 c 0,4.51942 -3.66371,8.18313 -8.18313,8.18313 -4.51941,0 -8.18313,-3.66371 -8.18313,-8.18313 v -18.25355 c 0,-0.59832 0.0642,-1.18163 0.18613,-1.74344 l -0.1413,6e-4 2.1e-4,-0.18643 c 0,-44.84891 -36.12112,-81.20614 -80.67878,-81.20614 -44.55766,0 -80.67878,36.35723 -80.67878,81.20614 l 0.002,0.18595 -0.14287,-1.2e-4 c 0.12191,0.56181 0.18612,1.14512 0.18612,1.74344 v 18.25355 c 0,4.51942 -3.66371,8.18313 -8.18312,8.18313 C 126.66371,248 123,244.33629 123,239.81687 v -18.25355 c 0,-0.59832 0.0642,-1.18163 0.18612,-1.74344 l -0.18595,5.5e-4 L 123,219.63405 C 123,165.71225 166.42838,122 220,122 Z" fill="#fff" transform="matrix(1 0 0 1 20 32)"/><path d="m 132.31522,215 c 12.87664,0 23.31521,10.43858 23.31521,23.31522 v 20.36956 C 155.63043,271.56142 145.19186,282 132.31522,282 119.43858,282 109,271.56142 109,258.68478 V 238.31522 C 109,225.43858 119.43858,215 132.31522,215 Z m 173.36956,0 C 318.56142,215 329,225.43858 329,238.31522 v 20.36956 C 329,271.56142 318.56142,282 305.68478,282 292.80814,282 282.36957,271.56142 282.36957,258.68478 V 238.31522 C 282.36957,225.43858 292.80814,215 305.68478,215 Z" fill="url(#a)" transform="matrix(1 0 0 1 20 32)"/></g></svg>